<?xml version="1.0" encoding="UTF-8" standalone="no"?>
<!-- Generator: Adobe Illustrator 15.1.0, SVG Export Plug-In . SVG Version: 6.00 Build 0)  -->

<svg
   xmlns:dc="http://purl.org/dc/elements/1.1/"
   xmlns:cc="http://creativecommons.org/ns#"
   xmlns:rdf="http://www.w3.org/1999/02/22-rdf-syntax-ns#"
   xmlns:svg="http://www.w3.org/2000/svg"
   xmlns="http://www.w3.org/2000/svg"
   xmlns:sodipodi="http://sodipodi.sourceforge.net/DTD/sodipodi-0.dtd"
   xmlns:inkscape="http://www.inkscape.org/namespaces/inkscape"
   width="5.70861in"
   x="0px"
   version="1.1"
   y="0px"
   gorn="0"
   height="7.59847in"
   viewBox="0 0 411.02 547.09"
   id="Layer_1"
   enable-background="new 0 0 411.02 547.09"
   xml:space="preserve"
   inkscape:version="0.48.3.1 r9886"
   sodipodi:docname="svg.icon.Espruino_8e1efbaf4636b366bccfde1f53fdc607_6_icon.svg"><metadata
   id="metadata5328"><rdf:RDF><cc:Work
       rdf:about=""><dc:format>image/svg+xml</dc:format><dc:type
         rdf:resource="http://purl.org/dc/dcmitype/StillImage" /><dc:title></dc:title></cc:Work></rdf:RDF></metadata><defs
   id="defs5326" /><sodipodi:namedview
   pagecolor="#ffffff"
   bordercolor="#666666"
   borderopacity="1"
   objecttolerance="10"
   gridtolerance="10"
   guidetolerance="10"
   inkscape:pageopacity="0"
   inkscape:pageshadow="2"
   inkscape:window-width="1358"
   inkscape:window-height="1018"
   id="namedview5324"
   showgrid="false"
   inkscape:zoom="0.97608655"
   inkscape:cx="42.653668"
   inkscape:cy="387.3681"
   inkscape:window-x="0"
   inkscape:window-y="24"
   inkscape:window-maximized="0"
   inkscape:current-layer="Layer_1" />
    <desc
   id="desc4550">
        <referenceFile
   id="referenceFile4552">Espruino.svg</referenceFile>
    </desc>
    <rect
   width="411"
   x="0.01"
   y="0.545"
   fill="#24AE5A"
   height="546"
   id="rect4554" />
    <circle
   fill="#7EAB99"
   cx="384.005"
   cy="28.212"
   r="7.667"
   id="circle4556" />
    <circle
   fill="#7EAB99"
   cx="384.005"
   cy="54.879"
   r="7.667"
   id="circle4558" />
    <circle
   fill="#7EAB99"
   cx="384.005"
   cy="79.879"
   r="7.667"
   id="circle4560" />
    <circle
   fill="#7EAB99"
   cx="384.005"
   cy="106.546"
   r="7.667"
   id="circle4562" />
    <circle
   fill="#7EAB99"
   cx="384.005"
   cy="131.879"
   r="7.667"
   id="circle4564" />
    <circle
   fill="#7EAB99"
   cx="384.005"
   cy="158.213"
   r="7.667"
   id="circle4566" />
    <circle
   fill="#7EAB99"
   cx="384.005"
   cy="183.546"
   r="7.667"
   id="circle4568" />
    <circle
   fill="#7EAB99"
   cx="384.005"
   cy="210.213"
   r="7.667"
   id="circle4570" />
    <circle
   fill="#7EAB99"
   cx="384.005"
   cy="235.213"
   r="7.667"
   id="circle4572" />
    <circle
   fill="#7EAB99"
   cx="358.671"
   cy="183.546"
   r="7.667"
   id="circle4574" />
    <circle
   fill="#7EAB99"
   cx="358.671"
   cy="210.213"
   r="7.667"
   id="circle4576" />
    <circle
   fill="#7EAB99"
   cx="358.671"
   cy="235.213"
   r="7.667"
   id="circle4578" />
    <circle
   fill="#7EAB99"
   cx="333.671"
   cy="235.213"
   r="7.667"
   id="circle4580" />
    <circle
   fill="#7EAB99"
   cx="308.337"
   cy="235.213"
   r="7.667"
   id="circle4582" />
    <circle
   fill="#7EAB99"
   cx="282.338"
   cy="235.213"
   r="7.667"
   id="circle4584" />
    <circle
   fill="#7EAB99"
   cx="257.004"
   cy="235.213"
   r="7.667"
   id="circle4586" />
    <circle
   fill="#7EAB99"
   cx="231.005"
   cy="235.213"
   r="7.667"
   id="circle4588" />
    <circle
   fill="#7EAB99"
   cx="205.671"
   cy="235.213"
   r="7.667"
   id="circle4590" />
    <circle
   fill="#7EAB99"
   cx="180.338"
   cy="235.213"
   r="7.667"
   id="circle4592" />
    <circle
   fill="#7EAB99"
   cx="155.004"
   cy="235.213"
   r="7.667"
   id="circle4594" />
    <circle
   fill="#7EAB99"
   cx="129.671"
   cy="235.213"
   r="7.667"
   id="circle4596" />
    <circle
   fill="#7EAB99"
   cx="384.005"
   cy="262.213"
   r="7.667"
   id="circle4598" />
    <circle
   fill="#7EAB99"
   cx="384.005"
   cy="287.489"
   r="7.667"
   id="circle4600" />
    <circle
   fill="#7EAB99"
   cx="384.005"
   cy="314.156"
   r="7.667"
   id="circle4602" />
    <circle
   fill="#7EAB99"
   cx="384.005"
   cy="340.156"
   r="7.667"
   id="circle4604" />
    <circle
   fill="#7EAB99"
   cx="384.005"
   cy="366.489"
   r="7.667"
   id="circle4606" />
    <circle
   fill="#7EAB99"
   cx="384.005"
   cy="392.457"
   r="7.667"
   id="circle4608" />
    <circle
   fill="#7EAB99"
   cx="384.005"
   cy="418.457"
   r="7.667"
   id="circle4610" />
    <circle
   fill="#7EAB99"
   cx="384.005"
   cy="444.79"
   r="7.667"
   id="circle4612" />
    <circle
   fill="#7EAB99"
   cx="384.005"
   cy="469.124"
   r="7.667"
   id="circle4614" />
    <circle
   fill="#7EAB99"
   cx="384.005"
   cy="495.124"
   r="7.667"
   id="circle4616" />
    <circle
   fill="#7EAB99"
   cx="384.005"
   cy="521.457"
   r="7.667"
   id="circle4618" />
    <circle
   fill="#7EAB99"
   cx="27.608"
   cy="28.212"
   r="7.667"
   id="circle4620" />
    <circle
   fill="#7EAB99"
   cx="27.608"
   cy="54.879"
   r="7.667"
   id="circle4622" />
    <circle
   fill="#7EAB99"
   cx="27.608"
   cy="79.879"
   r="7.667"
   id="circle4624" />
    <circle
   fill="#7EAB99"
   cx="27.608"
   cy="106.546"
   r="7.667"
   id="circle4626" />
    <circle
   fill="#7EAB99"
   cx="27.608"
   cy="131.879"
   r="7.667"
   id="circle4628" />
    <circle
   fill="#7EAB99"
   cx="27.608"
   cy="158.213"
   r="7.667"
   id="circle4630" />
    <circle
   fill="#7EAB99"
   cx="27.608"
   cy="183.546"
   r="7.667"
   id="circle4632" />
    <circle
   fill="#7EAB99"
   cx="27.608"
   cy="210.213"
   r="7.667"
   id="circle4634" />
    <circle
   fill="#7EAB99"
   cx="27.608"
   cy="235.213"
   r="7.667"
   id="circle4636" />
    <circle
   fill="#7EAB99"
   cx="27.608"
   cy="262.213"
   r="7.667"
   id="circle4638" />
    <circle
   fill="#7EAB99"
   cx="27.608"
   cy="287.489"
   r="7.667"
   id="circle4640" />
    <circle
   fill="#7EAB99"
   cx="27.608"
   cy="314.156"
   r="7.667"
   id="circle4642" />
    <circle
   fill="#7EAB99"
   cx="27.608"
   cy="340.156"
   r="7.667"
   id="circle4644" />
    <circle
   fill="#7EAB99"
   cx="27.608"
   cy="366.489"
   r="7.667"
   id="circle4646" />
    <circle
   fill="#7EAB99"
   cx="27.608"
   cy="392.457"
   r="7.667"
   id="circle4648" />
    <circle
   fill="#7EAB99"
   cx="27.608"
   cy="418.457"
   r="7.667"
   id="circle4650" />
    <circle
   fill="#7EAB99"
   cx="27.608"
   cy="444.79"
   r="7.667"
   id="circle4652" />
    <circle
   fill="#7EAB99"
   cx="27.608"
   cy="469.124"
   r="7.667"
   id="circle4654" />
    <circle
   fill="#7EAB99"
   cx="27.608"
   cy="495.124"
   r="7.667"
   id="circle4656" />
    <circle
   fill="#7EAB99"
   cx="27.608"
   cy="521.457"
   r="7.667"
   id="circle4658" />
    <circle
   fill="#7EAB99"
   cx="52.608"
   cy="444.79"
   r="7.667"
   id="circle4660" />
    <circle
   fill="#7EAB99"
   cx="52.608"
   cy="469.124"
   r="7.667"
   id="circle4662" />
    <circle
   fill="#7EAB99"
   cx="52.608"
   cy="495.124"
   r="7.667"
   id="circle4664" />
    <circle
   fill="#7EAB99"
   cx="52.608"
   cy="521.457"
   r="7.667"
   id="circle4666" />
    <circle
   fill="#7EAB99"
   cx="78.941"
   cy="444.79"
   r="7.667"
   id="circle4668" />
    <circle
   fill="#7EAB99"
   cx="78.941"
   cy="469.124"
   r="7.667"
   id="circle4670" />
    <circle
   fill="#7EAB99"
   cx="78.941"
   cy="495.124"
   r="7.667"
   id="circle4672" />
    <circle
   fill="#7EAB99"
   cx="78.941"
   cy="521.457"
   r="7.667"
   id="circle4674" />
    <circle
   fill="#7EAB99"
   cx="104.607"
   cy="444.79"
   r="7.667"
   id="circle4676" />
    <circle
   fill="#7EAB99"
   cx="104.607"
   cy="469.124"
   r="7.667"
   id="circle4678" />
    <circle
   fill="#7EAB99"
   cx="104.607"
   cy="495.124"
   r="7.667"
   id="circle4680" />
    <circle
   fill="#7EAB99"
   cx="104.607"
   cy="521.457"
   r="7.667"
   id="circle4682" />
    <circle
   fill="#7EAB99"
   cx="358.671"
   cy="287.489"
   r="7.667"
   id="circle4684" />
    <circle
   fill="#7EAB99"
   cx="358.671"
   cy="314.156"
   r="7.667"
   id="circle4686" />
    <circle
   fill="#7EAB99"
   cx="358.671"
   cy="340.156"
   r="7.667"
   id="circle4688" />
    <circle
   fill="#7EAB99"
   cx="358.671"
   cy="366.489"
   r="7.667"
   id="circle4690" />
    <circle
   fill="#7EAB99"
   cx="358.671"
   cy="392.457"
   r="7.667"
   id="circle4692" />
    <circle
   fill="#7EAB99"
   cx="358.671"
   cy="418.457"
   r="7.667"
   id="circle4694" />
    <circle
   fill="#7EAB99"
   cx="358.671"
   cy="444.79"
   r="7.667"
   id="circle4696" />
    <circle
   fill="#7EAB99"
   cx="358.671"
   cy="469.124"
   r="7.667"
   id="circle4698" />
    <circle
   fill="#7EAB99"
   cx="358.671"
   cy="495.124"
   r="7.667"
   id="circle4700" />
    <circle
   fill="#7EAB99"
   cx="358.671"
   cy="521.457"
   r="7.667"
   id="circle4702" />
    <circle
   fill="#7EAB99"
   cx="333.671"
   cy="287.489"
   r="7.667"
   id="circle4704" />
    <circle
   fill="#7EAB99"
   cx="333.671"
   cy="314.156"
   r="7.667"
   id="circle4706" />
    <circle
   fill="#7EAB99"
   cx="333.671"
   cy="340.156"
   r="7.667"
   id="circle4708" />
    <circle
   fill="#7EAB99"
   cx="333.671"
   cy="366.489"
   r="7.667"
   id="circle4710" />
    <circle
   fill="#7EAB99"
   cx="333.671"
   cy="392.457"
   r="7.667"
   id="circle4712" />
    <circle
   fill="#7EAB99"
   cx="333.671"
   cy="418.457"
   r="7.667"
   id="circle4714" />
    <circle
   fill="#7EAB99"
   cx="333.671"
   cy="444.79"
   r="7.667"
   id="circle4716" />
    <circle
   fill="#7EAB99"
   cx="333.671"
   cy="469.124"
   r="7.667"
   id="circle4718" />
    <circle
   fill="#7EAB99"
   cx="333.671"
   cy="495.124"
   r="7.667"
   id="circle4720" />
    <circle
   fill="#7EAB99"
   cx="333.671"
   cy="521.457"
   r="7.667"
   id="circle4722" />
    <circle
   fill="#7EAB99"
   cx="309.339"
   cy="495.124"
   r="7.667"
   id="circle4724" />
    <circle
   fill="#7EAB99"
   cx="309.339"
   cy="521.457"
   r="7.667"
   id="circle4726" />
    <circle
   fill="#7EAB99"
   cx="284.005"
   cy="495.124"
   r="7.667"
   id="circle4728" />
    <circle
   fill="#7EAB99"
   cx="284.005"
   cy="521.457"
   r="7.667"
   id="circle4730" />
    <circle
   fill="#7EAB99"
   cx="259.005"
   cy="495.124"
   r="7.667"
   id="circle4732" />
    <circle
   fill="#7EAB99"
   cx="259.005"
   cy="521.457"
   r="7.667"
   id="circle4734" />
    <circle
   fill="#7EAB99"
   cx="231.672"
   cy="495.124"
   r="7.667"
   id="circle4736" />
    <circle
   fill="#7EAB99"
   cx="231.672"
   cy="521.457"
   r="7.667"
   id="circle4738" />
    <circle
   fill="#7EAB99"
   cx="206.338"
   cy="495.124"
   r="7.667"
   id="circle4740" />
    <circle
   fill="#7EAB99"
   cx="206.338"
   cy="521.457"
   r="7.667"
   id="circle4742" />
    <circle
   fill="#7EAB99"
   cx="181.338"
   cy="495.124"
   r="7.667"
   id="circle4744" />
    <circle
   fill="#7EAB99"
   cx="181.338"
   cy="521.457"
   r="7.667"
   id="circle4746" />
    <circle
   fill="#7EAB99"
   cx="155.004"
   cy="287.489"
   r="7.667"
   id="circle4748" />
    <circle
   fill="#7EAB99"
   cx="155.004"
   cy="314.156"
   r="7.667"
   id="circle4750" />
    <circle
   fill="#7EAB99"
   cx="155.004"
   cy="340.156"
   r="7.667"
   id="circle4752" />
    <circle
   fill="#7EAB99"
   cx="155.004"
   cy="366.489"
   r="7.667"
   id="circle4754" />
    <circle
   fill="#7EAB99"
   cx="155.004"
   cy="392.457"
   r="7.667"
   id="circle4756" />
    <circle
   fill="#7EAB99"
   cx="155.004"
   cy="418.457"
   r="7.667"
   id="circle4758" />
    <circle
   fill="#7EAB99"
   cx="155.004"
   cy="444.79"
   r="7.667"
   id="circle4760" />
    <circle
   fill="#7EAB99"
   cx="155.004"
   cy="469.124"
   r="7.667"
   id="circle4762" />
    <circle
   fill="#7EAB99"
   cx="155.004"
   cy="495.124"
   r="7.667"
   id="circle4764" />
    <circle
   fill="#7EAB99"
   cx="155.004"
   cy="521.457"
   r="7.667"
   id="circle4766" />
    <circle
   fill="#7EAB99"
   cx="129.671"
   cy="287.489"
   r="7.667"
   id="circle4768" />
    <circle
   fill="#7EAB99"
   cx="129.671"
   cy="314.156"
   r="7.667"
   id="circle4770" />
    <circle
   fill="#7EAB99"
   cx="129.671"
   cy="340.156"
   r="7.667"
   id="circle4772" />
    <circle
   fill="#7EAB99"
   cx="129.671"
   cy="366.489"
   r="7.667"
   id="circle4774" />
    <circle
   fill="#7EAB99"
   cx="129.671"
   cy="392.457"
   r="7.667"
   id="circle4776" />
    <circle
   fill="#7EAB99"
   cx="129.671"
   cy="418.457"
   r="7.667"
   id="circle4778" />
    <circle
   fill="#7EAB99"
   cx="129.671"
   gorn="0.114"
   cy="444.79"
   id="connector_8_"
   r="7.667" />
    <circle
   fill="#7EAB99"
   cx="129.671"
   gorn="0.115"
   cy="469.124"
   id="connector_3_"
   r="7.667" />
    <circle
   fill="#7EAB99"
   cx="129.671"
   gorn="0.116"
   cy="495.124"
   id="connector_2_"
   r="7.667" />
    <circle
   fill="#7EAB99"
   cx="129.671"
   gorn="0.117"
   cy="521.457"
   id="connector_1_"
   r="7.667" />
    <g
   id="g4784">
        <path
   fill="#929C83"
   d="M112.608,287.294c0,3.131-2.538,5.669-5.669,5.669H58.277c-3.131,0-5.669-2.538-5.669-5.669v-50.162c0-3.131,2.538-5.669,5.669-5.669h48.662c3.131,0,5.669,2.538,5.669,5.669V287.294z"
   id="path4786" />
        <circle
   fill="#534637"
   cx="84.014"
   cy="262.213"
   r="18.25"
   id="circle4788" />
        <circle
   fill="#958671"
   cx="62.01"
   cy="240.963"
   r="5.75"
   id="circle4790" />
        <circle
   fill="#958671"
   cx="104.51"
   cy="240.963"
   r="5.75"
   id="circle4792" />
        <circle
   fill="#958671"
   cx="62.01"
   cy="284.463"
   r="5.75"
   id="circle4794" />
        <circle
   fill="#958671"
   cx="104.51"
   cy="284.463"
   r="5.75"
   id="circle4796" />
    </g>
    <g
   id="g4798">
        <path
   fill="#929C83"
   d="M112.608,405.121c0,3.131-2.538,5.669-5.669,5.669H58.277c-3.131,0-5.669-2.538-5.669-5.669v-50.162c0-3.131,2.538-5.669,5.669-5.669h48.662c3.131,0,5.669,2.538,5.669,5.669V405.121z"
   id="path4800" />
        <circle
   fill="#534637"
   cx="84.014"
   cy="380.04"
   r="18.25"
   id="circle4802" />
        <circle
   fill="#958671"
   cx="62.01"
   cy="358.79"
   r="5.75"
   id="circle4804" />
        <circle
   fill="#958671"
   cx="104.51"
   cy="358.79"
   r="5.75"
   id="circle4806" />
        <circle
   fill="#958671"
   cx="62.01"
   cy="402.29"
   r="5.75"
   id="circle4808" />
        <circle
   fill="#958671"
   cx="104.51"
   cy="402.29"
   r="5.75"
   id="circle4810" />
    </g>
    <rect
   width="34.504"
   x="67.76"
   y="114.213"
   fill="#2A2D26"
   height="65.332"
   id="rect4812" />
    <rect
   width="97"
   x="221.01"
   y="76.045"
   fill="#2A2D26"
   height="99.834"
   id="rect4814" />
    <rect
   width="33"
   x="129.671"
   y="38.045"
   fill="#2A2D26"
   height="49.501"
   id="rect4816" />
    <rect
   width="82.161"
   x="47.51"
   y="6.545"
   fill="#FAF9DD"
   height="63.5"
   id="rect4818" />
    <rect
   width="11"
   x="65.01"
   y="26.045"
   fill="#736C47"
   height="34"
   id="rect4820" />
    <rect
   width="11"
   x="65.01"
   y="60.045"
   fill="#D5D1AE"
   height="10"
   id="rect4822" />
    <rect
   width="11"
   x="102.264"
   y="26.045"
   fill="#736C47"
   height="34"
   id="rect4824" />
    <rect
   width="11"
   x="102.264"
   y="60.045"
   fill="#D5D1AE"
   height="10"
   id="rect4826" />
    <g
   id="g4828">
        <rect
   width="4"
   x="206.511"
   y="188.545"
   fill="#FEFDF2"
   height="8"
   id="rect4830" />
        <rect
   width="7.667"
   x="210.511"
   y="188.545"
   fill="#867751"
   height="8"
   id="rect4832" />
        <rect
   width="4"
   x="218.178"
   y="188.545"
   fill="#FEFDF2"
   height="8"
   id="rect4834" />
    </g>
    <g
   id="g4836">
        <rect
   width="4"
   x="304.343"
   y="196.545"
   fill="#FEFDF2"
   height="8"
   id="rect4838" />
        <rect
   width="7.667"
   x="308.343"
   y="196.545"
   fill="#867751"
   height="8"
   id="rect4840" />
        <rect
   width="4"
   x="316.01"
   y="196.545"
   fill="#FEFDF2"
   height="8"
   id="rect4842" />
    </g>
    <g
   id="g4844">
        <rect
   width="4"
   x="325.677"
   y="71.211"
   fill="#FEFDF2"
   height="8"
   id="rect4846" />
        <rect
   width="7.667"
   x="329.677"
   y="71.211"
   fill="#867751"
   height="8"
   id="rect4848" />
        <rect
   width="4"
   x="337.344"
   y="71.211"
   fill="#FEFDF2"
   height="8"
   id="rect4850" />
    </g>
    <g
   id="g4852">
        <rect
   width="8"
   x="208.511"
   y="59.544"
   fill="#FEFDF2"
   height="4"
   id="rect4854" />
        <rect
   width="8"
   x="208.511"
   y="63.544"
   fill="#867751"
   height="7.667"
   id="rect4856" />
        <rect
   width="8"
   x="208.511"
   y="71.211"
   fill="#FEFDF2"
   height="4"
   id="rect4858" />
    </g>
    <rect
   width="63"
   x="246.677"
   y="274.212"
   fill="#E3F1E2"
   height="5.333"
   id="rect4860" />
    <rect
   width="63"
   x="246.677"
   y="287.489"
   fill="#E3F1E2"
   height="5.333"
   id="rect4862" />
    <rect
   width="63"
   x="246.677"
   y="300.545"
   fill="#E3F1E2"
   height="5.333"
   id="rect4864" />
    <rect
   width="63"
   x="246.677"
   y="313.822"
   fill="#E3F1E2"
   height="5.333"
   id="rect4866" />
    <rect
   width="63"
   x="246.677"
   y="326.545"
   fill="#E3F1E2"
   height="5.333"
   id="rect4868" />
    <rect
   width="63"
   x="246.677"
   y="339.822"
   fill="#E3F1E2"
   height="5.333"
   id="rect4870" />
    <rect
   width="63"
   x="246.677"
   y="352.878"
   fill="#E3F1E2"
   height="5.333"
   id="rect4872" />
    <rect
   width="63"
   x="246.677"
   y="366.155"
   fill="#E3F1E2"
   height="5.333"
   id="rect4874" />
    <rect
   width="63"
   x="246.677"
   y="378.212"
   fill="#E3F1E2"
   height="5.333"
   id="rect4876" />
    <rect
   width="63"
   x="246.677"
   y="391.489"
   fill="#E3F1E2"
   height="5.333"
   id="rect4878" />
    <rect
   width="63"
   x="246.677"
   y="404.545"
   fill="#E3F1E2"
   height="5.333"
   id="rect4880" />
    <rect
   width="63"
   x="246.677"
   y="417.822"
   fill="#E3F1E2"
   height="5.333"
   id="rect4882" />
    <rect
   width="63"
   x="246.677"
   y="430.545"
   fill="#E3F1E2"
   height="5.333"
   id="rect4884" />
    <rect
   width="63"
   x="246.677"
   y="443.822"
   fill="#E3F1E2"
   height="5.333"
   id="rect4886" />
    <rect
   width="63"
   x="246.677"
   y="456.878"
   fill="#E3F1E2"
   height="5.333"
   id="rect4888" />
    <rect
   width="63"
   x="246.677"
   y="470.155"
   fill="#E3F1E2"
   height="5.333"
   id="rect4890" />
    <rect
   width="63"
   x="175.011"
   y="274.212"
   fill="#E3F1E2"
   height="5.333"
   id="rect4892" />
    <rect
   width="63"
   x="175.011"
   y="287.489"
   fill="#E3F1E2"
   height="5.333"
   id="rect4894" />
    <rect
   width="63"
   x="175.011"
   y="300.545"
   fill="#E3F1E2"
   height="5.333"
   id="rect4896" />
    <rect
   width="63"
   x="175.011"
   y="313.822"
   fill="#E3F1E2"
   height="5.333"
   id="rect4898" />
    <rect
   width="63"
   x="175.011"
   y="326.545"
   fill="#E3F1E2"
   height="5.333"
   id="rect4900" />
    <rect
   width="63"
   x="175.011"
   y="339.822"
   fill="#E3F1E2"
   height="5.333"
   id="rect4902" />
    <rect
   width="63"
   x="175.011"
   y="352.878"
   fill="#E3F1E2"
   height="5.333"
   id="rect4904" />
    <rect
   width="63"
   x="175.011"
   y="366.155"
   fill="#E3F1E2"
   height="5.333"
   id="rect4906" />
    <rect
   width="63"
   x="175.011"
   y="378.212"
   fill="#E3F1E2"
   height="5.333"
   id="rect4908" />
    <rect
   width="63"
   x="175.011"
   y="391.489"
   fill="#E3F1E2"
   height="5.333"
   id="rect4910" />
    <rect
   width="63"
   x="175.011"
   y="404.545"
   fill="#E3F1E2"
   height="5.333"
   id="rect4912" />
    <rect
   width="63"
   x="175.011"
   y="417.822"
   fill="#E3F1E2"
   height="5.333"
   id="rect4914" />
    <rect
   width="63"
   x="175.011"
   y="430.545"
   fill="#E3F1E2"
   height="5.333"
   id="rect4916" />
    <rect
   width="63"
   x="175.011"
   y="443.822"
   fill="#E3F1E2"
   height="5.333"
   id="rect4918" />
    <rect
   width="63"
   x="175.011"
   y="456.878"
   fill="#E3F1E2"
   height="5.333"
   id="rect4920" />
    <rect
   width="63"
   x="175.011"
   y="470.155"
   fill="#E3F1E2"
   height="5.333"
   id="rect4922" />
    <g
   transform="matrix(-4.371139e-008 1 -1 -4.371139e-008 4.1509 21.1929)"
   id="g4924">
        <g
   id="g4926">
            <g
   id="g4928">
                <text
   fill="#C0E0B8"
   font-family="Droid Sans"
   font-size="12"
   id="text4930">B2</text>

            </g>
        </g>
    </g>
    <g
   transform="matrix(-4.371139e-008 1 -1 -4.371139e-008 396.8184 20.1929)"
   id="g4932">
        <g
   id="g4934">
            <g
   id="g4936">
                <text
   fill="#C0E0B8"
   font-family="Droid Sans"
   font-size="12"
   id="text4938">A15</text>

            </g>
        </g>
    </g>
    <g
   transform="matrix(-4.371139e-008 1 -1 -4.371139e-008 396.8184 45.2124)"
   id="g4940">
        <g
   id="g4942">
            <g
   id="g4944">
                <text
   fill="#C0E0B8"
   font-family="Droid Sans"
   font-size="12"
   id="text4946">A14</text>

            </g>
        </g>
    </g>
    <g
   transform="matrix(-4.371139e-008 1 -1 -4.371139e-008 396.8184 71.2114)"
   id="g4948">
        <g
   id="g4950">
            <g
   id="g4952">
                <text
   fill="#C0E0B8"
   font-family="Droid Sans"
   font-size="12"
   id="text4954">A13</text>

            </g>
        </g>
    </g>
    <g
   transform="matrix(-4.371139e-008 1 -1 -4.371139e-008 396.8184 98.5454)"
   id="g4956">
        <g
   id="g4958">
            <g
   id="g4960">
                <text
   fill="#C0E0B8"
   font-family="Droid Sans"
   font-size="12"
   id="text4962">A10</text>

            </g>
        </g>
    </g>
    <g
   transform="matrix(-4.371139e-008 1 -1 -4.371139e-008 396.8184 126.5454)"
   id="g4964">
        <g
   id="g4966">
            <g
   id="g4968">
                <text
   fill="#C0E0B8"
   font-family="Droid Sans"
   font-size="12"
   id="text4970">A9</text>

            </g>
        </g>
    </g>
    <g
   transform="matrix(-4.371139e-008 1 -1 -4.371139e-008 396.8184 152.5459)"
   id="g4972">
        <g
   id="g4974">
            <g
   id="g4976">
                <text
   fill="#C0E0B8"
   font-family="Droid Sans"
   font-size="12"
   id="text4978">A8</text>

            </g>
        </g>
    </g>
    <g
   transform="matrix(-4.371139e-008 1 -1 -4.371139e-008 396.8184 174.5454)"
   id="g4980">
        <g
   id="g4982">
            <g
   id="g4984">
                <text
   fill="#C0E0B8"
   font-family="Droid Sans"
   font-size="12"
   id="text4986">C11</text>

            </g>
        </g>
    </g>
    <g
   transform="matrix(-4.371139e-008 1 -1 -4.371139e-008 396.8184 201.5454)"
   id="g4988">
        <g
   id="g4990">
            <g
   id="g4992">
                <text
   fill="#C0E0B8"
   font-family="Droid Sans"
   font-size="12"
   id="text4994">C10</text>

            </g>
        </g>
    </g>
    <g
   transform="matrix(-4.371139e-008 1 -1 -4.371139e-008 396.8184 229.5459)"
   id="g4996">
        <g
   id="g4998">
            <g
   id="g5000">
                <text
   fill="#C0E0B8"
   font-family="Droid Sans"
   font-size="12"
   id="text5002">C9</text>

            </g>
        </g>
    </g>
    <g
   transform="matrix(-4.371139e-008 1 -1 -4.371139e-008 396.8184 256.8794)"
   id="g5004">
        <g
   id="g5006">
            <g
   id="g5008">
                <text
   fill="#C0E0B8"
   font-family="Droid Sans"
   font-size="12"
   id="text5010">C8</text>

            </g>
        </g>
    </g>
    <g
   transform="matrix(-4.371139e-008 1 -1 -4.371139e-008 396.8184 280.8799)"
   id="g5012">
        <g
   id="g5014">
            <g
   id="g5016">
                <text
   fill="#C0E0B8"
   font-family="Droid Sans"
   font-size="12"
   id="text5018">C7</text>

            </g>
        </g>
    </g>
    <g
   transform="matrix(-4.371139e-008 1 -1 -4.371139e-008 396.8184 307.4902)"
   id="g5020">
        <g
   id="g5022">
            <g
   id="g5024">
                <text
   fill="#C0E0B8"
   font-family="Droid Sans"
   font-size="12"
   id="text5026">C6</text>

            </g>
        </g>
    </g>
    <g
   transform="matrix(-4.371139e-008 1 -1 -4.371139e-008 396.8184 334.8779)"
   id="g5028">
        <g
   id="g5030">
            <g
   id="g5032">
                <text
   fill="#C0E0B8"
   font-family="Droid Sans"
   font-size="12"
   id="text5034">C5</text>

            </g>
        </g>
    </g>
    <g
   transform="matrix(-4.371139e-008 1 -1 -4.371139e-008 396.8184 360.2119)"
   id="g5036">
        <g
   id="g5038">
            <g
   id="g5040">
                <text
   fill="#C0E0B8"
   font-family="Droid Sans"
   font-size="12"
   id="text5042">C4</text>

            </g>
        </g>
    </g>
    <g
   transform="matrix(-4.371139e-008 1 -1 -4.371139e-008 396.8184 383.5459)"
   id="g5044">
        <g
   id="g5046">
            <g
   id="g5048">
                <text
   fill="#C0E0B8"
   font-family="Droid Sans"
   font-size="12"
   id="text5050">B15</text>

            </g>
        </g>
    </g>
    <g
   transform="matrix(-4.371139e-008 1 -1 -4.371139e-008 396.8184 408.8789)"
   id="g5052">
        <g
   id="g5054">
            <g
   id="g5056">
                <text
   fill="#C0E0B8"
   font-family="Droid Sans"
   font-size="12"
   id="text5058">B14</text>

            </g>
        </g>
    </g>
    <g
   transform="matrix(-4.371139e-008 1 -1 -4.371139e-008 396.8184 436.123)"
   id="g5060">
        <g
   id="g5062">
            <g
   id="g5064">
                <text
   fill="#C0E0B8"
   font-family="Droid Sans"
   font-size="12"
   id="text5066">B13</text>

            </g>
        </g>
    </g>
    <g
   transform="matrix(-4.371139e-008 1 -1 -4.371139e-008 4.1509 49.2124)"
   id="g5068">
        <g
   id="g5070">
            <g
   id="g5072">
                <text
   fill="#C0E0B8"
   font-family="Droid Sans"
   font-size="12"
   id="text5074">B3</text>

            </g>
        </g>
    </g>
    <g
   transform="matrix(-4.371139e-008 1 -1 -4.371139e-008 4.1509 73.5459)"
   id="g5076">
        <g
   id="g5078">
            <g
   id="g5080">
                <text
   fill="#C0E0B8"
   font-family="Droid Sans"
   font-size="12"
   id="text5082">B4</text>

            </g>
        </g>
    </g>
    <g
   transform="matrix(-4.371139e-008 1 -1 -4.371139e-008 4.1509 99.5459)"
   id="g5084">
        <g
   id="g5086">
            <g
   id="g5088">
                <text
   fill="#C0E0B8"
   font-family="Droid Sans"
   font-size="12"
   id="text5090">B5</text>

            </g>
        </g>
    </g>
    <g
   transform="matrix(-4.371139e-008 1 -1 -4.371139e-008 4.1509 126.2124)"
   id="g5092">
        <g
   id="g5094">
            <g
   id="g5096">
                <text
   fill="#C0E0B8"
   font-family="Droid Sans"
   font-size="12"
   id="text5098">B6</text>

            </g>
        </g>
    </g>
    <g
   transform="matrix(-4.371139e-008 1 -1 -4.371139e-008 4.1509 150.5459)"
   id="g5100">
        <g
   id="g5102">
            <g
   id="g5104">
                <text
   fill="#C0E0B8"
   font-family="Droid Sans"
   font-size="12"
   id="text5106">B7</text>

            </g>
        </g>
    </g>
    <g
   transform="matrix(1 0 0 1 122.0039 259.731)"
   id="g5108">
        <g
   id="g5110">
            <g
   id="g5112">
                <text
   fill="#C0E0B8"
   font-family="Droid Sans"
   font-size="12"
   id="text5114">A2</text>

            </g>
        </g>
    </g>
    <g
   transform="matrix(1 0 0 1 147.3374 259.731)"
   id="g5116">
        <g
   id="g5118">
            <g
   id="g5120">
                <text
   fill="#C0E0B8"
   font-family="Droid Sans"
   font-size="12"
   id="text5122">A3</text>

            </g>
        </g>
    </g>
    <g
   transform="matrix(1 0 0 1 172.6714 259.731)"
   id="g5124">
        <g
   id="g5126">
            <g
   id="g5128">
                <text
   fill="#C0E0B8"
   font-family="Droid Sans"
   font-size="12"
   id="text5130">A4</text>

            </g>
        </g>
    </g>
    <g
   transform="matrix(1 0 0 1 198.0044 259.731)"
   id="g5132">
        <g
   id="g5134">
            <g
   id="g5136">
                <text
   fill="#C0E0B8"
   font-family="Droid Sans"
   font-size="12"
   id="text5138">A5</text>

            </g>
        </g>
    </g>
    <g
   transform="matrix(1 0 0 1 226.6709 259.731)"
   id="g5140">
        <g
   id="g5142">
            <g
   id="g5144">
                <text
   fill="#C0E0B8"
   font-family="Droid Sans"
   font-size="12"
   id="text5146">A6</text>

            </g>
        </g>
    </g>
    <g
   transform="matrix(1 0 0 1 251.0039 259.731)"
   id="g5148">
        <g
   id="g5150">
            <g
   id="g5152">
                <text
   fill="#C0E0B8"
   font-family="Droid Sans"
   font-size="12"
   id="text5154">A7</text>

            </g>
        </g>
    </g>
    <g
   transform="matrix(1 0 0 1 274.6709 259.731)"
   id="g5156">
        <g
   id="g5158">
            <g
   id="g5160">
                <text
   fill="#C0E0B8"
   font-family="Droid Sans"
   font-size="12"
   id="text5162">B0</text>

            </g>
        </g>
    </g>
    <g
   transform="matrix(1 0 0 1 299.0039 259.731)"
   id="g5164">
        <g
   id="g5166">
            <g
   id="g5168">
                <text
   fill="#C0E0B8"
   font-family="Droid Sans"
   font-size="12"
   id="text5170">B1</text>

            </g>
        </g>
    </g>
    <g
   transform="matrix(1 0 0 1 323.3379 259.731)"
   id="g5172">
        <g
   id="g5174">
            <g
   id="g5176">
                <text
   fill="#C0E0B8"
   font-family="Droid Sans"
   font-size="12"
   id="text5178">B10</text>

            </g>
        </g>
    </g>
    <g
   transform="matrix(1 0 0 1 351.0039 259.731)"
   id="g5180">
        <g
   id="g5182">
            <g
   id="g5184">
                <text
   fill="#C0E0B8"
   font-family="Droid Sans"
   font-size="12"
   id="text5186">B11</text>

            </g>
        </g>
    </g>
    <g
   transform="matrix(-4.371139e-008 1 -1 -4.371139e-008 4.1509 176.8789)"
   id="g5188">
        <g
   id="g5190">
            <g
   id="g5192">
                <text
   fill="#C0E0B8"
   font-family="Droid Sans"
   font-size="12"
   id="text5194">B8</text>

            </g>
        </g>
    </g>
    <g
   transform="matrix(-4.371139e-008 1 -1 -4.371139e-008 4.1509 204.5454)"
   id="g5196">
        <g
   id="g5198">
            <g
   id="g5200">
                <text
   fill="#C0E0B8"
   font-family="Droid Sans"
   font-size="12"
   id="text5202">B9</text>

            </g>
        </g>
    </g>
    <g
   transform="matrix(-4.371139e-008 1 -1 -4.371139e-008 4.1509 224.5459)"
   id="g5204">
        <g
   id="g5206">
            <g
   id="g5208">
                <text
   font-size="12"
   id="text5210"
   style="font-size:12px;fill:#c0e0b8;font-family:Droid Sans">B12</text>

            </g>
        </g>
    </g>
    <g
   transform="matrix(-4.371139e-008 1 -1 -4.371139e-008 4.1509 252.5459)"
   id="g5212">
        <g
   id="g5214">
            <g
   id="g5216">
                <text
   font-size="12"
   id="text5218"
   style="font-size:12px;fill:#c0e0b8;font-family:Droid Sans">C12</text>

            </g>
        </g>
    </g>
    <g
   transform="matrix(-4.371139e-008 1 -1 -4.371139e-008 4.1509 277.4629)"
   id="g5220">
        <g
   id="g5222">
            <g
   id="g5224">
                <text
   fill="#C0E0B8"
   font-family="Droid Sans"
   font-size="12"
   id="text5226">C15</text>

            </g>
        </g>
    </g>
    <g
   transform="matrix(-4.371139e-008 1 -1 -4.371139e-008 4.1509 308.1299)"
   id="g5228">
        <g
   id="g5230">
            <g
   id="g5232">
                <text
   fill="#C0E0B8"
   font-family="Droid Sans"
   font-size="12"
   id="text5234">C0</text>

            </g>
        </g>
    </g>
    <g
   transform="matrix(-4.371139e-008 1 -1 -4.371139e-008 4.1509 333.4629)"
   id="g5236">
        <g
   id="g5238">
            <g
   id="g5240">
                <text
   fill="#C0E0B8"
   font-family="Droid Sans"
   font-size="12"
   id="text5242">C1</text>

            </g>
        </g>
    </g>
    <g
   transform="matrix(-4.371139e-008 1 -1 -4.371139e-008 4.1509 359.79)"
   id="g5244">
        <g
   id="g5246">
            <g
   id="g5248">
                <text
   fill="#C0E0B8"
   font-family="Droid Sans"
   font-size="12"
   id="text5250">C2</text>

            </g>
        </g>
    </g>
    <g
   transform="matrix(-4.371139e-008 1 -1 -4.371139e-008 4.1509 386.791)"
   id="g5252">
        <g
   id="g5254">
            <g
   id="g5256">
                <text
   fill="#C0E0B8"
   font-family="Droid Sans"
   font-size="12"
   id="text5258">C3</text>

            </g>
        </g>
    </g>
    <g
   transform="matrix(-4.371139e-008 1 -1 -4.371139e-008 4.1509 410.791)"
   id="g5260">
        <g
   id="g5262">
            <g
   id="g5264">
                <text
   fill="#C0E0B8"
   font-family="Droid Sans"
   font-size="12"
   id="text5266">A0</text>

            </g>
        </g>
    </g>
    <g
   transform="matrix(-4.371139e-008 1 -1 -4.371139e-008 4.1509 438.458)"
   id="g5268">
        <g
   id="g5270">
            <g
   id="g5272">
                <text
   fill="#C0E0B8"
   font-family="Droid Sans"
   font-size="12"
   id="text5274">A1</text>

            </g>
        </g>
    </g>
    <g
   transform="matrix(-4.371139e-008 1 -1 -4.371139e-008 4.1509 461.125)"
   id="g5276">
        <g
   id="g5278">
            <g
   id="g5280">
                <text
   fill="#C0E0B8"
   font-family="Droid Sans"
   font-size="12"
   id="text5282">3.3</text>

            </g>
        </g>
    </g>
    <g
   transform="matrix(-4.371139e-008 1 -1 -4.371139e-008 4.1509 486.791)"
   id="g5284">
        <g
   id="g5286">
            <g
   id="g5288">
                <text
   fill="#C0E0B8"
   font-family="Droid Sans"
   font-size="12"
   id="text5290">Bat</text>

            </g>
        </g>
    </g>
    <g
   transform="matrix(-4.371139e-008 1 -1 -4.371139e-008 4.1509 510.458)"
   id="g5292">
        <g
   id="g5294">
            <g
   id="g5296">
                <text
   fill="#C0E0B8"
   font-family="Droid Sans"
   font-size="12"
   id="text5298">GND</text>

            </g>
        </g>
    </g>
    <g
   transform="matrix(-4.371139e-008 1 -1 -4.371139e-008 396.4844 462.125)"
   id="g5300">
        <g
   id="g5302">
            <g
   id="g5304">
                <text
   fill="#C0E0B8"
   font-family="Droid Sans"
   font-size="12"
   id="text5306">3.3</text>

            </g>
        </g>
    </g>
    <g
   transform="matrix(-4.371139e-008 1 -1 -4.371139e-008 396.4844 487.791)"
   id="g5308">
        <g
   id="g5310">
            <g
   id="g5312">
                <text
   fill="#C0E0B8"
   font-family="Droid Sans"
   font-size="12"
   id="text5314">Bat</text>

            </g>
        </g>
    </g>
    <g
   transform="matrix(-4.371139e-008 1 -1 -4.371139e-008 396.4844 510.458)"
   id="g5316">
        <g
   id="g5318">
            <g
   id="g5320">
                <text
   fill="#C0E0B8"
   font-family="Droid Sans"
   font-size="12"
   id="text5322">GND</text>

            </g>
        </g>
    </g>
</svg>