<?xml version="1.0" encoding="utf-8"?>
<!-- Generator: Adobe Illustrator 15.1.0, SVG Export Plug-In . SVG Version: 6.00 Build 0)  -->
<!DOCTYPE svg PUBLIC "-//W3C//DTD SVG 1.1//EN" "http://www.w3.org/Graphics/SVG/1.1/DTD/svg11.dtd">
<svg version="1.1" xmlns="http://www.w3.org/2000/svg" xmlns:xlink="http://www.w3.org/1999/xlink" x="0px" y="0px"
	 width="116.22px" height="153.07px" viewBox="0 0 116.22 153.07" enable-background="new 0 0 116.22 153.07" xml:space="preserve">
<g id="Layer_2">
	
		<image overflow="visible" width="2890" height="2184" xlink:href="edit.jpg"  transform="matrix(0 0.0532 -0.0532 0 116.2236 -0.0024)">
	</image>
</g>
<g id="Layer_3">
	<rect x="-0.044" fill="#24AE5A" width="116.264" height="153.07"/>
</g>
<g id="Layer_4">
	<rect x="12.25" y="1.667" fill="#FFFFFF" width="23.833" height="17.151"/>
	<rect x="15.25" y="89.753" fill="#C1B58E" width="3.813" height="7.872"/>
	<rect x="27.525" y="89.753" fill="#C1B58E" width="3.813" height="7.872"/>
	<rect x="15.25" y="114.188" fill="#C1B58E" width="3.813" height="6.685"/>
	<rect x="27.525" y="114.188" fill="#C1B58E" width="3.813" height="6.685"/>
	<path fill="#211C1F" d="M32.5,112.268c0,1.566-1.269,2.836-2.834,2.836H16.919c-1.565,0-2.834-1.27-2.834-2.836V99.459
		c0-1.564,1.269-2.834,2.834-2.834h12.747c1.565,0,2.834,1.27,2.834,2.834V112.268z"/>
	<g>
		<circle fill="#FFFFFF" cx="109.8" cy="14.875" r="2.458"/>
		<circle fill="#261D29" cx="109.8" cy="14.875" r="1.468"/>
	</g>
	<g>
		<circle fill="#FFFFFF" cx="109.8" cy="22.296" r="2.458"/>
		<circle fill="#261D29" cx="109.8" cy="22.296" r="1.468"/>
	</g>
	<g>
		<circle fill="#FFFFFF" cx="109.8" cy="29.667" r="2.458"/>
		<circle fill="#261D29" cx="109.8" cy="29.667" r="1.468"/>
	</g>
	<g>
		<circle fill="#FFFFFF" cx="109.8" cy="36.833" r="2.458"/>
		<circle fill="#261D29" cx="109.8" cy="36.833" r="1.468"/>
	</g>
	<g>
		<circle fill="#FFFFFF" cx="109.8" cy="44.333" r="2.458"/>
		<circle fill="#261D29" cx="109.8" cy="44.333" r="1.468"/>
	</g>
	<g>
		<circle fill="#FFFFFF" cx="109.8" cy="51.75" r="2.458"/>
		<circle fill="#261D29" cx="109.8" cy="51.75" r="1.468"/>
	</g>
	<g>
		<circle fill="#FFFFFF" cx="109.8" cy="59.251" r="2.458"/>
		<circle fill="#261D29" cx="109.8" cy="59.252" r="1.468"/>
	</g>
	<g>
		<circle fill="#FFFFFF" cx="102.363" cy="59.251" r="2.458"/>
		<circle fill="#261D29" cx="102.362" cy="59.252" r="1.468"/>
	</g>
	<g>
		<circle fill="#FFFFFF" cx="109.758" cy="66.626" r="2.458"/>
		<circle fill="#261D29" cx="109.758" cy="66.627" r="1.468"/>
	</g>
	<g>
		<circle fill="#FFFFFF" cx="109.758" cy="73.709" r="2.458"/>
		<circle fill="#261D29" cx="109.758" cy="73.71" r="1.468"/>
	</g>
	<g>
		<circle fill="#FFFFFF" cx="109.8" cy="81.126" r="2.458"/>
		<circle fill="#261D29" cx="109.8" cy="81.127" r="1.468"/>
	</g>
	<g>
		<circle fill="#FFFFFF" cx="109.8" cy="88.473" r="2.458"/>
		<circle fill="#261D29" cx="109.8" cy="88.474" r="1.468"/>
	</g>
	<g>
		<circle fill="#FFFFFF" cx="109.8" cy="95.89" r="2.458"/>
		<circle fill="#261D29" cx="109.8" cy="95.891" r="1.468"/>
	</g>
	<g>
		<circle fill="#FFFFFF" cx="109.8" cy="103.406" r="2.458"/>
		<circle fill="#261D29" cx="109.8" cy="103.407" r="1.468"/>
	</g>
	<g>
		<circle fill="#FFFFFF" cx="109.8" cy="110.664" r="2.458"/>
		<circle fill="#261D29" cx="109.8" cy="110.665" r="1.468"/>
	</g>
	<g>
		<circle fill="#FFFFFF" cx="109.8" cy="117.893" r="2.458"/>
		<circle fill="#261D29" cx="109.8" cy="117.894" r="1.468"/>
	</g>
	<g>
		<circle fill="#FFFFFF" cx="109.8" cy="125.393" r="2.458"/>
		<circle fill="#261D29" cx="109.8" cy="125.394" r="1.468"/>
	</g>
	<g>
		<circle fill="#FFFFFF" cx="102.364" cy="81.126" r="2.458"/>
		<circle fill="#261D29" cx="102.363" cy="81.127" r="1.468"/>
	</g>
	<g>
		<circle fill="#FFFFFF" cx="102.364" cy="88.473" r="2.458"/>
		<circle fill="#261D29" cx="102.363" cy="88.474" r="1.468"/>
	</g>
	<g>
		<circle fill="#FFFFFF" cx="102.364" cy="95.89" r="2.458"/>
		<circle fill="#261D29" cx="102.363" cy="95.891" r="1.468"/>
	</g>
	<g>
		<circle fill="#FFFFFF" cx="102.364" cy="103.406" r="2.458"/>
		<circle fill="#261D29" cx="102.363" cy="103.407" r="1.468"/>
	</g>
	<g>
		<circle fill="#FFFFFF" cx="102.364" cy="110.664" r="2.458"/>
		<circle fill="#261D29" cx="102.363" cy="110.665" r="1.468"/>
	</g>
	<g>
		<circle fill="#FFFFFF" cx="102.364" cy="117.893" r="2.458"/>
		<circle fill="#261D29" cx="102.363" cy="117.894" r="1.468"/>
	</g>
	<g>
		<circle fill="#FFFFFF" cx="102.364" cy="125.393" r="2.458"/>
		<circle fill="#261D29" cx="102.363" cy="125.394" r="1.468"/>
	</g>
	<g>
		<circle fill="#FFFFFF" cx="95.116" cy="81.126" r="2.458"/>
		<circle fill="#261D29" cx="95.115" cy="81.127" r="1.468"/>
	</g>
	<g>
		<circle fill="#FFFFFF" cx="95.116" cy="88.473" r="2.458"/>
		<circle fill="#261D29" cx="95.115" cy="88.474" r="1.468"/>
	</g>
	<g>
		<circle fill="#FFFFFF" cx="95.116" cy="95.89" r="2.458"/>
		<circle fill="#261D29" cx="95.115" cy="95.891" r="1.468"/>
	</g>
	<g>
		<circle fill="#FFFFFF" cx="95.116" cy="103.406" r="2.458"/>
		<circle fill="#261D29" cx="95.115" cy="103.407" r="1.468"/>
	</g>
	<g>
		<circle fill="#FFFFFF" cx="95.116" cy="110.664" r="2.458"/>
		<circle fill="#261D29" cx="95.115" cy="110.665" r="1.468"/>
	</g>
	<g>
		<circle fill="#FFFFFF" cx="95.116" cy="117.893" r="2.458"/>
		<circle fill="#261D29" cx="95.115" cy="117.894" r="1.468"/>
	</g>
	<g>
		<circle fill="#FFFFFF" cx="95.116" cy="125.393" r="2.458"/>
		<circle fill="#261D29" cx="95.115" cy="125.394" r="1.468"/>
	</g>
	<g>
		<circle fill="#FFFFFF" cx="109.8" cy="132.577" r="2.458"/>
		<circle fill="#261D29" cx="109.8" cy="132.578" r="1.468"/>
	</g>
	<g>
		<circle fill="#FFFFFF" cx="109.8" cy="140.021" r="2.458"/>
		<circle fill="#261D29" cx="109.8" cy="140.021" r="1.468"/>
	</g>
	<g>
		<circle fill="#FFFFFF" cx="109.8" cy="147.104" r="2.458"/>
		<circle fill="#261D29" cx="109.8" cy="147.104" r="1.468"/>
	</g>
	<g>
		<rect x="107.917" y="5.083" fill="#FFFFFF" width="4.342" height="4.5"/>
		<circle fill="#261D29" cx="110.088" cy="7.333" r="1.468"/>
	</g>
	<g>
		<circle fill="#FFFFFF" cx="6.379" cy="14.875" r="2.458"/>
		<circle fill="#261D29" cx="6.378" cy="14.875" r="1.468"/>
	</g>
	<g>
		<circle fill="#FFFFFF" cx="6.379" cy="22.296" r="2.458"/>
		<circle fill="#261D29" cx="6.378" cy="22.296" r="1.468"/>
	</g>
	<g>
		<circle fill="#FFFFFF" cx="6.379" cy="29.667" r="2.458"/>
		<circle fill="#261D29" cx="6.378" cy="29.667" r="1.468"/>
	</g>
	<g>
		<circle fill="#FFFFFF" cx="6.379" cy="36.833" r="2.458"/>
		<circle fill="#261D29" cx="6.378" cy="36.833" r="1.468"/>
	</g>
	<g>
		<circle fill="#FFFFFF" cx="6.379" cy="44.333" r="2.458"/>
		<circle fill="#261D29" cx="6.378" cy="44.333" r="1.468"/>
	</g>
	<g>
		<circle fill="#FFFFFF" cx="6.379" cy="51.75" r="2.458"/>
		<circle fill="#261D29" cx="6.378" cy="51.75" r="1.468"/>
	</g>
	<g>
		<circle fill="#FFFFFF" cx="6.379" cy="59.251" r="2.458"/>
		<circle fill="#261D29" cx="6.378" cy="59.252" r="1.468"/>
	</g>
	<g>
		<circle fill="#FFFFFF" cx="6.337" cy="66.626" r="2.458"/>
		<circle fill="#261D29" cx="6.336" cy="66.627" r="1.468"/>
	</g>
	<g>
		<circle fill="#FFFFFF" cx="6.337" cy="73.709" r="2.458"/>
		<circle fill="#261D29" cx="6.336" cy="73.71" r="1.468"/>
	</g>
	<g>
		<circle fill="#FFFFFF" cx="6.379" cy="81.126" r="2.458"/>
		<circle fill="#261D29" cx="6.378" cy="81.127" r="1.468"/>
	</g>
	<g>
		<circle fill="#FFFFFF" cx="6.379" cy="88.473" r="2.458"/>
		<circle fill="#261D29" cx="6.378" cy="88.474" r="1.468"/>
	</g>
	<g>
		<circle fill="#FFFFFF" cx="6.379" cy="95.89" r="2.458"/>
		<circle fill="#261D29" cx="6.378" cy="95.891" r="1.468"/>
	</g>
	<g>
		<circle fill="#FFFFFF" cx="6.379" cy="103.406" r="2.458"/>
		<circle fill="#261D29" cx="6.378" cy="103.407" r="1.468"/>
	</g>
	<g>
		<circle fill="#FFFFFF" cx="6.379" cy="110.664" r="2.458"/>
		<circle fill="#261D29" cx="6.378" cy="110.665" r="1.468"/>
	</g>
	<g>
		<circle fill="#FFFFFF" cx="6.379" cy="117.893" r="2.458"/>
		<circle fill="#261D29" cx="6.378" cy="117.894" r="1.468"/>
	</g>
	<g>
		<circle fill="#FFFFFF" cx="36.796" cy="88.473" r="2.458"/>
		<circle fill="#261D29" cx="36.796" cy="88.474" r="1.468"/>
	</g>
	<g>
		<circle fill="#FFFFFF" cx="36.796" cy="95.89" r="2.458"/>
		<circle fill="#261D29" cx="36.796" cy="95.891" r="1.468"/>
	</g>
	<g>
		<circle fill="#FFFFFF" cx="36.796" cy="103.406" r="2.458"/>
		<circle fill="#261D29" cx="36.796" cy="103.407" r="1.468"/>
	</g>
	<g>
		<circle fill="#FFFFFF" cx="36.796" cy="110.664" r="2.458"/>
		<circle fill="#261D29" cx="36.796" cy="110.665" r="1.468"/>
	</g>
	<g>
		<circle fill="#FFFFFF" cx="36.796" cy="117.893" r="2.458"/>
		<circle fill="#261D29" cx="36.796" cy="117.894" r="1.468"/>
	</g>
	<g>
		<circle fill="#FFFFFF" cx="43.796" cy="88.473" r="2.458"/>
		<circle fill="#261D29" cx="43.796" cy="88.474" r="1.468"/>
	</g>
	<g>
		<circle fill="#FFFFFF" cx="43.796" cy="95.89" r="2.458"/>
		<circle fill="#261D29" cx="43.796" cy="95.891" r="1.468"/>
	</g>
	<g>
		<circle fill="#FFFFFF" cx="43.796" cy="103.406" r="2.458"/>
		<circle fill="#261D29" cx="43.796" cy="103.407" r="1.468"/>
	</g>
	<g>
		<circle fill="#FFFFFF" cx="43.796" cy="110.664" r="2.458"/>
		<circle fill="#261D29" cx="43.796" cy="110.665" r="1.468"/>
	</g>
	<g>
		<circle fill="#FFFFFF" cx="43.796" cy="117.893" r="2.458"/>
		<circle fill="#261D29" cx="43.796" cy="117.894" r="1.468"/>
	</g>
	<g>
		<circle fill="#FFFFFF" cx="6.379" cy="125.393" r="2.458"/>
		<circle fill="#261D29" cx="6.378" cy="125.394" r="1.468"/>
	</g>
	<g>
		<circle fill="#FFFFFF" cx="6.379" cy="132.577" r="2.458"/>
		<circle fill="#261D29" cx="6.378" cy="132.578" r="1.468"/>
	</g>
	<g>
		<circle fill="#FFFFFF" cx="6.379" cy="140.021" r="2.458"/>
		<circle fill="#261D29" cx="6.378" cy="140.021" r="1.468"/>
	</g>
	<g>
		<circle fill="#FFFFFF" cx="6.379" cy="147.104" r="2.458"/>
		<circle fill="#261D29" cx="6.378" cy="147.104" r="1.468"/>
	</g>
	<g>
		<circle fill="#FFFFFF" cx="14.334" cy="125.393" r="2.458"/>
		<circle fill="#261D29" cx="14.333" cy="125.394" r="1.468"/>
	</g>
	<g>
		<circle fill="#FFFFFF" cx="14.334" cy="132.577" r="2.458"/>
		<circle fill="#261D29" cx="14.333" cy="132.578" r="1.468"/>
	</g>
	<g>
		<circle fill="#FFFFFF" cx="14.334" cy="140.021" r="2.458"/>
		<circle fill="#261D29" cx="14.333" cy="140.021" r="1.468"/>
	</g>
	<g>
		<circle fill="#FFFFFF" cx="14.334" cy="147.104" r="2.458"/>
		<circle fill="#261D29" cx="14.333" cy="147.104" r="1.468"/>
	</g>
	<g>
		<circle fill="#FFFFFF" cx="21.825" cy="125.393" r="2.458"/>
		<circle fill="#261D29" cx="21.825" cy="125.394" r="1.468"/>
	</g>
	<g>
		<circle fill="#FFFFFF" cx="21.825" cy="132.577" r="2.458"/>
		<circle fill="#261D29" cx="21.825" cy="132.578" r="1.468"/>
	</g>
	<g>
		<circle fill="#FFFFFF" cx="21.825" cy="140.021" r="2.458"/>
		<circle fill="#261D29" cx="21.825" cy="140.021" r="1.468"/>
	</g>
	<g>
		<circle fill="#FFFFFF" cx="21.825" cy="147.104" r="2.458"/>
		<circle fill="#261D29" cx="21.825" cy="147.104" r="1.468"/>
	</g>
	<g>
		<circle fill="#FFFFFF" cx="28.841" cy="125.393" r="2.458"/>
		<circle fill="#261D29" cx="28.841" cy="125.394" r="1.468"/>
	</g>
	<g>
		<circle fill="#FFFFFF" cx="28.841" cy="132.577" r="2.458"/>
		<circle fill="#261D29" cx="28.841" cy="132.578" r="1.468"/>
	</g>
	<g>
		<circle fill="#FFFFFF" cx="28.841" cy="140.021" r="2.458"/>
		<circle fill="#261D29" cx="28.841" cy="140.021" r="1.468"/>
	</g>
	<g>
		<circle fill="#FFFFFF" cx="28.841" cy="147.104" r="2.458"/>
		<circle fill="#261D29" cx="28.841" cy="147.104" r="1.468"/>
	</g>
	<g>
		<circle fill="#FFFFFF" cx="36.796" cy="125.393" r="2.458"/>
		<circle fill="#261D29" cx="36.796" cy="125.394" r="1.468"/>
	</g>
	<g>
		<circle fill="#FFFFFF" cx="36.796" cy="132.577" r="2.458"/>
		<circle fill="#261D29" cx="36.796" cy="132.578" r="1.468"/>
	</g>
	<g>
		<circle fill="#FFFFFF" cx="36.796" cy="140.021" r="2.458"/>
		<circle fill="#261D29" cx="36.796" cy="140.021" r="1.468"/>
	</g>
	<g>
		<circle fill="#FFFFFF" cx="36.796" cy="147.104" r="2.458"/>
		<circle fill="#261D29" cx="36.796" cy="147.104" r="1.468"/>
	</g>
	<g>
		<circle fill="#FFFFFF" cx="44.288" cy="125.393" r="2.458"/>
		<circle fill="#261D29" cx="44.287" cy="125.394" r="1.468"/>
	</g>
	<g>
		<circle fill="#FFFFFF" cx="44.288" cy="132.577" r="2.458"/>
		<circle fill="#261D29" cx="44.287" cy="132.578" r="1.468"/>
	</g>
	<g>
		<circle fill="#FFFFFF" cx="44.288" cy="140.021" r="2.458"/>
		<circle fill="#261D29" cx="44.287" cy="140.021" r="1.468"/>
	</g>
	<g>
		<circle fill="#FFFFFF" cx="44.288" cy="147.104" r="2.458"/>
		<circle fill="#261D29" cx="44.287" cy="147.104" r="1.468"/>
	</g>
	<g>
		<circle fill="#FFFFFF" cx="51.038" cy="140.021" r="2.458"/>
		<circle fill="#261D29" cx="51.037" cy="140.021" r="1.468"/>
	</g>
	<g>
		<circle fill="#FFFFFF" cx="51.038" cy="147.104" r="2.458"/>
		<circle fill="#261D29" cx="51.037" cy="147.104" r="1.468"/>
	</g>
	<g>
		<circle fill="#FFFFFF" cx="58.111" cy="140.021" r="2.458"/>
		<circle fill="#261D29" cx="58.11" cy="140.021" r="1.468"/>
	</g>
	<g>
		<circle fill="#FFFFFF" cx="58.111" cy="147.104" r="2.458"/>
		<circle fill="#261D29" cx="58.11" cy="147.104" r="1.468"/>
	</g>
	<g>
		<circle fill="#FFFFFF" cx="65.75" cy="140.021" r="2.458"/>
		<circle fill="#261D29" cx="65.75" cy="140.021" r="1.468"/>
	</g>
	<g>
		<circle fill="#FFFFFF" cx="65.75" cy="147.104" r="2.458"/>
		<circle fill="#261D29" cx="65.75" cy="147.104" r="1.468"/>
	</g>
	<g>
		<circle fill="#FFFFFF" cx="73.083" cy="140.021" r="2.458"/>
		<circle fill="#261D29" cx="73.083" cy="140.021" r="1.468"/>
	</g>
	<g>
		<circle fill="#FFFFFF" cx="73.083" cy="147.104" r="2.458"/>
		<circle fill="#261D29" cx="73.083" cy="147.104" r="1.468"/>
	</g>
	<g>
		<circle fill="#FFFFFF" cx="80.425" cy="140.021" r="2.458"/>
		<circle fill="#261D29" cx="80.425" cy="140.021" r="1.468"/>
	</g>
	<g>
		<circle fill="#FFFFFF" cx="80.425" cy="147.104" r="2.458"/>
		<circle fill="#261D29" cx="80.425" cy="147.104" r="1.468"/>
	</g>
	<g>
		<circle fill="#FFFFFF" cx="87.943" cy="140.021" r="2.458"/>
		<circle fill="#261D29" cx="87.942" cy="140.021" r="1.468"/>
	</g>
	<g>
		<circle fill="#FFFFFF" cx="87.943" cy="147.104" r="2.458"/>
		<circle fill="#261D29" cx="87.942" cy="147.104" r="1.468"/>
	</g>
	<g>
		<circle fill="#FFFFFF" cx="95.115" cy="140.021" r="2.458"/>
		<circle fill="#261D29" cx="95.114" cy="140.021" r="1.468"/>
	</g>
	<g>
		<circle fill="#FFFFFF" cx="95.115" cy="147.104" r="2.458"/>
		<circle fill="#261D29" cx="95.114" cy="147.104" r="1.468"/>
	</g>
	<g>
		<circle fill="#FFFFFF" cx="102.364" cy="147.104" r="2.458"/>
		<circle fill="#261D29" cx="102.363" cy="147.104" r="1.468"/>
	</g>
	<g>
		<rect x="4.496" y="5.083" fill="#FFFFFF" width="4.342" height="4.5"/>
		<circle fill="#261D29" cx="6.667" cy="7.333" r="1.468"/>
	</g>
	<g>
		<circle fill="#FFFFFF" cx="95.116" cy="66.626" r="2.458"/>
		<circle fill="#261D29" cx="95.115" cy="66.627" r="1.468"/>
	</g>
	<g>
		<circle fill="#FFFFFF" cx="87.7" cy="66.626" r="2.458"/>
		<circle fill="#261D29" cx="87.699" cy="66.627" r="1.468"/>
	</g>
	<g>
		<circle fill="#FFFFFF" cx="80.367" cy="66.626" r="2.458"/>
		<circle fill="#261D29" cx="80.366" cy="66.627" r="1.468"/>
	</g>
	<g>
		<circle fill="#FFFFFF" cx="72.95" cy="66.626" r="2.458"/>
		<circle fill="#261D29" cx="72.949" cy="66.627" r="1.468"/>
	</g>
	<g>
		<circle fill="#FFFFFF" cx="65.783" cy="66.626" r="2.458"/>
		<circle fill="#261D29" cx="65.782" cy="66.627" r="1.468"/>
	</g>
	<g>
		<circle fill="#FFFFFF" cx="58.616" cy="66.626" r="2.458"/>
		<circle fill="#261D29" cx="58.615" cy="66.627" r="1.468"/>
	</g>
	<g>
		<circle fill="#FFFFFF" cx="51.196" cy="66.626" r="2.458"/>
		<circle fill="#261D29" cx="51.196" cy="66.627" r="1.468"/>
	</g>
	<g>
		<circle fill="#FFFFFF" cx="43.796" cy="66.626" r="2.458"/>
		<circle fill="#261D29" cx="43.795" cy="66.627" r="1.468"/>
	</g>
	<g>
		<circle fill="#FFFFFF" cx="36.796" cy="66.626" r="2.458"/>
		<circle fill="#261D29" cx="36.795" cy="66.627" r="1.468"/>
	</g>
	<g>
		<rect x="100.48" y="49.46" fill="#FFFFFF" width="4.342" height="4.5"/>
		<circle fill="#261D29" cx="102.651" cy="51.71" r="1.468"/>
	</g>
	<g>
		<rect x="100.48" y="64.376" fill="#FFFFFF" width="4.342" height="4.5"/>
		<circle fill="#261D29" cx="102.651" cy="66.626" r="1.468"/>
	</g>
	<g>
		<rect x="33.922" y="78.876" fill="#FFFFFF" width="4.342" height="4.5"/>
		<circle fill="#261D29" cx="36.093" cy="81.126" r="1.468"/>
	</g>
	<g>
		<rect x="41.625" y="78.875" fill="#FFFFFF" width="4.342" height="4.5"/>
		<circle fill="#261D29" cx="43.796" cy="81.125" r="1.468"/>
	</g>
	<g>
		<rect x="100.192" y="130.119" fill="#FFFFFF" width="4.342" height="4.5"/>
		<circle fill="#261D29" cx="102.363" cy="132.369" r="1.468"/>
	</g>
	<g>
		<rect x="92.944" y="130.119" fill="#FFFFFF" width="4.342" height="4.5"/>
		<circle fill="#261D29" cx="95.115" cy="132.369" r="1.468"/>
	</g>
	<g>
		<rect x="100.192" y="137.771" fill="#FFFFFF" width="4.342" height="4.5"/>
		<circle fill="#261D29" cx="102.363" cy="140.021" r="1.468"/>
	</g>
	<rect x="49.25" y="76.535" fill="#A3A092" width="18.991" height="2.133"/>
	<rect x="49.25" y="80.461" fill="#A3A092" width="18.991" height="2.133"/>
	<rect x="49.25" y="83.977" fill="#A3A092" width="18.991" height="2.133"/>
	<rect x="49.25" y="87.902" fill="#A3A092" width="18.991" height="2.133"/>
	<rect x="49.25" y="91.298" fill="#A3A092" width="18.991" height="2.133"/>
	<rect x="49.25" y="94.823" fill="#A3A092" width="18.991" height="2.133"/>
	<rect x="49.25" y="98.815" fill="#A3A092" width="18.991" height="2.133"/>
	<rect x="49.25" y="102.34" fill="#A3A092" width="18.991" height="2.133"/>
	<rect x="49.25" y="105.865" fill="#A3A092" width="18.991" height="2.133"/>
	<rect x="49.25" y="109.598" fill="#A3A092" width="18.991" height="2.133"/>
	<rect x="49.25" y="113.122" fill="#A3A092" width="18.991" height="2.133"/>
	<rect x="49.25" y="116.826" fill="#A3A092" width="18.991" height="2.133"/>
	<rect x="49.25" y="120.352" fill="#A3A092" width="18.991" height="2.133"/>
	<rect x="49.25" y="123.925" fill="#A3A092" width="18.991" height="2.133"/>
	<rect x="49.25" y="127.851" fill="#A3A092" width="18.991" height="2.133"/>
	<rect x="49.25" y="131.511" fill="#A3A092" width="18.991" height="2.133"/>
	<rect x="69.856" y="76.535" fill="#A3A092" width="18.991" height="2.133"/>
	<rect x="69.856" y="80.461" fill="#A3A092" width="18.991" height="2.133"/>
	<rect x="69.856" y="83.977" fill="#A3A092" width="18.991" height="2.133"/>
	<rect x="69.856" y="87.902" fill="#A3A092" width="18.991" height="2.133"/>
	<rect x="69.856" y="91.298" fill="#A3A092" width="18.991" height="2.133"/>
	<rect x="69.856" y="94.823" fill="#A3A092" width="18.991" height="2.133"/>
	<rect x="69.856" y="98.815" fill="#A3A092" width="18.991" height="2.133"/>
	<rect x="69.856" y="102.34" fill="#A3A092" width="18.991" height="2.133"/>
	<rect x="69.856" y="105.865" fill="#A3A092" width="18.991" height="2.133"/>
	<rect x="69.856" y="109.598" fill="#A3A092" width="18.991" height="2.133"/>
	<rect x="69.856" y="113.122" fill="#A3A092" width="18.991" height="2.133"/>
	<rect x="69.856" y="116.826" fill="#A3A092" width="18.991" height="2.133"/>
	<rect x="69.856" y="120.352" fill="#A3A092" width="18.991" height="2.133"/>
	<rect x="69.856" y="123.925" fill="#A3A092" width="18.991" height="2.133"/>
	<rect x="69.856" y="127.851" fill="#A3A092" width="18.991" height="2.133"/>
	<rect x="69.856" y="131.511" fill="#A3A092" width="18.991" height="2.133"/>
	<rect x="62.5" y="20.829" fill="#3A3636" width="28.5" height="28.462"/>
	<rect x="65.25" y="49.291" fill="#FFFFFF" width="0.875" height="4.021"/>
	<rect x="66.75" y="49.291" fill="#FFFFFF" width="0.875" height="4.021"/>
	<rect x="68.125" y="49.291" fill="#FFFFFF" width="0.875" height="4.021"/>
	<rect x="69.625" y="49.291" fill="#FFFFFF" width="0.875" height="4.021"/>
	<rect x="71.125" y="49.291" fill="#FFFFFF" width="0.875" height="4.021"/>
	<rect x="72.563" y="49.291" fill="#FFFFFF" width="0.875" height="4.021"/>
	<rect x="73.813" y="49.291" fill="#FFFFFF" width="0.875" height="4.021"/>
	<rect x="75.375" y="49.291" fill="#FFFFFF" width="0.875" height="4.021"/>
	<rect x="76.75" y="49.291" fill="#FFFFFF" width="0.875" height="4.021"/>
	<rect x="78.313" y="49.291" fill="#FFFFFF" width="0.875" height="4.021"/>
	<rect x="79.688" y="49.291" fill="#FFFFFF" width="0.875" height="4.021"/>
	<rect x="81.188" y="49.291" fill="#FFFFFF" width="0.875" height="4.021"/>
	<rect x="82.813" y="49.291" fill="#FFFFFF" width="0.875" height="4.021"/>
	<rect x="84.313" y="49.291" fill="#FFFFFF" width="0.875" height="4.021"/>
	<rect x="85.688" y="49.291" fill="#FFFFFF" width="0.875" height="4.021"/>
	<rect x="87.125" y="49.291" fill="#FFFFFF" width="0.875" height="4.021"/>
	<rect x="65.25" y="16.807" fill="#FFFFFF" width="0.875" height="4.021"/>
	<rect x="66.75" y="16.807" fill="#FFFFFF" width="0.875" height="4.021"/>
	<rect x="68.125" y="16.807" fill="#FFFFFF" width="0.875" height="4.021"/>
	<rect x="69.625" y="16.807" fill="#FFFFFF" width="0.875" height="4.021"/>
	<rect x="71.125" y="16.807" fill="#FFFFFF" width="0.875" height="4.021"/>
	<rect x="72.563" y="16.807" fill="#FFFFFF" width="0.875" height="4.021"/>
	<rect x="73.813" y="16.807" fill="#FFFFFF" width="0.875" height="4.021"/>
	<rect x="75.375" y="16.807" fill="#FFFFFF" width="0.875" height="4.021"/>
	<rect x="76.75" y="16.807" fill="#FFFFFF" width="0.875" height="4.021"/>
	<rect x="78.313" y="16.807" fill="#FFFFFF" width="0.875" height="4.021"/>
	<rect x="79.688" y="16.807" fill="#FFFFFF" width="0.875" height="4.021"/>
	<rect x="81.188" y="16.807" fill="#FFFFFF" width="0.875" height="4.021"/>
	<rect x="82.813" y="16.807" fill="#FFFFFF" width="0.875" height="4.021"/>
	<rect x="84.313" y="16.807" fill="#FFFFFF" width="0.875" height="4.021"/>
	<rect x="85.688" y="16.807" fill="#FFFFFF" width="0.875" height="4.021"/>
	<rect x="87.125" y="16.807" fill="#FFFFFF" width="0.875" height="4.021"/>
	<rect x="91" y="23.685" fill="#FFFFFF" width="4.021" height="0.875"/>
	<rect x="91" y="25.185" fill="#FFFFFF" width="4.021" height="0.875"/>
	<rect x="91" y="26.56" fill="#FFFFFF" width="4.021" height="0.875"/>
	<rect x="91" y="28.06" fill="#FFFFFF" width="4.021" height="0.875"/>
	<rect x="91" y="29.56" fill="#FFFFFF" width="4.021" height="0.875"/>
	<rect x="91" y="30.997" fill="#FFFFFF" width="4.021" height="0.875"/>
	<rect x="91" y="32.247" fill="#FFFFFF" width="4.021" height="0.875"/>
	<rect x="91" y="33.81" fill="#FFFFFF" width="4.021" height="0.875"/>
	<rect x="91" y="35.185" fill="#FFFFFF" width="4.021" height="0.875"/>
	<rect x="91" y="36.747" fill="#FFFFFF" width="4.021" height="0.875"/>
	<rect x="91" y="38.122" fill="#FFFFFF" width="4.021" height="0.875"/>
	<rect x="91" y="39.622" fill="#FFFFFF" width="4.021" height="0.875"/>
	<rect x="91" y="41.247" fill="#FFFFFF" width="4.021" height="0.875"/>
	<rect x="91" y="42.747" fill="#FFFFFF" width="4.021" height="0.875"/>
	<rect x="91" y="44.122" fill="#FFFFFF" width="4.021" height="0.875"/>
	<rect x="91" y="45.56" fill="#FFFFFF" width="4.021" height="0.875"/>
	<rect x="58.479" y="23.685" fill="#FFFFFF" width="4.021" height="0.875"/>
	<rect x="58.479" y="25.185" fill="#FFFFFF" width="4.021" height="0.875"/>
	<rect x="58.479" y="26.56" fill="#FFFFFF" width="4.021" height="0.875"/>
	<rect x="58.479" y="28.06" fill="#FFFFFF" width="4.021" height="0.875"/>
	<rect x="58.479" y="29.56" fill="#FFFFFF" width="4.021" height="0.875"/>
	<rect x="58.479" y="30.997" fill="#FFFFFF" width="4.021" height="0.875"/>
	<rect x="58.479" y="32.247" fill="#FFFFFF" width="4.021" height="0.875"/>
	<rect x="58.479" y="33.81" fill="#FFFFFF" width="4.021" height="0.875"/>
	<rect x="58.479" y="35.185" fill="#FFFFFF" width="4.021" height="0.875"/>
	<rect x="58.479" y="36.747" fill="#FFFFFF" width="4.021" height="0.875"/>
	<rect x="58.479" y="38.122" fill="#FFFFFF" width="4.021" height="0.875"/>
	<rect x="58.479" y="39.622" fill="#FFFFFF" width="4.021" height="0.875"/>
	<rect x="58.479" y="41.247" fill="#FFFFFF" width="4.021" height="0.875"/>
	<rect x="58.479" y="42.747" fill="#FFFFFF" width="4.021" height="0.875"/>
	<rect x="58.479" y="44.122" fill="#FFFFFF" width="4.021" height="0.875"/>
	<rect x="58.479" y="45.56" fill="#FFFFFF" width="4.021" height="0.875"/>
	<rect x="14.875" y="33.832" fill="#FBDC12" width="5.25" height="8.938"/>
	<circle fill="#855E3A" cx="17.308" cy="99.881" r="2.058"/>
	<circle fill="#855E3A" cx="29.431" cy="99.881" r="2.058"/>
	<circle fill="#855E3A" cx="17.308" cy="112.132" r="2.058"/>
	<circle fill="#855E3A" cx="29.431" cy="112.132" r="2.058"/>
	<circle fill="#272A22" cx="23.292" cy="105.69" r="5.809"/>
	<rect x="15.25" y="56.682" fill="#C1B58E" width="3.813" height="7.872"/>
	<rect x="27.525" y="56.682" fill="#C1B58E" width="3.813" height="7.872"/>
	<rect x="15.25" y="81.117" fill="#C1B58E" width="3.813" height="6.686"/>
	<rect x="27.525" y="81.117" fill="#C1B58E" width="3.813" height="6.686"/>
	<path fill="#211C1F" d="M32.5,79.197c0,1.566-1.269,2.836-2.834,2.836H16.919c-1.565,0-2.834-1.27-2.834-2.836V66.388
		c0-1.564,1.269-2.834,2.834-2.834h12.747c1.565,0,2.834,1.27,2.834,2.834V79.197z"/>
	<circle fill="#855E3A" cx="17.308" cy="66.81" r="2.058"/>
	<circle fill="#855E3A" cx="29.431" cy="66.81" r="2.058"/>
	<circle fill="#855E3A" cx="17.308" cy="79.061" r="2.058"/>
	<circle fill="#855E3A" cx="29.431" cy="79.061" r="2.058"/>
	<circle fill="#272A22" cx="23.292" cy="72.62" r="5.809"/>
	<g>
		<rect x="57.147" y="52.625" fill="#FFFFFF" width="6.79" height="2.625"/>
		<rect x="59.604" y="52.625" fill="#EBCD85" width="2.271" height="2.625"/>
	</g>
	<rect x="37.521" y="46.887" fill="#FFFFFF" width="2.625" height="6.79"/>
	<rect x="37.521" y="48.872" fill="#4A3831" width="2.625" height="2.878"/>
	<g>
		<rect x="85.688" y="54.438" fill="#FFFFFF" width="6.79" height="2.625"/>
		<rect x="88.145" y="54.438" fill="#EBCD85" width="2.271" height="2.625"/>
	</g>
	<g>
		<rect x="95.77" y="20.372" fill="#FFFFFF" width="6.79" height="2.625"/>
		<rect x="98.227" y="20.372" fill="#EBCD85" width="2.271" height="2.625"/>
	</g>
	<g>
		<rect x="59.177" y="14.477" fill="#FFFFFF" width="2.625" height="6.79"/>
		<rect x="59.177" y="16.934" fill="#EBCD85" width="2.625" height="2.271"/>
	</g>
	<rect x="15.167" fill="#FFFFFF" width="18.583" height="2"/>
	<rect x="17.5" y="5.5" fill="#D9CA73" width="1.333" height="11.833"/>
	<rect x="30.083" y="5.5" fill="#D9CA73" width="1.333" height="11.833"/>
	<rect x="12.25" y="18.818" fill="#FFFFFF" width="2.917" height="4.516"/>
	<rect x="33.167" y="18.818" fill="#FFFFFF" width="2.917" height="4.516"/>
	<rect x="28.083" y="36.06" fill="#323026" width="8.75" height="4"/>
	<rect x="29" y="40.06" fill="#FEFFFF" width="1.75" height="3.563"/>
	<rect x="29" y="32.466" fill="#FEFFFF" width="1.75" height="3.563"/>
	<rect x="31.583" y="32.466" fill="#FEFFFF" width="1.75" height="3.563"/>
	<rect x="34.625" y="32.466" fill="#FEFFFF" width="1.75" height="3.563"/>
	<rect x="34.625" y="40.06" fill="#FEFFFF" width="1.75" height="3.563"/>
	<rect x="37.25" y="9.583" fill="#323026" width="9" height="14.539"/>
	<rect x="38.833" y="24.122" fill="#FFFFFE" width="5.833" height="1.938"/>
	<rect x="38.833" y="7.832" fill="#FFFFFE" width="5.833" height="1.938"/>
	<rect x="46.75" y="7.832" fill="#323026" width="9.25" height="3.084"/>
	<rect x="49.917" y="10.917" fill="#FFFFFE" width="3.25" height="3.561"/>
	<rect x="47.333" y="4.833" fill="#FFFFFE" width="2.917" height="2.999"/>
	<rect x="52.417" y="4.833" fill="#FFFFFE" width="2.917" height="2.999"/>
	<g>
		<rect x="93.011" y="11.25" fill="#FBF9D8" width="2.759" height="7.167"/>
		<rect x="93.011" y="13.407" fill="#1C1719" width="2.759" height="2.935"/>
	</g>
	<g>
		<rect x="97.785" y="11.25" fill="#FBF9D8" width="2.759" height="7.167"/>
		<rect x="97.785" y="13.407" fill="#1C1719" width="2.759" height="2.935"/>
	</g>
	<g>
		<rect x="102.035" y="11.25" fill="#FBF9D8" width="2.759" height="7.167"/>
		<rect x="102.035" y="13.407" fill="#1C1719" width="2.759" height="2.935"/>
	</g>
	<g>
		<rect x="93.011" y="2.833" fill="#FFFFFF" width="2.759" height="6.936"/>
		<rect x="93.011" y="4.833" fill="#F8F4B1" width="2.759" height="2.999"/>
	</g>
	<g>
		<rect x="97.785" y="2.833" fill="#FFFFFF" width="2.759" height="6.936"/>
		<rect x="97.785" y="4.833" fill="#F8F4B1" width="2.759" height="2.999"/>
	</g>
	<g>
		<rect x="102.035" y="2.833" fill="#FFFFFF" width="2.759" height="6.936"/>
		<rect x="102.035" y="4.833" fill="#F8F4B1" width="2.759" height="2.999"/>
	</g>
	<g>
		<rect x="79.688" y="1.333" fill="#E2EBD2" width="3.125" height="7.467"/>
		<rect x="79.688" y="2.833" fill="#2C2D25" width="3.125" height="3.468"/>
	</g>
	<rect x="54.5" y="1" fill="#E2EBD2" width="7.302" height="3"/>
	<rect x="56.583" y="1" fill="#2C2D25" width="3.333" height="3"/>
	<rect x="53.875" y="20.829" fill="#939081" width="2.708" height="2.505"/>
	<rect x="53.875" y="25.307" fill="#939081" width="2.708" height="2.505"/>
	<rect x="49.229" y="23.932" fill="#939081" width="2.708" height="2.505"/>
	<rect x="49.229" y="28.307" fill="#939081" width="2.708" height="2.505"/>
	<rect x="44.896" y="30.62" fill="#939081" width="2.708" height="2.505"/>
	<rect x="40.396" y="30.62" fill="#939081" width="2.708" height="2.505"/>
	<g>
		<text transform="matrix(0 1 -1 0 0.6323 4.834)" fill="#FFFFFF" font-family="'Calibri'" font-size="3.7585">B2</text>
	</g>
	<g>
		<text transform="matrix(0 1 -1 0 113.0703 3.1465)" fill="#FFFFFF" font-family="'Calibri'" font-size="3.7585">A15</text>
	</g>
	<g>
		<text transform="matrix(-1.1361 0 0 -1 113.585 0.5825)" fill="#FFFFFF" font-family="'Calibri'" font-size="3.7585">LED1</text>
	</g>
	<g>
		<text transform="matrix(-1.1361 0 0 -1 92.502 0.5825)" fill="#FFFFFF" font-family="'Calibri'" font-size="3.7585">LED3</text>
	</g>
	<g>
		<text transform="matrix(-1.2032 0 0 -1 102.9189 0.1489)" fill="#FFFFFF" font-family="'Calibri'" font-size="3.165">LED2</text>
	</g>
	<g>
		<text transform="matrix(0 1 -1 0 113.0703 11.7715)" fill="#FFFFFF" font-family="'Calibri'" font-size="3.7585">A14</text>
	</g>
	<g>
		<text transform="matrix(0 1 -1 0 113.0703 18.8184)" fill="#FFFFFF" font-family="'Calibri'" font-size="3.7585">A13</text>
	</g>
	<g>
		<text transform="matrix(0 1 -1 0 113.0703 24.6226)" fill="#FFFFFF" font-family="'Calibri'" font-size="3.7585">A10</text>
	</g>
	<g>
		<text transform="matrix(0 1 -1 0 112.7754 33.4175)" fill="#FFFFFF" font-family="'Calibri'" font-size="3.7585">A9</text>
	</g>
	<g>
		<text transform="matrix(1 0 0 1 40.8057 74.2476)" fill="#FFFFFF" font-family="'Calibri'" font-size="3.7585">A3</text>
	</g>
	<g>
		<text transform="matrix(1 0 0 1 33.3379 62.3413)" fill="#FFFFFF" font-family="'Calibri'" font-size="3.7585">A2</text>
	</g>
	<g>
		<text transform="matrix(1 0 0 1 49.25 74.2476)" fill="#FFFFFF" font-family="'Calibri'" font-size="3.7585">A4</text>
	</g>
	<g>
		<text transform="matrix(1 0 0 1 56.1567 74.2476)" fill="#FFFFFF" font-family="'Calibri'" font-size="3.7585">A5</text>
	</g>
	<g>
		<text transform="matrix(1 0 0 1 77.625 74.2476)" fill="#FFFFFF" font-family="'Calibri'" font-size="3.7585">B0</text>
	</g>
	<g>
		<text transform="matrix(1 0 0 1 83.6875 74.2476)" fill="#FFFFFF" font-family="'Calibri'" font-size="3.7585">B1</text>
	</g>
	<g>
		<text transform="matrix(1 0 0 1 64.7188 72.2422)" fill="#FFFFFF" font-family="'Calibri'" font-size="3.7585">A6</text>
	</g>
	<g>
		<text transform="matrix(1 0 0 1 71.125 72.2422)" fill="#FFFFFF" font-family="'Calibri'" font-size="3.7585">A7</text>
	</g>
	<g>
		<text transform="matrix(1 0 0 1 91 72.2422)" fill="#FFFFFF" font-family="'Calibri'" font-size="3.7585">B10</text>
	</g>
	<g>
		<text transform="matrix(1 0 0 1 99.4375 72.2422)" fill="#FFFFFF" font-family="'Calibri'" font-size="3.7585">B11</text>
	</g>
	<g>
		<text transform="matrix(0 1 -1 0 112.7754 40.0601)" fill="#FFFFFF" font-family="'Calibri'" font-size="3.7585">A8</text>
	</g>
	<g>
		<text transform="matrix(0 1 -1 0 112.7754 46.792)" fill="#FFFFFF" font-family="'Calibri'" font-size="3.7585">C11</text>
	</g>
	<g>
		<text transform="matrix(0 1 -1 0 112.7754 55.2505)" fill="#FFFFFF" font-family="'Calibri'" font-size="3.7585">C10</text>
	</g>
	<g>
		<text transform="matrix(0 1 -1 0 112.7754 63.667)" fill="#FFFFFF" font-family="'Calibri'" font-size="3.7585">C9</text>
	</g>
	<g>
		<text transform="matrix(0 1 -1 0 112.7754 70.417)" fill="#FFFFFF" font-family="'Calibri'" font-size="3.7585">C8</text>
	</g>
	<g>
		<text transform="matrix(0 1 -1 0 112.7754 76.8936)" fill="#FFFFFF" font-family="'Calibri'" font-size="3.7585">C7</text>
	</g>
	<g>
		<text transform="matrix(0 1 -1 0 112.7754 85.5605)" fill="#FFFFFF" font-family="'Calibri'" font-size="3.7585">C6</text>
	</g>
	<g>
		<text transform="matrix(0 1 -1 0 112.7754 91.8945)" fill="#FFFFFF" font-family="'Calibri'" font-size="3.7585">C5</text>
	</g>
	<g>
		<text transform="matrix(0 1 -1 0 112.7754 98.3486)" fill="#FFFFFF" font-family="'Calibri'" font-size="3.7585">C4</text>
	</g>
	<g>
		<text transform="matrix(0 1 -1 0 112.7754 104.875)" fill="#FFFFFF" font-family="'Calibri'" font-size="3.7585">B15</text>
	</g>
	<g>
		<text transform="matrix(0 1 -1 0 112.7754 113.542)" fill="#FFFFFF" font-family="'Calibri'" font-size="3.7585">B14</text>
	</g>
	<g>
		<text transform="matrix(0 1 -1 0 112.7754 119.959)" fill="#FFFFFF" font-family="'Calibri'" font-size="3.7585">B13</text>
	</g>
	<g>
		<text transform="matrix(0 1 -1 0 112.7754 128.665)" fill="#FFFFFF" font-family="'Calibri'" font-size="3.7585">3.3</text>
	</g>
	<g>
		<text transform="matrix(0 1 -1 0 0.6323 11.7715)" fill="#FFFFFF" font-family="'Calibri'" font-size="3.7585">B3</text>
	</g>
	<g>
		<text transform="matrix(0 1 -1 0 0.6323 20.2129)" fill="#FFFFFF" font-family="'Calibri'" font-size="3.7585">B4</text>
	</g>
	<g>
		<text transform="matrix(0 1 -1 0 0.6323 26.9004)" fill="#FFFFFF" font-family="'Calibri'" font-size="3.7585">B5</text>
	</g>
	<g>
		<text transform="matrix(0 1 -1 0 0.6323 33.4004)" fill="#FFFFFF" font-family="'Calibri'" font-size="3.7585">B6</text>
	</g>
	<g>
		<text transform="matrix(0 1 -1 0 0.6323 41.8413)" fill="#FFFFFF" font-family="'Calibri'" font-size="3.7585">B7</text>
	</g>
	<g>
		<text transform="matrix(0 1 -1 0 0.6323 48.4038)" fill="#FFFFFF" font-family="'Calibri'" font-size="3.7585">B8</text>
	</g>
	<g>
		<text transform="matrix(0 1 -1 0 0.6323 54.9038)" fill="#FFFFFF" font-family="'Calibri'" font-size="3.7585">B9</text>
	</g>
	<g>
		<text transform="matrix(0 1 -1 0 0.6323 61.3413)" fill="#FFFFFF" font-family="'Calibri'" font-size="3.7585">B12</text>
	</g>
	<g>
		<text transform="matrix(0 1 -1 0 11.3823 66.8105)" fill="#FFFFFF" font-family="'Calibri'" font-size="3.7585">RST</text>
	</g>
	<g>
		<text transform="matrix(0 1 -1 0 11.3823 95.8906)" fill="#FFFFFF" font-family="'Calibri'" font-size="3.7585">BTN1</text>
	</g>
	<g>
		<text transform="matrix(0 1 -1 0 0.6323 69.7163)" fill="#FFFFFF" font-family="'Calibri'" font-size="3.7585">C12</text>
	</g>
	<g>
		<text transform="matrix(0 1 -1 0 0.6323 76.8936)" fill="#FFFFFF" font-family="'Calibri'" font-size="3.7585">C15</text>
	</g>
	<g>
		<text transform="matrix(0 1 -1 0 0.6323 84.8311)" fill="#FFFFFF" font-family="'Calibri'" font-size="3.7585">C0</text>
	</g>
	<g>
		<text transform="matrix(0 1 -1 0 0.6323 93.4326)" fill="#FFFFFF" font-family="'Calibri'" font-size="3.7585">C1</text>
	</g>
	<g>
		<text transform="matrix(0 1 -1 0 0.6323 100.2451)" fill="#FFFFFF" font-family="'Calibri'" font-size="3.7585">C2</text>
	</g>
	<g>
		<text transform="matrix(0 1 -1 0 0.6323 106.4951)" fill="#FFFFFF" font-family="'Calibri'" font-size="3.7585">C3</text>
	</g>
	<g>
		<text transform="matrix(0 1 -1 0 0.6323 115.1045)" fill="#FFFFFF" font-family="'Calibri'" font-size="3.7585">A0</text>
	</g>
	<g>
		<text transform="matrix(0 1 -1 0 0.6323 121.3545)" fill="#FFFFFF" font-family="'Calibri'" font-size="3.7585">A1</text>
	</g>
	<g>
		<text transform="matrix(0 1 -1 0 0.6323 128.6641)" fill="#FFFFFF" font-family="'Calibri'" font-size="3.7585">3.3</text>
	</g>
	<g>
		<text transform="matrix(0 1 -1 0 0.6323 135.4766)" fill="#FFFFFF" font-family="'Calibri'" font-size="3.7585">Bat</text>
	</g>
	<g>
		<text transform="matrix(0 0.8768 -1 0 0.6323 143.3311)" fill="#FFFFFF" font-family="'Calibri'" font-size="3.7585">GND</text>
	</g>
	<g>
		<text transform="matrix(0 1 -1 0 112.7754 136.0537)" fill="#FFFFFF" font-family="'Calibri'" font-size="3.7585">Bat</text>
	</g>
	<g>
		<text transform="matrix(0 0.8768 -1 0 112.7754 143.9082)" fill="#FFFFFF" font-family="'Calibri'" font-size="3.7585">GND</text>
	</g>
	<rect x="20.75" y="18.818" fill="#9F8E7A" width="1.5" height="8.617"/>
	<rect x="26.775" y="18.818" fill="#9F8E7A" width="1.5" height="8.617"/>
	<rect x="20.125" y="26.997" fill="#AFA580" width="2.875" height="5.688"/>
	<rect x="26.088" y="26.997" fill="#AFA580" width="2.875" height="5.688"/>
</g>
</svg>
