  0
SECTION
  2
HEADER
  9
$ACADVER
  1
AC1014
  9
$HANDSEED
  5
FFFF
  9
$MEASUREMENT
 70
     1
  0
ENDSEC
  0
SECTION
  2
TABLES
  0
TABLE
  2
VPORT
  5
8
330
0
100
AcDbSymbolTable
 70
     4
  0
VPORT
  5
2E
330
8
100
AcDbSymbolTableRecord
100
AcDbViewportTableRecord
  2
*ACTIVE
 70
     0
 10
0.0
 20
0.0
 11
1.0
 21
1.0
 12
210.0
 22
148.5
 13
0.0
 23
0.0
 14
10.0
 24
10.0
 15
10.0
 25
10.0
 16
0.0
 26
0.0
 36
1.0
 17
0.0
 27
0.0
 37
0.0
 40
341.0
 41
1.24
 42
50.0
 43
0.0
 44
0.0
 50
0.0
 51
0.0
 71
     0
 72
   100
 73
     1
 74
     3
 75
     0
 76
     0
 77
     0
 78
     0
  0
ENDTAB
  0
TABLE
  2
LTYPE
  5
5
330
0
100
AcDbSymbolTable
 70
     1
  0
LTYPE
  5
14
330
5
100
AcDbSymbolTableRecord
100
AcDbLinetypeTableRecord
  2
BYBLOCK
 70
     0
  3

 72
    65
 73
     0
 40
0.0
  0
LTYPE
  5
15
330
5
100
AcDbSymbolTableRecord
100
AcDbLinetypeTableRecord
  2
BYLAYER
 70
     0
  3

 72
    65
 73
     0
 40
0.0
  0
LTYPE
  5
16
330
5
100
AcDbSymbolTableRecord
100
AcDbLinetypeTableRecord
  2
CONTINUOUS
 70
     0
  3
Solid line
 72
    65
 73
     0
 40
0.0
  0
ENDTAB
  0
TABLE
  2
LAYER
  5
2
100
AcDbSymbolTable
 70
1
  0
LAYER
  5
50
100
AcDbSymbolTableRecord
100
AcDbLayerTableRecord
  2
0
 70
0
  6
CONTINUOUS
  0
ENDTAB
  0
TABLE
  2
STYLE
  5
3
330
0
100
AcDbSymbolTable
 70
     1
  0
STYLE
  5
11
330
3
100
AcDbSymbolTableRecord
100
AcDbTextStyleTableRecord
  2
STANDARD
 70
     0
 40
0.0
 41
1.0
 50
0.0
 71
     0
 42
2.5
  3
txt
  4

  0
ENDTAB
  0
TABLE
  2
VIEW
  5
6
330
0
100
AcDbSymbolTable
 70
     0
  0
ENDTAB
  0
TABLE
  2
UCS
  5
7
330
0
100
AcDbSymbolTable
 70
     0
  0
ENDTAB
  0
TABLE
  2
APPID
  5
9
330
0
100
AcDbSymbolTable
 70
     2
  0
APPID
  5
12
330
9
100
AcDbSymbolTableRecord
100
AcDbRegAppTableRecord
  2
ACAD
 70
     0
  0
ENDTAB
  0
TABLE
  2
DIMSTYLE
  5
A
330
0
100
AcDbSymbolTable
 70
     1
  0
DIMSTYLE
105
27
330
A
100
AcDbSymbolTableRecord
100
AcDbDimStyleTableRecord
  2
ISO-25
 70
     0
  3

  4

  5

  6

  7

 40
1.0
 41
2.5
 42
0.625
 43
3.75
 44
1.25
 45
0.0
 46
0.0
 47
0.0
 48
0.0
140
2.5
141
2.5
142
0.0
143
0.03937007874016
144
1.0
145
0.0
146
1.0
147
0.625
 71
     0
 72
     0
 73
     0
 74
     0
 75
     0
 76
     0
 77
     1
 78
     8
170
     0
171
     3
172
     1
173
     0
174
     0
175
     0
176
     0
177
     0
178
     0
270
     2
271
     2
272
     2
273
     2
274
     3
340
11
275
     0
280
     0
281
     0
282
     0
283
     0
284
     8
285
     0
286
     0
287
     3
288
     0
  0
ENDTAB
  0
TABLE
  2
BLOCK_RECORD
  5
1
330
0
100
AcDbSymbolTable
 70
     1
  0
BLOCK_RECORD
  5
1F
330
1
100
AcDbSymbolTableRecord
100
AcDbBlockTableRecord
  2
*MODEL_SPACE
  0
BLOCK_RECORD
  5
1B
330
1
100
AcDbSymbolTableRecord
100
AcDbBlockTableRecord
  2
*PAPER_SPACE
  0
ENDTAB
  0
ENDSEC
  0
SECTION
  2
BLOCKS
  0
BLOCK
  5
20
330
1F
100
AcDbEntity
  8
0
100
AcDbBlockBegin
  2
*MODEL_SPACE
 70
     0
 10
0.0
 20
0.0
 30
0.0
  3
*MODEL_SPACE
  1

  0
ENDBLK
  5
21
330
1F
100
AcDbEntity
  8
0
100
AcDbBlockEnd
  0
BLOCK
  5
1C
330
1B
100
AcDbEntity
 67
     1
  8
0
100
AcDbBlockBegin
  2
*PAPER_SPACE
  1

  0
ENDBLK
  5
1D
330
1B
100
AcDbEntity
 67
     1
  8
0
100
AcDbBlockEnd
  0
ENDSEC
  0
SECTION
  2
ENTITIES
  0
LINE
  5
100
100
AcDbEntity
  8
0
 62
7
100
AcDbLine
 10
17.829255
 20
215.455655
 30
0.0
 11
17.829255
 21
230.455675
 31
0.0
  0
LINE
  5
101
100
AcDbEntity
  8
0
 62
7
100
AcDbLine
 10
17.829255
 20
230.455675
 30
0.0
 11
25.829266
 21
230.455675
 31
0.0
  0
LINE
  5
102
100
AcDbEntity
  8
0
 62
7
100
AcDbLine
 10
25.829266
 20
230.455675
 30
0.0
 11
25.829266
 21
233.455679
 31
0.0
  0
LINE
  5
103
100
AcDbEntity
  8
0
 62
7
100
AcDbLine
 10
25.829266
 20
233.455679
 30
0.0
 11
21.329260
 21
233.455679
 31
0.0
  0
LINE
  5
104
100
AcDbEntity
  8
0
 62
7
100
AcDbLine
 10
21.329260
 20
233.455679
 30
0.0
 11
21.329260
 21
236.455683
 31
0.0
  0
LINE
  5
105
100
AcDbEntity
  8
0
 62
7
100
AcDbLine
 10
21.329260
 20
236.455683
 30
0.0
 11
-16.670793
 21
236.455683
 31
0.0
  0
LINE
  5
106
100
AcDbEntity
  8
0
 62
7
100
AcDbLine
 10
-16.670793
 20
236.455683
 30
0.0
 11
-16.670793
 21
233.455679
 31
0.0
  0
LINE
  5
107
100
AcDbEntity
  8
0
 62
7
100
AcDbLine
 10
-16.670793
 20
233.455679
 30
0.0
 11
-21.170800
 21
233.455679
 31
0.0
  0
LINE
  5
108
100
AcDbEntity
  8
0
 62
7
100
AcDbLine
 10
-21.170800
 20
233.455679
 30
0.0
 11
-21.170800
 21
230.455675
 31
0.0
  0
LINE
  5
109
100
AcDbEntity
  8
0
 62
7
100
AcDbLine
 10
-21.170800
 20
230.455675
 30
0.0
 11
-14.670790
 21
230.455675
 31
0.0
  0
LINE
  5
10a
100
AcDbEntity
  8
0
 62
7
100
AcDbLine
 10
-14.670790
 20
230.455675
 30
0.0
 11
-14.670790
 21
225.455668
 31
0.0
  0
LINE
  5
10b
100
AcDbEntity
  8
0
 62
7
100
AcDbLine
 10
-14.670790
 20
225.455668
 30
0.0
 11
-13.170788
 21
225.455668
 31
0.0
  0
LINE
  5
10c
100
AcDbEntity
  8
0
 62
7
100
AcDbLine
 10
-13.170788
 20
225.455668
 30
0.0
 11
-13.170788
 21
215.455655
 31
0.0
  0
LINE
  5
10d
100
AcDbEntity
  8
0
 62
7
100
AcDbLine
 10
-13.170788
 20
215.455655
 30
0.0
 11
-10.170784
 21
215.455655
 31
0.0
  0
LINE
  5
10e
100
AcDbEntity
  8
0
 62
7
100
AcDbLine
 10
-10.170784
 20
215.455655
 30
0.0
 11
-10.170784
 21
225.455668
 31
0.0
  0
LINE
  5
10f
100
AcDbEntity
  8
0
 62
7
100
AcDbLine
 10
-10.170784
 20
225.455668
 30
0.0
 11
-8.670782
 21
225.455668
 31
0.0
  0
LINE
  5
110
100
AcDbEntity
  8
0
 62
7
100
AcDbLine
 10
-8.670782
 20
225.455668
 30
0.0
 11
-8.670782
 21
226.855680
 31
0.0
  0
LINE
  5
111
100
AcDbEntity
  8
0
 62
7
100
AcDbLine
 10
-8.670782
 20
226.855680
 30
0.0
 11
-4.170777
 21
226.855680
 31
0.0
  0
SPLINE
  5
112
100
AcDbEntity
  8
0
 62
7
100
AcDbSpline
 70
8
 71
3
 72
8
 73
4
 74
0
 40
0
 40
0
 40
0
 40
0
 40
1
 40
1
 40
1
 40
1
 10
-4.170777
 20
226.855680
 30
0.0
 10
-4.170777
 20
228.038335
 30
0.0
 10
-4.170777
 20
229.358553
 30
0.0
 10
-4.170777
 20
230.455675
 30
0.0
  0
LINE
  5
113
100
AcDbEntity
  8
0
 62
7
100
AcDbLine
 10
-4.170777
 20
230.455675
 30
0.0
 11
14.829251
 21
230.455675
 31
0.0
  0
LINE
  5
114
100
AcDbEntity
  8
0
 62
7
100
AcDbLine
 10
14.829251
 20
230.455675
 30
0.0
 11
14.829251
 21
215.455655
 31
0.0
  0
LINE
  5
115
100
AcDbEntity
  8
0
 62
7
100
AcDbLine
 10
14.829251
 20
215.455655
 30
0.0
 11
17.829255
 21
215.455655
 31
0.0
  0
LINE
  5
116
100
AcDbEntity
  8
0
 62
7
100
AcDbLine
 10
0.798500
 20
239.260157
 30
0.0
 11
1.548881
 21
239.032547
 31
0.0
  0
LINE
  5
117
100
AcDbEntity
  8
0
 62
7
100
AcDbLine
 10
1.548881
 20
239.032547
 30
0.0
 11
2.329232
 21
238.955687
 31
0.0
  0
LINE
  5
118
100
AcDbEntity
  8
0
 62
7
100
AcDbLine
 10
2.329232
 20
238.955687
 30
0.0
 11
3.109583
 21
239.032547
 31
0.0
  0
LINE
  5
119
100
AcDbEntity
  8
0
 62
7
100
AcDbLine
 10
3.109583
 20
239.032547
 30
0.0
 11
3.859964
 21
239.260157
 31
0.0
  0
LINE
  5
11a
100
AcDbEntity
  8
0
 62
7
100
AcDbLine
 10
3.859964
 20
239.260157
 30
0.0
 11
4.551505
 21
239.629808
 31
0.0
  0
LINE
  5
11b
100
AcDbEntity
  8
0
 62
7
100
AcDbLine
 10
4.551505
 20
239.629808
 30
0.0
 11
5.157646
 21
240.127258
 31
0.0
  0
LINE
  5
11c
100
AcDbEntity
  8
0
 62
7
100
AcDbLine
 10
5.157646
 20
240.127258
 30
0.0
 11
5.655107
 21
240.733399
 31
0.0
  0
LINE
  5
11d
100
AcDbEntity
  8
0
 62
7
100
AcDbLine
 10
5.655107
 20
240.733399
 30
0.0
 11
6.024747
 21
241.424940
 31
0.0
  0
LINE
  5
11e
100
AcDbEntity
  8
0
 62
7
100
AcDbLine
 10
6.024747
 20
241.424940
 30
0.0
 11
6.252368
 21
242.175331
 31
0.0
  0
LINE
  5
11f
100
AcDbEntity
  8
0
 62
7
100
AcDbLine
 10
6.252368
 20
242.175331
 30
0.0
 11
6.329238
 21
242.955692
 31
0.0
  0
LINE
  5
120
100
AcDbEntity
  8
0
 62
7
100
AcDbLine
 10
6.329238
 20
242.955692
 30
0.0
 11
6.252368
 21
243.735993
 31
0.0
  0
LINE
  5
121
100
AcDbEntity
  8
0
 62
7
100
AcDbLine
 10
6.252368
 20
243.735993
 30
0.0
 11
6.024747
 21
244.486394
 31
0.0
  0
LINE
  5
122
100
AcDbEntity
  8
0
 62
7
100
AcDbLine
 10
6.024747
 20
244.486394
 30
0.0
 11
5.655107
 21
245.177996
 31
0.0
  0
LINE
  5
123
100
AcDbEntity
  8
0
 62
7
100
AcDbLine
 10
5.655107
 20
245.177996
 30
0.0
 11
5.157646
 21
245.784097
 31
0.0
  0
LINE
  5
124
100
AcDbEntity
  8
0
 62
7
100
AcDbLine
 10
5.157646
 20
245.784097
 30
0.0
 11
4.551505
 21
246.281598
 31
0.0
  0
LINE
  5
125
100
AcDbEntity
  8
0
 62
7
100
AcDbLine
 10
4.551505
 20
246.281598
 30
0.0
 11
4.225745
 21
246.455698
 31
0.0
  0
LINE
  5
126
100
AcDbEntity
  8
0
 62
7
100
AcDbLine
 10
4.225745
 20
246.455698
 30
0.0
 11
26.329267
 21
246.455698
 31
0.0
  0
LINE
  5
127
100
AcDbEntity
  8
0
 62
7
100
AcDbLine
 10
26.329267
 20
246.455698
 30
0.0
 11
26.329267
 21
249.455702
 31
0.0
  0
LINE
  5
128
100
AcDbEntity
  8
0
 62
7
100
AcDbLine
 10
26.329267
 20
249.455702
 30
0.0
 11
-21.670800
 21
249.455702
 31
0.0
  0
LINE
  5
129
100
AcDbEntity
  8
0
 62
7
100
AcDbLine
 10
-21.670800
 20
249.455702
 30
0.0
 11
-21.670800
 21
246.455698
 31
0.0
  0
LINE
  5
12a
100
AcDbEntity
  8
0
 62
7
100
AcDbLine
 10
-21.670800
 20
246.455698
 30
0.0
 11
0.432719
 21
246.455698
 31
0.0
  0
LINE
  5
12b
100
AcDbEntity
  8
0
 62
7
100
AcDbLine
 10
0.432719
 20
246.455698
 30
0.0
 11
0.106959
 21
246.281598
 31
0.0
  0
LINE
  5
12c
100
AcDbEntity
  8
0
 62
7
100
AcDbLine
 10
0.106959
 20
246.281598
 30
0.0
 11
-0.499182
 21
245.784097
 31
0.0
  0
LINE
  5
12d
100
AcDbEntity
  8
0
 62
7
100
AcDbLine
 10
-0.499182
 20
245.784097
 30
0.0
 11
-0.996643
 21
245.177996
 31
0.0
  0
LINE
  5
12e
100
AcDbEntity
  8
0
 62
7
100
AcDbLine
 10
-0.996643
 20
245.177996
 30
0.0
 11
-1.366283
 21
244.486394
 31
0.0
  0
LINE
  5
12f
100
AcDbEntity
  8
0
 62
7
100
AcDbLine
 10
-1.366283
 20
244.486394
 30
0.0
 11
-1.593903
 21
243.735993
 31
0.0
  0
LINE
  5
130
100
AcDbEntity
  8
0
 62
7
100
AcDbLine
 10
-1.593903
 20
243.735993
 30
0.0
 11
-1.670774
 21
242.955692
 31
0.0
  0
LINE
  5
131
100
AcDbEntity
  8
0
 62
7
100
AcDbLine
 10
-1.670774
 20
242.955692
 30
0.0
 11
-1.593903
 21
242.175331
 31
0.0
  0
LINE
  5
132
100
AcDbEntity
  8
0
 62
7
100
AcDbLine
 10
-1.593903
 20
242.175331
 30
0.0
 11
-1.366283
 21
241.424940
 31
0.0
  0
LINE
  5
133
100
AcDbEntity
  8
0
 62
7
100
AcDbLine
 10
-1.366283
 20
241.424940
 30
0.0
 11
-0.996643
 21
240.733399
 31
0.0
  0
LINE
  5
134
100
AcDbEntity
  8
0
 62
7
100
AcDbLine
 10
-0.996643
 20
240.733399
 30
0.0
 11
-0.499182
 21
240.127258
 31
0.0
  0
LINE
  5
135
100
AcDbEntity
  8
0
 62
7
100
AcDbLine
 10
-0.499182
 20
240.127258
 30
0.0
 11
0.106959
 21
239.629808
 31
0.0
  0
LINE
  5
136
100
AcDbEntity
  8
0
 62
7
100
AcDbLine
 10
0.106959
 20
239.629808
 30
0.0
 11
0.798500
 21
239.260157
 31
0.0
  0
LINE
  5
137
100
AcDbEntity
  8
0
 62
7
100
AcDbLine
 10
-39.093925
 20
253.736008
 30
0.0
 11
-38.866324
 21
254.486409
 31
0.0
  0
LINE
  5
138
100
AcDbEntity
  8
0
 62
7
100
AcDbLine
 10
-38.866324
 20
254.486409
 30
0.0
 11
-38.496724
 21
255.178010
 31
0.0
  0
LINE
  5
139
100
AcDbEntity
  8
0
 62
7
100
AcDbLine
 10
-38.496724
 20
255.178010
 30
0.0
 11
-37.999223
 21
255.784111
 31
0.0
  0
LINE
  5
13a
100
AcDbEntity
  8
0
 62
7
100
AcDbLine
 10
-37.999223
 20
255.784111
 30
0.0
 11
-37.393122
 21
256.281612
 31
0.0
  0
LINE
  5
13b
100
AcDbEntity
  8
0
 62
7
100
AcDbLine
 10
-37.393122
 20
256.281612
 30
0.0
 11
-36.701521
 21
256.651212
 31
0.0
  0
LINE
  5
13c
100
AcDbEntity
  8
0
 62
7
100
AcDbLine
 10
-36.701521
 20
256.651212
 30
0.0
 11
-35.951120
 21
256.878813
 31
0.0
  0
LINE
  5
13d
100
AcDbEntity
  8
0
 62
7
100
AcDbLine
 10
-35.951120
 20
256.878813
 30
0.0
 11
-35.170819
 21
256.955713
 31
0.0
  0
LINE
  5
13e
100
AcDbEntity
  8
0
 62
7
100
AcDbLine
 10
-35.170819
 20
256.955713
 30
0.0
 11
-29.170811
 21
256.955713
 31
0.0
  0
LINE
  5
13f
100
AcDbEntity
  8
0
 62
7
100
AcDbLine
 10
-29.170811
 20
256.955713
 30
0.0
 11
-29.151611
 21
256.760612
 31
0.0
  0
LINE
  5
140
100
AcDbEntity
  8
0
 62
7
100
AcDbLine
 10
-29.151611
 20
256.760612
 30
0.0
 11
-29.094711
 21
256.573012
 31
0.0
  0
LINE
  5
141
100
AcDbEntity
  8
0
 62
7
100
AcDbLine
 10
-29.094711
 20
256.573012
 30
0.0
 11
-29.002310
 21
256.400112
 31
0.0
  0
LINE
  5
142
100
AcDbEntity
  8
0
 62
7
100
AcDbLine
 10
-29.002310
 20
256.400112
 30
0.0
 11
-28.877910
 21
256.248612
 31
0.0
  0
LINE
  5
143
100
AcDbEntity
  8
0
 62
7
100
AcDbLine
 10
-28.877910
 20
256.248612
 30
0.0
 11
-28.726410
 21
256.124212
 31
0.0
  0
LINE
  5
144
100
AcDbEntity
  8
0
 62
7
100
AcDbLine
 10
-28.726410
 20
256.124212
 30
0.0
 11
-28.553510
 21
256.031811
 31
0.0
  0
LINE
  5
145
100
AcDbEntity
  8
0
 62
7
100
AcDbLine
 10
-28.553510
 20
256.031811
 30
0.0
 11
-28.365910
 21
255.974911
 31
0.0
  0
LINE
  5
146
100
AcDbEntity
  8
0
 62
7
100
AcDbLine
 10
-28.365910
 20
255.974911
 30
0.0
 11
-28.170809
 21
255.955711
 31
0.0
  0
LINE
  5
147
100
AcDbEntity
  8
0
 62
7
100
AcDbLine
 10
-28.170809
 20
255.955711
 30
0.0
 11
-27.975709
 21
255.974911
 31
0.0
  0
LINE
  5
148
100
AcDbEntity
  8
0
 62
7
100
AcDbLine
 10
-27.975709
 20
255.974911
 30
0.0
 11
-27.788109
 21
256.031811
 31
0.0
  0
LINE
  5
149
100
AcDbEntity
  8
0
 62
7
100
AcDbLine
 10
-27.788109
 20
256.031811
 30
0.0
 11
-27.615209
 21
256.124212
 31
0.0
  0
LINE
  5
14a
100
AcDbEntity
  8
0
 62
7
100
AcDbLine
 10
-27.615209
 20
256.124212
 30
0.0
 11
-27.463708
 21
256.248612
 31
0.0
  0
LINE
  5
14b
100
AcDbEntity
  8
0
 62
7
100
AcDbLine
 10
-27.463708
 20
256.248612
 30
0.0
 11
-27.339308
 21
256.400112
 31
0.0
  0
LINE
  5
14c
100
AcDbEntity
  8
0
 62
7
100
AcDbLine
 10
-27.339308
 20
256.400112
 30
0.0
 11
-27.246908
 21
256.573012
 31
0.0
  0
LINE
  5
14d
100
AcDbEntity
  8
0
 62
7
100
AcDbLine
 10
-27.246908
 20
256.573012
 30
0.0
 11
-27.190008
 21
256.760612
 31
0.0
  0
LINE
  5
14e
100
AcDbEntity
  8
0
 62
7
100
AcDbLine
 10
-27.190008
 20
256.760612
 30
0.0
 11
-27.170808
 21
256.955713
 31
0.0
  0
LINE
  5
14f
100
AcDbEntity
  8
0
 62
7
100
AcDbLine
 10
-27.170808
 20
256.955713
 30
0.0
 11
31.829274
 21
256.955713
 31
0.0
  0
LINE
  5
150
100
AcDbEntity
  8
0
 62
7
100
AcDbLine
 10
31.829274
 20
256.955713
 30
0.0
 11
31.848474
 21
256.760612
 31
0.0
  0
LINE
  5
151
100
AcDbEntity
  8
0
 62
7
100
AcDbLine
 10
31.848474
 20
256.760612
 30
0.0
 11
31.905375
 21
256.573012
 31
0.0
  0
LINE
  5
152
100
AcDbEntity
  8
0
 62
7
100
AcDbLine
 10
31.905375
 20
256.573012
 30
0.0
 11
31.997775
 21
256.400112
 31
0.0
  0
LINE
  5
153
100
AcDbEntity
  8
0
 62
7
100
AcDbLine
 10
31.997775
 20
256.400112
 30
0.0
 11
32.122175
 21
256.248612
 31
0.0
  0
LINE
  5
154
100
AcDbEntity
  8
0
 62
7
100
AcDbLine
 10
32.122175
 20
256.248612
 30
0.0
 11
32.273675
 21
256.124212
 31
0.0
  0
LINE
  5
155
100
AcDbEntity
  8
0
 62
7
100
AcDbLine
 10
32.273675
 20
256.124212
 30
0.0
 11
32.446575
 21
256.031811
 31
0.0
  0
LINE
  5
156
100
AcDbEntity
  8
0
 62
7
100
AcDbLine
 10
32.446575
 20
256.031811
 30
0.0
 11
32.634176
 21
255.974911
 31
0.0
  0
LINE
  5
157
100
AcDbEntity
  8
0
 62
7
100
AcDbLine
 10
32.634176
 20
255.974911
 30
0.0
 11
32.829276
 21
255.955711
 31
0.0
  0
LINE
  5
158
100
AcDbEntity
  8
0
 62
7
100
AcDbLine
 10
32.829276
 20
255.955711
 30
0.0
 11
33.024376
 21
255.974911
 31
0.0
  0
LINE
  5
159
100
AcDbEntity
  8
0
 62
7
100
AcDbLine
 10
33.024376
 20
255.974911
 30
0.0
 11
33.211976
 21
256.031811
 31
0.0
  0
LINE
  5
15a
100
AcDbEntity
  8
0
 62
7
100
AcDbLine
 10
33.211976
 20
256.031811
 30
0.0
 11
33.384877
 21
256.124212
 31
0.0
  0
LINE
  5
15b
100
AcDbEntity
  8
0
 62
7
100
AcDbLine
 10
33.384877
 20
256.124212
 30
0.0
 11
33.536377
 21
256.248612
 31
0.0
  0
LINE
  5
15c
100
AcDbEntity
  8
0
 62
7
100
AcDbLine
 10
33.536377
 20
256.248612
 30
0.0
 11
33.660777
 21
256.400112
 31
0.0
  0
LINE
  5
15d
100
AcDbEntity
  8
0
 62
7
100
AcDbLine
 10
33.660777
 20
256.400112
 30
0.0
 11
33.753177
 21
256.573012
 31
0.0
  0
LINE
  5
15e
100
AcDbEntity
  8
0
 62
7
100
AcDbLine
 10
33.753177
 20
256.573012
 30
0.0
 11
33.810077
 21
256.760612
 31
0.0
  0
LINE
  5
15f
100
AcDbEntity
  8
0
 62
7
100
AcDbLine
 10
33.810077
 20
256.760612
 30
0.0
 11
33.829277
 21
256.955713
 31
0.0
  0
LINE
  5
160
100
AcDbEntity
  8
0
 62
7
100
AcDbLine
 10
33.829277
 20
256.955713
 30
0.0
 11
39.829286
 21
256.955713
 31
0.0
  0
LINE
  5
161
100
AcDbEntity
  8
0
 62
7
100
AcDbLine
 10
39.829286
 20
256.955713
 30
0.0
 11
40.609587
 21
256.878813
 31
0.0
  0
LINE
  5
162
100
AcDbEntity
  8
0
 62
7
100
AcDbLine
 10
40.609587
 20
256.878813
 30
0.0
 11
41.359988
 21
256.651212
 31
0.0
  0
LINE
  5
163
100
AcDbEntity
  8
0
 62
7
100
AcDbLine
 10
41.359988
 20
256.651212
 30
0.0
 11
42.051589
 21
256.281612
 31
0.0
  0
LINE
  5
164
100
AcDbEntity
  8
0
 62
7
100
AcDbLine
 10
42.051589
 20
256.281612
 30
0.0
 11
42.657690
 21
255.784111
 31
0.0
  0
LINE
  5
165
100
AcDbEntity
  8
0
 62
7
100
AcDbLine
 10
42.657690
 20
255.784111
 30
0.0
 11
43.155190
 21
255.178010
 31
0.0
  0
LINE
  5
166
100
AcDbEntity
  8
0
 62
7
100
AcDbLine
 10
43.155190
 20
255.178010
 30
0.0
 11
43.524791
 21
254.486409
 31
0.0
  0
LINE
  5
167
100
AcDbEntity
  8
0
 62
7
100
AcDbLine
 10
43.524791
 20
254.486409
 30
0.0
 11
43.752391
 21
253.736008
 31
0.0
  0
LINE
  5
168
100
AcDbEntity
  8
0
 62
7
100
AcDbLine
 10
43.752391
 20
253.736008
 30
0.0
 11
43.829291
 21
252.955707
 31
0.0
  0
LINE
  5
169
100
AcDbEntity
  8
0
 62
7
100
AcDbLine
 10
43.829291
 20
252.955707
 30
0.0
 11
43.829291
 21
212.955651
 31
0.0
  0
LINE
  5
16a
100
AcDbEntity
  8
0
 62
7
100
AcDbLine
 10
43.829291
 20
212.955651
 30
0.0
 11
43.752391
 21
212.175350
 31
0.0
  0
LINE
  5
16b
100
AcDbEntity
  8
0
 62
7
100
AcDbLine
 10
43.752391
 20
212.175350
 30
0.0
 11
43.524791
 21
211.424949
 31
0.0
  0
LINE
  5
16c
100
AcDbEntity
  8
0
 62
7
100
AcDbLine
 10
43.524791
 20
211.424949
 30
0.0
 11
43.155190
 21
210.733348
 31
0.0
  0
LINE
  5
16d
100
AcDbEntity
  8
0
 62
7
100
AcDbLine
 10
43.155190
 20
210.733348
 30
0.0
 11
42.657690
 21
210.127247
 31
0.0
  0
LINE
  5
16e
100
AcDbEntity
  8
0
 62
7
100
AcDbLine
 10
42.657690
 20
210.127247
 30
0.0
 11
42.051589
 21
209.629747
 31
0.0
  0
LINE
  5
16f
100
AcDbEntity
  8
0
 62
7
100
AcDbLine
 10
42.051589
 20
209.629747
 30
0.0
 11
41.359988
 21
209.260146
 31
0.0
  0
LINE
  5
170
100
AcDbEntity
  8
0
 62
7
100
AcDbLine
 10
41.359988
 20
209.260146
 30
0.0
 11
40.609587
 21
209.032546
 31
0.0
  0
LINE
  5
171
100
AcDbEntity
  8
0
 62
7
100
AcDbLine
 10
40.609587
 20
209.032546
 30
0.0
 11
39.829286
 21
208.955646
 31
0.0
  0
LINE
  5
172
100
AcDbEntity
  8
0
 62
7
100
AcDbLine
 10
39.829286
 20
208.955646
 30
0.0
 11
33.829277
 21
208.955646
 31
0.0
  0
LINE
  5
173
100
AcDbEntity
  8
0
 62
7
100
AcDbLine
 10
33.829277
 20
208.955646
 30
0.0
 11
33.810077
 21
209.150746
 31
0.0
  0
LINE
  5
174
100
AcDbEntity
  8
0
 62
7
100
AcDbLine
 10
33.810077
 20
209.150746
 30
0.0
 11
33.753177
 21
209.338346
 31
0.0
  0
LINE
  5
175
100
AcDbEntity
  8
0
 62
7
100
AcDbLine
 10
33.753177
 20
209.338346
 30
0.0
 11
33.660777
 21
209.511246
 31
0.0
  0
LINE
  5
176
100
AcDbEntity
  8
0
 62
7
100
AcDbLine
 10
33.660777
 20
209.511246
 30
0.0
 11
33.536377
 21
209.662747
 31
0.0
  0
LINE
  5
177
100
AcDbEntity
  8
0
 62
7
100
AcDbLine
 10
33.536377
 20
209.662747
 30
0.0
 11
33.384877
 21
209.787147
 31
0.0
  0
LINE
  5
178
100
AcDbEntity
  8
0
 62
7
100
AcDbLine
 10
33.384877
 20
209.787147
 30
0.0
 11
33.211976
 21
209.879547
 31
0.0
  0
LINE
  5
179
100
AcDbEntity
  8
0
 62
7
100
AcDbLine
 10
33.211976
 20
209.879547
 30
0.0
 11
33.024376
 21
209.936447
 31
0.0
  0
LINE
  5
17a
100
AcDbEntity
  8
0
 62
7
100
AcDbLine
 10
33.024376
 20
209.936447
 30
0.0
 11
32.829276
 21
209.955647
 31
0.0
  0
LINE
  5
17b
100
AcDbEntity
  8
0
 62
7
100
AcDbLine
 10
32.829276
 20
209.955647
 30
0.0
 11
32.634176
 21
209.936447
 31
0.0
  0
LINE
  5
17c
100
AcDbEntity
  8
0
 62
7
100
AcDbLine
 10
32.634176
 20
209.936447
 30
0.0
 11
32.446575
 21
209.879547
 31
0.0
  0
LINE
  5
17d
100
AcDbEntity
  8
0
 62
7
100
AcDbLine
 10
32.446575
 20
209.879547
 30
0.0
 11
32.273675
 21
209.787147
 31
0.0
  0
LINE
  5
17e
100
AcDbEntity
  8
0
 62
7
100
AcDbLine
 10
32.273675
 20
209.787147
 30
0.0
 11
32.122175
 21
209.662747
 31
0.0
  0
LINE
  5
17f
100
AcDbEntity
  8
0
 62
7
100
AcDbLine
 10
32.122175
 20
209.662747
 30
0.0
 11
31.997775
 21
209.511246
 31
0.0
  0
LINE
  5
180
100
AcDbEntity
  8
0
 62
7
100
AcDbLine
 10
31.997775
 20
209.511246
 30
0.0
 11
31.905375
 21
209.338346
 31
0.0
  0
LINE
  5
181
100
AcDbEntity
  8
0
 62
7
100
AcDbLine
 10
31.905375
 20
209.338346
 30
0.0
 11
31.848474
 21
209.150746
 31
0.0
  0
LINE
  5
182
100
AcDbEntity
  8
0
 62
7
100
AcDbLine
 10
31.848474
 20
209.150746
 30
0.0
 11
31.829274
 21
208.955646
 31
0.0
  0
LINE
  5
183
100
AcDbEntity
  8
0
 62
7
100
AcDbLine
 10
31.829274
 20
208.955646
 30
0.0
 11
-27.170808
 21
208.955646
 31
0.0
  0
LINE
  5
184
100
AcDbEntity
  8
0
 62
7
100
AcDbLine
 10
-27.170808
 20
208.955646
 30
0.0
 11
-27.190008
 21
209.150746
 31
0.0
  0
LINE
  5
185
100
AcDbEntity
  8
0
 62
7
100
AcDbLine
 10
-27.190008
 20
209.150746
 30
0.0
 11
-27.246908
 21
209.338346
 31
0.0
  0
LINE
  5
186
100
AcDbEntity
  8
0
 62
7
100
AcDbLine
 10
-27.246908
 20
209.338346
 30
0.0
 11
-27.339308
 21
209.511246
 31
0.0
  0
LINE
  5
187
100
AcDbEntity
  8
0
 62
7
100
AcDbLine
 10
-27.339308
 20
209.511246
 30
0.0
 11
-27.463708
 21
209.662747
 31
0.0
  0
LINE
  5
188
100
AcDbEntity
  8
0
 62
7
100
AcDbLine
 10
-27.463708
 20
209.662747
 30
0.0
 11
-27.615209
 21
209.787147
 31
0.0
  0
LINE
  5
189
100
AcDbEntity
  8
0
 62
7
100
AcDbLine
 10
-27.615209
 20
209.787147
 30
0.0
 11
-27.788109
 21
209.879547
 31
0.0
  0
LINE
  5
18a
100
AcDbEntity
  8
0
 62
7
100
AcDbLine
 10
-27.788109
 20
209.879547
 30
0.0
 11
-27.975709
 21
209.936447
 31
0.0
  0
LINE
  5
18b
100
AcDbEntity
  8
0
 62
7
100
AcDbLine
 10
-27.975709
 20
209.936447
 30
0.0
 11
-28.170809
 21
209.955647
 31
0.0
  0
LINE
  5
18c
100
AcDbEntity
  8
0
 62
7
100
AcDbLine
 10
-28.170809
 20
209.955647
 30
0.0
 11
-28.365910
 21
209.936447
 31
0.0
  0
LINE
  5
18d
100
AcDbEntity
  8
0
 62
7
100
AcDbLine
 10
-28.365910
 20
209.936447
 30
0.0
 11
-28.553510
 21
209.879547
 31
0.0
  0
LINE
  5
18e
100
AcDbEntity
  8
0
 62
7
100
AcDbLine
 10
-28.553510
 20
209.879547
 30
0.0
 11
-28.726410
 21
209.787147
 31
0.0
  0
LINE
  5
18f
100
AcDbEntity
  8
0
 62
7
100
AcDbLine
 10
-28.726410
 20
209.787147
 30
0.0
 11
-28.877910
 21
209.662747
 31
0.0
  0
LINE
  5
190
100
AcDbEntity
  8
0
 62
7
100
AcDbLine
 10
-28.877910
 20
209.662747
 30
0.0
 11
-29.002310
 21
209.511246
 31
0.0
  0
LINE
  5
191
100
AcDbEntity
  8
0
 62
7
100
AcDbLine
 10
-29.002310
 20
209.511246
 30
0.0
 11
-29.094711
 21
209.338346
 31
0.0
  0
LINE
  5
192
100
AcDbEntity
  8
0
 62
7
100
AcDbLine
 10
-29.094711
 20
209.338346
 30
0.0
 11
-29.151611
 21
209.150746
 31
0.0
  0
LINE
  5
193
100
AcDbEntity
  8
0
 62
7
100
AcDbLine
 10
-29.151611
 20
209.150746
 30
0.0
 11
-29.170811
 21
208.955646
 31
0.0
  0
LINE
  5
194
100
AcDbEntity
  8
0
 62
7
100
AcDbLine
 10
-29.170811
 20
208.955646
 30
0.0
 11
-35.170819
 21
208.955646
 31
0.0
  0
LINE
  5
195
100
AcDbEntity
  8
0
 62
7
100
AcDbLine
 10
-35.170819
 20
208.955646
 30
0.0
 11
-35.951120
 21
209.032546
 31
0.0
  0
LINE
  5
196
100
AcDbEntity
  8
0
 62
7
100
AcDbLine
 10
-35.951120
 20
209.032546
 30
0.0
 11
-36.701521
 21
209.260146
 31
0.0
  0
LINE
  5
197
100
AcDbEntity
  8
0
 62
7
100
AcDbLine
 10
-36.701521
 20
209.260146
 30
0.0
 11
-37.393122
 21
209.629747
 31
0.0
  0
LINE
  5
198
100
AcDbEntity
  8
0
 62
7
100
AcDbLine
 10
-37.393122
 20
209.629747
 30
0.0
 11
-37.999223
 21
210.127247
 31
0.0
  0
LINE
  5
199
100
AcDbEntity
  8
0
 62
7
100
AcDbLine
 10
-37.999223
 20
210.127247
 30
0.0
 11
-38.496724
 21
210.733348
 31
0.0
  0
LINE
  5
19a
100
AcDbEntity
  8
0
 62
7
100
AcDbLine
 10
-38.496724
 20
210.733348
 30
0.0
 11
-38.866324
 21
211.424949
 31
0.0
  0
LINE
  5
19b
100
AcDbEntity
  8
0
 62
7
100
AcDbLine
 10
-38.866324
 20
211.424949
 30
0.0
 11
-39.093925
 21
212.175350
 31
0.0
  0
LINE
  5
19c
100
AcDbEntity
  8
0
 62
7
100
AcDbLine
 10
-39.093925
 20
212.175350
 30
0.0
 11
-39.170825
 21
212.955651
 31
0.0
  0
LINE
  5
19d
100
AcDbEntity
  8
0
 62
7
100
AcDbLine
 10
-39.170825
 20
212.955651
 30
0.0
 11
-39.170825
 21
252.955707
 31
0.0
  0
LINE
  5
19e
100
AcDbEntity
  8
0
 62
7
100
AcDbLine
 10
-39.170825
 20
252.955707
 30
0.0
 11
-39.093925
 21
253.736008
 31
0.0
  0
LINE
  5
19f
100
AcDbEntity
  8
0
 62
7
100
AcDbLine
 10
-10.170784
 20
331.082301
 30
0.0
 11
-10.170784
 21
334.082300
 31
0.0
  0
LINE
  5
1a0
100
AcDbEntity
  8
0
 62
7
100
AcDbLine
 10
-10.170784
 20
334.082300
 30
0.0
 11
-24.170804
 21
334.082300
 31
0.0
  0
LINE
  5
1a1
100
AcDbEntity
  8
0
 62
7
100
AcDbLine
 10
-24.170804
 20
334.082300
 30
0.0
 11
-24.170804
 21
331.082301
 31
0.0
  0
LINE
  5
1a2
100
AcDbEntity
  8
0
 62
7
100
AcDbLine
 10
-24.170804
 20
331.082301
 30
0.0
 11
-10.170784
 21
331.082301
 31
0.0
  0
LINE
  5
1a3
100
AcDbEntity
  8
0
 62
7
100
AcDbLine
 10
-36.170820
 20
331.708166
 30
0.0
 11
-36.170820
 21
346.082323
 31
0.0
  0
LINE
  5
1a4
100
AcDbEntity
  8
0
 62
7
100
AcDbLine
 10
-36.170820
 20
346.082323
 30
0.0
 11
-34.119018
 21
346.082323
 31
0.0
  0
LINE
  5
1a5
100
AcDbEntity
  8
0
 62
7
100
AcDbLine
 10
-34.119018
 20
346.082323
 30
0.0
 11
-34.122818
 21
346.070323
 31
0.0
  0
LINE
  5
1a6
100
AcDbEntity
  8
0
 62
7
100
AcDbLine
 10
-34.122818
 20
346.070323
 30
0.0
 11
-34.170818
 21
345.582322
 31
0.0
  0
LINE
  5
1a7
100
AcDbEntity
  8
0
 62
7
100
AcDbLine
 10
-34.170818
 20
345.582322
 30
0.0
 11
-34.122818
 21
345.094322
 31
0.0
  0
LINE
  5
1a8
100
AcDbEntity
  8
0
 62
7
100
AcDbLine
 10
-34.122818
 20
345.094322
 30
0.0
 11
-33.980517
 21
344.625321
 31
0.0
  0
LINE
  5
1a9
100
AcDbEntity
  8
0
 62
7
100
AcDbLine
 10
-33.980517
 20
344.625321
 30
0.0
 11
-33.749517
 21
344.193320
 31
0.0
  0
LINE
  5
1aa
100
AcDbEntity
  8
0
 62
7
100
AcDbLine
 10
-33.749517
 20
344.193320
 30
0.0
 11
-33.438617
 21
343.814320
 31
0.0
  0
LINE
  5
1ab
100
AcDbEntity
  8
0
 62
7
100
AcDbLine
 10
-33.438617
 20
343.814320
 30
0.0
 11
-33.059716
 21
343.503319
 31
0.0
  0
LINE
  5
1ac
100
AcDbEntity
  8
0
 62
7
100
AcDbLine
 10
-33.059716
 20
343.503319
 30
0.0
 11
-32.627516
 21
343.272319
 31
0.0
  0
LINE
  5
1ad
100
AcDbEntity
  8
0
 62
7
100
AcDbLine
 10
-32.627516
 20
343.272319
 30
0.0
 11
-32.158515
 21
343.130319
 31
0.0
  0
LINE
  5
1ae
100
AcDbEntity
  8
0
 62
7
100
AcDbLine
 10
-32.158515
 20
343.130319
 30
0.0
 11
-31.670814
 21
343.082319
 31
0.0
  0
LINE
  5
1af
100
AcDbEntity
  8
0
 62
7
100
AcDbLine
 10
-31.670814
 20
343.082319
 30
0.0
 11
-31.183114
 21
343.130319
 31
0.0
  0
LINE
  5
1b0
100
AcDbEntity
  8
0
 62
7
100
AcDbLine
 10
-31.183114
 20
343.130319
 30
0.0
 11
-30.714113
 21
343.272319
 31
0.0
  0
LINE
  5
1b1
100
AcDbEntity
  8
0
 62
7
100
AcDbLine
 10
-30.714113
 20
343.272319
 30
0.0
 11
-30.281912
 21
343.503319
 31
0.0
  0
LINE
  5
1b2
100
AcDbEntity
  8
0
 62
7
100
AcDbLine
 10
-30.281912
 20
343.503319
 30
0.0
 11
-29.903012
 21
343.814320
 31
0.0
  0
LINE
  5
1b3
100
AcDbEntity
  8
0
 62
7
100
AcDbLine
 10
-29.903012
 20
343.814320
 30
0.0
 11
-29.592111
 21
344.193320
 31
0.0
  0
LINE
  5
1b4
100
AcDbEntity
  8
0
 62
7
100
AcDbLine
 10
-29.592111
 20
344.193320
 30
0.0
 11
-29.361111
 21
344.625321
 31
0.0
  0
LINE
  5
1b5
100
AcDbEntity
  8
0
 62
7
100
AcDbLine
 10
-29.361111
 20
344.625321
 30
0.0
 11
-29.218811
 21
345.094322
 31
0.0
  0
LINE
  5
1b6
100
AcDbEntity
  8
0
 62
7
100
AcDbLine
 10
-29.218811
 20
345.094322
 30
0.0
 11
-29.170811
 21
345.582322
 31
0.0
  0
LINE
  5
1b7
100
AcDbEntity
  8
0
 62
7
100
AcDbLine
 10
-29.170811
 20
345.582322
 30
0.0
 11
-29.218811
 21
346.070323
 31
0.0
  0
LINE
  5
1b8
100
AcDbEntity
  8
0
 62
7
100
AcDbLine
 10
-29.218811
 20
346.070323
 30
0.0
 11
-29.222611
 21
346.082323
 31
0.0
  0
LINE
  5
1b9
100
AcDbEntity
  8
0
 62
7
100
AcDbLine
 10
-29.222611
 20
346.082323
 30
0.0
 11
-28.439910
 21
346.082323
 31
0.0
  0
LINE
  5
1ba
100
AcDbEntity
  8
0
 62
7
100
AcDbLine
 10
-28.439910
 20
346.082323
 30
0.0
 11
-28.282209
 21
345.953323
 31
0.0
  0
LINE
  5
1bb
100
AcDbEntity
  8
0
 62
7
100
AcDbLine
 10
-28.282209
 20
345.953323
 30
0.0
 11
-24.824505
 21
344.104320
 31
0.0
  0
LINE
  5
1bc
100
AcDbEntity
  8
0
 62
7
100
AcDbLine
 10
-24.824505
 20
344.104320
 30
0.0
 11
-21.072599
 21
342.966319
 31
0.0
  0
LINE
  5
1bd
100
AcDbEntity
  8
0
 62
7
100
AcDbLine
 10
-21.072599
 20
342.966319
 30
0.0
 11
-17.170794
 21
342.582318
 31
0.0
  0
LINE
  5
1be
100
AcDbEntity
  8
0
 62
7
100
AcDbLine
 10
-17.170794
 20
342.582318
 30
0.0
 11
-13.268989
 21
342.966319
 31
0.0
  0
LINE
  5
1bf
100
AcDbEntity
  8
0
 62
7
100
AcDbLine
 10
-13.268989
 20
342.966319
 30
0.0
 11
-9.517083
 21
344.104320
 31
0.0
  0
LINE
  5
1c0
100
AcDbEntity
  8
0
 62
7
100
AcDbLine
 10
-9.517083
 20
344.104320
 30
0.0
 11
-6.059380
 21
345.953323
 31
0.0
  0
LINE
  5
1c1
100
AcDbEntity
  8
0
 62
7
100
AcDbLine
 10
-6.059380
 20
345.953323
 30
0.0
 11
-5.901709
 21
346.082323
 31
0.0
  0
LINE
  5
1c2
100
AcDbEntity
  8
0
 62
7
100
AcDbLine
 10
-5.901709
 20
346.082323
 30
0.0
 11
-5.119008
 21
346.082323
 31
0.0
  0
LINE
  5
1c3
100
AcDbEntity
  8
0
 62
7
100
AcDbLine
 10
-5.119008
 20
346.082323
 30
0.0
 11
-5.122708
 21
346.070323
 31
0.0
  0
LINE
  5
1c4
100
AcDbEntity
  8
0
 62
7
100
AcDbLine
 10
-5.122708
 20
346.070323
 30
0.0
 11
-5.170758
 21
345.582322
 31
0.0
  0
LINE
  5
1c5
100
AcDbEntity
  8
0
 62
7
100
AcDbLine
 10
-5.170758
 20
345.582322
 30
0.0
 11
-5.122708
 21
345.094322
 31
0.0
  0
LINE
  5
1c6
100
AcDbEntity
  8
0
 62
7
100
AcDbLine
 10
-5.122708
 20
345.094322
 30
0.0
 11
-4.980448
 21
344.625321
 31
0.0
  0
LINE
  5
1c7
100
AcDbEntity
  8
0
 62
7
100
AcDbLine
 10
-4.980448
 20
344.625321
 30
0.0
 11
-4.749418
 21
344.193320
 31
0.0
  0
LINE
  5
1c8
100
AcDbEntity
  8
0
 62
7
100
AcDbLine
 10
-4.749418
 20
344.193320
 30
0.0
 11
-4.438517
 21
343.814320
 31
0.0
  0
LINE
  5
1c9
100
AcDbEntity
  8
0
 62
7
100
AcDbLine
 10
-4.438517
 20
343.814320
 30
0.0
 11
-4.059677
 21
343.503319
 31
0.0
  0
LINE
  5
1ca
100
AcDbEntity
  8
0
 62
7
100
AcDbLine
 10
-4.059677
 20
343.503319
 30
0.0
 11
-3.627456
 21
343.272319
 31
0.0
  0
LINE
  5
1cb
100
AcDbEntity
  8
0
 62
7
100
AcDbLine
 10
-3.627456
 20
343.272319
 30
0.0
 11
-3.158476
 21
343.130319
 31
0.0
  0
LINE
  5
1cc
100
AcDbEntity
  8
0
 62
7
100
AcDbLine
 10
-3.158476
 20
343.130319
 30
0.0
 11
-2.670775
 21
343.082319
 31
0.0
  0
LINE
  5
1cd
100
AcDbEntity
  8
0
 62
7
100
AcDbLine
 10
-2.670775
 20
343.082319
 30
0.0
 11
-2.183044
 21
343.130319
 31
0.0
  0
LINE
  5
1ce
100
AcDbEntity
  8
0
 62
7
100
AcDbLine
 10
-2.183044
 20
343.130319
 30
0.0
 11
-1.714064
 21
343.272319
 31
0.0
  0
LINE
  5
1cf
100
AcDbEntity
  8
0
 62
7
100
AcDbLine
 10
-1.714064
 20
343.272319
 30
0.0
 11
-1.281843
 21
343.503319
 31
0.0
  0
LINE
  5
1d0
100
AcDbEntity
  8
0
 62
7
100
AcDbLine
 10
-1.281843
 20
343.503319
 30
0.0
 11
-0.902992
 21
343.814320
 31
0.0
  0
LINE
  5
1d1
100
AcDbEntity
  8
0
 62
7
100
AcDbLine
 10
-0.902992
 20
343.814320
 30
0.0
 11
-0.592102
 21
344.193320
 31
0.0
  0
LINE
  5
1d2
100
AcDbEntity
  8
0
 62
7
100
AcDbLine
 10
-0.592102
 20
344.193320
 30
0.0
 11
-0.361062
 21
344.625321
 31
0.0
  0
LINE
  5
1d3
100
AcDbEntity
  8
0
 62
7
100
AcDbLine
 10
-0.361062
 20
344.625321
 30
0.0
 11
-0.218801
 21
345.094322
 31
0.0
  0
LINE
  5
1d4
100
AcDbEntity
  8
0
 62
7
100
AcDbLine
 10
-0.218801
 20
345.094322
 30
0.0
 11
-0.170771
 21
345.582322
 31
0.0
  0
LINE
  5
1d5
100
AcDbEntity
  8
0
 62
7
100
AcDbLine
 10
-0.170771
 20
345.582322
 30
0.0
 11
-0.218801
 21
346.070323
 31
0.0
  0
LINE
  5
1d6
100
AcDbEntity
  8
0
 62
7
100
AcDbLine
 10
-0.218801
 20
346.070323
 30
0.0
 11
-0.222532
 21
346.082323
 31
0.0
  0
LINE
  5
1d7
100
AcDbEntity
  8
0
 62
7
100
AcDbLine
 10
-0.222532
 20
346.082323
 30
0.0
 11
1.829231
 21
346.082323
 31
0.0
  0
LINE
  5
1d8
100
AcDbEntity
  8
0
 62
7
100
AcDbLine
 10
1.829231
 20
346.082323
 30
0.0
 11
1.829231
 21
331.837232
 31
0.0
  0
LINE
  5
1d9
100
AcDbEntity
  8
0
 62
7
100
AcDbLine
 10
1.829231
 20
331.082301
 30
0.0
 11
4.829236
 21
331.082301
 31
0.0
  0
LINE
  5
1da
100
AcDbEntity
  8
0
 62
7
100
AcDbLine
 10
4.829236
 20
331.082301
 30
0.0
 11
4.829236
 21
328.082297
 31
0.0
  0
LINE
  5
1db
100
AcDbEntity
  8
0
 62
7
100
AcDbLine
 10
4.829236
 20
328.082297
 30
0.0
 11
-39.170825
 21
328.082297
 31
0.0
  0
LINE
  5
1dc
100
AcDbEntity
  8
0
 62
7
100
AcDbLine
 10
-39.170825
 20
328.082297
 30
0.0
 11
-39.170825
 21
331.082301
 31
0.0
  0
LINE
  5
1dd
100
AcDbEntity
  8
0
 62
7
100
AcDbLine
 10
-39.170825
 20
331.082301
 30
0.0
 11
-36.170820
 21
331.082301
 31
0.0
  0
LINE
  5
1de
100
AcDbEntity
  8
0
 62
7
100
AcDbLine
 10
-10.170784
 20
121.100169
 30
0.0
 11
-10.170784
 21
131.100183
 31
0.0
  0
LINE
  5
1df
100
AcDbEntity
  8
0
 62
7
100
AcDbLine
 10
-10.170784
 20
131.100183
 30
0.0
 11
-13.170788
 21
131.100183
 31
0.0
  0
LINE
  5
1e0
100
AcDbEntity
  8
0
 62
7
100
AcDbLine
 10
-13.170788
 20
131.100183
 30
0.0
 11
-13.170788
 21
121.100169
 31
0.0
  0
LINE
  5
1e1
100
AcDbEntity
  8
0
 62
7
100
AcDbLine
 10
-13.170788
 20
121.100169
 30
0.0
 11
-10.170784
 21
121.100169
 31
0.0
  0
LINE
  5
1e2
100
AcDbEntity
  8
0
 62
7
100
AcDbLine
 10
17.829255
 20
121.100169
 30
0.0
 11
17.829255
 21
131.100183
 31
0.0
  0
LINE
  5
1e3
100
AcDbEntity
  8
0
 62
7
100
AcDbLine
 10
17.829255
 20
131.100183
 30
0.0
 11
14.829251
 21
131.100183
 31
0.0
  0
LINE
  5
1e4
100
AcDbEntity
  8
0
 62
7
100
AcDbLine
 10
14.829251
 20
131.100183
 30
0.0
 11
14.829251
 21
121.100169
 31
0.0
  0
LINE
  5
1e5
100
AcDbEntity
  8
0
 62
7
100
AcDbLine
 10
14.829251
 20
121.100169
 30
0.0
 11
17.829255
 21
121.100169
 31
0.0
  0
LINE
  5
1e6
100
AcDbEntity
  8
0
 62
7
100
AcDbLine
 10
24.329264
 20
133.600186
 30
0.0
 11
24.329264
 21
139.600185
 31
0.0
  0
LINE
  5
1e7
100
AcDbEntity
  8
0
 62
7
100
AcDbLine
 10
24.329264
 20
139.600185
 30
0.0
 11
-19.670797
 21
139.600185
 31
0.0
  0
LINE
  5
1e8
100
AcDbEntity
  8
0
 62
7
100
AcDbLine
 10
-19.670797
 20
139.600185
 30
0.0
 11
-19.670797
 21
133.600186
 31
0.0
  0
LINE
  5
1e9
100
AcDbEntity
  8
0
 62
7
100
AcDbLine
 10
-19.670797
 20
133.600186
 30
0.0
 11
24.329264
 21
133.600186
 31
0.0
  0
LINE
  5
1ea
100
AcDbEntity
  8
0
 62
7
100
AcDbLine
 10
20.329258
 20
149.600199
 30
0.0
 11
20.329258
 21
152.600203
 31
0.0
  0
LINE
  5
1eb
100
AcDbEntity
  8
0
 62
7
100
AcDbLine
 10
20.329258
 20
152.600203
 30
0.0
 11
-15.670792
 21
152.600203
 31
0.0
  0
LINE
  5
1ec
100
AcDbEntity
  8
0
 62
7
100
AcDbLine
 10
-15.670792
 20
152.600203
 30
0.0
 11
-15.670792
 21
149.600199
 31
0.0
  0
LINE
  5
1ed
100
AcDbEntity
  8
0
 62
7
100
AcDbLine
 10
-15.670792
 20
149.600199
 30
0.0
 11
20.329258
 21
149.600199
 31
0.0
  0
LINE
  5
1ee
100
AcDbEntity
  8
0
 62
7
100
AcDbLine
 10
32.446575
 20
159.176312
 30
0.0
 11
32.634176
 21
159.119412
 31
0.0
  0
LINE
  5
1ef
100
AcDbEntity
  8
0
 62
7
100
AcDbLine
 10
32.634176
 20
159.119412
 30
0.0
 11
32.829276
 21
159.100212
 31
0.0
  0
LINE
  5
1f0
100
AcDbEntity
  8
0
 62
7
100
AcDbLine
 10
32.829276
 20
159.100212
 30
0.0
 11
33.024376
 21
159.119412
 31
0.0
  0
LINE
  5
1f1
100
AcDbEntity
  8
0
 62
7
100
AcDbLine
 10
33.024376
 20
159.119412
 30
0.0
 11
33.211976
 21
159.176312
 31
0.0
  0
LINE
  5
1f2
100
AcDbEntity
  8
0
 62
7
100
AcDbLine
 10
33.211976
 20
159.176312
 30
0.0
 11
33.384877
 21
159.268712
 31
0.0
  0
LINE
  5
1f3
100
AcDbEntity
  8
0
 62
7
100
AcDbLine
 10
33.384877
 20
159.268712
 30
0.0
 11
33.536377
 21
159.393112
 31
0.0
  0
LINE
  5
1f4
100
AcDbEntity
  8
0
 62
7
100
AcDbLine
 10
33.536377
 20
159.393112
 30
0.0
 11
33.660777
 21
159.544613
 31
0.0
  0
LINE
  5
1f5
100
AcDbEntity
  8
0
 62
7
100
AcDbLine
 10
33.660777
 20
159.544613
 30
0.0
 11
33.753177
 21
159.717513
 31
0.0
  0
LINE
  5
1f6
100
AcDbEntity
  8
0
 62
7
100
AcDbLine
 10
33.753177
 20
159.717513
 30
0.0
 11
33.810077
 21
159.905113
 31
0.0
  0
LINE
  5
1f7
100
AcDbEntity
  8
0
 62
7
100
AcDbLine
 10
33.810077
 20
159.905113
 30
0.0
 11
33.829277
 21
160.100213
 31
0.0
  0
LINE
  5
1f8
100
AcDbEntity
  8
0
 62
7
100
AcDbLine
 10
33.829277
 20
160.100213
 30
0.0
 11
39.829286
 21
160.100213
 31
0.0
  0
LINE
  5
1f9
100
AcDbEntity
  8
0
 62
7
100
AcDbLine
 10
39.829286
 20
160.100213
 30
0.0
 11
40.609587
 21
160.023313
 31
0.0
  0
LINE
  5
1fa
100
AcDbEntity
  8
0
 62
7
100
AcDbLine
 10
40.609587
 20
160.023313
 30
0.0
 11
41.359988
 21
159.795713
 31
0.0
  0
LINE
  5
1fb
100
AcDbEntity
  8
0
 62
7
100
AcDbLine
 10
41.359988
 20
159.795713
 30
0.0
 11
42.051589
 21
159.426113
 31
0.0
  0
LINE
  5
1fc
100
AcDbEntity
  8
0
 62
7
100
AcDbLine
 10
42.051589
 20
159.426113
 30
0.0
 11
42.657690
 21
158.928612
 31
0.0
  0
LINE
  5
1fd
100
AcDbEntity
  8
0
 62
7
100
AcDbLine
 10
42.657690
 20
158.928612
 30
0.0
 11
43.155190
 21
158.322511
 31
0.0
  0
LINE
  5
1fe
100
AcDbEntity
  8
0
 62
7
100
AcDbLine
 10
43.155190
 20
158.322511
 30
0.0
 11
43.524791
 21
157.630910
 31
0.0
  0
LINE
  5
1ff
100
AcDbEntity
  8
0
 62
7
100
AcDbLine
 10
43.524791
 20
157.630910
 30
0.0
 11
43.752391
 21
156.880609
 31
0.0
  0
LINE
  5
200
100
AcDbEntity
  8
0
 62
7
100
AcDbLine
 10
43.752391
 20
156.880609
 30
0.0
 11
43.829291
 21
156.100208
 31
0.0
  0
LINE
  5
201
100
AcDbEntity
  8
0
 62
7
100
AcDbLine
 10
43.829291
 20
156.100208
 30
0.0
 11
43.829291
 21
116.100162
 31
0.0
  0
LINE
  5
202
100
AcDbEntity
  8
0
 62
7
100
AcDbLine
 10
43.829291
 20
116.100162
 30
0.0
 11
43.752391
 21
115.320161
 31
0.0
  0
LINE
  5
203
100
AcDbEntity
  8
0
 62
7
100
AcDbLine
 10
43.752391
 20
115.320161
 30
0.0
 11
43.524791
 21
114.569160
 31
0.0
  0
LINE
  5
204
100
AcDbEntity
  8
0
 62
7
100
AcDbLine
 10
43.524791
 20
114.569160
 30
0.0
 11
43.155190
 21
113.878159
 31
0.0
  0
LINE
  5
205
100
AcDbEntity
  8
0
 62
7
100
AcDbLine
 10
43.155190
 20
113.878159
 30
0.0
 11
42.657690
 21
113.272158
 31
0.0
  0
LINE
  5
206
100
AcDbEntity
  8
0
 62
7
100
AcDbLine
 10
42.657690
 20
113.272158
 30
0.0
 11
42.051589
 21
112.774157
 31
0.0
  0
LINE
  5
207
100
AcDbEntity
  8
0
 62
7
100
AcDbLine
 10
42.051589
 20
112.774157
 30
0.0
 11
41.359988
 21
112.404157
 31
0.0
  0
LINE
  5
208
100
AcDbEntity
  8
0
 62
7
100
AcDbLine
 10
41.359988
 20
112.404157
 30
0.0
 11
40.609587
 21
112.177157
 31
0.0
  0
LINE
  5
209
100
AcDbEntity
  8
0
 62
7
100
AcDbLine
 10
40.609587
 20
112.177157
 30
0.0
 11
39.829286
 21
112.100156
 31
0.0
  0
LINE
  5
20a
100
AcDbEntity
  8
0
 62
7
100
AcDbLine
 10
39.829286
 20
112.100156
 30
0.0
 11
33.829277
 21
112.100156
 31
0.0
  0
LINE
  5
20b
100
AcDbEntity
  8
0
 62
7
100
AcDbLine
 10
33.829277
 20
112.100156
 30
0.0
 11
33.810077
 21
112.295157
 31
0.0
  0
LINE
  5
20c
100
AcDbEntity
  8
0
 62
7
100
AcDbLine
 10
33.810077
 20
112.295157
 30
0.0
 11
33.753177
 21
112.483157
 31
0.0
  0
LINE
  5
20d
100
AcDbEntity
  8
0
 62
7
100
AcDbLine
 10
33.753177
 20
112.483157
 30
0.0
 11
33.660777
 21
112.656157
 31
0.0
  0
LINE
  5
20e
100
AcDbEntity
  8
0
 62
7
100
AcDbLine
 10
33.660777
 20
112.656157
 30
0.0
 11
33.536377
 21
112.807157
 31
0.0
  0
LINE
  5
20f
100
AcDbEntity
  8
0
 62
7
100
AcDbLine
 10
33.536377
 20
112.807157
 30
0.0
 11
33.384877
 21
112.931158
 31
0.0
  0
LINE
  5
210
100
AcDbEntity
  8
0
 62
7
100
AcDbLine
 10
33.384877
 20
112.931158
 30
0.0
 11
33.211976
 21
113.024158
 31
0.0
  0
LINE
  5
211
100
AcDbEntity
  8
0
 62
7
100
AcDbLine
 10
33.211976
 20
113.024158
 30
0.0
 11
33.024376
 21
113.081158
 31
0.0
  0
LINE
  5
212
100
AcDbEntity
  8
0
 62
7
100
AcDbLine
 10
33.024376
 20
113.081158
 30
0.0
 11
32.829276
 21
113.100158
 31
0.0
  0
LINE
  5
213
100
AcDbEntity
  8
0
 62
7
100
AcDbLine
 10
32.829276
 20
113.100158
 30
0.0
 11
32.634176
 21
113.081158
 31
0.0
  0
LINE
  5
214
100
AcDbEntity
  8
0
 62
7
100
AcDbLine
 10
32.634176
 20
113.081158
 30
0.0
 11
32.446575
 21
113.024158
 31
0.0
  0
LINE
  5
215
100
AcDbEntity
  8
0
 62
7
100
AcDbLine
 10
32.446575
 20
113.024158
 30
0.0
 11
32.273675
 21
112.931158
 31
0.0
  0
LINE
  5
216
100
AcDbEntity
  8
0
 62
7
100
AcDbLine
 10
32.273675
 20
112.931158
 30
0.0
 11
32.122175
 21
112.807157
 31
0.0
  0
LINE
  5
217
100
AcDbEntity
  8
0
 62
7
100
AcDbLine
 10
32.122175
 20
112.807157
 30
0.0
 11
31.997775
 21
112.656157
 31
0.0
  0
LINE
  5
218
100
AcDbEntity
  8
0
 62
7
100
AcDbLine
 10
31.997775
 20
112.656157
 30
0.0
 11
31.905375
 21
112.483157
 31
0.0
  0
LINE
  5
219
100
AcDbEntity
  8
0
 62
7
100
AcDbLine
 10
31.905375
 20
112.483157
 30
0.0
 11
31.848474
 21
112.295157
 31
0.0
  0
LINE
  5
21a
100
AcDbEntity
  8
0
 62
7
100
AcDbLine
 10
31.848474
 20
112.295157
 30
0.0
 11
31.829274
 21
112.100156
 31
0.0
  0
LINE
  5
21b
100
AcDbEntity
  8
0
 62
7
100
AcDbLine
 10
31.829274
 20
112.100156
 30
0.0
 11
-27.170808
 21
112.100156
 31
0.0
  0
LINE
  5
21c
100
AcDbEntity
  8
0
 62
7
100
AcDbLine
 10
-27.170808
 20
112.100156
 30
0.0
 11
-27.190008
 21
112.295157
 31
0.0
  0
LINE
  5
21d
100
AcDbEntity
  8
0
 62
7
100
AcDbLine
 10
-27.190008
 20
112.295157
 30
0.0
 11
-27.246908
 21
112.483157
 31
0.0
  0
LINE
  5
21e
100
AcDbEntity
  8
0
 62
7
100
AcDbLine
 10
-27.246908
 20
112.483157
 30
0.0
 11
-27.339308
 21
112.656157
 31
0.0
  0
LINE
  5
21f
100
AcDbEntity
  8
0
 62
7
100
AcDbLine
 10
-27.339308
 20
112.656157
 30
0.0
 11
-27.463708
 21
112.807157
 31
0.0
  0
LINE
  5
220
100
AcDbEntity
  8
0
 62
7
100
AcDbLine
 10
-27.463708
 20
112.807157
 30
0.0
 11
-27.615209
 21
112.931158
 31
0.0
  0
LINE
  5
221
100
AcDbEntity
  8
0
 62
7
100
AcDbLine
 10
-27.615209
 20
112.931158
 30
0.0
 11
-27.788109
 21
113.024158
 31
0.0
  0
LINE
  5
222
100
AcDbEntity
  8
0
 62
7
100
AcDbLine
 10
-27.788109
 20
113.024158
 30
0.0
 11
-27.975709
 21
113.081158
 31
0.0
  0
LINE
  5
223
100
AcDbEntity
  8
0
 62
7
100
AcDbLine
 10
-27.975709
 20
113.081158
 30
0.0
 11
-28.170809
 21
113.100158
 31
0.0
  0
LINE
  5
224
100
AcDbEntity
  8
0
 62
7
100
AcDbLine
 10
-28.170809
 20
113.100158
 30
0.0
 11
-28.365910
 21
113.081158
 31
0.0
  0
LINE
  5
225
100
AcDbEntity
  8
0
 62
7
100
AcDbLine
 10
-28.365910
 20
113.081158
 30
0.0
 11
-28.553510
 21
113.024158
 31
0.0
  0
LINE
  5
226
100
AcDbEntity
  8
0
 62
7
100
AcDbLine
 10
-28.553510
 20
113.024158
 30
0.0
 11
-28.726410
 21
112.931158
 31
0.0
  0
LINE
  5
227
100
AcDbEntity
  8
0
 62
7
100
AcDbLine
 10
-28.726410
 20
112.931158
 30
0.0
 11
-28.877910
 21
112.807157
 31
0.0
  0
LINE
  5
228
100
AcDbEntity
  8
0
 62
7
100
AcDbLine
 10
-28.877910
 20
112.807157
 30
0.0
 11
-29.002310
 21
112.656157
 31
0.0
  0
LINE
  5
229
100
AcDbEntity
  8
0
 62
7
100
AcDbLine
 10
-29.002310
 20
112.656157
 30
0.0
 11
-29.094711
 21
112.483157
 31
0.0
  0
LINE
  5
22a
100
AcDbEntity
  8
0
 62
7
100
AcDbLine
 10
-29.094711
 20
112.483157
 30
0.0
 11
-29.151611
 21
112.295157
 31
0.0
  0
LINE
  5
22b
100
AcDbEntity
  8
0
 62
7
100
AcDbLine
 10
-29.151611
 20
112.295157
 30
0.0
 11
-29.170811
 21
112.100156
 31
0.0
  0
LINE
  5
22c
100
AcDbEntity
  8
0
 62
7
100
AcDbLine
 10
-29.170811
 20
112.100156
 30
0.0
 11
-35.170819
 21
112.100156
 31
0.0
  0
LINE
  5
22d
100
AcDbEntity
  8
0
 62
7
100
AcDbLine
 10
-35.170819
 20
112.100156
 30
0.0
 11
-35.951120
 21
112.177157
 31
0.0
  0
LINE
  5
22e
100
AcDbEntity
  8
0
 62
7
100
AcDbLine
 10
-35.951120
 20
112.177157
 30
0.0
 11
-36.701521
 21
112.404157
 31
0.0
  0
LINE
  5
22f
100
AcDbEntity
  8
0
 62
7
100
AcDbLine
 10
-36.701521
 20
112.404157
 30
0.0
 11
-37.393122
 21
112.774157
 31
0.0
  0
LINE
  5
230
100
AcDbEntity
  8
0
 62
7
100
AcDbLine
 10
-37.393122
 20
112.774157
 30
0.0
 11
-37.999223
 21
113.272158
 31
0.0
  0
LINE
  5
231
100
AcDbEntity
  8
0
 62
7
100
AcDbLine
 10
-37.999223
 20
113.272158
 30
0.0
 11
-38.496724
 21
113.878159
 31
0.0
  0
LINE
  5
232
100
AcDbEntity
  8
0
 62
7
100
AcDbLine
 10
-38.496724
 20
113.878159
 30
0.0
 11
-38.866324
 21
114.569160
 31
0.0
  0
LINE
  5
233
100
AcDbEntity
  8
0
 62
7
100
AcDbLine
 10
-38.866324
 20
114.569160
 30
0.0
 11
-39.093925
 21
115.320161
 31
0.0
  0
LINE
  5
234
100
AcDbEntity
  8
0
 62
7
100
AcDbLine
 10
-39.093925
 20
115.320161
 30
0.0
 11
-39.170825
 21
116.100162
 31
0.0
  0
LINE
  5
235
100
AcDbEntity
  8
0
 62
7
100
AcDbLine
 10
-39.170825
 20
116.100162
 30
0.0
 11
-39.170825
 21
156.100208
 31
0.0
  0
LINE
  5
236
100
AcDbEntity
  8
0
 62
7
100
AcDbLine
 10
-39.170825
 20
156.100208
 30
0.0
 11
-39.093925
 21
156.880609
 31
0.0
  0
LINE
  5
237
100
AcDbEntity
  8
0
 62
7
100
AcDbLine
 10
-39.093925
 20
156.880609
 30
0.0
 11
-38.866324
 21
157.630910
 31
0.0
  0
LINE
  5
238
100
AcDbEntity
  8
0
 62
7
100
AcDbLine
 10
-38.866324
 20
157.630910
 30
0.0
 11
-38.496724
 21
158.322511
 31
0.0
  0
LINE
  5
239
100
AcDbEntity
  8
0
 62
7
100
AcDbLine
 10
-38.496724
 20
158.322511
 30
0.0
 11
-37.999223
 21
158.928612
 31
0.0
  0
LINE
  5
23a
100
AcDbEntity
  8
0
 62
7
100
AcDbLine
 10
-37.999223
 20
158.928612
 30
0.0
 11
-37.393122
 21
159.426113
 31
0.0
  0
LINE
  5
23b
100
AcDbEntity
  8
0
 62
7
100
AcDbLine
 10
-37.393122
 20
159.426113
 30
0.0
 11
-36.701521
 21
159.795713
 31
0.0
  0
LINE
  5
23c
100
AcDbEntity
  8
0
 62
7
100
AcDbLine
 10
-36.701521
 20
159.795713
 30
0.0
 11
-35.951120
 21
160.023313
 31
0.0
  0
LINE
  5
23d
100
AcDbEntity
  8
0
 62
7
100
AcDbLine
 10
-35.951120
 20
160.023313
 30
0.0
 11
-35.170819
 21
160.100213
 31
0.0
  0
LINE
  5
23e
100
AcDbEntity
  8
0
 62
7
100
AcDbLine
 10
-35.170819
 20
160.100213
 30
0.0
 11
-29.170811
 21
160.100213
 31
0.0
  0
LINE
  5
23f
100
AcDbEntity
  8
0
 62
7
100
AcDbLine
 10
-29.170811
 20
160.100213
 30
0.0
 11
-29.151611
 21
159.905113
 31
0.0
  0
LINE
  5
240
100
AcDbEntity
  8
0
 62
7
100
AcDbLine
 10
-29.151611
 20
159.905113
 30
0.0
 11
-29.094711
 21
159.717513
 31
0.0
  0
LINE
  5
241
100
AcDbEntity
  8
0
 62
7
100
AcDbLine
 10
-29.094711
 20
159.717513
 30
0.0
 11
-29.002310
 21
159.544613
 31
0.0
  0
LINE
  5
242
100
AcDbEntity
  8
0
 62
7
100
AcDbLine
 10
-29.002310
 20
159.544613
 30
0.0
 11
-28.877910
 21
159.393112
 31
0.0
  0
LINE
  5
243
100
AcDbEntity
  8
0
 62
7
100
AcDbLine
 10
-28.877910
 20
159.393112
 30
0.0
 11
-28.726410
 21
159.268712
 31
0.0
  0
LINE
  5
244
100
AcDbEntity
  8
0
 62
7
100
AcDbLine
 10
-28.726410
 20
159.268712
 30
0.0
 11
-28.553510
 21
159.176312
 31
0.0
  0
LINE
  5
245
100
AcDbEntity
  8
0
 62
7
100
AcDbLine
 10
-28.553510
 20
159.176312
 30
0.0
 11
-28.365910
 21
159.119412
 31
0.0
  0
LINE
  5
246
100
AcDbEntity
  8
0
 62
7
100
AcDbLine
 10
-28.365910
 20
159.119412
 30
0.0
 11
-28.170809
 21
159.100212
 31
0.0
  0
LINE
  5
247
100
AcDbEntity
  8
0
 62
7
100
AcDbLine
 10
-28.170809
 20
159.100212
 30
0.0
 11
-27.975709
 21
159.119412
 31
0.0
  0
LINE
  5
248
100
AcDbEntity
  8
0
 62
7
100
AcDbLine
 10
-27.975709
 20
159.119412
 30
0.0
 11
-27.788109
 21
159.176312
 31
0.0
  0
LINE
  5
249
100
AcDbEntity
  8
0
 62
7
100
AcDbLine
 10
-27.788109
 20
159.176312
 30
0.0
 11
-27.615209
 21
159.268712
 31
0.0
  0
LINE
  5
24a
100
AcDbEntity
  8
0
 62
7
100
AcDbLine
 10
-27.615209
 20
159.268712
 30
0.0
 11
-27.463708
 21
159.393112
 31
0.0
  0
LINE
  5
24b
100
AcDbEntity
  8
0
 62
7
100
AcDbLine
 10
-27.463708
 20
159.393112
 30
0.0
 11
-27.339308
 21
159.544613
 31
0.0
  0
LINE
  5
24c
100
AcDbEntity
  8
0
 62
7
100
AcDbLine
 10
-27.339308
 20
159.544613
 30
0.0
 11
-27.246908
 21
159.717513
 31
0.0
  0
LINE
  5
24d
100
AcDbEntity
  8
0
 62
7
100
AcDbLine
 10
-27.246908
 20
159.717513
 30
0.0
 11
-27.190008
 21
159.905113
 31
0.0
  0
LINE
  5
24e
100
AcDbEntity
  8
0
 62
7
100
AcDbLine
 10
-27.190008
 20
159.905113
 30
0.0
 11
-27.170808
 21
160.100213
 31
0.0
  0
LINE
  5
24f
100
AcDbEntity
  8
0
 62
7
100
AcDbLine
 10
-27.170808
 20
160.100213
 30
0.0
 11
31.829274
 21
160.100213
 31
0.0
  0
LINE
  5
250
100
AcDbEntity
  8
0
 62
7
100
AcDbLine
 10
31.829274
 20
160.100213
 30
0.0
 11
31.848474
 21
159.905113
 31
0.0
  0
LINE
  5
251
100
AcDbEntity
  8
0
 62
7
100
AcDbLine
 10
31.848474
 20
159.905113
 30
0.0
 11
31.905375
 21
159.717513
 31
0.0
  0
LINE
  5
252
100
AcDbEntity
  8
0
 62
7
100
AcDbLine
 10
31.905375
 20
159.717513
 30
0.0
 11
31.997775
 21
159.544613
 31
0.0
  0
LINE
  5
253
100
AcDbEntity
  8
0
 62
7
100
AcDbLine
 10
31.997775
 20
159.544613
 30
0.0
 11
32.122175
 21
159.393112
 31
0.0
  0
LINE
  5
254
100
AcDbEntity
  8
0
 62
7
100
AcDbLine
 10
32.122175
 20
159.393112
 30
0.0
 11
32.273675
 21
159.268712
 31
0.0
  0
LINE
  5
255
100
AcDbEntity
  8
0
 62
7
100
AcDbLine
 10
32.273675
 20
159.268712
 30
0.0
 11
32.446575
 21
159.176312
 31
0.0
  0
LINE
  5
256
100
AcDbEntity
  8
0
 62
7
100
AcDbLine
 10
17.829255
 20
164.043464
 30
0.0
 11
17.829255
 21
182.043489
 31
0.0
  0
LINE
  5
257
100
AcDbEntity
  8
0
 62
7
100
AcDbLine
 10
17.829255
 20
182.043489
 30
0.0
 11
21.329260
 21
182.043489
 31
0.0
  0
LINE
  5
258
100
AcDbEntity
  8
0
 62
7
100
AcDbLine
 10
21.329260
 20
182.043489
 30
0.0
 11
21.329260
 21
188.043497
 31
0.0
  0
LINE
  5
259
100
AcDbEntity
  8
0
 62
7
100
AcDbLine
 10
21.329260
 20
188.043497
 30
0.0
 11
24.329264
 21
188.043497
 31
0.0
  0
LINE
  5
25a
100
AcDbEntity
  8
0
 62
7
100
AcDbLine
 10
24.329264
 20
188.043497
 30
0.0
 11
24.329264
 21
191.043502
 31
0.0
  0
LINE
  5
25b
100
AcDbEntity
  8
0
 62
7
100
AcDbLine
 10
24.329264
 20
191.043502
 30
0.0
 11
-19.670797
 21
191.043502
 31
0.0
  0
LINE
  5
25c
100
AcDbEntity
  8
0
 62
7
100
AcDbLine
 10
-19.670797
 20
191.043502
 30
0.0
 11
-19.670797
 21
188.043497
 31
0.0
  0
LINE
  5
25d
100
AcDbEntity
  8
0
 62
7
100
AcDbLine
 10
-19.670797
 20
188.043497
 30
0.0
 11
-16.670793
 21
188.043497
 31
0.0
  0
LINE
  5
25e
100
AcDbEntity
  8
0
 62
7
100
AcDbLine
 10
-16.670793
 20
188.043497
 30
0.0
 11
-16.670793
 21
182.043489
 31
0.0
  0
LINE
  5
25f
100
AcDbEntity
  8
0
 62
7
100
AcDbLine
 10
-16.670793
 20
182.043489
 30
0.0
 11
-13.170788
 21
182.043489
 31
0.0
  0
LINE
  5
260
100
AcDbEntity
  8
0
 62
7
100
AcDbLine
 10
-13.170788
 20
182.043489
 30
0.0
 11
-13.170788
 21
164.043464
 31
0.0
  0
LINE
  5
261
100
AcDbEntity
  8
0
 62
7
100
AcDbLine
 10
-13.170788
 20
164.043464
 30
0.0
 11
-10.170784
 21
164.043464
 31
0.0
  0
LINE
  5
262
100
AcDbEntity
  8
0
 62
7
100
AcDbLine
 10
-10.170784
 20
164.043464
 30
0.0
 11
-10.170784
 21
182.043489
 31
0.0
  0
LINE
  5
263
100
AcDbEntity
  8
0
 62
7
100
AcDbLine
 10
-10.170784
 20
182.043489
 30
0.0
 11
-4.670778
 21
182.043489
 31
0.0
  0
LINE
  5
264
100
AcDbEntity
  8
0
 62
7
100
AcDbLine
 10
-4.670778
 20
182.043489
 30
0.0
 11
-4.670778
 21
188.043497
 31
0.0
  0
LINE
  5
265
100
AcDbEntity
  8
0
 62
7
100
AcDbLine
 10
-4.670778
 20
188.043497
 30
0.0
 11
9.329242
 21
188.043497
 31
0.0
  0
LINE
  5
266
100
AcDbEntity
  8
0
 62
7
100
AcDbLine
 10
9.329242
 20
188.043497
 30
0.0
 11
9.329242
 21
182.043489
 31
0.0
  0
LINE
  5
267
100
AcDbEntity
  8
0
 62
7
100
AcDbLine
 10
9.329242
 20
182.043489
 30
0.0
 11
14.829251
 21
182.043489
 31
0.0
  0
LINE
  5
268
100
AcDbEntity
  8
0
 62
7
100
AcDbLine
 10
14.829251
 20
182.043489
 30
0.0
 11
14.829251
 21
164.043464
 31
0.0
  0
LINE
  5
269
100
AcDbEntity
  8
0
 62
7
100
AcDbLine
 10
14.829251
 20
164.043464
 30
0.0
 11
17.829255
 21
164.043464
 31
0.0
  0
LINE
  5
26a
100
AcDbEntity
  8
0
 62
7
100
AcDbLine
 10
17.329254
 20
198.043511
 30
0.0
 11
17.329254
 21
201.043516
 31
0.0
  0
LINE
  5
26b
100
AcDbEntity
  8
0
 62
7
100
AcDbLine
 10
17.329254
 20
201.043516
 30
0.0
 11
20.329258
 21
201.043516
 31
0.0
  0
LINE
  5
26c
100
AcDbEntity
  8
0
 62
7
100
AcDbLine
 10
20.329258
 20
201.043516
 30
0.0
 11
20.329258
 21
204.043520
 31
0.0
  0
LINE
  5
26d
100
AcDbEntity
  8
0
 62
7
100
AcDbLine
 10
20.329258
 20
204.043520
 30
0.0
 11
-15.670792
 21
204.043520
 31
0.0
  0
LINE
  5
26e
100
AcDbEntity
  8
0
 62
7
100
AcDbLine
 10
-15.670792
 20
204.043520
 30
0.0
 11
-15.670792
 21
201.043516
 31
0.0
  0
LINE
  5
26f
100
AcDbEntity
  8
0
 62
7
100
AcDbLine
 10
-15.670792
 20
201.043516
 30
0.0
 11
-12.670788
 21
201.043516
 31
0.0
  0
LINE
  5
270
100
AcDbEntity
  8
0
 62
7
100
AcDbLine
 10
-12.670788
 20
201.043516
 30
0.0
 11
-12.670788
 21
198.043511
 31
0.0
  0
LINE
  5
271
100
AcDbEntity
  8
0
 62
7
100
AcDbLine
 10
-12.670788
 20
198.043511
 30
0.0
 11
17.329254
 21
198.043511
 31
0.0
  0
LINE
  5
272
100
AcDbEntity
  8
0
 62
7
100
AcDbLine
 10
31.905375
 20
160.926160
 30
0.0
 11
31.848474
 21
160.738559
 31
0.0
  0
LINE
  5
273
100
AcDbEntity
  8
0
 62
7
100
AcDbLine
 10
31.848474
 20
160.738559
 30
0.0
 11
31.829274
 21
160.543459
 31
0.0
  0
LINE
  5
274
100
AcDbEntity
  8
0
 62
7
100
AcDbLine
 10
31.829274
 20
160.543459
 30
0.0
 11
3.429224
 21
160.543459
 31
0.0
  0
LINE
  5
275
100
AcDbEntity
  8
0
 62
7
100
AcDbLine
 10
3.429224
 20
160.543459
 30
0.0
 11
3.429224
 21
172.543476
 31
0.0
  0
LINE
  5
276
100
AcDbEntity
  8
0
 62
7
100
AcDbLine
 10
3.429224
 20
172.543476
 30
0.0
 11
3.275507
 21
174.104178
 31
0.0
  0
LINE
  5
277
100
AcDbEntity
  8
0
 62
7
100
AcDbLine
 10
3.275507
 20
174.104178
 30
0.0
 11
2.820261
 21
175.604980
 31
0.0
  0
LINE
  5
278
100
AcDbEntity
  8
0
 62
7
100
AcDbLine
 10
2.820261
 20
175.604980
 30
0.0
 11
2.081002
 21
176.988082
 31
0.0
  0
LINE
  5
279
100
AcDbEntity
  8
0
 62
7
100
AcDbLine
 10
2.081002
 20
176.988082
 30
0.0
 11
1.086100
 21
178.200384
 31
0.0
  0
LINE
  5
27a
100
AcDbEntity
  8
0
 62
7
100
AcDbLine
 10
1.086100
 20
178.200384
 30
0.0
 11
-0.126201
 21
179.195285
 31
0.0
  0
LINE
  5
27b
100
AcDbEntity
  8
0
 62
7
100
AcDbLine
 10
-0.126201
 20
179.195285
 30
0.0
 11
-1.509303
 21
179.934486
 31
0.0
  0
LINE
  5
27c
100
AcDbEntity
  8
0
 62
7
100
AcDbLine
 10
-1.509303
 20
179.934486
 30
0.0
 11
-3.010035
 21
180.389787
 31
0.0
  0
LINE
  5
27d
100
AcDbEntity
  8
0
 62
7
100
AcDbLine
 10
-3.010035
 20
180.389787
 30
0.0
 11
-4.170777
 21
180.504087
 31
0.0
  0
LINE
  5
27e
100
AcDbEntity
  8
0
 62
7
100
AcDbLine
 10
-4.170777
 20
180.504087
 30
0.0
 11
-4.170777
 21
180.543487
 31
0.0
  0
LINE
  5
27f
100
AcDbEntity
  8
0
 62
7
100
AcDbLine
 10
-4.170777
 20
180.543487
 30
0.0
 11
-8.170782
 21
180.543487
 31
0.0
  0
LINE
  5
280
100
AcDbEntity
  8
0
 62
7
100
AcDbLine
 10
-8.170782
 20
180.543487
 30
0.0
 11
-8.170782
 21
178.343484
 31
0.0
  0
LINE
  5
281
100
AcDbEntity
  8
0
 62
7
100
AcDbLine
 10
-8.170782
 20
178.343484
 30
0.0
 11
-4.570768
 21
178.343484
 31
0.0
  0
LINE
  5
282
100
AcDbEntity
  8
0
 62
7
100
AcDbLine
 10
-4.570768
 20
178.343484
 30
0.0
 11
-3.439236
 21
178.232084
 31
0.0
  0
LINE
  5
283
100
AcDbEntity
  8
0
 62
7
100
AcDbLine
 10
-3.439236
 20
178.232084
 30
0.0
 11
-2.351214
 21
177.901983
 31
0.0
  0
LINE
  5
284
100
AcDbEntity
  8
0
 62
7
100
AcDbLine
 10
-2.351214
 20
177.901983
 30
0.0
 11
-1.348463
 21
177.365983
 31
0.0
  0
LINE
  5
285
100
AcDbEntity
  8
0
 62
7
100
AcDbLine
 10
-1.348463
 20
177.365983
 30
0.0
 11
-0.469542
 21
176.644682
 31
0.0
  0
LINE
  5
286
100
AcDbEntity
  8
0
 62
7
100
AcDbLine
 10
-0.469542
 20
176.644682
 30
0.0
 11
0.251759
 21
175.765780
 31
0.0
  0
LINE
  5
287
100
AcDbEntity
  8
0
 62
7
100
AcDbLine
 10
0.251759
 20
175.765780
 30
0.0
 11
0.787740
 21
174.763079
 31
0.0
  0
LINE
  5
288
100
AcDbEntity
  8
0
 62
7
100
AcDbLine
 10
0.787740
 20
174.763079
 30
0.0
 11
1.117790
 21
173.674977
 31
0.0
  0
LINE
  5
289
100
AcDbEntity
  8
0
 62
7
100
AcDbLine
 10
1.117790
 20
173.674977
 30
0.0
 11
1.229241
 21
172.543476
 31
0.0
  0
LINE
  5
28a
100
AcDbEntity
  8
0
 62
7
100
AcDbLine
 10
1.229241
 20
172.543476
 30
0.0
 11
1.229241
 21
160.543459
 31
0.0
  0
LINE
  5
28b
100
AcDbEntity
  8
0
 62
7
100
AcDbLine
 10
1.229241
 20
160.543459
 30
0.0
 11
-27.170808
 21
160.543459
 31
0.0
  0
LINE
  5
28c
100
AcDbEntity
  8
0
 62
7
100
AcDbLine
 10
-27.170808
 20
160.543459
 30
0.0
 11
-27.190008
 21
160.738559
 31
0.0
  0
LINE
  5
28d
100
AcDbEntity
  8
0
 62
7
100
AcDbLine
 10
-27.190008
 20
160.738559
 30
0.0
 11
-27.246908
 21
160.926160
 31
0.0
  0
LINE
  5
28e
100
AcDbEntity
  8
0
 62
7
100
AcDbLine
 10
-27.246908
 20
160.926160
 30
0.0
 11
-27.339308
 21
161.099060
 31
0.0
  0
LINE
  5
28f
100
AcDbEntity
  8
0
 62
7
100
AcDbLine
 10
-27.339308
 20
161.099060
 30
0.0
 11
-27.463708
 21
161.250560
 31
0.0
  0
LINE
  5
290
100
AcDbEntity
  8
0
 62
7
100
AcDbLine
 10
-27.463708
 20
161.250560
 30
0.0
 11
-27.615209
 21
161.374960
 31
0.0
  0
LINE
  5
291
100
AcDbEntity
  8
0
 62
7
100
AcDbLine
 10
-27.615209
 20
161.374960
 30
0.0
 11
-27.788109
 21
161.467360
 31
0.0
  0
LINE
  5
292
100
AcDbEntity
  8
0
 62
7
100
AcDbLine
 10
-27.788109
 20
161.467360
 30
0.0
 11
-27.975709
 21
161.524260
 31
0.0
  0
LINE
  5
293
100
AcDbEntity
  8
0
 62
7
100
AcDbLine
 10
-27.975709
 20
161.524260
 30
0.0
 11
-28.170809
 21
161.543460
 31
0.0
  0
LINE
  5
294
100
AcDbEntity
  8
0
 62
7
100
AcDbLine
 10
-28.170809
 20
161.543460
 30
0.0
 11
-28.365910
 21
161.524260
 31
0.0
  0
LINE
  5
295
100
AcDbEntity
  8
0
 62
7
100
AcDbLine
 10
-28.365910
 20
161.524260
 30
0.0
 11
-28.553510
 21
161.467360
 31
0.0
  0
LINE
  5
296
100
AcDbEntity
  8
0
 62
7
100
AcDbLine
 10
-28.553510
 20
161.467360
 30
0.0
 11
-28.726410
 21
161.374960
 31
0.0
  0
LINE
  5
297
100
AcDbEntity
  8
0
 62
7
100
AcDbLine
 10
-28.726410
 20
161.374960
 30
0.0
 11
-28.877910
 21
161.250560
 31
0.0
  0
LINE
  5
298
100
AcDbEntity
  8
0
 62
7
100
AcDbLine
 10
-28.877910
 20
161.250560
 30
0.0
 11
-29.002310
 21
161.099060
 31
0.0
  0
LINE
  5
299
100
AcDbEntity
  8
0
 62
7
100
AcDbLine
 10
-29.002310
 20
161.099060
 30
0.0
 11
-29.094711
 21
160.926160
 31
0.0
  0
LINE
  5
29a
100
AcDbEntity
  8
0
 62
7
100
AcDbLine
 10
-29.094711
 20
160.926160
 30
0.0
 11
-29.151611
 21
160.738559
 31
0.0
  0
LINE
  5
29b
100
AcDbEntity
  8
0
 62
7
100
AcDbLine
 10
-29.151611
 20
160.738559
 30
0.0
 11
-29.170811
 21
160.543459
 31
0.0
  0
LINE
  5
29c
100
AcDbEntity
  8
0
 62
7
100
AcDbLine
 10
-29.170811
 20
160.543459
 30
0.0
 11
-35.170819
 21
160.543459
 31
0.0
  0
LINE
  5
29d
100
AcDbEntity
  8
0
 62
7
100
AcDbLine
 10
-35.170819
 20
160.543459
 30
0.0
 11
-35.951120
 21
160.620359
 31
0.0
  0
LINE
  5
29e
100
AcDbEntity
  8
0
 62
7
100
AcDbLine
 10
-35.951120
 20
160.620359
 30
0.0
 11
-36.701521
 21
160.847960
 31
0.0
  0
LINE
  5
29f
100
AcDbEntity
  8
0
 62
7
100
AcDbLine
 10
-36.701521
 20
160.847960
 30
0.0
 11
-37.393122
 21
161.217560
 31
0.0
  0
LINE
  5
2a0
100
AcDbEntity
  8
0
 62
7
100
AcDbLine
 10
-37.393122
 20
161.217560
 30
0.0
 11
-37.999223
 21
161.715061
 31
0.0
  0
LINE
  5
2a1
100
AcDbEntity
  8
0
 62
7
100
AcDbLine
 10
-37.999223
 20
161.715061
 30
0.0
 11
-38.496724
 21
162.321162
 31
0.0
  0
LINE
  5
2a2
100
AcDbEntity
  8
0
 62
7
100
AcDbLine
 10
-38.496724
 20
162.321162
 30
0.0
 11
-38.866324
 21
163.012763
 31
0.0
  0
LINE
  5
2a3
100
AcDbEntity
  8
0
 62
7
100
AcDbLine
 10
-38.866324
 20
163.012763
 30
0.0
 11
-39.093925
 21
163.763064
 31
0.0
  0
LINE
  5
2a4
100
AcDbEntity
  8
0
 62
7
100
AcDbLine
 10
-39.093925
 20
163.763064
 30
0.0
 11
-39.170825
 21
164.543465
 31
0.0
  0
LINE
  5
2a5
100
AcDbEntity
  8
0
 62
7
100
AcDbLine
 10
-39.170825
 20
164.543465
 30
0.0
 11
-39.170825
 21
204.543521
 31
0.0
  0
LINE
  5
2a6
100
AcDbEntity
  8
0
 62
7
100
AcDbLine
 10
-39.170825
 20
204.543521
 30
0.0
 11
-39.093925
 21
205.323922
 31
0.0
  0
LINE
  5
2a7
100
AcDbEntity
  8
0
 62
7
100
AcDbLine
 10
-39.093925
 20
205.323922
 30
0.0
 11
-38.866324
 21
206.074223
 31
0.0
  0
LINE
  5
2a8
100
AcDbEntity
  8
0
 62
7
100
AcDbLine
 10
-38.866324
 20
206.074223
 30
0.0
 11
-38.496724
 21
206.765824
 31
0.0
  0
LINE
  5
2a9
100
AcDbEntity
  8
0
 62
7
100
AcDbLine
 10
-38.496724
 20
206.765824
 30
0.0
 11
-37.999223
 21
207.371924
 31
0.0
  0
LINE
  5
2aa
100
AcDbEntity
  8
0
 62
7
100
AcDbLine
 10
-37.999223
 20
207.371924
 30
0.0
 11
-37.393122
 21
207.869425
 31
0.0
  0
LINE
  5
2ab
100
AcDbEntity
  8
0
 62
7
100
AcDbLine
 10
-37.393122
 20
207.869425
 30
0.0
 11
-36.701521
 21
208.239026
 31
0.0
  0
LINE
  5
2ac
100
AcDbEntity
  8
0
 62
7
100
AcDbLine
 10
-36.701521
 20
208.239026
 30
0.0
 11
-35.951120
 21
208.466626
 31
0.0
  0
LINE
  5
2ad
100
AcDbEntity
  8
0
 62
7
100
AcDbLine
 10
-35.951120
 20
208.466626
 30
0.0
 11
-35.170819
 21
208.543526
 31
0.0
  0
LINE
  5
2ae
100
AcDbEntity
  8
0
 62
7
100
AcDbLine
 10
-35.170819
 20
208.543526
 30
0.0
 11
-29.170811
 21
208.543526
 31
0.0
  0
LINE
  5
2af
100
AcDbEntity
  8
0
 62
7
100
AcDbLine
 10
-29.170811
 20
208.543526
 30
0.0
 11
-29.151611
 21
208.348426
 31
0.0
  0
LINE
  5
2b0
100
AcDbEntity
  8
0
 62
7
100
AcDbLine
 10
-29.151611
 20
208.348426
 30
0.0
 11
-29.094711
 21
208.160826
 31
0.0
  0
LINE
  5
2b1
100
AcDbEntity
  8
0
 62
7
100
AcDbLine
 10
-29.094711
 20
208.160826
 30
0.0
 11
-29.002310
 21
207.987925
 31
0.0
  0
LINE
  5
2b2
100
AcDbEntity
  8
0
 62
7
100
AcDbLine
 10
-29.002310
 20
207.987925
 30
0.0
 11
-28.877910
 21
207.836425
 31
0.0
  0
LINE
  5
2b3
100
AcDbEntity
  8
0
 62
7
100
AcDbLine
 10
-28.877910
 20
207.836425
 30
0.0
 11
-28.726410
 21
207.712025
 31
0.0
  0
LINE
  5
2b4
100
AcDbEntity
  8
0
 62
7
100
AcDbLine
 10
-28.726410
 20
207.712025
 30
0.0
 11
-28.553510
 21
207.619625
 31
0.0
  0
LINE
  5
2b5
100
AcDbEntity
  8
0
 62
7
100
AcDbLine
 10
-28.553510
 20
207.619625
 30
0.0
 11
-28.365910
 21
207.562725
 31
0.0
  0
LINE
  5
2b6
100
AcDbEntity
  8
0
 62
7
100
AcDbLine
 10
-28.365910
 20
207.562725
 30
0.0
 11
-28.170809
 21
207.543525
 31
0.0
  0
LINE
  5
2b7
100
AcDbEntity
  8
0
 62
7
100
AcDbLine
 10
-28.170809
 20
207.543525
 30
0.0
 11
-27.975709
 21
207.562725
 31
0.0
  0
LINE
  5
2b8
100
AcDbEntity
  8
0
 62
7
100
AcDbLine
 10
-27.975709
 20
207.562725
 30
0.0
 11
-27.788109
 21
207.619625
 31
0.0
  0
LINE
  5
2b9
100
AcDbEntity
  8
0
 62
7
100
AcDbLine
 10
-27.788109
 20
207.619625
 30
0.0
 11
-27.615209
 21
207.712025
 31
0.0
  0
LINE
  5
2ba
100
AcDbEntity
  8
0
 62
7
100
AcDbLine
 10
-27.615209
 20
207.712025
 30
0.0
 11
-27.463708
 21
207.836425
 31
0.0
  0
LINE
  5
2bb
100
AcDbEntity
  8
0
 62
7
100
AcDbLine
 10
-27.463708
 20
207.836425
 30
0.0
 11
-27.339308
 21
207.987925
 31
0.0
  0
LINE
  5
2bc
100
AcDbEntity
  8
0
 62
7
100
AcDbLine
 10
-27.339308
 20
207.987925
 30
0.0
 11
-27.246908
 21
208.160826
 31
0.0
  0
LINE
  5
2bd
100
AcDbEntity
  8
0
 62
7
100
AcDbLine
 10
-27.246908
 20
208.160826
 30
0.0
 11
-27.190008
 21
208.348426
 31
0.0
  0
LINE
  5
2be
100
AcDbEntity
  8
0
 62
7
100
AcDbLine
 10
-27.190008
 20
208.348426
 30
0.0
 11
-27.170808
 21
208.543526
 31
0.0
  0
LINE
  5
2bf
100
AcDbEntity
  8
0
 62
7
100
AcDbLine
 10
-27.170808
 20
208.543526
 30
0.0
 11
31.829274
 21
208.543526
 31
0.0
  0
LINE
  5
2c0
100
AcDbEntity
  8
0
 62
7
100
AcDbLine
 10
31.829274
 20
208.543526
 30
0.0
 11
31.848474
 21
208.348426
 31
0.0
  0
LINE
  5
2c1
100
AcDbEntity
  8
0
 62
7
100
AcDbLine
 10
31.848474
 20
208.348426
 30
0.0
 11
31.905375
 21
208.160826
 31
0.0
  0
LINE
  5
2c2
100
AcDbEntity
  8
0
 62
7
100
AcDbLine
 10
31.905375
 20
208.160826
 30
0.0
 11
31.997775
 21
207.987925
 31
0.0
  0
LINE
  5
2c3
100
AcDbEntity
  8
0
 62
7
100
AcDbLine
 10
31.997775
 20
207.987925
 30
0.0
 11
32.122175
 21
207.836425
 31
0.0
  0
LINE
  5
2c4
100
AcDbEntity
  8
0
 62
7
100
AcDbLine
 10
32.122175
 20
207.836425
 30
0.0
 11
32.273675
 21
207.712025
 31
0.0
  0
LINE
  5
2c5
100
AcDbEntity
  8
0
 62
7
100
AcDbLine
 10
32.273675
 20
207.712025
 30
0.0
 11
32.446575
 21
207.619625
 31
0.0
  0
LINE
  5
2c6
100
AcDbEntity
  8
0
 62
7
100
AcDbLine
 10
32.446575
 20
207.619625
 30
0.0
 11
32.634176
 21
207.562725
 31
0.0
  0
LINE
  5
2c7
100
AcDbEntity
  8
0
 62
7
100
AcDbLine
 10
32.634176
 20
207.562725
 30
0.0
 11
32.829276
 21
207.543525
 31
0.0
  0
LINE
  5
2c8
100
AcDbEntity
  8
0
 62
7
100
AcDbLine
 10
32.829276
 20
207.543525
 30
0.0
 11
33.024376
 21
207.562725
 31
0.0
  0
LINE
  5
2c9
100
AcDbEntity
  8
0
 62
7
100
AcDbLine
 10
33.024376
 20
207.562725
 30
0.0
 11
33.211976
 21
207.619625
 31
0.0
  0
LINE
  5
2ca
100
AcDbEntity
  8
0
 62
7
100
AcDbLine
 10
33.211976
 20
207.619625
 30
0.0
 11
33.384877
 21
207.712025
 31
0.0
  0
LINE
  5
2cb
100
AcDbEntity
  8
0
 62
7
100
AcDbLine
 10
33.384877
 20
207.712025
 30
0.0
 11
33.536377
 21
207.836425
 31
0.0
  0
LINE
  5
2cc
100
AcDbEntity
  8
0
 62
7
100
AcDbLine
 10
33.536377
 20
207.836425
 30
0.0
 11
33.660777
 21
207.987925
 31
0.0
  0
LINE
  5
2cd
100
AcDbEntity
  8
0
 62
7
100
AcDbLine
 10
33.660777
 20
207.987925
 30
0.0
 11
33.753177
 21
208.160826
 31
0.0
  0
LINE
  5
2ce
100
AcDbEntity
  8
0
 62
7
100
AcDbLine
 10
33.753177
 20
208.160826
 30
0.0
 11
33.810077
 21
208.348426
 31
0.0
  0
LINE
  5
2cf
100
AcDbEntity
  8
0
 62
7
100
AcDbLine
 10
33.810077
 20
208.348426
 30
0.0
 11
33.829277
 21
208.543526
 31
0.0
  0
LINE
  5
2d0
100
AcDbEntity
  8
0
 62
7
100
AcDbLine
 10
33.829277
 20
208.543526
 30
0.0
 11
39.829286
 21
208.543526
 31
0.0
  0
LINE
  5
2d1
100
AcDbEntity
  8
0
 62
7
100
AcDbLine
 10
39.829286
 20
208.543526
 30
0.0
 11
40.609587
 21
208.466626
 31
0.0
  0
LINE
  5
2d2
100
AcDbEntity
  8
0
 62
7
100
AcDbLine
 10
40.609587
 20
208.466626
 30
0.0
 11
41.359988
 21
208.239026
 31
0.0
  0
LINE
  5
2d3
100
AcDbEntity
  8
0
 62
7
100
AcDbLine
 10
41.359988
 20
208.239026
 30
0.0
 11
42.051589
 21
207.869425
 31
0.0
  0
LINE
  5
2d4
100
AcDbEntity
  8
0
 62
7
100
AcDbLine
 10
42.051589
 20
207.869425
 30
0.0
 11
42.657690
 21
207.371924
 31
0.0
  0
LINE
  5
2d5
100
AcDbEntity
  8
0
 62
7
100
AcDbLine
 10
42.657690
 20
207.371924
 30
0.0
 11
43.155190
 21
206.765824
 31
0.0
  0
LINE
  5
2d6
100
AcDbEntity
  8
0
 62
7
100
AcDbLine
 10
43.155190
 20
206.765824
 30
0.0
 11
43.524791
 21
206.074223
 31
0.0
  0
LINE
  5
2d7
100
AcDbEntity
  8
0
 62
7
100
AcDbLine
 10
43.524791
 20
206.074223
 30
0.0
 11
43.752391
 21
205.323922
 31
0.0
  0
LINE
  5
2d8
100
AcDbEntity
  8
0
 62
7
100
AcDbLine
 10
43.752391
 20
205.323922
 30
0.0
 11
43.829291
 21
204.543521
 31
0.0
  0
LINE
  5
2d9
100
AcDbEntity
  8
0
 62
7
100
AcDbLine
 10
43.829291
 20
204.543521
 30
0.0
 11
43.829291
 21
164.543465
 31
0.0
  0
LINE
  5
2da
100
AcDbEntity
  8
0
 62
7
100
AcDbLine
 10
43.829291
 20
164.543465
 30
0.0
 11
43.752391
 21
163.763064
 31
0.0
  0
LINE
  5
2db
100
AcDbEntity
  8
0
 62
7
100
AcDbLine
 10
43.752391
 20
163.763064
 30
0.0
 11
43.524791
 21
163.012763
 31
0.0
  0
LINE
  5
2dc
100
AcDbEntity
  8
0
 62
7
100
AcDbLine
 10
43.524791
 20
163.012763
 30
0.0
 11
43.155190
 21
162.321162
 31
0.0
  0
LINE
  5
2dd
100
AcDbEntity
  8
0
 62
7
100
AcDbLine
 10
43.155190
 20
162.321162
 30
0.0
 11
42.657690
 21
161.715061
 31
0.0
  0
LINE
  5
2de
100
AcDbEntity
  8
0
 62
7
100
AcDbLine
 10
42.657690
 20
161.715061
 30
0.0
 11
42.051589
 21
161.217560
 31
0.0
  0
LINE
  5
2df
100
AcDbEntity
  8
0
 62
7
100
AcDbLine
 10
42.051589
 20
161.217560
 30
0.0
 11
41.359988
 21
160.847960
 31
0.0
  0
LINE
  5
2e0
100
AcDbEntity
  8
0
 62
7
100
AcDbLine
 10
41.359988
 20
160.847960
 30
0.0
 11
40.609587
 21
160.620359
 31
0.0
  0
LINE
  5
2e1
100
AcDbEntity
  8
0
 62
7
100
AcDbLine
 10
40.609587
 20
160.620359
 30
0.0
 11
39.829286
 21
160.543459
 31
0.0
  0
LINE
  5
2e2
100
AcDbEntity
  8
0
 62
7
100
AcDbLine
 10
39.829286
 20
160.543459
 30
0.0
 11
33.829277
 21
160.543459
 31
0.0
  0
LINE
  5
2e3
100
AcDbEntity
  8
0
 62
7
100
AcDbLine
 10
33.829277
 20
160.543459
 30
0.0
 11
33.810077
 21
160.738559
 31
0.0
  0
LINE
  5
2e4
100
AcDbEntity
  8
0
 62
7
100
AcDbLine
 10
33.810077
 20
160.738559
 30
0.0
 11
33.753177
 21
160.926160
 31
0.0
  0
LINE
  5
2e5
100
AcDbEntity
  8
0
 62
7
100
AcDbLine
 10
33.753177
 20
160.926160
 30
0.0
 11
33.660777
 21
161.099060
 31
0.0
  0
LINE
  5
2e6
100
AcDbEntity
  8
0
 62
7
100
AcDbLine
 10
33.660777
 20
161.099060
 30
0.0
 11
33.536377
 21
161.250560
 31
0.0
  0
LINE
  5
2e7
100
AcDbEntity
  8
0
 62
7
100
AcDbLine
 10
33.536377
 20
161.250560
 30
0.0
 11
33.384877
 21
161.374960
 31
0.0
  0
LINE
  5
2e8
100
AcDbEntity
  8
0
 62
7
100
AcDbLine
 10
33.384877
 20
161.374960
 30
0.0
 11
33.211976
 21
161.467360
 31
0.0
  0
LINE
  5
2e9
100
AcDbEntity
  8
0
 62
7
100
AcDbLine
 10
33.211976
 20
161.467360
 30
0.0
 11
33.024376
 21
161.524260
 31
0.0
  0
LINE
  5
2ea
100
AcDbEntity
  8
0
 62
7
100
AcDbLine
 10
33.024376
 20
161.524260
 30
0.0
 11
32.829276
 21
161.543460
 31
0.0
  0
LINE
  5
2eb
100
AcDbEntity
  8
0
 62
7
100
AcDbLine
 10
32.829276
 20
161.543460
 30
0.0
 11
32.634176
 21
161.524260
 31
0.0
  0
LINE
  5
2ec
100
AcDbEntity
  8
0
 62
7
100
AcDbLine
 10
32.634176
 20
161.524260
 30
0.0
 11
32.446575
 21
161.467360
 31
0.0
  0
LINE
  5
2ed
100
AcDbEntity
  8
0
 62
7
100
AcDbLine
 10
32.446575
 20
161.467360
 30
0.0
 11
32.273675
 21
161.374960
 31
0.0
  0
LINE
  5
2ee
100
AcDbEntity
  8
0
 62
7
100
AcDbLine
 10
32.273675
 20
161.374960
 30
0.0
 11
32.122175
 21
161.250560
 31
0.0
  0
LINE
  5
2ef
100
AcDbEntity
  8
0
 62
7
100
AcDbLine
 10
32.122175
 20
161.250560
 30
0.0
 11
31.997775
 21
161.099060
 31
0.0
  0
LINE
  5
2f0
100
AcDbEntity
  8
0
 62
7
100
AcDbLine
 10
31.997775
 20
161.099060
 30
0.0
 11
31.905375
 21
160.926160
 31
0.0
  0
LINE
  5
2f1
100
AcDbEntity
  8
0
 62
7
100
AcDbLine
 10
-31.920815
 20
280.882231
 30
0.0
 11
-31.920815
 21
273.882221
 31
0.0
  0
LINE
  5
2f2
100
AcDbEntity
  8
0
 62
7
100
AcDbLine
 10
-31.920815
 20
273.882221
 30
0.0
 11
-26.420807
 21
273.882221
 31
0.0
  0
LINE
  5
2f3
100
AcDbEntity
  8
0
 62
7
100
AcDbLine
 10
-26.420807
 20
273.882221
 30
0.0
 11
-26.420807
 21
280.882231
 31
0.0
  0
LINE
  5
2f4
100
AcDbEntity
  8
0
 62
7
100
AcDbLine
 10
-26.420807
 20
280.882231
 30
0.0
 11
-25.870806
 21
280.882231
 31
0.0
  0
LINE
  5
2f5
100
AcDbEntity
  8
0
 62
7
100
AcDbLine
 10
-25.870806
 20
280.882231
 30
0.0
 11
-25.870806
 21
297.982255
 31
0.0
  0
LINE
  5
2f6
100
AcDbEntity
  8
0
 62
7
100
AcDbLine
 10
-25.870806
 20
297.982255
 30
0.0
 11
-25.934206
 21
298.626056
 31
0.0
  0
LINE
  5
2f7
100
AcDbEntity
  8
0
 62
7
100
AcDbLine
 10
-25.934206
 20
298.626056
 30
0.0
 11
-26.122006
 21
299.245157
 31
0.0
  0
LINE
  5
2f8
100
AcDbEntity
  8
0
 62
7
100
AcDbLine
 10
-26.122006
 20
299.245157
 30
0.0
 11
-26.426907
 21
299.815657
 31
0.0
  0
LINE
  5
2f9
100
AcDbEntity
  8
0
 62
7
100
AcDbLine
 10
-26.426907
 20
299.815657
 30
0.0
 11
-26.837307
 21
300.315658
 31
0.0
  0
LINE
  5
2fa
100
AcDbEntity
  8
0
 62
7
100
AcDbLine
 10
-26.837307
 20
300.315658
 30
0.0
 11
-27.337408
 21
300.726059
 31
0.0
  0
LINE
  5
2fb
100
AcDbEntity
  8
0
 62
7
100
AcDbLine
 10
-27.337408
 20
300.726059
 30
0.0
 11
-27.907909
 21
301.031059
 31
0.0
  0
LINE
  5
2fc
100
AcDbEntity
  8
0
 62
7
100
AcDbLine
 10
-27.907909
 20
301.031059
 30
0.0
 11
-28.527010
 21
301.218859
 31
0.0
  0
LINE
  5
2fd
100
AcDbEntity
  8
0
 62
7
100
AcDbLine
 10
-28.527010
 20
301.218859
 30
0.0
 11
-29.170811
 21
301.282260
 31
0.0
  0
LINE
  5
2fe
100
AcDbEntity
  8
0
 62
7
100
AcDbLine
 10
-29.170811
 20
301.282260
 30
0.0
 11
-29.814612
 21
301.218859
 31
0.0
  0
LINE
  5
2ff
100
AcDbEntity
  8
0
 62
7
100
AcDbLine
 10
-29.814612
 20
301.218859
 30
0.0
 11
-30.433612
 21
301.031059
 31
0.0
  0
LINE
  5
300
100
AcDbEntity
  8
0
 62
7
100
AcDbLine
 10
-30.433612
 20
301.031059
 30
0.0
 11
-31.004213
 21
300.726059
 31
0.0
  0
LINE
  5
301
100
AcDbEntity
  8
0
 62
7
100
AcDbLine
 10
-31.004213
 20
300.726059
 30
0.0
 11
-31.504314
 21
300.315658
 31
0.0
  0
LINE
  5
302
100
AcDbEntity
  8
0
 62
7
100
AcDbLine
 10
-31.504314
 20
300.315658
 30
0.0
 11
-31.914715
 21
299.815657
 31
0.0
  0
LINE
  5
303
100
AcDbEntity
  8
0
 62
7
100
AcDbLine
 10
-31.914715
 20
299.815657
 30
0.0
 11
-32.219615
 21
299.245157
 31
0.0
  0
LINE
  5
304
100
AcDbEntity
  8
0
 62
7
100
AcDbLine
 10
-32.219615
 20
299.245157
 30
0.0
 11
-32.407415
 21
298.626056
 31
0.0
  0
LINE
  5
305
100
AcDbEntity
  8
0
 62
7
100
AcDbLine
 10
-32.407415
 20
298.626056
 30
0.0
 11
-32.470815
 21
297.982255
 31
0.0
  0
LINE
  5
306
100
AcDbEntity
  8
0
 62
7
100
AcDbLine
 10
-32.470815
 20
297.982255
 30
0.0
 11
-32.470815
 21
280.882231
 31
0.0
  0
LINE
  5
307
100
AcDbEntity
  8
0
 62
7
100
AcDbLine
 10
-32.470815
 20
280.882231
 30
0.0
 11
-31.920815
 21
280.882231
 31
0.0
  0
LINE
  5
308
100
AcDbEntity
  8
0
 62
7
100
AcDbLine
 10
-8.170782
 20
262.082205
 30
0.0
 11
-8.170782
 21
265.082209
 31
0.0
  0
LINE
  5
309
100
AcDbEntity
  8
0
 62
7
100
AcDbLine
 10
-8.170782
 20
265.082209
 30
0.0
 11
-22.170801
 21
265.082209
 31
0.0
  0
LINE
  5
30a
100
AcDbEntity
  8
0
 62
7
100
AcDbLine
 10
-22.170801
 20
265.082209
 30
0.0
 11
-22.170801
 21
262.082205
 31
0.0
  0
LINE
  5
30b
100
AcDbEntity
  8
0
 62
7
100
AcDbLine
 10
-22.170801
 20
262.082205
 30
0.0
 11
-8.170782
 21
262.082205
 31
0.0
  0
LINE
  5
30c
100
AcDbEntity
  8
0
 62
7
100
AcDbLine
 10
4.270056
 20
262.082205
 30
0.0
 11
6.829238
 21
262.082205
 31
0.0
  0
LINE
  5
30d
100
AcDbEntity
  8
0
 62
7
100
AcDbLine
 10
6.829238
 20
262.082205
 30
0.0
 11
6.829238
 21
259.082201
 31
0.0
  0
LINE
  5
30e
100
AcDbEntity
  8
0
 62
7
100
AcDbLine
 10
6.829238
 20
259.082201
 30
0.0
 11
-37.170822
 21
259.082201
 31
0.0
  0
LINE
  5
30f
100
AcDbEntity
  8
0
 62
7
100
AcDbLine
 10
-37.170822
 20
259.082201
 30
0.0
 11
-37.170822
 21
262.082205
 31
0.0
  0
LINE
  5
310
100
AcDbEntity
  8
0
 62
7
100
AcDbLine
 10
-37.170822
 20
262.082205
 30
0.0
 11
-35.131443
 21
262.082205
 31
0.0
  0
LINE
  5
311
100
AcDbEntity
  8
0
 62
7
100
AcDbLine
 10
-34.170818
 20
262.082205
 30
0.0
 11
-34.170818
 21
265.082209
 31
0.0
  0
LINE
  5
312
100
AcDbEntity
  8
0
 62
7
100
AcDbLine
 10
-34.170818
 20
265.082209
 30
0.0
 11
-38.670824
 21
265.082209
 31
0.0
  0
LINE
  5
313
100
AcDbEntity
  8
0
 62
7
100
AcDbLine
 10
-38.670824
 20
265.082209
 30
0.0
 11
-38.670824
 21
293.582249
 31
0.0
  0
LINE
  5
314
100
AcDbEntity
  8
0
 62
7
100
AcDbLine
 10
-38.670824
 20
293.582249
 30
0.0
 11
-38.219223
 21
298.166855
 31
0.0
  0
LINE
  5
315
100
AcDbEntity
  8
0
 62
7
100
AcDbLine
 10
-38.219223
 20
298.166855
 30
0.0
 11
-36.882021
 21
302.575361
 31
0.0
  0
LINE
  5
316
100
AcDbEntity
  8
0
 62
7
100
AcDbLine
 10
-36.452333
 20
303.379218
 30
0.0
 11
-34.710318
 21
306.638167
 31
0.0
  0
LINE
  5
317
100
AcDbEntity
  8
0
 62
7
100
AcDbLine
 10
-34.710318
 20
306.638167
 30
0.0
 11
-31.787814
 21
310.199272
 31
0.0
  0
LINE
  5
318
100
AcDbEntity
  8
0
 62
7
100
AcDbLine
 10
-31.787814
 20
310.199272
 30
0.0
 11
-30.670813
 21
311.115973
 31
0.0
  0
LINE
  5
319
100
AcDbEntity
  8
0
 62
7
100
AcDbLine
 10
-30.670813
 20
311.115973
 30
0.0
 11
-30.670813
 21
308.582270
 31
0.0
  0
LINE
  5
31a
100
AcDbEntity
  8
0
 62
7
100
AcDbLine
 10
-30.670813
 20
308.582270
 30
0.0
 11
-27.670809
 21
308.582270
 31
0.0
  0
LINE
  5
31b
100
AcDbEntity
  8
0
 62
7
100
AcDbLine
 10
-27.670809
 20
308.582270
 30
0.0
 11
-27.670809
 21
313.418976
 31
0.0
  0
LINE
  5
31c
100
AcDbEntity
  8
0
 62
7
100
AcDbLine
 10
-27.670809
 20
313.418976
 30
0.0
 11
-24.163904
 21
315.293479
 31
0.0
  0
LINE
  5
31d
100
AcDbEntity
  8
0
 62
7
100
AcDbLine
 10
-24.163904
 20
315.293479
 30
0.0
 11
-19.755398
 21
316.630681
 31
0.0
  0
LINE
  5
31e
100
AcDbEntity
  8
0
 62
7
100
AcDbLine
 10
-19.755398
 20
316.630681
 30
0.0
 11
-15.170791
 21
317.082282
 31
0.0
  0
LINE
  5
31f
100
AcDbEntity
  8
0
 62
7
100
AcDbLine
 10
-15.170791
 20
317.082282
 30
0.0
 11
-10.586185
 21
316.630681
 31
0.0
  0
LINE
  5
320
100
AcDbEntity
  8
0
 62
7
100
AcDbLine
 10
-10.586185
 20
316.630681
 30
0.0
 11
-6.177710
 21
315.293479
 31
0.0
  0
LINE
  5
321
100
AcDbEntity
  8
0
 62
7
100
AcDbLine
 10
-6.177710
 20
315.293479
 30
0.0
 11
-2.670775
 21
313.418976
 31
0.0
  0
LINE
  5
322
100
AcDbEntity
  8
0
 62
7
100
AcDbLine
 10
-2.670775
 20
313.418976
 30
0.0
 11
-2.670775
 21
308.582270
 31
0.0
  0
LINE
  5
323
100
AcDbEntity
  8
0
 62
7
100
AcDbLine
 10
-2.670775
 20
308.582270
 30
0.0
 11
0.329229
 21
308.582270
 31
0.0
  0
LINE
  5
324
100
AcDbEntity
  8
0
 62
7
100
AcDbLine
 10
0.329229
 20
308.582270
 30
0.0
 11
0.329229
 21
311.115973
 31
0.0
  0
LINE
  5
325
100
AcDbEntity
  8
0
 62
7
100
AcDbLine
 10
0.329229
 20
311.115973
 30
0.0
 11
1.446251
 21
310.199272
 31
0.0
  0
LINE
  5
326
100
AcDbEntity
  8
0
 62
7
100
AcDbLine
 10
1.446251
 20
310.199272
 30
0.0
 11
4.368775
 21
306.638167
 31
0.0
  0
LINE
  5
327
100
AcDbEntity
  8
0
 62
7
100
AcDbLine
 10
4.368775
 20
306.638167
 30
0.0
 11
6.540408
 21
302.575361
 31
0.0
  0
LINE
  5
328
100
AcDbEntity
  8
0
 62
7
100
AcDbLine
 10
6.540408
 20
302.575361
 30
0.0
 11
7.877690
 21
298.166855
 31
0.0
  0
LINE
  5
329
100
AcDbEntity
  8
0
 62
7
100
AcDbLine
 10
7.877690
 20
298.166855
 30
0.0
 11
8.329240
 21
293.582249
 31
0.0
  0
LINE
  5
32a
100
AcDbEntity
  8
0
 62
7
100
AcDbLine
 10
8.329240
 20
293.582249
 30
0.0
 11
8.329240
 21
265.082209
 31
0.0
  0
LINE
  5
32b
100
AcDbEntity
  8
0
 62
7
100
AcDbLine
 10
8.329240
 20
265.082209
 30
0.0
 11
3.829234
 21
265.082209
 31
0.0
  0
LINE
  5
32c
100
AcDbEntity
  8
0
 62
7
100
AcDbLine
 10
3.829234
 20
265.082209
 30
0.0
 11
3.829234
 21
262.082205
 31
0.0
  0
LINE
  5
32d
100
AcDbEntity
  8
0
 62
7
100
AcDbLine
 10
22.329261
 20
274.082222
 30
0.0
 11
12.329247
 21
274.082222
 31
0.0
  0
LINE
  5
32e
100
AcDbEntity
  8
0
 62
7
100
AcDbLine
 10
12.329247
 20
274.082222
 30
0.0
 11
12.329247
 21
277.082226
 31
0.0
  0
LINE
  5
32f
100
AcDbEntity
  8
0
 62
7
100
AcDbLine
 10
12.329247
 20
277.082226
 30
0.0
 11
9.829243
 21
277.082226
 31
0.0
  0
LINE
  5
330
100
AcDbEntity
  8
0
 62
7
100
AcDbLine
 10
9.829243
 20
277.082226
 30
0.0
 11
9.829243
 21
323.582291
 31
0.0
  0
LINE
  5
331
100
AcDbEntity
  8
0
 62
7
100
AcDbLine
 10
9.829243
 20
323.582291
 30
0.0
 11
6.829238
 21
323.582291
 31
0.0
  0
LINE
  5
332
100
AcDbEntity
  8
0
 62
7
100
AcDbLine
 10
6.829238
 20
323.582291
 30
0.0
 11
6.829238
 21
322.253662
 31
0.0
  0
LINE
  5
333
100
AcDbEntity
  8
0
 62
7
100
AcDbLine
 10
6.829238
 20
321.582288
 30
0.0
 11
4.829236
 21
321.582288
 31
0.0
  0
LINE
  5
334
100
AcDbEntity
  8
0
 62
7
100
AcDbLine
 10
4.829236
 20
321.582288
 30
0.0
 11
4.829236
 21
325.582293
 31
0.0
  0
LINE
  5
335
100
AcDbEntity
  8
0
 62
7
100
AcDbLine
 10
4.829236
 20
325.582293
 30
0.0
 11
4.848446
 21
325.777394
 31
0.0
  0
LINE
  5
336
100
AcDbEntity
  8
0
 62
7
100
AcDbLine
 10
4.848446
 20
325.777394
 30
0.0
 11
4.905346
 21
325.964994
 31
0.0
  0
LINE
  5
337
100
AcDbEntity
  8
0
 62
7
100
AcDbLine
 10
4.905346
 20
325.964994
 30
0.0
 11
4.997756
 21
326.137894
 31
0.0
  0
LINE
  5
338
100
AcDbEntity
  8
0
 62
7
100
AcDbLine
 10
4.997756
 20
326.137894
 30
0.0
 11
5.122126
 21
326.289394
 31
0.0
  0
LINE
  5
339
100
AcDbEntity
  8
0
 62
7
100
AcDbLine
 10
5.122126
 20
326.289394
 30
0.0
 11
5.273666
 21
326.413795
 31
0.0
  0
LINE
  5
33a
100
AcDbEntity
  8
0
 62
7
100
AcDbLine
 10
5.273666
 20
326.413795
 30
0.0
 11
5.446546
 21
326.506195
 31
0.0
  0
LINE
  5
33b
100
AcDbEntity
  8
0
 62
7
100
AcDbLine
 10
5.446546
 20
326.506195
 30
0.0
 11
5.634137
 21
326.563095
 31
0.0
  0
LINE
  5
33c
100
AcDbEntity
  8
0
 62
7
100
AcDbLine
 10
5.634137
 20
326.563095
 30
0.0
 11
5.829237
 21
326.582295
 31
0.0
  0
LINE
  5
33d
100
AcDbEntity
  8
0
 62
7
100
AcDbLine
 10
5.829237
 20
326.582295
 30
0.0
 11
9.829243
 21
326.582295
 31
0.0
  0
LINE
  5
33e
100
AcDbEntity
  8
0
 62
7
100
AcDbLine
 10
9.829243
 20
326.582295
 30
0.0
 11
12.755548
 21
326.294094
 31
0.0
  0
LINE
  5
33f
100
AcDbEntity
  8
0
 62
7
100
AcDbLine
 10
12.755548
 20
326.294094
 30
0.0
 11
15.569452
 21
325.440493
 31
0.0
  0
LINE
  5
340
100
AcDbEntity
  8
0
 62
7
100
AcDbLine
 10
15.569452
 20
325.440493
 30
0.0
 11
18.162755
 21
324.054291
 31
0.0
  0
LINE
  5
341
100
AcDbEntity
  8
0
 62
7
100
AcDbLine
 10
18.162755
 20
324.054291
 30
0.0
 11
20.435859
 21
322.188889
 31
0.0
  0
LINE
  5
342
100
AcDbEntity
  8
0
 62
7
100
AcDbLine
 10
20.435859
 20
322.188889
 30
0.0
 11
22.301261
 21
319.915886
 31
0.0
  0
LINE
  5
343
100
AcDbEntity
  8
0
 62
7
100
AcDbLine
 10
22.301261
 20
319.915886
 30
0.0
 11
23.687463
 21
317.322482
 31
0.0
  0
LINE
  5
344
100
AcDbEntity
  8
0
 62
7
100
AcDbLine
 10
23.687463
 20
317.322482
 30
0.0
 11
24.541064
 21
314.508578
 31
0.0
  0
LINE
  5
345
100
AcDbEntity
  8
0
 62
7
100
AcDbLine
 10
24.541064
 20
314.508578
 30
0.0
 11
24.829265
 21
311.582274
 31
0.0
  0
LINE
  5
346
100
AcDbEntity
  8
0
 62
7
100
AcDbLine
 10
24.829265
 20
311.582274
 30
0.0
 11
24.829265
 21
280.082230
 31
0.0
  0
LINE
  5
347
100
AcDbEntity
  8
0
 62
7
100
AcDbLine
 10
24.829265
 20
280.082230
 30
0.0
 11
27.829269
 21
280.082230
 31
0.0
  0
LINE
  5
348
100
AcDbEntity
  8
0
 62
7
100
AcDbLine
 10
27.829269
 20
280.082230
 30
0.0
 11
27.829269
 21
277.082226
 31
0.0
  0
LINE
  5
349
100
AcDbEntity
  8
0
 62
7
100
AcDbLine
 10
27.829269
 20
277.082226
 30
0.0
 11
22.329261
 21
277.082226
 31
0.0
  0
LINE
  5
34a
100
AcDbEntity
  8
0
 62
7
100
AcDbLine
 10
22.329261
 20
277.082226
 30
0.0
 11
22.329261
 21
274.600529
 31
0.0
  0
LINE
  5
34b
100
AcDbEntity
  8
0
 62
7
100
AcDbLine
 10
2.173929
 20
324.082291
 30
0.0
 11
-0.170771
 21
324.082291
 31
0.0
  0
LINE
  5
34c
100
AcDbEntity
  8
0
 62
7
100
AcDbLine
 10
-0.170771
 20
324.082291
 30
0.0
 11
-0.170771
 21
321.082287
 31
0.0
  0
LINE
  5
34d
100
AcDbEntity
  8
0
 62
7
100
AcDbLine
 10
-0.170771
 20
321.082287
 30
0.0
 11
8.829241
 21
321.082287
 31
0.0
  0
LINE
  5
34e
100
AcDbEntity
  8
0
 62
7
100
AcDbLine
 10
8.829241
 20
321.082287
 30
0.0
 11
8.829241
 21
313.082276
 31
0.0
  0
LINE
  5
34f
100
AcDbEntity
  8
0
 62
7
100
AcDbLine
 10
8.829241
 20
313.082276
 30
0.0
 11
8.733161
 21
312.106875
 31
0.0
  0
LINE
  5
350
100
AcDbEntity
  8
0
 62
7
100
AcDbLine
 10
8.733161
 20
312.106875
 30
0.0
 11
8.448621
 21
311.168873
 31
0.0
  0
LINE
  5
351
100
AcDbEntity
  8
0
 62
7
100
AcDbLine
 10
8.448621
 20
311.168873
 30
0.0
 11
7.986570
 21
310.304372
 31
0.0
  0
LINE
  5
352
100
AcDbEntity
  8
0
 62
7
100
AcDbLine
 10
7.986570
 20
310.304372
 30
0.0
 11
7.364759
 21
309.546771
 31
0.0
  0
LINE
  5
353
100
AcDbEntity
  8
0
 62
7
100
AcDbLine
 10
7.364759
 20
309.546771
 30
0.0
 11
6.607088
 21
308.924970
 31
0.0
  0
LINE
  5
354
100
AcDbEntity
  8
0
 62
7
100
AcDbLine
 10
6.607088
 20
308.924970
 30
0.0
 11
5.742647
 21
308.462870
 31
0.0
  0
LINE
  5
355
100
AcDbEntity
  8
0
 62
7
100
AcDbLine
 10
5.742647
 20
308.462870
 30
0.0
 11
4.804686
 21
308.178369
 31
0.0
  0
LINE
  5
356
100
AcDbEntity
  8
0
 62
7
100
AcDbLine
 10
4.804686
 20
308.178369
 30
0.0
 11
4.259305
 21
308.124669
 31
0.0
  0
LINE
  5
357
100
AcDbEntity
  8
0
 62
7
100
AcDbLine
 10
4.259305
 20
308.124669
 30
0.0
 11
2.506890
 21
310.259972
 31
0.0
  0
LINE
  5
358
100
AcDbEntity
  8
0
 62
7
100
AcDbLine
 10
2.506890
 20
310.259972
 30
0.0
 11
-1.281503
 21
313.368976
 31
0.0
  0
LINE
  5
359
100
AcDbEntity
  8
0
 62
7
100
AcDbLine
 10
-1.281503
 20
313.368976
 30
0.0
 11
-5.603689
 21
315.679280
 31
0.0
  0
LINE
  5
35a
100
AcDbEntity
  8
0
 62
7
100
AcDbLine
 10
-5.603689
 20
315.679280
 30
0.0
 11
-10.293484
 21
317.101882
 31
0.0
  0
LINE
  5
35b
100
AcDbEntity
  8
0
 62
7
100
AcDbLine
 10
-10.293484
 20
317.101882
 30
0.0
 11
-15.170791
 21
317.582282
 31
0.0
  0
LINE
  5
35c
100
AcDbEntity
  8
0
 62
7
100
AcDbLine
 10
-15.170791
 20
317.582282
 30
0.0
 11
-20.048098
 21
317.101882
 31
0.0
  0
LINE
  5
35d
100
AcDbEntity
  8
0
 62
7
100
AcDbLine
 10
-20.048098
 20
317.101882
 30
0.0
 11
-24.737905
 21
315.679280
 31
0.0
  0
LINE
  5
35e
100
AcDbEntity
  8
0
 62
7
100
AcDbLine
 10
-24.737905
 20
315.679280
 30
0.0
 11
-29.060111
 21
313.368976
 31
0.0
  0
LINE
  5
35f
100
AcDbEntity
  8
0
 62
7
100
AcDbLine
 10
-29.060111
 20
313.368976
 30
0.0
 11
-32.848516
 21
310.259972
 31
0.0
  0
LINE
  5
360
100
AcDbEntity
  8
0
 62
7
100
AcDbLine
 10
-32.848516
 20
310.259972
 30
0.0
 11
-34.600918
 21
308.124669
 31
0.0
  0
LINE
  5
361
100
AcDbEntity
  8
0
 62
7
100
AcDbLine
 10
-34.600918
 20
308.124669
 30
0.0
 11
-35.146219
 21
308.178369
 31
0.0
  0
LINE
  5
362
100
AcDbEntity
  8
0
 62
7
100
AcDbLine
 10
-35.146219
 20
308.178369
 30
0.0
 11
-36.084220
 21
308.462870
 31
0.0
  0
LINE
  5
363
100
AcDbEntity
  8
0
 62
7
100
AcDbLine
 10
-36.084220
 20
308.462870
 30
0.0
 11
-36.948622
 21
308.924970
 31
0.0
  0
LINE
  5
364
100
AcDbEntity
  8
0
 62
7
100
AcDbLine
 10
-36.948622
 20
308.924970
 30
0.0
 11
-37.706323
 21
309.546771
 31
0.0
  0
LINE
  5
365
100
AcDbEntity
  8
0
 62
7
100
AcDbLine
 10
-37.706323
 20
309.546771
 30
0.0
 11
-38.328123
 21
310.304372
 31
0.0
  0
LINE
  5
366
100
AcDbEntity
  8
0
 62
7
100
AcDbLine
 10
-38.328123
 20
310.304372
 30
0.0
 11
-38.790224
 21
311.168873
 31
0.0
  0
LINE
  5
367
100
AcDbEntity
  8
0
 62
7
100
AcDbLine
 10
-38.790224
 20
311.168873
 30
0.0
 11
-39.074725
 21
312.106875
 31
0.0
  0
LINE
  5
368
100
AcDbEntity
  8
0
 62
7
100
AcDbLine
 10
-39.074725
 20
312.106875
 30
0.0
 11
-39.170825
 21
313.082276
 31
0.0
  0
LINE
  5
369
100
AcDbEntity
  8
0
 62
7
100
AcDbLine
 10
-39.170825
 20
313.082276
 30
0.0
 11
-39.170825
 21
321.082287
 31
0.0
  0
LINE
  5
36a
100
AcDbEntity
  8
0
 62
7
100
AcDbLine
 10
-39.170825
 20
321.082287
 30
0.0
 11
-30.170812
 21
321.082287
 31
0.0
  0
LINE
  5
36b
100
AcDbEntity
  8
0
 62
7
100
AcDbLine
 10
-30.170812
 20
321.082287
 30
0.0
 11
-30.170812
 21
324.082291
 31
0.0
  0
LINE
  5
36c
100
AcDbEntity
  8
0
 62
7
100
AcDbLine
 10
-30.170812
 20
324.082291
 30
0.0
 11
-32.639153
 21
324.082291
 31
0.0
  0
LINE
  5
36d
100
AcDbEntity
  8
0
 62
7
100
AcDbLine
 10
-33.170816
 20
324.082291
 30
0.0
 11
-33.170816
 21
327.082296
 31
0.0
  0
LINE
  5
36e
100
AcDbEntity
  8
0
 62
7
100
AcDbLine
 10
-33.170816
 20
327.082296
 30
0.0
 11
2.829233
 21
327.082296
 31
0.0
  0
LINE
  5
36f
100
AcDbEntity
  8
0
 62
7
100
AcDbLine
 10
2.829233
 20
327.082296
 30
0.0
 11
2.829233
 21
324.082291
 31
0.0
  0
LINE
  5
370
100
AcDbEntity
  8
0
 62
7
100
AcDbLine
 10
-40.832443
 20
348.251206
 30
0.0
 11
45.322065
 21
348.251206
 31
0.0
  0
SPLINE
  5
371
100
AcDbEntity
  8
0
 62
7
100
AcDbSpline
 70
8
 71
3
 72
8
 73
4
 74
0
 40
0
 40
0
 40
0
 40
0
 40
1
 40
1
 40
1
 40
1
 10
45.322065
 20
348.251206
 30
0.0
 10
45.587282
 20
348.251206
 30
0.0
 10
45.841636
 20
348.145849
 30
0.0
 10
46.029173
 20
347.958312
 30
0.0
  0
SPLINE
  5
372
100
AcDbEntity
  8
0
 62
7
100
AcDbSpline
 70
8
 71
3
 72
8
 73
4
 74
0
 40
0
 40
0
 40
0
 40
0
 40
1
 40
1
 40
1
 40
1
 10
46.029173
 20
347.958312
 30
0.0
 10
46.216710
 20
347.770776
 30
0.0
 10
46.322067
 20
347.516422
 30
0.0
 10
46.322067
 20
347.251205
 30
0.0
  0
LINE
  5
373
100
AcDbEntity
  8
0
 62
7
100
AcDbLine
 10
46.322067
 20
347.251205
 30
0.0
 11
46.322067
 21
258.440000
 31
0.0
  0
SPLINE
  5
374
100
AcDbEntity
  8
0
 62
7
100
AcDbSpline
 70
8
 71
3
 72
8
 73
4
 74
0
 40
0
 40
0
 40
0
 40
0
 40
1
 40
1
 40
1
 40
1
 10
46.322067
 20
258.440000
 30
0.0
 10
46.322067
 20
258.174783
 30
0.0
 10
46.216710
 20
257.920429
 30
0.0
 10
46.029173
 20
257.732892
 30
0.0
  0
SPLINE
  5
375
100
AcDbEntity
  8
0
 62
7
100
AcDbSpline
 70
8
 71
3
 72
8
 73
4
 74
0
 40
0
 40
0
 40
0
 40
0
 40
1
 40
1
 40
1
 40
1
 10
46.029173
 20
257.732892
 30
0.0
 10
45.841636
 20
257.545355
 30
0.0
 10
45.587282
 20
257.439998
 30
0.0
 10
45.322065
 20
257.439998
 30
0.0
  0
LINE
  5
376
100
AcDbEntity
  8
0
 62
7
100
AcDbLine
 10
45.322065
 20
257.439998
 30
0.0
 11
-40.832443
 21
257.439998
 31
0.0
  0
SPLINE
  5
377
100
AcDbEntity
  8
0
 62
7
100
AcDbSpline
 70
8
 71
3
 72
8
 73
4
 74
0
 40
0
 40
0
 40
0
 40
0
 40
1
 40
1
 40
1
 40
1
 10
-40.832443
 20
257.439998
 30
0.0
 10
-41.097660
 20
257.439998
 30
0.0
 10
-41.352014
 20
257.545355
 30
0.0
 10
-41.539551
 20
257.732892
 30
0.0
  0
SPLINE
  5
378
100
AcDbEntity
  8
0
 62
7
100
AcDbSpline
 70
8
 71
3
 72
8
 73
4
 74
0
 40
0
 40
0
 40
0
 40
0
 40
1
 40
1
 40
1
 40
1
 10
-41.539551
 20
257.732892
 30
0.0
 10
-41.727087
 20
257.920429
 30
0.0
 10
-41.832444
 20
258.174783
 30
0.0
 10
-41.832444
 20
258.440000
 30
0.0
  0
LINE
  5
379
100
AcDbEntity
  8
0
 62
7
100
AcDbLine
 10
-41.832444
 20
258.440000
 30
0.0
 11
-41.832444
 21
347.251205
 31
0.0
  0
SPLINE
  5
37a
100
AcDbEntity
  8
0
 62
7
100
AcDbSpline
 70
8
 71
3
 72
8
 73
4
 74
0
 40
0
 40
0
 40
0
 40
0
 40
1
 40
1
 40
1
 40
1
 10
-41.832444
 20
347.251205
 30
0.0
 10
-41.832444
 20
347.516422
 30
0.0
 10
-41.727087
 20
347.770776
 30
0.0
 10
-41.539551
 20
347.958312
 30
0.0
  0
SPLINE
  5
37b
100
AcDbEntity
  8
0
 62
7
100
AcDbSpline
 70
8
 71
3
 72
8
 73
4
 74
0
 40
0
 40
0
 40
0
 40
0
 40
1
 40
1
 40
1
 40
1
 10
-41.539551
 20
347.958312
 30
0.0
 10
-41.352014
 20
348.145849
 30
0.0
 10
-41.097660
 20
348.251206
 30
0.0
 10
-40.832443
 20
348.251206
 30
0.0
  0
LINE
  5
37c
100
AcDbEntity
  8
0
 62
7
100
AcDbLine
 10
-40.832443
 20
348.251206
 30
0.0
 11
-40.832443
 21
348.251206
 31
0.0
  0
LINE
  5
37d
100
AcDbEntity
  8
0
 62
7
100
AcDbLine
 10
22.328584
 20
325.582293
 30
0.0
 11
20.829259
 21
325.582293
 31
0.0
  0
LINE
  5
37e
100
AcDbEntity
  8
0
 62
7
100
AcDbLine
 10
20.829259
 20
325.582293
 30
0.0
 11
20.829259
 21
329.582299
 31
0.0
  0
LINE
  5
37f
100
AcDbEntity
  8
0
 62
7
100
AcDbLine
 10
20.829259
 20
329.582299
 30
0.0
 11
20.848459
 21
329.777399
 31
0.0
  0
LINE
  5
380
100
AcDbEntity
  8
0
 62
7
100
AcDbLine
 10
20.848459
 20
329.777399
 30
0.0
 11
20.905359
 21
329.965000
 31
0.0
  0
LINE
  5
381
100
AcDbEntity
  8
0
 62
7
100
AcDbLine
 10
20.905359
 20
329.965000
 30
0.0
 11
20.997759
 21
330.137900
 31
0.0
  0
LINE
  5
382
100
AcDbEntity
  8
0
 62
7
100
AcDbLine
 10
20.997759
 20
330.137900
 30
0.0
 11
21.122159
 21
330.289400
 31
0.0
  0
LINE
  5
383
100
AcDbEntity
  8
0
 62
7
100
AcDbLine
 10
21.122159
 20
330.289400
 30
0.0
 11
21.273660
 21
330.413800
 31
0.0
  0
LINE
  5
384
100
AcDbEntity
  8
0
 62
7
100
AcDbLine
 10
21.273660
 20
330.413800
 30
0.0
 11
21.446560
 21
330.506200
 31
0.0
  0
LINE
  5
385
100
AcDbEntity
  8
0
 62
7
100
AcDbLine
 10
21.446560
 20
330.506200
 30
0.0
 11
21.634160
 21
330.563100
 31
0.0
  0
LINE
  5
386
100
AcDbEntity
  8
0
 62
7
100
AcDbLine
 10
21.634160
 20
330.563100
 30
0.0
 11
21.829260
 21
330.582300
 31
0.0
  0
LINE
  5
387
100
AcDbEntity
  8
0
 62
7
100
AcDbLine
 10
21.829260
 20
330.582300
 30
0.0
 11
25.829266
 21
330.582300
 31
0.0
  0
LINE
  5
388
100
AcDbEntity
  8
0
 62
7
100
AcDbLine
 10
25.829266
 20
330.582300
 30
0.0
 11
28.755570
 21
330.294100
 31
0.0
  0
LINE
  5
389
100
AcDbEntity
  8
0
 62
7
100
AcDbLine
 10
28.755570
 20
330.294100
 30
0.0
 11
31.569474
 21
329.440499
 31
0.0
  0
LINE
  5
38a
100
AcDbEntity
  8
0
 62
7
100
AcDbLine
 10
31.569474
 20
329.440499
 30
0.0
 11
34.162778
 21
328.054297
 31
0.0
  0
LINE
  5
38b
100
AcDbEntity
  8
0
 62
7
100
AcDbLine
 10
34.162778
 20
328.054297
 30
0.0
 11
36.435881
 21
326.188894
 31
0.0
  0
LINE
  5
38c
100
AcDbEntity
  8
0
 62
7
100
AcDbLine
 10
36.435881
 20
326.188894
 30
0.0
 11
38.301283
 21
323.915891
 31
0.0
  0
LINE
  5
38d
100
AcDbEntity
  8
0
 62
7
100
AcDbLine
 10
38.301283
 20
323.915891
 30
0.0
 11
39.687485
 21
321.322488
 31
0.0
  0
LINE
  5
38e
100
AcDbEntity
  8
0
 62
7
100
AcDbLine
 10
39.687485
 20
321.322488
 30
0.0
 11
40.541087
 21
318.508584
 31
0.0
  0
LINE
  5
38f
100
AcDbEntity
  8
0
 62
7
100
AcDbLine
 10
40.541087
 20
318.508584
 30
0.0
 11
40.829287
 21
315.582279
 31
0.0
  0
LINE
  5
390
100
AcDbEntity
  8
0
 62
7
100
AcDbLine
 10
40.829287
 20
315.582279
 30
0.0
 11
40.829287
 21
284.082236
 31
0.0
  0
LINE
  5
391
100
AcDbEntity
  8
0
 62
7
100
AcDbLine
 10
40.829287
 20
284.082236
 30
0.0
 11
43.829291
 21
284.082236
 31
0.0
  0
LINE
  5
392
100
AcDbEntity
  8
0
 62
7
100
AcDbLine
 10
43.829291
 20
284.082236
 30
0.0
 11
43.829291
 21
281.082231
 31
0.0
  0
LINE
  5
393
100
AcDbEntity
  8
0
 62
7
100
AcDbLine
 10
43.829291
 20
281.082231
 30
0.0
 11
38.329284
 21
281.082231
 31
0.0
  0
LINE
  5
394
100
AcDbEntity
  8
0
 62
7
100
AcDbLine
 10
38.329284
 20
281.082231
 30
0.0
 11
38.329284
 21
278.691285
 31
0.0
  0
LINE
  5
395
100
AcDbEntity
  8
0
 62
7
100
AcDbLine
 10
38.329284
 20
278.082227
 30
0.0
 11
28.329270
 21
278.082227
 31
0.0
  0
LINE
  5
396
100
AcDbEntity
  8
0
 62
7
100
AcDbLine
 10
28.329270
 20
278.082227
 30
0.0
 11
28.329270
 21
281.082231
 31
0.0
  0
LINE
  5
397
100
AcDbEntity
  8
0
 62
7
100
AcDbLine
 10
28.329270
 20
281.082231
 30
0.0
 11
25.829266
 21
281.082231
 31
0.0
  0
LINE
  5
398
100
AcDbEntity
  8
0
 62
7
100
AcDbLine
 10
25.829266
 20
281.082231
 30
0.0
 11
25.829266
 21
290.082244
 31
0.0
  0
LINE
  5
399
100
AcDbEntity
  8
0
 62
7
100
AcDbLine
 10
25.829266
 20
290.082244
 30
0.0
 11
29.129271
 21
290.082244
 31
0.0
  0
LINE
  5
39a
100
AcDbEntity
  8
0
 62
7
100
AcDbLine
 10
29.129271
 20
290.082244
 30
0.0
 11
29.129271
 21
302.582261
 31
0.0
  0
LINE
  5
39b
100
AcDbEntity
  8
0
 62
7
100
AcDbLine
 10
29.129271
 20
302.582261
 30
0.0
 11
30.129272
 21
302.582261
 31
0.0
  0
LINE
  5
39c
100
AcDbEntity
  8
0
 62
7
100
AcDbLine
 10
30.129272
 20
302.582261
 30
0.0
 11
30.129272
 21
320.082286
 31
0.0
  0
LINE
  5
39d
100
AcDbEntity
  8
0
 62
7
100
AcDbLine
 10
30.129272
 20
320.082286
 30
0.0
 11
25.829266
 21
320.082286
 31
0.0
  0
LINE
  5
39e
100
AcDbEntity
  8
0
 62
7
100
AcDbLine
 10
25.829266
 20
320.082286
 30
0.0
 11
25.829266
 21
327.582296
 31
0.0
  0
LINE
  5
39f
100
AcDbEntity
  8
0
 62
7
100
AcDbLine
 10
25.829266
 20
327.582296
 30
0.0
 11
22.829262
 21
327.582296
 31
0.0
  0
LINE
  5
3a0
100
AcDbEntity
  8
0
 62
7
100
AcDbLine
 10
22.829262
 20
327.582296
 30
0.0
 11
22.829262
 21
325.582293
 31
0.0
  0
LINE
  5
3a1
100
AcDbEntity
  8
0
 62
6
100
AcDbLine
 10
38.139653
 20
345.653812
 30
0.0
 11
37.912053
 21
345.506812
 31
0.0
  0
LINE
  5
3a2
100
AcDbEntity
  8
0
 62
6
100
AcDbLine
 10
37.912053
 20
345.506812
 30
0.0
 11
37.817753
 21
345.153812
 31
0.0
  0
LINE
  5
3a3
100
AcDbEntity
  8
0
 62
6
100
AcDbLine
 10
37.817753
 20
345.153812
 30
0.0
 11
37.583152
 21
343.075809
 31
0.0
  0
LINE
  5
3a4
100
AcDbEntity
  8
0
 62
6
100
AcDbLine
 10
37.583152
 20
343.075809
 30
0.0
 11
37.441052
 21
342.660808
 31
0.0
  0
LINE
  5
3a5
100
AcDbEntity
  8
0
 62
6
100
AcDbLine
 10
37.441052
 20
342.660808
 30
0.0
 11
37.441052
 21
342.489808
 31
0.0
  0
LINE
  5
3a6
100
AcDbEntity
  8
0
 62
6
100
AcDbLine
 10
37.441052
 20
342.489808
 30
0.0
 11
36.572351
 21
341.829807
 31
0.0
  0
LINE
  5
3a7
100
AcDbEntity
  8
0
 62
6
100
AcDbLine
 10
36.572351
 20
341.829807
 30
0.0
 11
36.044450
 21
341.183806
 31
0.0
  0
LINE
  5
3a8
100
AcDbEntity
  8
0
 62
6
100
AcDbLine
 10
36.044450
 20
341.183806
 30
0.0
 11
35.667350
 21
340.466805
 31
0.0
  0
LINE
  5
3a9
100
AcDbEntity
  8
0
 62
6
100
AcDbLine
 10
35.667350
 20
340.466805
 30
0.0
 11
35.441149
 21
339.703804
 31
0.0
  0
LINE
  5
3aa
100
AcDbEntity
  8
0
 62
6
100
AcDbLine
 10
35.441149
 20
339.703804
 30
0.0
 11
35.365749
 21
338.916803
 31
0.0
  0
LINE
  5
3ab
100
AcDbEntity
  8
0
 62
6
100
AcDbLine
 10
35.365749
 20
338.916803
 30
0.0
 11
35.441149
 21
338.129802
 31
0.0
  0
LINE
  5
3ac
100
AcDbEntity
  8
0
 62
6
100
AcDbLine
 10
35.441149
 20
338.129802
 30
0.0
 11
35.667350
 21
337.366801
 31
0.0
  0
LINE
  5
3ad
100
AcDbEntity
  8
0
 62
6
100
AcDbLine
 10
35.667350
 20
337.366801
 30
0.0
 11
36.044450
 21
336.649800
 31
0.0
  0
LINE
  5
3ae
100
AcDbEntity
  8
0
 62
6
100
AcDbLine
 10
36.044450
 20
336.649800
 30
0.0
 11
36.572351
 21
336.003999
 31
0.0
  0
LINE
  5
3af
100
AcDbEntity
  8
0
 62
6
100
AcDbLine
 10
36.572351
 20
336.003999
 30
0.0
 11
37.441052
 21
335.344098
 31
0.0
  0
LINE
  5
3b0
100
AcDbEntity
  8
0
 62
6
100
AcDbLine
 10
37.441052
 20
335.344098
 30
0.0
 11
37.441052
 21
335.172998
 31
0.0
  0
LINE
  5
3b1
100
AcDbEntity
  8
0
 62
6
100
AcDbLine
 10
37.441052
 20
335.172998
 30
0.0
 11
37.583152
 21
334.758597
 31
0.0
  0
LINE
  5
3b2
100
AcDbEntity
  8
0
 62
6
100
AcDbLine
 10
37.583152
 20
334.758597
 30
0.0
 11
37.817753
 21
332.680194
 31
0.0
  0
LINE
  5
3b3
100
AcDbEntity
  8
0
 62
6
100
AcDbLine
 10
37.817753
 20
332.680194
 30
0.0
 11
37.912053
 21
332.326794
 31
0.0
  0
LINE
  5
3b4
100
AcDbEntity
  8
0
 62
6
100
AcDbLine
 10
37.912053
 20
332.326794
 30
0.0
 11
38.139653
 21
332.180494
 31
0.0
  0
LINE
  5
3b5
100
AcDbEntity
  8
0
 62
6
100
AcDbLine
 10
38.139653
 20
332.180494
 30
0.0
 11
40.830957
 21
332.180494
 31
0.0
  0
LINE
  5
3b6
100
AcDbEntity
  8
0
 62
6
100
AcDbLine
 10
40.830957
 20
332.180494
 30
0.0
 11
41.058357
 21
332.326794
 31
0.0
  0
LINE
  5
3b7
100
AcDbEntity
  8
0
 62
6
100
AcDbLine
 10
41.058357
 20
332.326794
 30
0.0
 11
41.152457
 21
332.680194
 31
0.0
  0
LINE
  5
3b8
100
AcDbEntity
  8
0
 62
6
100
AcDbLine
 10
41.152457
 20
332.680194
 30
0.0
 11
41.387058
 21
334.758597
 31
0.0
  0
LINE
  5
3b9
100
AcDbEntity
  8
0
 62
6
100
AcDbLine
 10
41.387058
 20
334.758597
 30
0.0
 11
41.529658
 21
335.172998
 31
0.0
  0
LINE
  5
3ba
100
AcDbEntity
  8
0
 62
6
100
AcDbLine
 10
41.529658
 20
335.172998
 30
0.0
 11
41.529658
 21
335.344598
 31
0.0
  0
LINE
  5
3bb
100
AcDbEntity
  8
0
 62
6
100
AcDbLine
 10
41.529658
 20
335.344598
 30
0.0
 11
42.050059
 21
335.697499
 31
0.0
  0
LINE
  5
3bc
100
AcDbEntity
  8
0
 62
6
100
AcDbLine
 10
42.050059
 20
335.697499
 30
0.0
 11
42.374559
 21
335.700599
 31
0.0
  0
LINE
  5
3bd
100
AcDbEntity
  8
0
 62
6
100
AcDbLine
 10
42.374559
 20
335.700599
 30
0.0
 11
42.701660
 21
336.027199
 31
0.0
  0
LINE
  5
3be
100
AcDbEntity
  8
0
 62
6
100
AcDbLine
 10
42.701660
 20
336.027199
 30
0.0
 11
42.705760
 21
336.350199
 31
0.0
  0
LINE
  5
3bf
100
AcDbEntity
  8
0
 62
6
100
AcDbLine
 10
42.705760
 20
336.350199
 30
0.0
 11
43.250660
 21
337.248801
 31
0.0
  0
LINE
  5
3c0
100
AcDbEntity
  8
0
 62
6
100
AcDbLine
 10
43.250660
 20
337.248801
 30
0.0
 11
43.544461
 21
338.231802
 31
0.0
  0
LINE
  5
3c1
100
AcDbEntity
  8
0
 62
6
100
AcDbLine
 10
43.544461
 20
338.231802
 30
0.0
 11
43.835961
 21
338.231802
 31
0.0
  0
LINE
  5
3c2
100
AcDbEntity
  8
0
 62
6
100
AcDbLine
 10
43.835961
 20
338.231802
 30
0.0
 11
43.971861
 21
338.367802
 31
0.0
  0
LINE
  5
3c3
100
AcDbEntity
  8
0
 62
6
100
AcDbLine
 10
43.971861
 20
338.367802
 30
0.0
 11
43.971861
 21
339.466804
 31
0.0
  0
LINE
  5
3c4
100
AcDbEntity
  8
0
 62
6
100
AcDbLine
 10
43.971861
 20
339.466804
 30
0.0
 11
43.835961
 21
339.601804
 31
0.0
  0
LINE
  5
3c5
100
AcDbEntity
  8
0
 62
6
100
AcDbLine
 10
43.835961
 20
339.601804
 30
0.0
 11
43.543961
 21
339.601804
 31
0.0
  0
LINE
  5
3c6
100
AcDbEntity
  8
0
 62
6
100
AcDbLine
 10
43.543961
 20
339.601804
 30
0.0
 11
43.249460
 21
340.583805
 31
0.0
  0
LINE
  5
3c7
100
AcDbEntity
  8
0
 62
6
100
AcDbLine
 10
43.249460
 20
340.583805
 30
0.0
 11
42.704760
 21
341.482807
 31
0.0
  0
LINE
  5
3c8
100
AcDbEntity
  8
0
 62
6
100
AcDbLine
 10
42.704760
 20
341.482807
 30
0.0
 11
42.701660
 21
341.806807
 31
0.0
  0
LINE
  5
3c9
100
AcDbEntity
  8
0
 62
6
100
AcDbLine
 10
42.701660
 20
341.806807
 30
0.0
 11
42.374559
 21
342.133808
 31
0.0
  0
LINE
  5
3ca
100
AcDbEntity
  8
0
 62
6
100
AcDbLine
 10
42.374559
 20
342.133808
 30
0.0
 11
42.049959
 21
342.136808
 31
0.0
  0
LINE
  5
3cb
100
AcDbEntity
  8
0
 62
6
100
AcDbLine
 10
42.049959
 20
342.136808
 30
0.0
 11
41.529658
 21
342.488808
 31
0.0
  0
LINE
  5
3cc
100
AcDbEntity
  8
0
 62
6
100
AcDbLine
 10
41.529658
 20
342.488808
 30
0.0
 11
41.529658
 21
342.660808
 31
0.0
  0
LINE
  5
3cd
100
AcDbEntity
  8
0
 62
6
100
AcDbLine
 10
41.529658
 20
342.660808
 30
0.0
 11
41.386958
 21
343.074809
 31
0.0
  0
LINE
  5
3ce
100
AcDbEntity
  8
0
 62
6
100
AcDbLine
 10
41.386958
 20
343.074809
 30
0.0
 11
41.152357
 21
345.153812
 31
0.0
  0
LINE
  5
3cf
100
AcDbEntity
  8
0
 62
6
100
AcDbLine
 10
41.152357
 20
345.153812
 30
0.0
 11
41.058357
 21
345.506812
 31
0.0
  0
LINE
  5
3d0
100
AcDbEntity
  8
0
 62
6
100
AcDbLine
 10
41.058357
 20
345.506812
 30
0.0
 11
40.830957
 21
345.653812
 31
0.0
  0
LINE
  5
3d1
100
AcDbEntity
  8
0
 62
6
100
AcDbLine
 10
40.830957
 20
345.653812
 30
0.0
 11
38.139653
 21
345.653812
 31
0.0
  0
LINE
  5
3d2
100
AcDbEntity
  8
0
 62
6
100
AcDbLine
 10
39.485355
 20
342.538808
 30
0.0
 11
40.848257
 21
342.273808
 31
0.0
  0
LINE
  5
3d3
100
AcDbEntity
  8
0
 62
6
100
AcDbLine
 10
40.848257
 20
342.273808
 30
0.0
 11
42.046459
 21
341.478807
 31
0.0
  0
LINE
  5
3d4
100
AcDbEntity
  8
0
 62
6
100
AcDbLine
 10
42.046459
 20
341.478807
 30
0.0
 11
42.842160
 21
340.280805
 31
0.0
  0
LINE
  5
3d5
100
AcDbEntity
  8
0
 62
6
100
AcDbLine
 10
42.842160
 20
340.280805
 30
0.0
 11
43.107360
 21
338.916803
 31
0.0
  0
LINE
  5
3d6
100
AcDbEntity
  8
0
 62
6
100
AcDbLine
 10
43.107360
 20
338.916803
 30
0.0
 11
42.842160
 21
337.553801
 31
0.0
  0
LINE
  5
3d7
100
AcDbEntity
  8
0
 62
6
100
AcDbLine
 10
42.842160
 20
337.553801
 30
0.0
 11
42.046459
 21
336.355899
 31
0.0
  0
LINE
  5
3d8
100
AcDbEntity
  8
0
 62
6
100
AcDbLine
 10
42.046459
 20
336.355899
 30
0.0
 11
40.848157
 21
335.560198
 31
0.0
  0
LINE
  5
3d9
100
AcDbEntity
  8
0
 62
6
100
AcDbLine
 10
40.848157
 20
335.560198
 30
0.0
 11
39.485055
 21
335.294998
 31
0.0
  0
LINE
  5
3da
100
AcDbEntity
  8
0
 62
6
100
AcDbLine
 10
39.485055
 20
335.294998
 30
0.0
 11
38.121953
 21
335.560198
 31
0.0
  0
LINE
  5
3db
100
AcDbEntity
  8
0
 62
6
100
AcDbLine
 10
38.121953
 20
335.560198
 30
0.0
 11
36.923752
 21
336.355899
 31
0.0
  0
LINE
  5
3dc
100
AcDbEntity
  8
0
 62
6
100
AcDbLine
 10
36.923752
 20
336.355899
 30
0.0
 11
36.128050
 21
337.553801
 31
0.0
  0
LINE
  5
3dd
100
AcDbEntity
  8
0
 62
6
100
AcDbLine
 10
36.128050
 20
337.553801
 30
0.0
 11
35.862850
 21
338.916803
 31
0.0
  0
LINE
  5
3de
100
AcDbEntity
  8
0
 62
6
100
AcDbLine
 10
35.862850
 20
338.916803
 30
0.0
 11
36.128050
 21
340.280805
 31
0.0
  0
LINE
  5
3df
100
AcDbEntity
  8
0
 62
6
100
AcDbLine
 10
36.128050
 20
340.280805
 30
0.0
 11
36.923752
 21
341.478807
 31
0.0
  0
LINE
  5
3e0
100
AcDbEntity
  8
0
 62
6
100
AcDbLine
 10
36.923752
 20
341.478807
 30
0.0
 11
38.122153
 21
342.273808
 31
0.0
  0
LINE
  5
3e1
100
AcDbEntity
  8
0
 62
6
100
AcDbLine
 10
38.122153
 20
342.273808
 30
0.0
 11
39.485355
 21
342.538808
 31
0.0
  0
LINE
  5
3e2
100
AcDbEntity
  8
0
 62
6
100
AcDbLine
 10
39.485355
 20
342.538808
 30
0.0
 11
39.485355
 21
342.538808
 31
0.0
  0
LINE
  5
3e3
100
AcDbEntity
  8
0
 62
6
100
AcDbLine
 10
17.991025
 20
337.338801
 30
0.0
 11
17.460724
 21
337.019800
 31
0.0
  0
LINE
  5
3e4
100
AcDbEntity
  8
0
 62
6
100
AcDbLine
 10
17.460724
 20
337.019800
 30
0.0
 11
16.824123
 21
336.913800
 31
0.0
  0
LINE
  5
3e5
100
AcDbEntity
  8
0
 62
6
100
AcDbLine
 10
16.824123
 20
336.913800
 30
0.0
 11
15.187421
 21
336.913800
 31
0.0
  0
LINE
  5
3e6
100
AcDbEntity
  8
0
 62
6
100
AcDbLine
 10
15.187421
 20
336.913800
 30
0.0
 11
15.187421
 21
342.153808
 31
0.0
  0
LINE
  5
3e7
100
AcDbEntity
  8
0
 62
6
100
AcDbLine
 10
15.187421
 20
342.153808
 30
0.0
 11
16.464423
 21
342.153808
 31
0.0
  0
LINE
  5
3e8
100
AcDbEntity
  8
0
 62
6
100
AcDbLine
 10
16.464423
 20
342.153808
 30
0.0
 11
17.011224
 21
342.074807
 31
0.0
  0
LINE
  5
3e9
100
AcDbEntity
  8
0
 62
6
100
AcDbLine
 10
17.011224
 20
342.074807
 30
0.0
 11
17.433224
 21
341.837807
 31
0.0
  0
LINE
  5
3ea
100
AcDbEntity
  8
0
 62
6
100
AcDbLine
 10
17.433224
 20
341.837807
 30
0.0
 11
17.719425
 21
341.434807
 31
0.0
  0
LINE
  5
3eb
100
AcDbEntity
  8
0
 62
6
100
AcDbLine
 10
17.719425
 20
341.434807
 30
0.0
 11
17.814825
 21
340.898806
 31
0.0
  0
LINE
  5
3ec
100
AcDbEntity
  8
0
 62
6
100
AcDbLine
 10
17.814825
 20
340.898806
 30
0.0
 11
17.673525
 21
340.300805
 31
0.0
  0
LINE
  5
3ed
100
AcDbEntity
  8
0
 62
6
100
AcDbLine
 10
17.673525
 20
340.300805
 30
0.0
 11
17.249724
 21
339.885804
 31
0.0
  0
LINE
  5
3ee
100
AcDbEntity
  8
0
 62
6
100
AcDbLine
 10
17.249724
 20
339.885804
 30
0.0
 11
17.747025
 21
339.705804
 31
0.0
  0
LINE
  5
3ef
100
AcDbEntity
  8
0
 62
6
100
AcDbLine
 10
17.747025
 20
339.705804
 30
0.0
 11
18.137825
 21
339.386804
 31
0.0
  0
LINE
  5
3f0
100
AcDbEntity
  8
0
 62
6
100
AcDbLine
 10
18.137825
 20
339.386804
 30
0.0
 11
18.385526
 21
338.953803
 31
0.0
  0
LINE
  5
3f1
100
AcDbEntity
  8
0
 62
6
100
AcDbLine
 10
18.385526
 20
338.953803
 30
0.0
 11
18.468026
 21
338.432802
 31
0.0
  0
LINE
  5
3f2
100
AcDbEntity
  8
0
 62
6
100
AcDbLine
 10
18.468026
 20
338.432802
 30
0.0
 11
18.348826
 21
337.821802
 31
0.0
  0
LINE
  5
3f3
100
AcDbEntity
  8
0
 62
6
100
AcDbLine
 10
18.348826
 20
337.821802
 30
0.0
 11
17.991025
 21
337.338801
 31
0.0
  0
LINE
  5
3f4
100
AcDbEntity
  8
0
 62
6
100
AcDbLine
 10
17.220324
 20
341.588807
 30
0.0
 11
16.486423
 21
341.852807
 31
0.0
  0
LINE
  5
3f5
100
AcDbEntity
  8
0
 62
6
100
AcDbLine
 10
16.486423
 20
341.852807
 30
0.0
 11
15.481022
 21
341.852807
 31
0.0
  0
LINE
  5
3f6
100
AcDbEntity
  8
0
 62
6
100
AcDbLine
 10
15.481022
 20
341.852807
 30
0.0
 11
15.481022
 21
339.944805
 31
0.0
  0
LINE
  5
3f7
100
AcDbEntity
  8
0
 62
6
100
AcDbLine
 10
15.481022
 20
339.944805
 30
0.0
 11
16.530423
 21
339.944805
 31
0.0
  0
LINE
  5
3f8
100
AcDbEntity
  8
0
 62
6
100
AcDbLine
 10
16.530423
 20
339.944805
 30
0.0
 11
17.235124
 21
340.208805
 31
0.0
  0
LINE
  5
3f9
100
AcDbEntity
  8
0
 62
6
100
AcDbLine
 10
17.235124
 20
340.208805
 30
0.0
 11
17.444224
 21
340.512805
 31
0.0
  0
LINE
  5
3fa
100
AcDbEntity
  8
0
 62
6
100
AcDbLine
 10
17.444224
 20
340.512805
 30
0.0
 11
17.514024
 21
340.898806
 31
0.0
  0
LINE
  5
3fb
100
AcDbEntity
  8
0
 62
6
100
AcDbLine
 10
17.514024
 20
340.898806
 30
0.0
 11
17.440524
 21
341.290806
 31
0.0
  0
LINE
  5
3fc
100
AcDbEntity
  8
0
 62
6
100
AcDbLine
 10
17.440524
 20
341.290806
 30
0.0
 11
17.220324
 21
341.588807
 31
0.0
  0
LINE
  5
3fd
100
AcDbEntity
  8
0
 62
6
100
AcDbLine
 10
17.770825
 20
339.320804
 30
0.0
 11
17.348824
 21
339.562804
 31
0.0
  0
LINE
  5
3fe
100
AcDbEntity
  8
0
 62
6
100
AcDbLine
 10
17.348824
 20
339.562804
 30
0.0
 11
16.831423
 21
339.643804
 31
0.0
  0
LINE
  5
3ff
100
AcDbEntity
  8
0
 62
6
100
AcDbLine
 10
16.831423
 20
339.643804
 30
0.0
 11
15.481022
 21
339.643804
 31
0.0
  0
LINE
  5
400
100
AcDbEntity
  8
0
 62
6
100
AcDbLine
 10
15.481022
 20
339.643804
 30
0.0
 11
15.481022
 21
337.213801
 31
0.0
  0
LINE
  5
401
100
AcDbEntity
  8
0
 62
6
100
AcDbLine
 10
15.481022
 20
337.213801
 30
0.0
 11
16.831423
 21
337.213801
 31
0.0
  0
LINE
  5
402
100
AcDbEntity
  8
0
 62
6
100
AcDbLine
 10
16.831423
 20
337.213801
 30
0.0
 11
17.346924
 21
337.298801
 31
0.0
  0
LINE
  5
403
100
AcDbEntity
  8
0
 62
6
100
AcDbLine
 10
17.346924
 20
337.298801
 30
0.0
 11
17.778125
 21
337.551801
 31
0.0
  0
LINE
  5
404
100
AcDbEntity
  8
0
 62
6
100
AcDbLine
 10
17.778125
 20
337.551801
 30
0.0
 11
18.075325
 21
337.940802
 31
0.0
  0
LINE
  5
405
100
AcDbEntity
  8
0
 62
6
100
AcDbLine
 10
18.075325
 20
337.940802
 30
0.0
 11
18.174425
 21
338.432802
 31
0.0
  0
LINE
  5
406
100
AcDbEntity
  8
0
 62
6
100
AcDbLine
 10
18.174425
 20
338.432802
 30
0.0
 11
18.073525
 21
338.929803
 31
0.0
  0
LINE
  5
407
100
AcDbEntity
  8
0
 62
6
100
AcDbLine
 10
18.073525
 20
338.929803
 30
0.0
 11
17.770825
 21
339.320804
 31
0.0
  0
LINE
  5
408
100
AcDbEntity
  8
0
 62
6
100
AcDbLine
 10
21.763330
 20
336.913800
 30
0.0
 11
21.763330
 21
337.434801
 31
0.0
  0
LINE
  5
409
100
AcDbEntity
  8
0
 62
6
100
AcDbLine
 10
21.763330
 20
337.434801
 30
0.0
 11
21.222030
 21
337.004800
 31
0.0
  0
LINE
  5
40a
100
AcDbEntity
  8
0
 62
6
100
AcDbLine
 10
21.222030
 20
337.004800
 30
0.0
 11
20.552329
 21
336.861800
 31
0.0
  0
LINE
  5
40b
100
AcDbEntity
  8
0
 62
6
100
AcDbLine
 10
20.552329
 20
336.861800
 30
0.0
 11
19.945028
 21
336.973800
 31
0.0
  0
LINE
  5
40c
100
AcDbEntity
  8
0
 62
6
100
AcDbLine
 10
19.945028
 20
336.973800
 30
0.0
 11
19.444127
 21
337.309801
 31
0.0
  0
LINE
  5
40d
100
AcDbEntity
  8
0
 62
6
100
AcDbLine
 10
19.444127
 20
337.309801
 30
0.0
 11
19.102827
 21
337.815802
 31
0.0
  0
LINE
  5
40e
100
AcDbEntity
  8
0
 62
6
100
AcDbLine
 10
19.102827
 20
337.815802
 30
0.0
 11
18.989027
 21
338.424802
 31
0.0
  0
LINE
  5
40f
100
AcDbEntity
  8
0
 62
6
100
AcDbLine
 10
18.989027
 20
338.424802
 30
0.0
 11
19.100927
 21
339.032803
 31
0.0
  0
LINE
  5
410
100
AcDbEntity
  8
0
 62
6
100
AcDbLine
 10
19.100927
 20
339.032803
 30
0.0
 11
19.436827
 21
339.533804
 31
0.0
  0
LINE
  5
411
100
AcDbEntity
  8
0
 62
6
100
AcDbLine
 10
19.436827
 20
339.533804
 30
0.0
 11
19.943128
 21
339.874804
 31
0.0
  0
LINE
  5
412
100
AcDbEntity
  8
0
 62
6
100
AcDbLine
 10
19.943128
 20
339.874804
 30
0.0
 11
20.552329
 21
339.988805
 31
0.0
  0
LINE
  5
413
100
AcDbEntity
  8
0
 62
6
100
AcDbLine
 10
20.552329
 20
339.988805
 30
0.0
 11
21.218330
 21
339.845804
 31
0.0
  0
LINE
  5
414
100
AcDbEntity
  8
0
 62
6
100
AcDbLine
 10
21.218330
 20
339.845804
 30
0.0
 11
21.763330
 21
339.415804
 31
0.0
  0
LINE
  5
415
100
AcDbEntity
  8
0
 62
6
100
AcDbLine
 10
21.763330
 20
339.415804
 30
0.0
 11
21.763330
 21
339.944805
 31
0.0
  0
LINE
  5
416
100
AcDbEntity
  8
0
 62
6
100
AcDbLine
 10
21.763330
 20
339.944805
 30
0.0
 11
22.064231
 21
339.944805
 31
0.0
  0
LINE
  5
417
100
AcDbEntity
  8
0
 62
6
100
AcDbLine
 10
22.064231
 20
339.944805
 30
0.0
 11
22.064231
 21
336.913800
 31
0.0
  0
LINE
  5
418
100
AcDbEntity
  8
0
 62
6
100
AcDbLine
 10
22.064231
 20
336.913800
 30
0.0
 11
21.763330
 21
336.913800
 31
0.0
  0
LINE
  5
419
100
AcDbEntity
  8
0
 62
6
100
AcDbLine
 10
21.447730
 20
339.320804
 30
0.0
 11
21.036729
 21
339.601804
 31
0.0
  0
LINE
  5
41a
100
AcDbEntity
  8
0
 62
6
100
AcDbLine
 10
21.036729
 20
339.601804
 30
0.0
 11
20.552329
 21
339.694804
 31
0.0
  0
LINE
  5
41b
100
AcDbEntity
  8
0
 62
6
100
AcDbLine
 10
20.552329
 20
339.694804
 30
0.0
 11
20.064328
 21
339.602804
 31
0.0
  0
LINE
  5
41c
100
AcDbEntity
  8
0
 62
6
100
AcDbLine
 10
20.064328
 20
339.602804
 30
0.0
 11
19.656927
 21
339.327804
 31
0.0
  0
LINE
  5
41d
100
AcDbEntity
  8
0
 62
6
100
AcDbLine
 10
19.656927
 20
339.327804
 30
0.0
 11
19.376227
 21
338.914803
 31
0.0
  0
LINE
  5
41e
100
AcDbEntity
  8
0
 62
6
100
AcDbLine
 10
19.376227
 20
338.914803
 30
0.0
 11
19.282627
 21
338.424802
 31
0.0
  0
LINE
  5
41f
100
AcDbEntity
  8
0
 62
6
100
AcDbLine
 10
19.282627
 20
338.424802
 30
0.0
 11
19.376227
 21
337.940802
 31
0.0
  0
LINE
  5
420
100
AcDbEntity
  8
0
 62
6
100
AcDbLine
 10
19.376227
 20
337.940802
 30
0.0
 11
19.656927
 21
337.529801
 31
0.0
  0
LINE
  5
421
100
AcDbEntity
  8
0
 62
6
100
AcDbLine
 10
19.656927
 20
337.529801
 30
0.0
 11
20.067928
 21
337.248801
 31
0.0
  0
LINE
  5
422
100
AcDbEntity
  8
0
 62
6
100
AcDbLine
 10
20.067928
 20
337.248801
 30
0.0
 11
20.552329
 21
337.155801
 31
0.0
  0
LINE
  5
423
100
AcDbEntity
  8
0
 62
6
100
AcDbLine
 10
20.552329
 20
337.155801
 30
0.0
 11
21.040329
 21
337.247801
 31
0.0
  0
LINE
  5
424
100
AcDbEntity
  8
0
 62
6
100
AcDbLine
 10
21.040329
 20
337.247801
 30
0.0
 11
21.447730
 21
337.522801
 31
0.0
  0
LINE
  5
425
100
AcDbEntity
  8
0
 62
6
100
AcDbLine
 10
21.447730
 20
337.522801
 30
0.0
 11
21.728430
 21
337.935802
 31
0.0
  0
LINE
  5
426
100
AcDbEntity
  8
0
 62
6
100
AcDbLine
 10
21.728430
 20
337.935802
 30
0.0
 11
21.822030
 21
338.424802
 31
0.0
  0
LINE
  5
427
100
AcDbEntity
  8
0
 62
6
100
AcDbLine
 10
21.822030
 20
338.424802
 30
0.0
 11
21.728430
 21
338.909803
 31
0.0
  0
LINE
  5
428
100
AcDbEntity
  8
0
 62
6
100
AcDbLine
 10
21.728430
 20
338.909803
 30
0.0
 11
21.447730
 21
339.320804
 31
0.0
  0
LINE
  5
429
100
AcDbEntity
  8
0
 62
6
100
AcDbLine
 10
24.999835
 20
336.913800
 30
0.0
 11
24.999835
 21
338.725803
 31
0.0
  0
LINE
  5
42a
100
AcDbEntity
  8
0
 62
6
100
AcDbLine
 10
24.999835
 20
338.725803
 30
0.0
 11
24.783335
 21
339.446804
 31
0.0
  0
LINE
  5
42b
100
AcDbEntity
  8
0
 62
6
100
AcDbLine
 10
24.783335
 20
339.446804
 30
0.0
 11
24.512734
 21
339.627804
 31
0.0
  0
LINE
  5
42c
100
AcDbEntity
  8
0
 62
6
100
AcDbLine
 10
24.512734
 20
339.627804
 30
0.0
 11
24.133934
 21
339.687804
 31
0.0
  0
LINE
  5
42d
100
AcDbEntity
  8
0
 62
6
100
AcDbLine
 10
24.133934
 20
339.687804
 30
0.0
 11
23.759533
 21
339.624804
 31
0.0
  0
LINE
  5
42e
100
AcDbEntity
  8
0
 62
6
100
AcDbLine
 10
23.759533
 20
339.624804
 30
0.0
 11
23.488033
 21
339.437804
 31
0.0
  0
LINE
  5
42f
100
AcDbEntity
  8
0
 62
6
100
AcDbLine
 10
23.488033
 20
339.437804
 30
0.0
 11
23.260432
 21
338.755803
 31
0.0
  0
LINE
  5
430
100
AcDbEntity
  8
0
 62
6
100
AcDbLine
 10
23.260432
 20
338.755803
 30
0.0
 11
23.260432
 21
336.913800
 31
0.0
  0
LINE
  5
431
100
AcDbEntity
  8
0
 62
6
100
AcDbLine
 10
23.260432
 20
336.913800
 30
0.0
 11
22.959532
 21
336.913800
 31
0.0
  0
LINE
  5
432
100
AcDbEntity
  8
0
 62
6
100
AcDbLine
 10
22.959532
 20
336.913800
 30
0.0
 11
22.959532
 21
339.944805
 31
0.0
  0
LINE
  5
433
100
AcDbEntity
  8
0
 62
6
100
AcDbLine
 10
22.959532
 20
339.944805
 30
0.0
 11
23.260432
 21
339.944805
 31
0.0
  0
LINE
  5
434
100
AcDbEntity
  8
0
 62
6
100
AcDbLine
 10
23.260432
 20
339.944805
 30
0.0
 11
23.260432
 21
339.577804
 31
0.0
  0
LINE
  5
435
100
AcDbEntity
  8
0
 62
6
100
AcDbLine
 10
23.260432
 20
339.577804
 30
0.0
 11
23.581533
 21
339.879804
 31
0.0
  0
LINE
  5
436
100
AcDbEntity
  8
0
 62
6
100
AcDbLine
 10
23.581533
 20
339.879804
 30
0.0
 11
24.133934
 21
339.980805
 31
0.0
  0
LINE
  5
437
100
AcDbEntity
  8
0
 62
6
100
AcDbLine
 10
24.133934
 20
339.980805
 30
0.0
 11
24.632934
 21
339.900804
 31
0.0
  0
LINE
  5
438
100
AcDbEntity
  8
0
 62
6
100
AcDbLine
 10
24.632934
 20
339.900804
 30
0.0
 11
24.999835
 21
339.658804
 31
0.0
  0
LINE
  5
439
100
AcDbEntity
  8
0
 62
6
100
AcDbLine
 10
24.999835
 20
339.658804
 30
0.0
 11
25.225535
 21
339.270804
 31
0.0
  0
LINE
  5
43a
100
AcDbEntity
  8
0
 62
6
100
AcDbLine
 10
25.225535
 20
339.270804
 30
0.0
 11
25.300835
 21
338.755803
 31
0.0
  0
LINE
  5
43b
100
AcDbEntity
  8
0
 62
6
100
AcDbLine
 10
25.300835
 20
338.755803
 30
0.0
 11
25.300835
 21
336.913800
 31
0.0
  0
LINE
  5
43c
100
AcDbEntity
  8
0
 62
6
100
AcDbLine
 10
25.300835
 20
336.913800
 30
0.0
 11
24.999835
 21
336.913800
 31
0.0
  0
LINE
  5
43d
100
AcDbEntity
  8
0
 62
6
100
AcDbLine
 10
28.706140
 20
335.900599
 30
0.0
 11
28.230839
 21
335.592298
 31
0.0
  0
LINE
  5
43e
100
AcDbEntity
  8
0
 62
6
100
AcDbLine
 10
28.230839
 20
335.592298
 30
0.0
 11
27.627239
 21
335.489598
 31
0.0
  0
LINE
  5
43f
100
AcDbEntity
  8
0
 62
6
100
AcDbLine
 10
27.627239
 20
335.489598
 30
0.0
 11
26.636437
 21
335.733599
 31
0.0
  0
LINE
  5
440
100
AcDbEntity
  8
0
 62
6
100
AcDbLine
 10
26.636437
 20
335.733599
 30
0.0
 11
26.328237
 21
336.038699
 31
0.0
  0
LINE
  5
441
100
AcDbEntity
  8
0
 62
6
100
AcDbLine
 10
26.328237
 20
336.038699
 30
0.0
 11
26.144736
 21
336.465800
 31
0.0
  0
LINE
  5
442
100
AcDbEntity
  8
0
 62
6
100
AcDbLine
 10
26.144736
 20
336.465800
 30
0.0
 11
26.445637
 21
336.465800
 31
0.0
  0
LINE
  5
443
100
AcDbEntity
  8
0
 62
6
100
AcDbLine
 10
26.445637
 20
336.465800
 30
0.0
 11
26.601637
 21
336.151999
 31
0.0
  0
LINE
  5
444
100
AcDbEntity
  8
0
 62
6
100
AcDbLine
 10
26.601637
 20
336.151999
 30
0.0
 11
26.908038
 21
335.929999
 31
0.0
  0
LINE
  5
445
100
AcDbEntity
  8
0
 62
6
100
AcDbLine
 10
26.908038
 20
335.929999
 30
0.0
 11
27.627239
 21
335.790499
 31
0.0
  0
LINE
  5
446
100
AcDbEntity
  8
0
 62
6
100
AcDbLine
 10
27.627239
 20
335.790499
 30
0.0
 11
28.128139
 21
335.869399
 31
0.0
  0
LINE
  5
447
100
AcDbEntity
  8
0
 62
6
100
AcDbLine
 10
28.128139
 20
335.869399
 30
0.0
 11
28.500640
 21
336.106099
 31
0.0
  0
LINE
  5
448
100
AcDbEntity
  8
0
 62
6
100
AcDbLine
 10
28.500640
 20
336.106099
 30
0.0
 11
28.737240
 21
336.483800
 31
0.0
  0
LINE
  5
449
100
AcDbEntity
  8
0
 62
6
100
AcDbLine
 10
28.737240
 20
336.483800
 30
0.0
 11
28.816240
 21
336.986800
 31
0.0
  0
LINE
  5
44a
100
AcDbEntity
  8
0
 62
6
100
AcDbLine
 10
28.816240
 20
336.986800
 30
0.0
 11
28.816240
 21
337.434801
 31
0.0
  0
LINE
  5
44b
100
AcDbEntity
  8
0
 62
6
100
AcDbLine
 10
28.816240
 20
337.434801
 30
0.0
 11
28.274939
 21
337.004800
 31
0.0
  0
LINE
  5
44c
100
AcDbEntity
  8
0
 62
6
100
AcDbLine
 10
28.274939
 20
337.004800
 30
0.0
 11
27.605239
 21
336.861800
 31
0.0
  0
LINE
  5
44d
100
AcDbEntity
  8
0
 62
6
100
AcDbLine
 10
27.605239
 20
336.861800
 30
0.0
 11
26.997938
 21
336.973800
 31
0.0
  0
LINE
  5
44e
100
AcDbEntity
  8
0
 62
6
100
AcDbLine
 10
26.997938
 20
336.973800
 30
0.0
 11
26.497037
 21
337.309801
 31
0.0
  0
LINE
  5
44f
100
AcDbEntity
  8
0
 62
6
100
AcDbLine
 10
26.497037
 20
337.309801
 30
0.0
 11
26.155737
 21
337.815802
 31
0.0
  0
LINE
  5
450
100
AcDbEntity
  8
0
 62
6
100
AcDbLine
 10
26.155737
 20
337.815802
 30
0.0
 11
26.042036
 21
338.424802
 31
0.0
  0
LINE
  5
451
100
AcDbEntity
  8
0
 62
6
100
AcDbLine
 10
26.042036
 20
338.424802
 30
0.0
 11
26.153937
 21
339.032803
 31
0.0
  0
LINE
  5
452
100
AcDbEntity
  8
0
 62
6
100
AcDbLine
 10
26.153937
 20
339.032803
 30
0.0
 11
26.489737
 21
339.533804
 31
0.0
  0
LINE
  5
453
100
AcDbEntity
  8
0
 62
6
100
AcDbLine
 10
26.489737
 20
339.533804
 30
0.0
 11
26.996138
 21
339.874804
 31
0.0
  0
LINE
  5
454
100
AcDbEntity
  8
0
 62
6
100
AcDbLine
 10
26.996138
 20
339.874804
 30
0.0
 11
27.605239
 21
339.988805
 31
0.0
  0
LINE
  5
455
100
AcDbEntity
  8
0
 62
6
100
AcDbLine
 10
27.605239
 20
339.988805
 30
0.0
 11
28.271239
 21
339.845804
 31
0.0
  0
LINE
  5
456
100
AcDbEntity
  8
0
 62
6
100
AcDbLine
 10
28.271239
 20
339.845804
 30
0.0
 11
28.816240
 21
339.415804
 31
0.0
  0
LINE
  5
457
100
AcDbEntity
  8
0
 62
6
100
AcDbLine
 10
28.816240
 20
339.415804
 30
0.0
 11
28.816240
 21
339.944805
 31
0.0
  0
LINE
  5
458
100
AcDbEntity
  8
0
 62
6
100
AcDbLine
 10
28.816240
 20
339.944805
 30
0.0
 11
29.117141
 21
339.944805
 31
0.0
  0
LINE
  5
459
100
AcDbEntity
  8
0
 62
6
100
AcDbLine
 10
29.117141
 20
339.944805
 30
0.0
 11
29.117141
 21
336.979800
 31
0.0
  0
LINE
  5
45a
100
AcDbEntity
  8
0
 62
6
100
AcDbLine
 10
29.117141
 20
336.979800
 30
0.0
 11
29.014340
 21
336.375900
 31
0.0
  0
LINE
  5
45b
100
AcDbEntity
  8
0
 62
6
100
AcDbLine
 10
29.014340
 20
336.375900
 30
0.0
 11
28.706140
 21
335.900599
 31
0.0
  0
LINE
  5
45c
100
AcDbEntity
  8
0
 62
6
100
AcDbLine
 10
28.500640
 20
339.320804
 30
0.0
 11
28.089639
 21
339.601804
 31
0.0
  0
LINE
  5
45d
100
AcDbEntity
  8
0
 62
6
100
AcDbLine
 10
28.089639
 20
339.601804
 30
0.0
 11
27.605239
 21
339.694804
 31
0.0
  0
LINE
  5
45e
100
AcDbEntity
  8
0
 62
6
100
AcDbLine
 10
27.605239
 20
339.694804
 30
0.0
 11
27.117138
 21
339.602804
 31
0.0
  0
LINE
  5
45f
100
AcDbEntity
  8
0
 62
6
100
AcDbLine
 10
27.117138
 20
339.602804
 30
0.0
 11
26.709837
 21
339.327804
 31
0.0
  0
LINE
  5
460
100
AcDbEntity
  8
0
 62
6
100
AcDbLine
 10
26.709837
 20
339.327804
 30
0.0
 11
26.429137
 21
338.914803
 31
0.0
  0
LINE
  5
461
100
AcDbEntity
  8
0
 62
6
100
AcDbLine
 10
26.429137
 20
338.914803
 30
0.0
 11
26.335537
 21
338.424802
 31
0.0
  0
LINE
  5
462
100
AcDbEntity
  8
0
 62
6
100
AcDbLine
 10
26.335537
 20
338.424802
 30
0.0
 11
26.429137
 21
337.940802
 31
0.0
  0
LINE
  5
463
100
AcDbEntity
  8
0
 62
6
100
AcDbLine
 10
26.429137
 20
337.940802
 30
0.0
 11
26.709837
 21
337.529801
 31
0.0
  0
LINE
  5
464
100
AcDbEntity
  8
0
 62
6
100
AcDbLine
 10
26.709837
 20
337.529801
 30
0.0
 11
27.120838
 21
337.248801
 31
0.0
  0
LINE
  5
465
100
AcDbEntity
  8
0
 62
6
100
AcDbLine
 10
27.120838
 20
337.248801
 30
0.0
 11
27.605239
 21
337.155801
 31
0.0
  0
LINE
  5
466
100
AcDbEntity
  8
0
 62
6
100
AcDbLine
 10
27.605239
 20
337.155801
 30
0.0
 11
28.093239
 21
337.247801
 31
0.0
  0
LINE
  5
467
100
AcDbEntity
  8
0
 62
6
100
AcDbLine
 10
28.093239
 20
337.247801
 30
0.0
 11
28.500640
 21
337.522801
 31
0.0
  0
LINE
  5
468
100
AcDbEntity
  8
0
 62
6
100
AcDbLine
 10
28.500640
 20
337.522801
 30
0.0
 11
28.781340
 21
337.935802
 31
0.0
  0
LINE
  5
469
100
AcDbEntity
  8
0
 62
6
100
AcDbLine
 10
28.781340
 20
337.935802
 30
0.0
 11
28.874940
 21
338.424802
 31
0.0
  0
LINE
  5
46a
100
AcDbEntity
  8
0
 62
6
100
AcDbLine
 10
28.874940
 20
338.424802
 30
0.0
 11
28.781340
 21
338.909803
 31
0.0
  0
LINE
  5
46b
100
AcDbEntity
  8
0
 62
6
100
AcDbLine
 10
28.781340
 20
338.909803
 30
0.0
 11
28.500640
 21
339.320804
 31
0.0
  0
LINE
  5
46c
100
AcDbEntity
  8
0
 62
6
100
AcDbLine
 10
30.093242
 20
342.344808
 30
0.0
 11
30.386842
 21
342.344808
 31
0.0
  0
LINE
  5
46d
100
AcDbEntity
  8
0
 62
6
100
AcDbLine
 10
30.386842
 20
342.344808
 30
0.0
 11
30.386842
 21
336.913800
 31
0.0
  0
LINE
  5
46e
100
AcDbEntity
  8
0
 62
6
100
AcDbLine
 10
30.386842
 20
336.913800
 30
0.0
 11
30.093242
 21
336.913800
 31
0.0
  0
LINE
  5
46f
100
AcDbEntity
  8
0
 62
6
100
AcDbLine
 10
30.093242
 20
336.913800
 30
0.0
 11
30.093242
 21
342.344808
 31
0.0
  0
LINE
  5
470
100
AcDbEntity
  8
0
 62
6
100
AcDbLine
 10
31.480244
 20
338.491802
 30
0.0
 11
31.562744
 21
337.938802
 31
0.0
  0
LINE
  5
471
100
AcDbEntity
  8
0
 62
6
100
AcDbLine
 10
31.562744
 20
337.938802
 30
0.0
 11
31.810544
 21
337.514801
 31
0.0
  0
LINE
  5
472
100
AcDbEntity
  8
0
 62
6
100
AcDbLine
 10
31.810544
 20
337.514801
 30
0.0
 11
32.219645
 21
337.239801
 31
0.0
  0
LINE
  5
473
100
AcDbEntity
  8
0
 62
6
100
AcDbLine
 10
32.219645
 20
337.239801
 30
0.0
 11
32.757246
 21
337.147801
 31
0.0
  0
LINE
  5
474
100
AcDbEntity
  8
0
 62
6
100
AcDbLine
 10
32.757246
 20
337.147801
 30
0.0
 11
33.315047
 21
337.250801
 31
0.0
  0
LINE
  5
475
100
AcDbEntity
  8
0
 62
6
100
AcDbLine
 10
33.315047
 20
337.250801
 30
0.0
 11
33.880147
 21
337.786801
 31
0.0
  0
LINE
  5
476
100
AcDbEntity
  8
0
 62
6
100
AcDbLine
 10
33.880147
 20
337.786801
 30
0.0
 11
34.151748
 21
337.661801
 31
0.0
  0
LINE
  5
477
100
AcDbEntity
  8
0
 62
6
100
AcDbLine
 10
34.151748
 20
337.661801
 30
0.0
 11
33.788447
 21
337.206801
 31
0.0
  0
LINE
  5
478
100
AcDbEntity
  8
0
 62
6
100
AcDbLine
 10
33.788447
 20
337.206801
 30
0.0
 11
33.271046
 21
336.927800
 31
0.0
  0
LINE
  5
479
100
AcDbEntity
  8
0
 62
6
100
AcDbLine
 10
33.271046
 20
336.927800
 30
0.0
 11
32.757246
 21
336.854800
 31
0.0
  0
LINE
  5
47a
100
AcDbEntity
  8
0
 62
6
100
AcDbLine
 10
32.757246
 20
336.854800
 30
0.0
 11
32.135245
 21
336.966800
 31
0.0
  0
LINE
  5
47b
100
AcDbEntity
  8
0
 62
6
100
AcDbLine
 10
32.135245
 20
336.966800
 30
0.0
 11
31.634344
 21
337.302801
 31
0.0
  0
LINE
  5
47c
100
AcDbEntity
  8
0
 62
6
100
AcDbLine
 10
31.634344
 20
337.302801
 30
0.0
 11
31.298544
 21
337.806802
 31
0.0
  0
LINE
  5
47d
100
AcDbEntity
  8
0
 62
6
100
AcDbLine
 10
31.298544
 20
337.806802
 30
0.0
 11
31.186644
 21
338.424802
 31
0.0
  0
LINE
  5
47e
100
AcDbEntity
  8
0
 62
6
100
AcDbLine
 10
31.186644
 20
338.424802
 30
0.0
 11
31.296744
 21
339.046803
 31
0.0
  0
LINE
  5
47f
100
AcDbEntity
  8
0
 62
6
100
AcDbLine
 10
31.296744
 20
339.046803
 30
0.0
 11
31.627044
 21
339.547804
 31
0.0
  0
LINE
  5
480
100
AcDbEntity
  8
0
 62
6
100
AcDbLine
 10
31.627044
 20
339.547804
 30
0.0
 11
32.133345
 21
339.883804
 31
0.0
  0
LINE
  5
481
100
AcDbEntity
  8
0
 62
6
100
AcDbLine
 10
32.133345
 20
339.883804
 30
0.0
 11
32.757246
 21
339.995805
 31
0.0
  0
LINE
  5
482
100
AcDbEntity
  8
0
 62
6
100
AcDbLine
 10
32.757246
 20
339.995805
 30
0.0
 11
33.373747
 21
339.890804
 31
0.0
  0
LINE
  5
483
100
AcDbEntity
  8
0
 62
6
100
AcDbLine
 10
33.373747
 20
339.890804
 30
0.0
 11
33.872847
 21
339.577804
 31
0.0
  0
LINE
  5
484
100
AcDbEntity
  8
0
 62
6
100
AcDbLine
 10
33.872847
 20
339.577804
 30
0.0
 11
34.208548
 21
339.096803
 31
0.0
  0
LINE
  5
485
100
AcDbEntity
  8
0
 62
6
100
AcDbLine
 10
34.208548
 20
339.096803
 30
0.0
 11
34.320548
 21
338.491802
 31
0.0
  0
LINE
  5
486
100
AcDbEntity
  8
0
 62
6
100
AcDbLine
 10
34.320548
 20
338.491802
 30
0.0
 11
31.480244
 21
338.491802
 31
0.0
  0
LINE
  5
487
100
AcDbEntity
  8
0
 62
6
100
AcDbLine
 10
33.549947
 20
339.452804
 30
0.0
 11
32.757246
 21
339.702804
 31
0.0
  0
LINE
  5
488
100
AcDbEntity
  8
0
 62
6
100
AcDbLine
 10
32.757246
 20
339.702804
 30
0.0
 11
31.979245
 21
339.470804
 31
0.0
  0
LINE
  5
489
100
AcDbEntity
  8
0
 62
6
100
AcDbLine
 10
31.979245
 20
339.470804
 30
0.0
 11
31.524244
 21
338.777803
 31
0.0
  0
LINE
  5
48a
100
AcDbEntity
  8
0
 62
6
100
AcDbLine
 10
31.524244
 20
338.777803
 30
0.0
 11
33.982947
 21
338.777803
 31
0.0
  0
LINE
  5
48b
100
AcDbEntity
  8
0
 62
6
100
AcDbLine
 10
33.982947
 20
338.777803
 30
0.0
 11
33.837947
 21
339.155803
 31
0.0
  0
LINE
  5
48c
100
AcDbEntity
  8
0
 62
6
100
AcDbLine
 10
33.837947
 20
339.155803
 30
0.0
 11
33.549947
 21
339.452804
 31
0.0
  0
LINE
  5
48d
100
AcDbEntity
  8
0
 62
6
100
AcDbLine
 10
41.036157
 20
341.418807
 30
0.0
 11
39.656855
 21
339.314804
 31
0.0
  0
LINE
  5
48e
100
AcDbEntity
  8
0
 62
6
100
AcDbLine
 10
39.656855
 20
339.314804
 30
0.0
 11
39.785056
 21
339.230804
 31
0.0
  0
LINE
  5
48f
100
AcDbEntity
  8
0
 62
6
100
AcDbLine
 10
39.785056
 20
339.230804
 30
0.0
 11
41.164857
 21
341.334806
 31
0.0
  0
LINE
  5
490
100
AcDbEntity
  8
0
 62
6
100
AcDbLine
 10
41.164857
 20
341.334806
 30
0.0
 11
41.036157
 21
341.418807
 31
0.0
  0
LINE
  5
491
100
AcDbEntity
  8
0
 62
6
100
AcDbLine
 10
39.485355
 20
339.047803
 30
0.0
 11
39.354555
 21
338.916803
 31
0.0
  0
LINE
  5
492
100
AcDbEntity
  8
0
 62
6
100
AcDbLine
 10
39.354555
 20
338.916803
 30
0.0
 11
39.485355
 21
338.785803
 31
0.0
  0
LINE
  5
493
100
AcDbEntity
  8
0
 62
6
100
AcDbLine
 10
39.485355
 20
338.785803
 30
0.0
 11
39.616055
 21
338.916803
 31
0.0
  0
LINE
  5
494
100
AcDbEntity
  8
0
 62
6
100
AcDbLine
 10
39.616055
 20
338.916803
 30
0.0
 11
39.485355
 21
339.047803
 31
0.0
  0
LINE
  5
495
100
AcDbEntity
  8
0
 62
6
100
AcDbLine
 10
39.485355
 20
339.047803
 30
0.0
 11
39.485355
 21
339.047803
 31
0.0
  0
LINE
  5
496
100
AcDbEntity
  8
0
 62
6
100
AcDbLine
 10
39.408355
 20
338.531803
 30
0.0
 11
39.408355
 21
336.335799
 31
0.0
  0
LINE
  5
497
100
AcDbEntity
  8
0
 62
6
100
AcDbLine
 10
39.408355
 20
336.335799
 30
0.0
 11
39.561855
 21
336.335799
 31
0.0
  0
LINE
  5
498
100
AcDbEntity
  8
0
 62
6
100
AcDbLine
 10
39.561855
 20
336.335799
 30
0.0
 11
39.561855
 21
338.531803
 31
0.0
  0
LINE
  5
499
100
AcDbEntity
  8
0
 62
6
100
AcDbLine
 10
39.561855
 20
338.531803
 30
0.0
 11
39.408355
 21
338.531803
 31
0.0
  0
LINE
  5
49a
100
AcDbEntity
  8
0
 62
6
100
AcDbLine
 10
40.838957
 20
337.082801
 30
0.0
 11
40.479457
 21
336.954800
 31
0.0
  0
LINE
  5
49b
100
AcDbEntity
  8
0
 62
6
100
AcDbLine
 10
40.479457
 20
336.954800
 30
0.0
 11
40.164956
 21
337.036800
 31
0.0
  0
LINE
  5
49c
100
AcDbEntity
  8
0
 62
6
100
AcDbLine
 10
40.164956
 20
337.036800
 30
0.0
 11
39.940256
 21
337.280801
 31
0.0
  0
LINE
  5
49d
100
AcDbEntity
  8
0
 62
6
100
AcDbLine
 10
39.940256
 20
337.280801
 30
0.0
 11
40.071356
 21
337.359801
 31
0.0
  0
LINE
  5
49e
100
AcDbEntity
  8
0
 62
6
100
AcDbLine
 10
40.071356
 20
337.359801
 30
0.0
 11
40.224856
 21
337.179801
 31
0.0
  0
LINE
  5
49f
100
AcDbEntity
  8
0
 62
6
100
AcDbLine
 10
40.224856
 20
337.179801
 30
0.0
 11
40.479457
 21
337.108801
 31
0.0
  0
LINE
  5
4a0
100
AcDbEntity
  8
0
 62
6
100
AcDbLine
 10
40.479457
 20
337.108801
 30
0.0
 11
40.743457
 21
337.183801
 31
0.0
  0
LINE
  5
4a1
100
AcDbEntity
  8
0
 62
6
100
AcDbLine
 10
40.743457
 20
337.183801
 30
0.0
 11
40.831457
 21
337.407801
 31
0.0
  0
LINE
  5
4a2
100
AcDbEntity
  8
0
 62
6
100
AcDbLine
 10
40.831457
 20
337.407801
 30
0.0
 11
40.707857
 21
337.636801
 31
0.0
  0
LINE
  5
4a3
100
AcDbEntity
  8
0
 62
6
100
AcDbLine
 10
40.707857
 20
337.636801
 30
0.0
 11
40.601157
 21
337.686801
 31
0.0
  0
LINE
  5
4a4
100
AcDbEntity
  8
0
 62
6
100
AcDbLine
 10
40.601157
 20
337.686801
 30
0.0
 11
40.430756
 21
337.752801
 31
0.0
  0
LINE
  5
4a5
100
AcDbEntity
  8
0
 62
6
100
AcDbLine
 10
40.430756
 20
337.752801
 30
0.0
 11
40.161256
 21
337.887802
 31
0.0
  0
LINE
  5
4a6
100
AcDbEntity
  8
0
 62
6
100
AcDbLine
 10
40.161256
 20
337.887802
 30
0.0
 11
40.041456
 21
338.167802
 31
0.0
  0
LINE
  5
4a7
100
AcDbEntity
  8
0
 62
6
100
AcDbLine
 10
40.041456
 20
338.167802
 30
0.0
 11
40.161256
 21
338.437802
 31
0.0
  0
LINE
  5
4a8
100
AcDbEntity
  8
0
 62
6
100
AcDbLine
 10
40.161256
 20
338.437802
 30
0.0
 11
40.464456
 21
338.553803
 31
0.0
  0
LINE
  5
4a9
100
AcDbEntity
  8
0
 62
6
100
AcDbLine
 10
40.464456
 20
338.553803
 30
0.0
 11
40.902557
 21
338.373802
 31
0.0
  0
LINE
  5
4aa
100
AcDbEntity
  8
0
 62
6
100
AcDbLine
 10
40.902557
 20
338.373802
 30
0.0
 11
40.790257
 21
338.276802
 31
0.0
  0
LINE
  5
4ab
100
AcDbEntity
  8
0
 62
6
100
AcDbLine
 10
40.790257
 20
338.276802
 30
0.0
 11
40.464456
 21
338.403802
 31
0.0
  0
LINE
  5
4ac
100
AcDbEntity
  8
0
 62
6
100
AcDbLine
 10
40.464456
 20
338.403802
 30
0.0
 11
40.262256
 21
338.344802
 31
0.0
  0
LINE
  5
4ad
100
AcDbEntity
  8
0
 62
6
100
AcDbLine
 10
40.262256
 20
338.344802
 30
0.0
 11
40.194856
 21
338.167802
 31
0.0
  0
LINE
  5
4ae
100
AcDbEntity
  8
0
 62
6
100
AcDbLine
 10
40.194856
 20
338.167802
 30
0.0
 11
40.277356
 21
337.995802
 31
0.0
  0
LINE
  5
4af
100
AcDbEntity
  8
0
 62
6
100
AcDbLine
 10
40.277356
 20
337.995802
 30
0.0
 11
40.490757
 21
337.894802
 31
0.0
  0
LINE
  5
4b0
100
AcDbEntity
  8
0
 62
6
100
AcDbLine
 10
40.490757
 20
337.894802
 30
0.0
 11
40.700357
 21
337.810802
 31
0.0
  0
LINE
  5
4b1
100
AcDbEntity
  8
0
 62
6
100
AcDbLine
 10
40.700357
 20
337.810802
 30
0.0
 11
40.823957
 21
337.741801
 31
0.0
  0
LINE
  5
4b2
100
AcDbEntity
  8
0
 62
6
100
AcDbLine
 10
40.823957
 20
337.741801
 30
0.0
 11
40.984957
 21
337.407801
 31
0.0
  0
LINE
  5
4b3
100
AcDbEntity
  8
0
 62
6
100
AcDbLine
 10
40.984957
 20
337.407801
 30
0.0
 11
40.838957
 21
337.082801
 31
0.0
  0
LINE
  5
4b4
100
AcDbEntity
  8
0
 62
1
100
AcDbLine
 10
0.820443
 20
222.973832
 30
0.0
 11
0.820443
 21
221.204939
 31
0.0
  0
LINE
  5
4b5
100
AcDbEntity
  8
0
 62
1
100
AcDbLine
 10
0.232593
 20
222.973832
 30
0.0
 11
1.410965
 21
222.973832
 31
0.0
  0
LINE
  5
4b6
100
AcDbEntity
  8
0
 62
1
100
AcDbLine
 10
2.252660
 20
222.973832
 30
0.0
 11
2.084322
 21
222.888326
 31
0.0
  0
LINE
  5
4b7
100
AcDbEntity
  8
0
 62
1
100
AcDbLine
 10
2.084322
 20
222.888326
 30
0.0
 11
1.915983
 21
222.719988
 31
0.0
  0
LINE
  5
4b8
100
AcDbEntity
  8
0
 62
1
100
AcDbLine
 10
1.915983
 20
222.719988
 30
0.0
 11
1.830477
 21
222.551649
 31
0.0
  0
LINE
  5
4b9
100
AcDbEntity
  8
0
 62
1
100
AcDbLine
 10
1.830477
 20
222.551649
 30
0.0
 11
1.747644
 21
222.300477
 31
0.0
  0
LINE
  5
4ba
100
AcDbEntity
  8
0
 62
1
100
AcDbLine
 10
1.747644
 20
222.300477
 30
0.0
 11
1.747644
 21
221.878294
 31
0.0
  0
LINE
  5
4bb
100
AcDbEntity
  8
0
 62
1
100
AcDbLine
 10
1.747644
 20
221.878294
 30
0.0
 11
1.830477
 21
221.627122
 31
0.0
  0
LINE
  5
4bc
100
AcDbEntity
  8
0
 62
1
100
AcDbLine
 10
1.830477
 20
221.627122
 30
0.0
 11
1.915983
 21
221.457447
 31
0.0
  0
LINE
  5
4bd
100
AcDbEntity
  8
0
 62
1
100
AcDbLine
 10
1.915983
 20
221.457447
 30
0.0
 11
2.084322
 21
221.289108
 31
0.0
  0
LINE
  5
4be
100
AcDbEntity
  8
0
 62
1
100
AcDbLine
 10
2.084322
 20
221.289108
 30
0.0
 11
2.252660
 21
221.204939
 31
0.0
  0
LINE
  5
4bf
100
AcDbEntity
  8
0
 62
1
100
AcDbLine
 10
2.252660
 20
221.204939
 30
0.0
 11
2.589338
 21
221.204939
 31
0.0
  0
LINE
  5
4c0
100
AcDbEntity
  8
0
 62
1
100
AcDbLine
 10
2.589338
 20
221.204939
 30
0.0
 11
2.757677
 21
221.289108
 31
0.0
  0
LINE
  5
4c1
100
AcDbEntity
  8
0
 62
1
100
AcDbLine
 10
2.757677
 20
221.289108
 30
0.0
 11
2.926015
 21
221.457447
 31
0.0
  0
LINE
  5
4c2
100
AcDbEntity
  8
0
 62
1
100
AcDbLine
 10
2.926015
 20
221.457447
 30
0.0
 11
3.011521
 21
221.627122
 31
0.0
  0
LINE
  5
4c3
100
AcDbEntity
  8
0
 62
1
100
AcDbLine
 10
3.011521
 20
221.627122
 30
0.0
 11
3.094354
 21
221.878294
 31
0.0
  0
LINE
  5
4c4
100
AcDbEntity
  8
0
 62
1
100
AcDbLine
 10
3.094354
 20
221.878294
 30
0.0
 11
3.094354
 21
222.300477
 31
0.0
  0
LINE
  5
4c5
100
AcDbEntity
  8
0
 62
1
100
AcDbLine
 10
3.094354
 20
222.300477
 30
0.0
 11
3.011521
 21
222.551649
 31
0.0
  0
LINE
  5
4c6
100
AcDbEntity
  8
0
 62
1
100
AcDbLine
 10
3.011521
 20
222.551649
 30
0.0
 11
2.926015
 21
222.719988
 31
0.0
  0
LINE
  5
4c7
100
AcDbEntity
  8
0
 62
1
100
AcDbLine
 10
2.926015
 20
222.719988
 30
0.0
 11
2.757677
 21
222.888326
 31
0.0
  0
LINE
  5
4c8
100
AcDbEntity
  8
0
 62
1
100
AcDbLine
 10
2.757677
 20
222.888326
 30
0.0
 11
2.589338
 21
222.973832
 31
0.0
  0
LINE
  5
4c9
100
AcDbEntity
  8
0
 62
1
100
AcDbLine
 10
2.589338
 20
222.973832
 30
0.0
 11
2.252660
 21
222.973832
 31
0.0
  0
LINE
  5
4ca
100
AcDbEntity
  8
0
 62
1
100
AcDbLine
 10
3.682200
 20
222.973832
 30
0.0
 11
3.682200
 21
221.204939
 31
0.0
  0
LINE
  5
4cb
100
AcDbEntity
  8
0
 62
1
100
AcDbLine
 10
3.682200
 20
222.973832
 30
0.0
 11
4.441060
 21
222.973832
 31
0.0
  0
LINE
  5
4cc
100
AcDbEntity
  8
0
 62
1
100
AcDbLine
 10
4.441060
 20
222.973832
 30
0.0
 11
4.692232
 21
222.888326
 31
0.0
  0
LINE
  5
4cd
100
AcDbEntity
  8
0
 62
1
100
AcDbLine
 10
4.692232
 20
222.888326
 30
0.0
 11
4.777738
 21
222.802821
 31
0.0
  0
LINE
  5
4ce
100
AcDbEntity
  8
0
 62
1
100
AcDbLine
 10
4.777738
 20
222.802821
 30
0.0
 11
4.863243
 21
222.637154
 31
0.0
  0
LINE
  5
4cf
100
AcDbEntity
  8
0
 62
1
100
AcDbLine
 10
4.863243
 20
222.637154
 30
0.0
 11
4.863243
 21
222.383310
 31
0.0
  0
LINE
  5
4d0
100
AcDbEntity
  8
0
 62
1
100
AcDbLine
 10
4.863243
 20
222.383310
 30
0.0
 11
4.777738
 21
222.214971
 31
0.0
  0
LINE
  5
4d1
100
AcDbEntity
  8
0
 62
1
100
AcDbLine
 10
4.777738
 20
222.214971
 30
0.0
 11
4.692232
 21
222.129466
 31
0.0
  0
LINE
  5
4d2
100
AcDbEntity
  8
0
 62
1
100
AcDbLine
 10
4.692232
 20
222.129466
 30
0.0
 11
4.441060
 21
222.046633
 31
0.0
  0
LINE
  5
4d3
100
AcDbEntity
  8
0
 62
1
100
AcDbLine
 10
4.441060
 20
222.046633
 30
0.0
 11
3.682200
 21
222.046633
 31
0.0
  0
LINE
  5
4d4
100
AcDbEntity
  8
0
 62
1
100
AcDbLine
 10
-4.482227
 20
220.301728
 30
0.0
 11
-4.482227
 21
218.532835
 31
0.0
  0
LINE
  5
4d5
100
AcDbEntity
  8
0
 62
1
100
AcDbLine
 10
-4.482227
 20
220.301728
 30
0.0
 11
-3.386690
 21
220.301728
 31
0.0
  0
LINE
  5
4d6
100
AcDbEntity
  8
0
 62
1
100
AcDbLine
 10
-4.482227
 20
219.457362
 30
0.0
 11
-3.808872
 21
219.457362
 31
0.0
  0
LINE
  5
4d7
100
AcDbEntity
  8
0
 62
1
100
AcDbLine
 10
-2.544992
 20
220.301728
 30
0.0
 11
-3.218347
 21
218.532835
 31
0.0
  0
LINE
  5
4d8
100
AcDbEntity
  8
0
 62
1
100
AcDbLine
 10
-2.544992
 20
220.301728
 30
0.0
 11
-1.871637
 21
218.532835
 31
0.0
  0
LINE
  5
4d9
100
AcDbEntity
  8
0
 62
1
100
AcDbLine
 10
-2.967175
 20
219.120685
 30
0.0
 11
-2.122810
 21
219.120685
 31
0.0
  0
LINE
  5
4da
100
AcDbEntity
  8
0
 62
1
100
AcDbLine
 10
-0.271090
 20
219.879545
 30
0.0
 11
-0.356595
 21
220.047884
 31
0.0
  0
LINE
  5
4db
100
AcDbEntity
  8
0
 62
1
100
AcDbLine
 10
-0.356595
 20
220.047884
 30
0.0
 11
-0.524934
 21
220.216223
 31
0.0
  0
LINE
  5
4dc
100
AcDbEntity
  8
0
 62
1
100
AcDbLine
 10
-0.524934
 20
220.216223
 30
0.0
 11
-0.693273
 21
220.301728
 31
0.0
  0
LINE
  5
4dd
100
AcDbEntity
  8
0
 62
1
100
AcDbLine
 10
-0.693273
 20
220.301728
 30
0.0
 11
-1.029950
 21
220.301728
 31
0.0
  0
LINE
  5
4de
100
AcDbEntity
  8
0
 62
1
100
AcDbLine
 10
-1.029950
 20
220.301728
 30
0.0
 11
-1.198289
 21
220.216223
 31
0.0
  0
LINE
  5
4df
100
AcDbEntity
  8
0
 62
1
100
AcDbLine
 10
-1.198289
 20
220.216223
 30
0.0
 11
-1.366628
 21
220.047884
 31
0.0
  0
LINE
  5
4e0
100
AcDbEntity
  8
0
 62
1
100
AcDbLine
 10
-1.366628
 20
220.047884
 30
0.0
 11
-1.452133
 21
219.879545
 31
0.0
  0
LINE
  5
4e1
100
AcDbEntity
  8
0
 62
1
100
AcDbLine
 10
-1.452133
 20
219.879545
 30
0.0
 11
-1.534967
 21
219.628373
 31
0.0
  0
LINE
  5
4e2
100
AcDbEntity
  8
0
 62
1
100
AcDbLine
 10
-1.534967
 20
219.628373
 30
0.0
 11
-1.534967
 21
219.206190
 31
0.0
  0
LINE
  5
4e3
100
AcDbEntity
  8
0
 62
1
100
AcDbLine
 10
-1.534967
 20
219.206190
 30
0.0
 11
-1.452133
 21
218.955018
 31
0.0
  0
LINE
  5
4e4
100
AcDbEntity
  8
0
 62
1
100
AcDbLine
 10
-1.452133
 20
218.955018
 30
0.0
 11
-1.366628
 21
218.785343
 31
0.0
  0
LINE
  5
4e5
100
AcDbEntity
  8
0
 62
1
100
AcDbLine
 10
-1.366628
 20
218.785343
 30
0.0
 11
-1.198289
 21
218.617004
 31
0.0
  0
LINE
  5
4e6
100
AcDbEntity
  8
0
 62
1
100
AcDbLine
 10
-1.198289
 20
218.617004
 30
0.0
 11
-1.029950
 21
218.532835
 31
0.0
  0
LINE
  5
4e7
100
AcDbEntity
  8
0
 62
1
100
AcDbLine
 10
-1.029950
 20
218.532835
 30
0.0
 11
-0.693273
 21
218.532835
 31
0.0
  0
LINE
  5
4e8
100
AcDbEntity
  8
0
 62
1
100
AcDbLine
 10
-0.693273
 20
218.532835
 30
0.0
 11
-0.524934
 21
218.617004
 31
0.0
  0
LINE
  5
4e9
100
AcDbEntity
  8
0
 62
1
100
AcDbLine
 10
-0.524934
 20
218.617004
 30
0.0
 11
-0.356595
 21
218.785343
 31
0.0
  0
LINE
  5
4ea
100
AcDbEntity
  8
0
 62
1
100
AcDbLine
 10
-0.356595
 20
218.785343
 30
0.0
 11
-0.271090
 21
218.955018
 31
0.0
  0
LINE
  5
4eb
100
AcDbEntity
  8
0
 62
1
100
AcDbLine
 10
0.316759
 20
220.301728
 30
0.0
 11
0.316759
 21
218.532835
 31
0.0
  0
LINE
  5
4ec
100
AcDbEntity
  8
0
 62
1
100
AcDbLine
 10
0.316759
 20
220.301728
 30
0.0
 11
1.412297
 21
220.301728
 31
0.0
  0
LINE
  5
4ed
100
AcDbEntity
  8
0
 62
1
100
AcDbLine
 10
0.316759
 20
219.457362
 30
0.0
 11
0.990114
 21
219.457362
 31
0.0
  0
LINE
  5
4ee
100
AcDbEntity
  8
0
 62
1
100
AcDbLine
 10
0.316759
 20
218.532835
 30
0.0
 11
1.412297
 21
218.532835
 31
0.0
  0
LINE
  5
4ef
100
AcDbEntity
  8
0
 62
1
100
AcDbLine
 10
2.924673
 20
220.301728
 30
0.0
 11
2.924673
 21
218.532835
 31
0.0
  0
LINE
  5
4f0
100
AcDbEntity
  8
0
 62
1
100
AcDbLine
 10
2.924673
 20
220.301728
 30
0.0
 11
3.515195
 21
220.301728
 31
0.0
  0
LINE
  5
4f1
100
AcDbEntity
  8
0
 62
1
100
AcDbLine
 10
3.515195
 20
220.301728
 30
0.0
 11
3.769039
 21
220.216223
 31
0.0
  0
LINE
  5
4f2
100
AcDbEntity
  8
0
 62
1
100
AcDbLine
 10
3.769039
 20
220.216223
 30
0.0
 11
3.934705
 21
220.047884
 31
0.0
  0
LINE
  5
4f3
100
AcDbEntity
  8
0
 62
1
100
AcDbLine
 10
3.934705
 20
220.047884
 30
0.0
 11
4.020211
 21
219.879545
 31
0.0
  0
LINE
  5
4f4
100
AcDbEntity
  8
0
 62
1
100
AcDbLine
 10
4.020211
 20
219.879545
 30
0.0
 11
4.105716
 21
219.628373
 31
0.0
  0
LINE
  5
4f5
100
AcDbEntity
  8
0
 62
1
100
AcDbLine
 10
4.105716
 20
219.628373
 30
0.0
 11
4.105716
 21
219.206190
 31
0.0
  0
LINE
  5
4f6
100
AcDbEntity
  8
0
 62
1
100
AcDbLine
 10
4.105716
 20
219.206190
 30
0.0
 11
4.020211
 21
218.955018
 31
0.0
  0
LINE
  5
4f7
100
AcDbEntity
  8
0
 62
1
100
AcDbLine
 10
4.020211
 20
218.955018
 30
0.0
 11
3.934705
 21
218.785343
 31
0.0
  0
LINE
  5
4f8
100
AcDbEntity
  8
0
 62
1
100
AcDbLine
 10
3.934705
 20
218.785343
 30
0.0
 11
3.769039
 21
218.617004
 31
0.0
  0
LINE
  5
4f9
100
AcDbEntity
  8
0
 62
1
100
AcDbLine
 10
3.769039
 20
218.617004
 30
0.0
 11
3.515195
 21
218.532835
 31
0.0
  0
LINE
  5
4fa
100
AcDbEntity
  8
0
 62
1
100
AcDbLine
 10
3.515195
 20
218.532835
 30
0.0
 11
2.924673
 21
218.532835
 31
0.0
  0
LINE
  5
4fb
100
AcDbEntity
  8
0
 62
1
100
AcDbLine
 10
5.115758
 20
220.301728
 30
0.0
 11
4.947420
 21
220.216223
 31
0.0
  0
LINE
  5
4fc
100
AcDbEntity
  8
0
 62
1
100
AcDbLine
 10
4.947420
 20
220.216223
 30
0.0
 11
4.779081
 21
220.047884
 31
0.0
  0
LINE
  5
4fd
100
AcDbEntity
  8
0
 62
1
100
AcDbLine
 10
4.779081
 20
220.047884
 30
0.0
 11
4.693575
 21
219.879545
 31
0.0
  0
LINE
  5
4fe
100
AcDbEntity
  8
0
 62
1
100
AcDbLine
 10
4.693575
 20
219.879545
 30
0.0
 11
4.610742
 21
219.628373
 31
0.0
  0
LINE
  5
4ff
100
AcDbEntity
  8
0
 62
1
100
AcDbLine
 10
4.610742
 20
219.628373
 30
0.0
 11
4.610742
 21
219.206190
 31
0.0
  0
LINE
  5
500
100
AcDbEntity
  8
0
 62
1
100
AcDbLine
 10
4.610742
 20
219.206190
 30
0.0
 11
4.693575
 21
218.955018
 31
0.0
  0
LINE
  5
501
100
AcDbEntity
  8
0
 62
1
100
AcDbLine
 10
4.693575
 20
218.955018
 30
0.0
 11
4.779081
 21
218.785343
 31
0.0
  0
LINE
  5
502
100
AcDbEntity
  8
0
 62
1
100
AcDbLine
 10
4.779081
 20
218.785343
 30
0.0
 11
4.947420
 21
218.617004
 31
0.0
  0
LINE
  5
503
100
AcDbEntity
  8
0
 62
1
100
AcDbLine
 10
4.947420
 20
218.617004
 30
0.0
 11
5.115758
 21
218.532835
 31
0.0
  0
LINE
  5
504
100
AcDbEntity
  8
0
 62
1
100
AcDbLine
 10
5.115758
 20
218.532835
 30
0.0
 11
5.452436
 21
218.532835
 31
0.0
  0
LINE
  5
505
100
AcDbEntity
  8
0
 62
1
100
AcDbLine
 10
5.452436
 20
218.532835
 30
0.0
 11
5.620775
 21
218.617004
 31
0.0
  0
LINE
  5
506
100
AcDbEntity
  8
0
 62
1
100
AcDbLine
 10
5.620775
 20
218.617004
 30
0.0
 11
5.789113
 21
218.785343
 31
0.0
  0
LINE
  5
507
100
AcDbEntity
  8
0
 62
1
100
AcDbLine
 10
5.789113
 20
218.785343
 30
0.0
 11
5.874619
 21
218.955018
 31
0.0
  0
LINE
  5
508
100
AcDbEntity
  8
0
 62
1
100
AcDbLine
 10
5.874619
 20
218.955018
 30
0.0
 11
5.957452
 21
219.206190
 31
0.0
  0
LINE
  5
509
100
AcDbEntity
  8
0
 62
1
100
AcDbLine
 10
5.957452
 20
219.206190
 30
0.0
 11
5.957452
 21
219.628373
 31
0.0
  0
LINE
  5
50a
100
AcDbEntity
  8
0
 62
1
100
AcDbLine
 10
5.957452
 20
219.628373
 30
0.0
 11
5.874619
 21
219.879545
 31
0.0
  0
LINE
  5
50b
100
AcDbEntity
  8
0
 62
1
100
AcDbLine
 10
5.874619
 20
219.879545
 30
0.0
 11
5.789113
 21
220.047884
 31
0.0
  0
LINE
  5
50c
100
AcDbEntity
  8
0
 62
1
100
AcDbLine
 10
5.789113
 20
220.047884
 30
0.0
 11
5.620775
 21
220.216223
 31
0.0
  0
LINE
  5
50d
100
AcDbEntity
  8
0
 62
1
100
AcDbLine
 10
5.620775
 20
220.216223
 30
0.0
 11
5.452436
 21
220.301728
 31
0.0
  0
LINE
  5
50e
100
AcDbEntity
  8
0
 62
1
100
AcDbLine
 10
5.452436
 20
220.301728
 30
0.0
 11
5.115758
 21
220.301728
 31
0.0
  0
LINE
  5
50f
100
AcDbEntity
  8
0
 62
1
100
AcDbLine
 10
6.379621
 20
220.301728
 30
0.0
 11
6.799132
 21
218.532835
 31
0.0
  0
LINE
  5
510
100
AcDbEntity
  8
0
 62
1
100
AcDbLine
 10
7.218643
 20
220.301728
 30
0.0
 11
6.799132
 21
218.532835
 31
0.0
  0
LINE
  5
511
100
AcDbEntity
  8
0
 62
1
100
AcDbLine
 10
7.218643
 20
220.301728
 30
0.0
 11
7.640826
 21
218.532835
 31
0.0
  0
LINE
  5
512
100
AcDbEntity
  8
0
 62
1
100
AcDbLine
 10
8.063009
 20
220.301728
 30
0.0
 11
7.640826
 21
218.532835
 31
0.0
  0
LINE
  5
513
100
AcDbEntity
  8
0
 62
1
100
AcDbLine
 10
8.565391
 20
220.301728
 30
0.0
 11
8.565391
 21
218.532835
 31
0.0
  0
LINE
  5
514
100
AcDbEntity
  8
0
 62
1
100
AcDbLine
 10
8.565391
 20
220.301728
 30
0.0
 11
9.746434
 21
218.532835
 31
0.0
  0
LINE
  5
515
100
AcDbEntity
  8
0
 62
1
100
AcDbLine
 10
9.746434
 20
220.301728
 30
0.0
 11
9.746434
 21
218.532835
 31
0.0
  0
LINE
  5
516
100
AcDbEntity
  8
0
 62
1
100
AcDbLine
 10
-32.110196
 20
264.638690
 30
0.0
 11
-32.110196
 21
262.869797
 31
0.0
  0
LINE
  5
517
100
AcDbEntity
  8
0
 62
1
100
AcDbLine
 10
-32.110196
 20
264.638690
 30
0.0
 11
-31.014658
 21
264.638690
 31
0.0
  0
LINE
  5
518
100
AcDbEntity
  8
0
 62
1
100
AcDbLine
 10
-32.110196
 20
263.794324
 30
0.0
 11
-31.436841
 21
263.794324
 31
0.0
  0
LINE
  5
519
100
AcDbEntity
  8
0
 62
1
100
AcDbLine
 10
-30.595144
 20
264.638690
 30
0.0
 11
-30.595144
 21
262.869797
 31
0.0
  0
LINE
  5
51a
100
AcDbEntity
  8
0
 62
1
100
AcDbLine
 10
-30.595144
 20
264.638690
 30
0.0
 11
-29.836283
 21
264.638690
 31
0.0
  0
LINE
  5
51b
100
AcDbEntity
  8
0
 62
1
100
AcDbLine
 10
-29.836283
 20
264.638690
 30
0.0
 11
-29.585111
 21
264.553184
 31
0.0
  0
LINE
  5
51c
100
AcDbEntity
  8
0
 62
1
100
AcDbLine
 10
-29.585111
 20
264.553184
 30
0.0
 11
-29.499606
 21
264.467679
 31
0.0
  0
LINE
  5
51d
100
AcDbEntity
  8
0
 62
1
100
AcDbLine
 10
-29.499606
 20
264.467679
 30
0.0
 11
-29.414101
 21
264.302012
 31
0.0
  0
LINE
  5
51e
100
AcDbEntity
  8
0
 62
1
100
AcDbLine
 10
-29.414101
 20
264.302012
 30
0.0
 11
-29.414101
 21
264.131002
 31
0.0
  0
LINE
  5
51f
100
AcDbEntity
  8
0
 62
1
100
AcDbLine
 10
-29.414101
 20
264.131002
 30
0.0
 11
-29.499606
 21
263.965335
 31
0.0
  0
LINE
  5
520
100
AcDbEntity
  8
0
 62
1
100
AcDbLine
 10
-29.499606
 20
263.965335
 30
0.0
 11
-29.585111
 21
263.879829
 31
0.0
  0
LINE
  5
521
100
AcDbEntity
  8
0
 62
1
100
AcDbLine
 10
-29.585111
 20
263.879829
 30
0.0
 11
-29.836283
 21
263.794324
 31
0.0
  0
LINE
  5
522
100
AcDbEntity
  8
0
 62
1
100
AcDbLine
 10
-29.836283
 20
263.794324
 30
0.0
 11
-30.595144
 21
263.794324
 31
0.0
  0
LINE
  5
523
100
AcDbEntity
  8
0
 62
1
100
AcDbLine
 10
-30.004622
 20
263.794324
 30
0.0
 11
-29.414101
 21
262.869797
 31
0.0
  0
LINE
  5
524
100
AcDbEntity
  8
0
 62
1
100
AcDbLine
 10
-28.404069
 20
264.638690
 30
0.0
 11
-28.572407
 21
264.553184
 31
0.0
  0
LINE
  5
525
100
AcDbEntity
  8
0
 62
1
100
AcDbLine
 10
-28.572407
 20
264.553184
 30
0.0
 11
-28.740746
 21
264.384846
 31
0.0
  0
LINE
  5
526
100
AcDbEntity
  8
0
 62
1
100
AcDbLine
 10
-28.740746
 20
264.384846
 30
0.0
 11
-28.826251
 21
264.216507
 31
0.0
  0
LINE
  5
527
100
AcDbEntity
  8
0
 62
1
100
AcDbLine
 10
-28.826251
 20
264.216507
 30
0.0
 11
-28.909085
 21
263.965335
 31
0.0
  0
LINE
  5
528
100
AcDbEntity
  8
0
 62
1
100
AcDbLine
 10
-28.909085
 20
263.965335
 30
0.0
 11
-28.909085
 21
263.543152
 31
0.0
  0
LINE
  5
529
100
AcDbEntity
  8
0
 62
1
100
AcDbLine
 10
-28.909085
 20
263.543152
 30
0.0
 11
-28.826251
 21
263.291980
 31
0.0
  0
LINE
  5
52a
100
AcDbEntity
  8
0
 62
1
100
AcDbLine
 10
-28.826251
 20
263.291980
 30
0.0
 11
-28.740746
 21
263.122305
 31
0.0
  0
LINE
  5
52b
100
AcDbEntity
  8
0
 62
1
100
AcDbLine
 10
-28.740746
 20
263.122305
 30
0.0
 11
-28.572407
 21
262.953966
 31
0.0
  0
LINE
  5
52c
100
AcDbEntity
  8
0
 62
1
100
AcDbLine
 10
-28.572407
 20
262.953966
 30
0.0
 11
-28.404069
 21
262.869797
 31
0.0
  0
LINE
  5
52d
100
AcDbEntity
  8
0
 62
1
100
AcDbLine
 10
-28.404069
 20
262.869797
 30
0.0
 11
-28.067391
 21
262.869797
 31
0.0
  0
LINE
  5
52e
100
AcDbEntity
  8
0
 62
1
100
AcDbLine
 10
-28.067391
 20
262.869797
 30
0.0
 11
-27.899052
 21
262.953966
 31
0.0
  0
LINE
  5
52f
100
AcDbEntity
  8
0
 62
1
100
AcDbLine
 10
-27.899052
 20
262.953966
 30
0.0
 11
-27.730714
 21
263.122305
 31
0.0
  0
LINE
  5
530
100
AcDbEntity
  8
0
 62
1
100
AcDbLine
 10
-27.730714
 20
263.122305
 30
0.0
 11
-27.645208
 21
263.291980
 31
0.0
  0
LINE
  5
531
100
AcDbEntity
  8
0
 62
1
100
AcDbLine
 10
-27.645208
 20
263.291980
 30
0.0
 11
-27.562375
 21
263.543152
 31
0.0
  0
LINE
  5
532
100
AcDbEntity
  8
0
 62
1
100
AcDbLine
 10
-27.562375
 20
263.543152
 30
0.0
 11
-27.562375
 21
263.965335
 31
0.0
  0
LINE
  5
533
100
AcDbEntity
  8
0
 62
1
100
AcDbLine
 10
-27.562375
 20
263.965335
 30
0.0
 11
-27.645208
 21
264.216507
 31
0.0
  0
LINE
  5
534
100
AcDbEntity
  8
0
 62
1
100
AcDbLine
 10
-27.645208
 20
264.216507
 30
0.0
 11
-27.730714
 21
264.384846
 31
0.0
  0
LINE
  5
535
100
AcDbEntity
  8
0
 62
1
100
AcDbLine
 10
-27.730714
 20
264.384846
 30
0.0
 11
-27.899052
 21
264.553184
 31
0.0
  0
LINE
  5
536
100
AcDbEntity
  8
0
 62
1
100
AcDbLine
 10
-27.899052
 20
264.553184
 30
0.0
 11
-28.067391
 21
264.638690
 31
0.0
  0
LINE
  5
537
100
AcDbEntity
  8
0
 62
1
100
AcDbLine
 10
-28.067391
 20
264.638690
 30
0.0
 11
-28.404069
 21
264.638690
 31
0.0
  0
LINE
  5
538
100
AcDbEntity
  8
0
 62
1
100
AcDbLine
 10
-26.974529
 20
264.638690
 30
0.0
 11
-26.974529
 21
262.869797
 31
0.0
  0
LINE
  5
539
100
AcDbEntity
  8
0
 62
1
100
AcDbLine
 10
-26.974529
 20
264.638690
 30
0.0
 11
-25.793486
 21
262.869797
 31
0.0
  0
LINE
  5
53a
100
AcDbEntity
  8
0
 62
1
100
AcDbLine
 10
-25.793486
 20
264.638690
 30
0.0
 11
-25.793486
 21
262.869797
 31
0.0
  0
LINE
  5
53b
100
AcDbEntity
  8
0
 62
1
100
AcDbLine
 10
-24.786129
 20
264.638690
 30
0.0
 11
-24.786129
 21
262.869797
 31
0.0
  0
LINE
  5
53c
100
AcDbEntity
  8
0
 62
1
100
AcDbLine
 10
-25.373978
 20
264.638690
 30
0.0
 11
-24.195607
 21
264.638690
 31
0.0
  0
LINE
  5
53d
100
AcDbEntity
  8
0
 62
1
100
AcDbLine
 10
-2.142464
 20
196.782935
 30
0.0
 11
-2.142464
 21
195.014042
 31
0.0
  0
LINE
  5
53e
100
AcDbEntity
  8
0
 62
1
100
AcDbLine
 10
-2.142464
 20
196.782935
 30
0.0
 11
-1.469109
 21
195.014042
 31
0.0
  0
LINE
  5
53f
100
AcDbEntity
  8
0
 62
1
100
AcDbLine
 10
-0.795754
 20
196.782935
 30
0.0
 11
-1.469109
 21
195.014042
 31
0.0
  0
LINE
  5
540
100
AcDbEntity
  8
0
 62
1
100
AcDbLine
 10
-0.795754
 20
196.782935
 30
0.0
 11
-0.795754
 21
195.014042
 31
0.0
  0
LINE
  5
541
100
AcDbEntity
  8
0
 62
1
100
AcDbLine
 10
-0.122401
 20
196.782935
 30
0.0
 11
-0.122401
 21
195.014042
 31
0.0
  0
LINE
  5
542
100
AcDbEntity
  8
0
 62
1
100
AcDbLine
 10
0.550960
 20
196.782935
 30
0.0
 11
0.550960
 21
195.014042
 31
0.0
  0
LINE
  5
543
100
AcDbEntity
  8
0
 62
1
100
AcDbLine
 10
0.550960
 20
196.782935
 30
0.0
 11
1.141481
 21
196.782935
 31
0.0
  0
LINE
  5
544
100
AcDbEntity
  8
0
 62
1
100
AcDbLine
 10
1.141481
 20
196.782935
 30
0.0
 11
1.395325
 21
196.697430
 31
0.0
  0
LINE
  5
545
100
AcDbEntity
  8
0
 62
1
100
AcDbLine
 10
1.395325
 20
196.697430
 30
0.0
 11
1.560992
 21
196.529091
 31
0.0
  0
LINE
  5
546
100
AcDbEntity
  8
0
 62
1
100
AcDbLine
 10
1.560992
 20
196.529091
 30
0.0
 11
1.646497
 21
196.360752
 31
0.0
  0
LINE
  5
547
100
AcDbEntity
  8
0
 62
1
100
AcDbLine
 10
1.646497
 20
196.360752
 30
0.0
 11
1.732003
 21
196.109580
 31
0.0
  0
LINE
  5
548
100
AcDbEntity
  8
0
 62
1
100
AcDbLine
 10
1.732003
 20
196.109580
 30
0.0
 11
1.732003
 21
195.687397
 31
0.0
  0
LINE
  5
549
100
AcDbEntity
  8
0
 62
1
100
AcDbLine
 10
1.732003
 20
195.687397
 30
0.0
 11
1.646497
 21
195.436225
 31
0.0
  0
LINE
  5
54a
100
AcDbEntity
  8
0
 62
1
100
AcDbLine
 10
1.646497
 20
195.436225
 30
0.0
 11
1.560992
 21
195.266550
 31
0.0
  0
LINE
  5
54b
100
AcDbEntity
  8
0
 62
1
100
AcDbLine
 10
1.560992
 20
195.266550
 30
0.0
 11
1.395325
 21
195.098212
 31
0.0
  0
LINE
  5
54c
100
AcDbEntity
  8
0
 62
1
100
AcDbLine
 10
1.395325
 20
195.098212
 30
0.0
 11
1.141481
 21
195.014042
 31
0.0
  0
LINE
  5
54d
100
AcDbEntity
  8
0
 62
1
100
AcDbLine
 10
1.141481
 20
195.014042
 30
0.0
 11
0.550960
 21
195.014042
 31
0.0
  0
LINE
  5
54e
100
AcDbEntity
  8
0
 62
1
100
AcDbLine
 10
2.319852
 20
196.782935
 30
0.0
 11
2.319852
 21
195.014042
 31
0.0
  0
LINE
  5
54f
100
AcDbEntity
  8
0
 62
1
100
AcDbLine
 10
2.319852
 20
196.782935
 30
0.0
 11
2.910374
 21
196.782935
 31
0.0
  0
LINE
  5
550
100
AcDbEntity
  8
0
 62
1
100
AcDbLine
 10
2.910374
 20
196.782935
 30
0.0
 11
3.164218
 21
196.697430
 31
0.0
  0
LINE
  5
551
100
AcDbEntity
  8
0
 62
1
100
AcDbLine
 10
3.164218
 20
196.697430
 30
0.0
 11
3.329885
 21
196.529091
 31
0.0
  0
LINE
  5
552
100
AcDbEntity
  8
0
 62
1
100
AcDbLine
 10
3.329885
 20
196.529091
 30
0.0
 11
3.415390
 21
196.360752
 31
0.0
  0
LINE
  5
553
100
AcDbEntity
  8
0
 62
1
100
AcDbLine
 10
3.415390
 20
196.360752
 30
0.0
 11
3.500895
 21
196.109580
 31
0.0
  0
LINE
  5
554
100
AcDbEntity
  8
0
 62
1
100
AcDbLine
 10
3.500895
 20
196.109580
 30
0.0
 11
3.500895
 21
195.687397
 31
0.0
  0
LINE
  5
555
100
AcDbEntity
  8
0
 62
1
100
AcDbLine
 10
3.500895
 20
195.687397
 30
0.0
 11
3.415390
 21
195.436225
 31
0.0
  0
LINE
  5
556
100
AcDbEntity
  8
0
 62
1
100
AcDbLine
 10
3.415390
 20
195.436225
 30
0.0
 11
3.329885
 21
195.266550
 31
0.0
  0
LINE
  5
557
100
AcDbEntity
  8
0
 62
1
100
AcDbLine
 10
3.329885
 20
195.266550
 30
0.0
 11
3.164218
 21
195.098212
 31
0.0
  0
LINE
  5
558
100
AcDbEntity
  8
0
 62
1
100
AcDbLine
 10
3.164218
 20
195.098212
 30
0.0
 11
2.910374
 21
195.014042
 31
0.0
  0
LINE
  5
559
100
AcDbEntity
  8
0
 62
1
100
AcDbLine
 10
2.910374
 20
195.014042
 30
0.0
 11
2.319852
 21
195.014042
 31
0.0
  0
LINE
  5
55a
100
AcDbEntity
  8
0
 62
1
100
AcDbLine
 10
4.088745
 20
196.782935
 30
0.0
 11
4.088745
 21
195.014042
 31
0.0
  0
LINE
  5
55b
100
AcDbEntity
  8
0
 62
1
100
AcDbLine
 10
4.088745
 20
195.014042
 30
0.0
 11
5.098777
 21
195.014042
 31
0.0
  0
LINE
  5
55c
100
AcDbEntity
  8
0
 62
1
100
AcDbLine
 10
5.520957
 20
196.782935
 30
0.0
 11
5.520957
 21
195.014042
 31
0.0
  0
LINE
  5
55d
100
AcDbEntity
  8
0
 62
1
100
AcDbLine
 10
5.520957
 20
196.782935
 30
0.0
 11
6.616494
 21
196.782935
 31
0.0
  0
LINE
  5
55e
100
AcDbEntity
  8
0
 62
1
100
AcDbLine
 10
5.520957
 20
195.938569
 30
0.0
 11
6.194312
 21
195.938569
 31
0.0
  0
LINE
  5
55f
100
AcDbEntity
  8
0
 62
1
100
AcDbLine
 10
5.520957
 20
195.014042
 30
0.0
 11
6.616494
 21
195.014042
 31
0.0
  0
LINE
  5
560
100
AcDbEntity
  8
0
 62
1
100
AcDbLine
 10
-0.472432
 20
145.742524
 30
0.0
 11
-0.472432
 21
143.973631
 31
0.0
  0
LINE
  5
561
100
AcDbEntity
  8
0
 62
1
100
AcDbLine
 10
-0.472432
 20
145.742524
 30
0.0
 11
0.286429
 21
145.742524
 31
0.0
  0
LINE
  5
562
100
AcDbEntity
  8
0
 62
1
100
AcDbLine
 10
0.286429
 20
145.742524
 30
0.0
 11
0.537601
 21
145.657019
 31
0.0
  0
LINE
  5
563
100
AcDbEntity
  8
0
 62
1
100
AcDbLine
 10
0.537601
 20
145.657019
 30
0.0
 11
0.623106
 21
145.571513
 31
0.0
  0
LINE
  5
564
100
AcDbEntity
  8
0
 62
1
100
AcDbLine
 10
0.623106
 20
145.571513
 30
0.0
 11
0.708611
 21
145.405846
 31
0.0
  0
LINE
  5
565
100
AcDbEntity
  8
0
 62
1
100
AcDbLine
 10
0.708611
 20
145.405846
 30
0.0
 11
0.708611
 21
145.234836
 31
0.0
  0
LINE
  5
566
100
AcDbEntity
  8
0
 62
1
100
AcDbLine
 10
0.708611
 20
145.234836
 30
0.0
 11
0.623106
 21
145.069169
 31
0.0
  0
LINE
  5
567
100
AcDbEntity
  8
0
 62
1
100
AcDbLine
 10
0.623106
 20
145.069169
 30
0.0
 11
0.537601
 21
144.983663
 31
0.0
  0
LINE
  5
568
100
AcDbEntity
  8
0
 62
1
100
AcDbLine
 10
0.537601
 20
144.983663
 30
0.0
 11
0.286429
 21
144.898158
 31
0.0
  0
LINE
  5
569
100
AcDbEntity
  8
0
 62
1
100
AcDbLine
 10
-0.472432
 20
144.898158
 30
0.0
 11
0.286429
 21
144.898158
 31
0.0
  0
LINE
  5
56a
100
AcDbEntity
  8
0
 62
1
100
AcDbLine
 10
0.286429
 20
144.898158
 30
0.0
 11
0.537601
 21
144.815325
 31
0.0
  0
LINE
  5
56b
100
AcDbEntity
  8
0
 62
1
100
AcDbLine
 10
0.537601
 20
144.815325
 30
0.0
 11
0.623106
 21
144.732491
 31
0.0
  0
LINE
  5
56c
100
AcDbEntity
  8
0
 62
1
100
AcDbLine
 10
0.623106
 20
144.732491
 30
0.0
 11
0.708611
 21
144.561481
 31
0.0
  0
LINE
  5
56d
100
AcDbEntity
  8
0
 62
1
100
AcDbLine
 10
0.708611
 20
144.561481
 30
0.0
 11
0.708611
 21
144.310308
 31
0.0
  0
LINE
  5
56e
100
AcDbEntity
  8
0
 62
1
100
AcDbLine
 10
0.708611
 20
144.310308
 30
0.0
 11
0.623106
 21
144.141970
 31
0.0
  0
LINE
  5
56f
100
AcDbEntity
  8
0
 62
1
100
AcDbLine
 10
0.623106
 20
144.141970
 30
0.0
 11
0.537601
 21
144.057800
 31
0.0
  0
LINE
  5
570
100
AcDbEntity
  8
0
 62
1
100
AcDbLine
 10
0.537601
 20
144.057800
 30
0.0
 11
0.286429
 21
143.973631
 31
0.0
  0
LINE
  5
571
100
AcDbEntity
  8
0
 62
1
100
AcDbLine
 10
0.286429
 20
143.973631
 30
0.0
 11
-0.472432
 21
143.973631
 31
0.0
  0
LINE
  5
572
100
AcDbEntity
  8
0
 62
1
100
AcDbLine
 10
1.718644
 20
145.742524
 30
0.0
 11
1.045288
 21
143.973631
 31
0.0
  0
LINE
  5
573
100
AcDbEntity
  8
0
 62
1
100
AcDbLine
 10
1.718644
 20
145.742524
 30
0.0
 11
2.391999
 21
143.973631
 31
0.0
  0
LINE
  5
574
100
AcDbEntity
  8
0
 62
1
100
AcDbLine
 10
1.296461
 20
144.561481
 30
0.0
 11
2.140826
 21
144.561481
 31
0.0
  0
LINE
  5
575
100
AcDbEntity
  8
0
 62
1
100
AcDbLine
 10
3.907051
 20
145.488680
 30
0.0
 11
3.738712
 21
145.657019
 31
0.0
  0
LINE
  5
576
100
AcDbEntity
  8
0
 62
1
100
AcDbLine
 10
3.738712
 20
145.657019
 30
0.0
 11
3.484868
 21
145.742524
 31
0.0
  0
LINE
  5
577
100
AcDbEntity
  8
0
 62
1
100
AcDbLine
 10
3.484868
 20
145.742524
 30
0.0
 11
3.148190
 21
145.742524
 31
0.0
  0
LINE
  5
578
100
AcDbEntity
  8
0
 62
1
100
AcDbLine
 10
3.148190
 20
145.742524
 30
0.0
 11
2.897018
 21
145.657019
 31
0.0
  0
LINE
  5
579
100
AcDbEntity
  8
0
 62
1
100
AcDbLine
 10
2.897018
 20
145.657019
 30
0.0
 11
2.728679
 21
145.488680
 31
0.0
  0
LINE
  5
57a
100
AcDbEntity
  8
0
 62
1
100
AcDbLine
 10
2.728679
 20
145.488680
 30
0.0
 11
2.728679
 21
145.320341
 31
0.0
  0
LINE
  5
57b
100
AcDbEntity
  8
0
 62
1
100
AcDbLine
 10
2.728679
 20
145.320341
 30
0.0
 11
2.811513
 21
145.152002
 31
0.0
  0
LINE
  5
57c
100
AcDbEntity
  8
0
 62
1
100
AcDbLine
 10
2.811513
 20
145.152002
 30
0.0
 11
2.897018
 21
145.069169
 31
0.0
  0
LINE
  5
57d
100
AcDbEntity
  8
0
 62
1
100
AcDbLine
 10
2.897018
 20
145.069169
 30
0.0
 11
3.065357
 21
144.983663
 31
0.0
  0
LINE
  5
57e
100
AcDbEntity
  8
0
 62
1
100
AcDbLine
 10
3.065357
 20
144.983663
 30
0.0
 11
3.570373
 21
144.815325
 31
0.0
  0
LINE
  5
57f
100
AcDbEntity
  8
0
 62
1
100
AcDbLine
 10
3.570373
 20
144.815325
 30
0.0
 11
3.738712
 21
144.732491
 31
0.0
  0
LINE
  5
580
100
AcDbEntity
  8
0
 62
1
100
AcDbLine
 10
3.738712
 20
144.732491
 30
0.0
 11
3.821545
 21
144.646986
 31
0.0
  0
LINE
  5
581
100
AcDbEntity
  8
0
 62
1
100
AcDbLine
 10
3.821545
 20
144.646986
 30
0.0
 11
3.907051
 21
144.478647
 31
0.0
  0
LINE
  5
582
100
AcDbEntity
  8
0
 62
1
100
AcDbLine
 10
3.907051
 20
144.478647
 30
0.0
 11
3.907051
 21
144.226139
 31
0.0
  0
LINE
  5
583
100
AcDbEntity
  8
0
 62
1
100
AcDbLine
 10
3.907051
 20
144.226139
 30
0.0
 11
3.738712
 21
144.057800
 31
0.0
  0
LINE
  5
584
100
AcDbEntity
  8
0
 62
1
100
AcDbLine
 10
3.738712
 20
144.057800
 30
0.0
 11
3.484868
 21
143.973631
 31
0.0
  0
LINE
  5
585
100
AcDbEntity
  8
0
 62
1
100
AcDbLine
 10
3.484868
 20
143.973631
 30
0.0
 11
3.148190
 21
143.973631
 31
0.0
  0
LINE
  5
586
100
AcDbEntity
  8
0
 62
1
100
AcDbLine
 10
3.148190
 20
143.973631
 30
0.0
 11
2.897018
 21
144.057800
 31
0.0
  0
LINE
  5
587
100
AcDbEntity
  8
0
 62
1
100
AcDbLine
 10
2.897018
 20
144.057800
 30
0.0
 11
2.728679
 21
144.226139
 31
0.0
  0
LINE
  5
588
100
AcDbEntity
  8
0
 62
1
100
AcDbLine
 10
4.494895
 20
145.742524
 30
0.0
 11
4.494895
 21
143.973631
 31
0.0
  0
LINE
  5
589
100
AcDbEntity
  8
0
 62
1
100
AcDbLine
 10
4.494895
 20
145.742524
 30
0.0
 11
5.590433
 21
145.742524
 31
0.0
  0
LINE
  5
58a
100
AcDbEntity
  8
0
 62
1
100
AcDbLine
 10
4.494895
 20
144.898158
 30
0.0
 11
5.168250
 21
144.898158
 31
0.0
  0
LINE
  5
58b
100
AcDbEntity
  8
0
 62
1
100
AcDbLine
 10
4.494895
 20
143.973631
 30
0.0
 11
5.590433
 21
143.973631
 31
0.0
  0
LINE
  5
58c
100
AcDbEntity
  8
0
 62
1
100
AcDbLine
 10
-4.482227
 20
194.183692
 30
0.0
 11
-4.482227
 21
192.414799
 31
0.0
  0
LINE
  5
58d
100
AcDbEntity
  8
0
 62
1
100
AcDbLine
 10
-4.482227
 20
194.183692
 30
0.0
 11
-3.386690
 21
194.183692
 31
0.0
  0
LINE
  5
58e
100
AcDbEntity
  8
0
 62
1
100
AcDbLine
 10
-4.482227
 20
193.339326
 30
0.0
 11
-3.808872
 21
193.339326
 31
0.0
  0
LINE
  5
58f
100
AcDbEntity
  8
0
 62
1
100
AcDbLine
 10
-2.544992
 20
194.183692
 30
0.0
 11
-3.218347
 21
192.414799
 31
0.0
  0
LINE
  5
590
100
AcDbEntity
  8
0
 62
1
100
AcDbLine
 10
-2.544992
 20
194.183692
 30
0.0
 11
-1.871637
 21
192.414799
 31
0.0
  0
LINE
  5
591
100
AcDbEntity
  8
0
 62
1
100
AcDbLine
 10
-2.967175
 20
193.002648
 30
0.0
 11
-2.122810
 21
193.002648
 31
0.0
  0
LINE
  5
592
100
AcDbEntity
  8
0
 62
1
100
AcDbLine
 10
-0.271090
 20
193.761509
 30
0.0
 11
-0.356595
 21
193.929847
 31
0.0
  0
LINE
  5
593
100
AcDbEntity
  8
0
 62
1
100
AcDbLine
 10
-0.356595
 20
193.929847
 30
0.0
 11
-0.524934
 21
194.098186
 31
0.0
  0
LINE
  5
594
100
AcDbEntity
  8
0
 62
1
100
AcDbLine
 10
-0.524934
 20
194.098186
 30
0.0
 11
-0.693273
 21
194.183692
 31
0.0
  0
LINE
  5
595
100
AcDbEntity
  8
0
 62
1
100
AcDbLine
 10
-0.693273
 20
194.183692
 30
0.0
 11
-1.029950
 21
194.183692
 31
0.0
  0
LINE
  5
596
100
AcDbEntity
  8
0
 62
1
100
AcDbLine
 10
-1.029950
 20
194.183692
 30
0.0
 11
-1.198289
 21
194.098186
 31
0.0
  0
LINE
  5
597
100
AcDbEntity
  8
0
 62
1
100
AcDbLine
 10
-1.198289
 20
194.098186
 30
0.0
 11
-1.366628
 21
193.929847
 31
0.0
  0
LINE
  5
598
100
AcDbEntity
  8
0
 62
1
100
AcDbLine
 10
-1.366628
 20
193.929847
 30
0.0
 11
-1.452133
 21
193.761509
 31
0.0
  0
LINE
  5
599
100
AcDbEntity
  8
0
 62
1
100
AcDbLine
 10
-1.452133
 20
193.761509
 30
0.0
 11
-1.534967
 21
193.510337
 31
0.0
  0
LINE
  5
59a
100
AcDbEntity
  8
0
 62
1
100
AcDbLine
 10
-1.534967
 20
193.510337
 30
0.0
 11
-1.534967
 21
193.088154
 31
0.0
  0
LINE
  5
59b
100
AcDbEntity
  8
0
 62
1
100
AcDbLine
 10
-1.534967
 20
193.088154
 30
0.0
 11
-1.452133
 21
192.836981
 31
0.0
  0
LINE
  5
59c
100
AcDbEntity
  8
0
 62
1
100
AcDbLine
 10
-1.452133
 20
192.836981
 30
0.0
 11
-1.366628
 21
192.667307
 31
0.0
  0
LINE
  5
59d
100
AcDbEntity
  8
0
 62
1
100
AcDbLine
 10
-1.366628
 20
192.667307
 30
0.0
 11
-1.198289
 21
192.498968
 31
0.0
  0
LINE
  5
59e
100
AcDbEntity
  8
0
 62
1
100
AcDbLine
 10
-1.198289
 20
192.498968
 30
0.0
 11
-1.029950
 21
192.414799
 31
0.0
  0
LINE
  5
59f
100
AcDbEntity
  8
0
 62
1
100
AcDbLine
 10
-1.029950
 20
192.414799
 30
0.0
 11
-0.693273
 21
192.414799
 31
0.0
  0
LINE
  5
5a0
100
AcDbEntity
  8
0
 62
1
100
AcDbLine
 10
-0.693273
 20
192.414799
 30
0.0
 11
-0.524934
 21
192.498968
 31
0.0
  0
LINE
  5
5a1
100
AcDbEntity
  8
0
 62
1
100
AcDbLine
 10
-0.524934
 20
192.498968
 30
0.0
 11
-0.356595
 21
192.667307
 31
0.0
  0
LINE
  5
5a2
100
AcDbEntity
  8
0
 62
1
100
AcDbLine
 10
-0.356595
 20
192.667307
 30
0.0
 11
-0.271090
 21
192.836981
 31
0.0
  0
LINE
  5
5a3
100
AcDbEntity
  8
0
 62
1
100
AcDbLine
 10
0.316759
 20
194.183692
 30
0.0
 11
0.316759
 21
192.414799
 31
0.0
  0
LINE
  5
5a4
100
AcDbEntity
  8
0
 62
1
100
AcDbLine
 10
0.316759
 20
194.183692
 30
0.0
 11
1.412297
 21
194.183692
 31
0.0
  0
LINE
  5
5a5
100
AcDbEntity
  8
0
 62
1
100
AcDbLine
 10
0.316759
 20
193.339326
 30
0.0
 11
0.990114
 21
193.339326
 31
0.0
  0
LINE
  5
5a6
100
AcDbEntity
  8
0
 62
1
100
AcDbLine
 10
0.316759
 20
192.414799
 30
0.0
 11
1.412297
 21
192.414799
 31
0.0
  0
LINE
  5
5a7
100
AcDbEntity
  8
0
 62
1
100
AcDbLine
 10
2.924673
 20
194.183692
 30
0.0
 11
2.924673
 21
192.414799
 31
0.0
  0
LINE
  5
5a8
100
AcDbEntity
  8
0
 62
1
100
AcDbLine
 10
2.924673
 20
194.183692
 30
0.0
 11
3.515195
 21
194.183692
 31
0.0
  0
LINE
  5
5a9
100
AcDbEntity
  8
0
 62
1
100
AcDbLine
 10
3.515195
 20
194.183692
 30
0.0
 11
3.769039
 21
194.098186
 31
0.0
  0
LINE
  5
5aa
100
AcDbEntity
  8
0
 62
1
100
AcDbLine
 10
3.769039
 20
194.098186
 30
0.0
 11
3.934705
 21
193.929847
 31
0.0
  0
LINE
  5
5ab
100
AcDbEntity
  8
0
 62
1
100
AcDbLine
 10
3.934705
 20
193.929847
 30
0.0
 11
4.020211
 21
193.761509
 31
0.0
  0
LINE
  5
5ac
100
AcDbEntity
  8
0
 62
1
100
AcDbLine
 10
4.020211
 20
193.761509
 30
0.0
 11
4.105716
 21
193.510337
 31
0.0
  0
LINE
  5
5ad
100
AcDbEntity
  8
0
 62
1
100
AcDbLine
 10
4.105716
 20
193.510337
 30
0.0
 11
4.105716
 21
193.088154
 31
0.0
  0
LINE
  5
5ae
100
AcDbEntity
  8
0
 62
1
100
AcDbLine
 10
4.105716
 20
193.088154
 30
0.0
 11
4.020211
 21
192.836981
 31
0.0
  0
LINE
  5
5af
100
AcDbEntity
  8
0
 62
1
100
AcDbLine
 10
4.020211
 20
192.836981
 30
0.0
 11
3.934705
 21
192.667307
 31
0.0
  0
LINE
  5
5b0
100
AcDbEntity
  8
0
 62
1
100
AcDbLine
 10
3.934705
 20
192.667307
 30
0.0
 11
3.769039
 21
192.498968
 31
0.0
  0
LINE
  5
5b1
100
AcDbEntity
  8
0
 62
1
100
AcDbLine
 10
3.769039
 20
192.498968
 30
0.0
 11
3.515195
 21
192.414799
 31
0.0
  0
LINE
  5
5b2
100
AcDbEntity
  8
0
 62
1
100
AcDbLine
 10
3.515195
 20
192.414799
 30
0.0
 11
2.924673
 21
192.414799
 31
0.0
  0
LINE
  5
5b3
100
AcDbEntity
  8
0
 62
1
100
AcDbLine
 10
5.115758
 20
194.183692
 30
0.0
 11
4.947420
 21
194.098186
 31
0.0
  0
LINE
  5
5b4
100
AcDbEntity
  8
0
 62
1
100
AcDbLine
 10
4.947420
 20
194.098186
 30
0.0
 11
4.779081
 21
193.929847
 31
0.0
  0
LINE
  5
5b5
100
AcDbEntity
  8
0
 62
1
100
AcDbLine
 10
4.779081
 20
193.929847
 30
0.0
 11
4.693575
 21
193.761509
 31
0.0
  0
LINE
  5
5b6
100
AcDbEntity
  8
0
 62
1
100
AcDbLine
 10
4.693575
 20
193.761509
 30
0.0
 11
4.610742
 21
193.510337
 31
0.0
  0
LINE
  5
5b7
100
AcDbEntity
  8
0
 62
1
100
AcDbLine
 10
4.610742
 20
193.510337
 30
0.0
 11
4.610742
 21
193.088154
 31
0.0
  0
LINE
  5
5b8
100
AcDbEntity
  8
0
 62
1
100
AcDbLine
 10
4.610742
 20
193.088154
 30
0.0
 11
4.693575
 21
192.836981
 31
0.0
  0
LINE
  5
5b9
100
AcDbEntity
  8
0
 62
1
100
AcDbLine
 10
4.693575
 20
192.836981
 30
0.0
 11
4.779081
 21
192.667307
 31
0.0
  0
LINE
  5
5ba
100
AcDbEntity
  8
0
 62
1
100
AcDbLine
 10
4.779081
 20
192.667307
 30
0.0
 11
4.947420
 21
192.498968
 31
0.0
  0
LINE
  5
5bb
100
AcDbEntity
  8
0
 62
1
100
AcDbLine
 10
4.947420
 20
192.498968
 30
0.0
 11
5.115758
 21
192.414799
 31
0.0
  0
LINE
  5
5bc
100
AcDbEntity
  8
0
 62
1
100
AcDbLine
 10
5.115758
 20
192.414799
 30
0.0
 11
5.452436
 21
192.414799
 31
0.0
  0
LINE
  5
5bd
100
AcDbEntity
  8
0
 62
1
100
AcDbLine
 10
5.452436
 20
192.414799
 30
0.0
 11
5.620775
 21
192.498968
 31
0.0
  0
LINE
  5
5be
100
AcDbEntity
  8
0
 62
1
100
AcDbLine
 10
5.620775
 20
192.498968
 30
0.0
 11
5.789113
 21
192.667307
 31
0.0
  0
LINE
  5
5bf
100
AcDbEntity
  8
0
 62
1
100
AcDbLine
 10
5.789113
 20
192.667307
 30
0.0
 11
5.874619
 21
192.836981
 31
0.0
  0
LINE
  5
5c0
100
AcDbEntity
  8
0
 62
1
100
AcDbLine
 10
5.874619
 20
192.836981
 30
0.0
 11
5.957452
 21
193.088154
 31
0.0
  0
LINE
  5
5c1
100
AcDbEntity
  8
0
 62
1
100
AcDbLine
 10
5.957452
 20
193.088154
 30
0.0
 11
5.957452
 21
193.510337
 31
0.0
  0
LINE
  5
5c2
100
AcDbEntity
  8
0
 62
1
100
AcDbLine
 10
5.957452
 20
193.510337
 30
0.0
 11
5.874619
 21
193.761509
 31
0.0
  0
LINE
  5
5c3
100
AcDbEntity
  8
0
 62
1
100
AcDbLine
 10
5.874619
 20
193.761509
 30
0.0
 11
5.789113
 21
193.929847
 31
0.0
  0
LINE
  5
5c4
100
AcDbEntity
  8
0
 62
1
100
AcDbLine
 10
5.789113
 20
193.929847
 30
0.0
 11
5.620775
 21
194.098186
 31
0.0
  0
LINE
  5
5c5
100
AcDbEntity
  8
0
 62
1
100
AcDbLine
 10
5.620775
 20
194.098186
 30
0.0
 11
5.452436
 21
194.183692
 31
0.0
  0
LINE
  5
5c6
100
AcDbEntity
  8
0
 62
1
100
AcDbLine
 10
5.452436
 20
194.183692
 30
0.0
 11
5.115758
 21
194.183692
 31
0.0
  0
LINE
  5
5c7
100
AcDbEntity
  8
0
 62
1
100
AcDbLine
 10
6.379621
 20
194.183692
 30
0.0
 11
6.799132
 21
192.414799
 31
0.0
  0
LINE
  5
5c8
100
AcDbEntity
  8
0
 62
1
100
AcDbLine
 10
7.218643
 20
194.183692
 30
0.0
 11
6.799132
 21
192.414799
 31
0.0
  0
LINE
  5
5c9
100
AcDbEntity
  8
0
 62
1
100
AcDbLine
 10
7.218643
 20
194.183692
 30
0.0
 11
7.640826
 21
192.414799
 31
0.0
  0
LINE
  5
5ca
100
AcDbEntity
  8
0
 62
1
100
AcDbLine
 10
8.063009
 20
194.183692
 30
0.0
 11
7.640826
 21
192.414799
 31
0.0
  0
LINE
  5
5cb
100
AcDbEntity
  8
0
 62
1
100
AcDbLine
 10
8.565391
 20
194.183692
 30
0.0
 11
8.565391
 21
192.414799
 31
0.0
  0
LINE
  5
5cc
100
AcDbEntity
  8
0
 62
1
100
AcDbLine
 10
8.565391
 20
194.183692
 30
0.0
 11
9.746434
 21
192.414799
 31
0.0
  0
LINE
  5
5cd
100
AcDbEntity
  8
0
 62
1
100
AcDbLine
 10
9.746434
 20
194.183692
 30
0.0
 11
9.746434
 21
192.414799
 31
0.0
  0
ENDSEC
  0
SECTION
  2
OBJECTS
  0
DICTIONARY
  5
C
330
0
100
AcDbDictionary
  3
ACAD_GROUP
350
D
  3
ACAD_MLINESTYLE
350
17
  0
DICTIONARY
  5
D
330
C
100
AcDbDictionary
  0
DICTIONARY
  5
1A
330
C
100
AcDbDictionary
  0
DICTIONARY
  5
17
330
C
100
AcDbDictionary
  3
STANDARD
350
18
  0
DICTIONARY
  5
19
330
C
100
AcDbDictionary
  0
ENDSEC
  0
EOF
