  0
SECTION
  2
BLOCKS
  0
ENDSEC
  0
SECTION
  2
ENTITIES
  0
LINE
  8
0
 10
8.54999
 20
26.2
 11
14
 21
26.2
  0
LINE
  8
0
 10
14
 20
26.2
 11
14
 21
23.3
  0
LINE
  8
0
 10
14
 20
23.3
 11
24
 21
23.3
  0
LINE
  8
0
 10
24
 20
23.3
 11
24
 21
26.2
  0
LINE
  8
0
 10
24
 20
26.2
 11
26.55
 21
26.2
  0
LINE
  8
0
 10
26.55
 20
26.2
 11
26.55
 21
29.1
  0
LINE
  8
0
 10
26.55
 20
29.1
 11
26.5
 21
29.1
  0
LINE
  8
0
 10
26.5
 20
29.1
 11
26.5
 21
69.5
  0
LINE
  8
0
 10
26.5
 20
69.5
 11
29.4
 21
69.5
  0
LINE
  8
0
 10
29.4
 20
69.5
 11
29.4
 21
67.5
  0
LINE
  8
0
 10
29.4
 20
67.5
 11
32.3
 21
67.5
  0
LINE
  8
0
 10
32.3
 20
67.5
 11
32.3
 21
71.5
  0
LINE
  8
0
 10
32.3
 20
71.5
 11
32.2808
 21
71.6951
  0
LINE
  8
0
 10
32.2808
 20
71.6951
 11
32.2239
 21
71.8827
  0
LINE
  8
0
 10
32.2239
 20
71.8827
 11
32.1315
 21
72.0556
  0
LINE
  8
0
 10
32.1315
 20
72.0556
 11
32.0071
 21
72.2071
  0
LINE
  8
0
 10
32.0071
 20
72.2071
 11
31.8556
 21
72.3315
  0
LINE
  8
0
 10
31.8556
 20
72.3315
 11
31.6827
 21
72.4239
  0
LINE
  8
0
 10
31.6827
 20
72.4239
 11
31.4951
 21
72.4808
  0
LINE
  8
0
 10
31.4951
 20
72.4808
 11
31.3
 21
72.5
  0
LINE
  8
0
 10
31.3
 20
72.5
 11
26.5
 21
72.5
  0
LINE
  8
0
 10
26.5
 20
72.5
 11
23.5736
 21
72.2118
  0
LINE
  8
0
 10
23.5736
 20
72.2118
 11
20.7597
 21
71.3582
  0
LINE
  8
0
 10
20.7597
 20
71.3582
 11
18.1664
 21
69.972
  0
LINE
  8
0
 10
18.1664
 20
69.972
 11
15.8934
 21
68.1066
  0
LINE
  8
0
 10
15.8934
 20
68.1066
 11
14.028
 21
65.8336
  0
LINE
  8
0
 10
14.028
 20
65.8336
 11
12.6418
 21
63.2402
  0
LINE
  8
0
 10
12.6418
 20
63.2402
 11
11.7882
 21
60.4263
  0
LINE
  8
0
 10
11.7882
 20
60.4263
 11
11.5
 21
57.5
  0
LINE
  8
0
 10
11.5
 20
57.5
 11
11.5
 21
29.1
  0
LINE
  8
0
 10
11.5
 20
29.1
 11
8.54999
 21
29.1
  0
LINE
  8
0
 10
8.54999
 20
29.1
 11
8.54999
 21
26.2
  0
LINE
  8
0
 10
30.1173
 20
21.0761
 11
29.9444
 21
21.1685
  0
LINE
  8
0
 10
29.9444
 20
21.1685
 11
29.7929
 21
21.2929
  0
LINE
  8
0
 10
29.7929
 20
21.2929
 11
29.6685
 21
21.4444
  0
LINE
  8
0
 10
29.6685
 20
21.4444
 11
29.5761
 21
21.6173
  0
LINE
  8
0
 10
29.5761
 20
21.6173
 11
29.5192
 21
21.8049
  0
LINE
  8
0
 10
29.5192
 20
21.8049
 11
29.5
 21
22
  0
LINE
  8
0
 10
29.5
 20
22
 11
-29.5
 21
22
  0
LINE
  8
0
 10
-29.5
 20
22
 11
-29.5192
 21
21.8049
  0
LINE
  8
0
 10
-29.5192
 20
21.8049
 11
-29.5761
 21
21.6173
  0
LINE
  8
0
 10
-29.5761
 20
21.6173
 11
-29.6685
 21
21.4444
  0
LINE
  8
0
 10
-29.6685
 20
21.4444
 11
-29.7929
 21
21.2929
  0
LINE
  8
0
 10
-29.7929
 20
21.2929
 11
-29.9444
 21
21.1685
  0
LINE
  8
0
 10
-29.9444
 20
21.1685
 11
-30.1173
 21
21.0761
  0
LINE
  8
0
 10
-30.1173
 20
21.0761
 11
-30.3049
 21
21.0192
  0
LINE
  8
0
 10
-30.3049
 20
21.0192
 11
-30.5
 21
21
  0
LINE
  8
0
 10
-30.5
 20
21
 11
-30.6951
 21
21.0192
  0
LINE
  8
0
 10
-30.6951
 20
21.0192
 11
-30.8827
 21
21.0761
  0
LINE
  8
0
 10
-30.8827
 20
21.0761
 11
-31.0556
 21
21.1685
  0
LINE
  8
0
 10
-31.0556
 20
21.1685
 11
-31.2071
 21
21.2929
  0
LINE
  8
0
 10
-31.2071
 20
21.2929
 11
-31.3315
 21
21.4444
  0
LINE
  8
0
 10
-31.3315
 20
21.4444
 11
-31.4239
 21
21.6173
  0
LINE
  8
0
 10
-31.4239
 20
21.6173
 11
-31.4808
 21
21.8049
  0
LINE
  8
0
 10
-31.4808
 20
21.8049
 11
-31.5
 21
22
  0
LINE
  8
0
 10
-31.5
 20
22
 11
-37.5
 21
22
  0
LINE
  8
0
 10
-37.5
 20
22
 11
-38.2803
 21
21.9231
  0
LINE
  8
0
 10
-38.2803
 20
21.9231
 11
-39.0307
 21
21.6955
  0
LINE
  8
0
 10
-39.0307
 20
21.6955
 11
-39.7223
 21
21.3259
  0
LINE
  8
0
 10
-39.7223
 20
21.3259
 11
-40.3284
 21
20.8284
  0
LINE
  8
0
 10
-40.3284
 20
20.8284
 11
-40.8259
 21
20.2223
  0
LINE
  8
0
 10
-40.8259
 20
20.2223
 11
-41.1955
 21
19.5307
  0
LINE
  8
0
 10
-41.1955
 20
19.5307
 11
-41.4231
 21
18.7803
  0
LINE
  8
0
 10
-41.4231
 20
18.7803
 11
-41.5
 21
18
  0
LINE
  8
0
 10
-41.5
 20
18
 11
-41.5
 21
-18
  0
LINE
  8
0
 10
-41.5
 20
-18
 11
-41.4231
 21
-18.7803
  0
LINE
  8
0
 10
-41.4231
 20
-18.7803
 11
-41.1955
 21
-19.5307
  0
LINE
  8
0
 10
-41.1955
 20
-19.5307
 11
-40.8259
 21
-20.2223
  0
LINE
  8
0
 10
-40.8259
 20
-20.2223
 11
-40.3284
 21
-20.8284
  0
LINE
  8
0
 10
-40.3284
 20
-20.8284
 11
-39.7223
 21
-21.3259
  0
LINE
  8
0
 10
-39.7223
 20
-21.3259
 11
-39.0307
 21
-21.6955
  0
LINE
  8
0
 10
-39.0307
 20
-21.6955
 11
-38.2803
 21
-21.9231
  0
LINE
  8
0
 10
-38.2803
 20
-21.9231
 11
-37.5
 21
-22
  0
LINE
  8
0
 10
-37.5
 20
-22
 11
-31.5
 21
-22
  0
LINE
  8
0
 10
-31.5
 20
-22
 11
-31.4808
 21
-21.8049
  0
LINE
  8
0
 10
-31.4808
 20
-21.8049
 11
-31.4239
 21
-21.6173
  0
LINE
  8
0
 10
-31.4239
 20
-21.6173
 11
-31.3315
 21
-21.4444
  0
LINE
  8
0
 10
-31.3315
 20
-21.4444
 11
-31.2071
 21
-21.2929
  0
LINE
  8
0
 10
-31.2071
 20
-21.2929
 11
-31.0556
 21
-21.1685
  0
LINE
  8
0
 10
-31.0556
 20
-21.1685
 11
-30.8827
 21
-21.0761
  0
LINE
  8
0
 10
-30.8827
 20
-21.0761
 11
-30.6951
 21
-21.0192
  0
LINE
  8
0
 10
-30.6951
 20
-21.0192
 11
-30.5
 21
-21
  0
LINE
  8
0
 10
-30.5
 20
-21
 11
-30.3049
 21
-21.0192
  0
LINE
  8
0
 10
-30.3049
 20
-21.0192
 11
-30.1173
 21
-21.0761
  0
LINE
  8
0
 10
-30.1173
 20
-21.0761
 11
-29.9444
 21
-21.1685
  0
LINE
  8
0
 10
-29.9444
 20
-21.1685
 11
-29.7929
 21
-21.2929
  0
LINE
  8
0
 10
-29.7929
 20
-21.2929
 11
-29.6685
 21
-21.4444
  0
LINE
  8
0
 10
-29.6685
 20
-21.4444
 11
-29.5761
 21
-21.6173
  0
LINE
  8
0
 10
-29.5761
 20
-21.6173
 11
-29.5192
 21
-21.8049
  0
LINE
  8
0
 10
-29.5192
 20
-21.8049
 11
-29.5
 21
-22
  0
LINE
  8
0
 10
-29.5
 20
-22
 11
29.5
 21
-22
  0
LINE
  8
0
 10
29.5
 20
-22
 11
29.5192
 21
-21.8049
  0
LINE
  8
0
 10
29.5192
 20
-21.8049
 11
29.5761
 21
-21.6173
  0
LINE
  8
0
 10
29.5761
 20
-21.6173
 11
29.6685
 21
-21.4444
  0
LINE
  8
0
 10
29.6685
 20
-21.4444
 11
29.7929
 21
-21.2929
  0
LINE
  8
0
 10
29.7929
 20
-21.2929
 11
29.9444
 21
-21.1685
  0
LINE
  8
0
 10
29.9444
 20
-21.1685
 11
30.1173
 21
-21.0761
  0
LINE
  8
0
 10
30.1173
 20
-21.0761
 11
30.3049
 21
-21.0192
  0
LINE
  8
0
 10
30.3049
 20
-21.0192
 11
30.5
 21
-21
  0
LINE
  8
0
 10
30.5
 20
-21
 11
30.6951
 21
-21.0192
  0
LINE
  8
0
 10
30.6951
 20
-21.0192
 11
30.8827
 21
-21.0761
  0
LINE
  8
0
 10
30.8827
 20
-21.0761
 11
31.0556
 21
-21.1685
  0
LINE
  8
0
 10
31.0556
 20
-21.1685
 11
31.2071
 21
-21.2929
  0
LINE
  8
0
 10
31.2071
 20
-21.2929
 11
31.3315
 21
-21.4444
  0
LINE
  8
0
 10
31.3315
 20
-21.4444
 11
31.4239
 21
-21.6173
  0
LINE
  8
0
 10
31.4239
 20
-21.6173
 11
31.4808
 21
-21.8049
  0
LINE
  8
0
 10
31.4808
 20
-21.8049
 11
31.5
 21
-22
  0
LINE
  8
0
 10
31.5
 20
-22
 11
37.5
 21
-22
  0
LINE
  8
0
 10
37.5
 20
-22
 11
38.2803
 21
-21.9231
  0
LINE
  8
0
 10
38.2803
 20
-21.9231
 11
39.0307
 21
-21.6955
  0
LINE
  8
0
 10
39.0307
 20
-21.6955
 11
39.7223
 21
-21.3259
  0
LINE
  8
0
 10
39.7223
 20
-21.3259
 11
40.3284
 21
-20.8284
  0
LINE
  8
0
 10
40.3284
 20
-20.8284
 11
40.8259
 21
-20.2223
  0
LINE
  8
0
 10
40.8259
 20
-20.2223
 11
41.1955
 21
-19.5307
  0
LINE
  8
0
 10
41.1955
 20
-19.5307
 11
41.4231
 21
-18.7803
  0
LINE
  8
0
 10
41.4231
 20
-18.7803
 11
41.5
 21
-18
  0
LINE
  8
0
 10
41.5
 20
-18
 11
41.5
 21
18
  0
LINE
  8
0
 10
41.5
 20
18
 11
41.4231
 21
18.7803
  0
LINE
  8
0
 10
41.4231
 20
18.7803
 11
41.1955
 21
19.5307
  0
LINE
  8
0
 10
41.1955
 20
19.5307
 11
40.8259
 21
20.2223
  0
LINE
  8
0
 10
40.8259
 20
20.2223
 11
40.3284
 21
20.8284
  0
LINE
  8
0
 10
40.3284
 20
20.8284
 11
39.7223
 21
21.3259
  0
LINE
  8
0
 10
39.7223
 20
21.3259
 11
39.0307
 21
21.6955
  0
LINE
  8
0
 10
39.0307
 20
21.6955
 11
38.2803
 21
21.9231
  0
LINE
  8
0
 10
38.2803
 20
21.9231
 11
37.5
 21
22
  0
LINE
  8
0
 10
37.5
 20
22
 11
31.5
 21
22
  0
LINE
  8
0
 10
31.5
 20
22
 11
31.4808
 21
21.8049
  0
LINE
  8
0
 10
31.4808
 20
21.8049
 11
31.4239
 21
21.6173
  0
LINE
  8
0
 10
31.4239
 20
21.6173
 11
31.3315
 21
21.4444
  0
LINE
  8
0
 10
31.3315
 20
21.4444
 11
31.2071
 21
21.2929
  0
LINE
  8
0
 10
31.2071
 20
21.2929
 11
31.0556
 21
21.1685
  0
LINE
  8
0
 10
31.0556
 20
21.1685
 11
30.8827
 21
21.0761
  0
LINE
  8
0
 10
30.8827
 20
21.0761
 11
30.6951
 21
21.0192
  0
LINE
  8
0
 10
30.6951
 20
21.0192
 11
30.5
 21
21
  0
LINE
  8
0
 10
30.5
 20
21
 11
30.3049
 21
21.0192
  0
LINE
  8
0
 10
30.3049
 20
21.0192
 11
30.1173
 21
21.0761
  0
LINE
  8
0
 10
17.4327
 20
10.6828
 11
17.5
 21
10
  0
LINE
  8
0
 10
17.5
 20
10
 11
17.4327
 21
9.31717
  0
LINE
  8
0
 10
17.4327
 20
9.31717
 11
17.2336
 21
8.6606
  0
LINE
  8
0
 10
17.2336
 20
8.6606
 11
16.9101
 21
8.0555
  0
LINE
  8
0
 10
16.9101
 20
8.0555
 11
16.4749
 21
7.52512
  0
LINE
  8
0
 10
16.4749
 20
7.52512
 11
16.45
 21
7.5047
  0
LINE
  8
0
 10
16.45
 20
7.5047
 11
16.45
 21
6.89999
  0
LINE
  8
0
 10
16.45
 20
6.89999
 11
22
 21
6.89999
  0
LINE
  8
0
 10
22
 20
6.89999
 11
22
 21
1.09999
  0
LINE
  8
0
 10
22
 20
1.09999
 11
16.45
 21
1.09999
  0
LINE
  8
0
 10
16.45
 20
1.09999
 11
16.45
 21
-13.9
  0
LINE
  8
0
 10
16.45
 20
-13.9
 11
13.55
 21
-13.9
  0
LINE
  8
0
 10
13.55
 20
-13.9
 11
13.55
 21
-3.2
  0
LINE
  8
0
 10
13.55
 20
-3.2
 11
9.29999
 21
-3.2
  0
LINE
  8
0
 10
9.29999
 20
-3.2
 11
9.29999
 21
-1.84999
  0
LINE
  8
0
 10
9.29999
 20
-1.84999
 11
-13.55
 21
-1.84999
  0
LINE
  8
0
 10
-13.55
 20
-1.84999
 11
-13.55
 21
-13.9
  0
LINE
  8
0
 10
-13.55
 20
-13.9
 11
-16.45
 21
-13.9
  0
LINE
  8
0
 10
-16.45
 20
-13.9
 11
-16.45
 21
1.09999
  0
LINE
  8
0
 10
-16.45
 20
1.09999
 11
-22
 21
1.09999
  0
LINE
  8
0
 10
-22
 20
1.09999
 11
-22
 21
6.89999
  0
LINE
  8
0
 10
-22
 20
6.89999
 11
-16.45
 21
6.89999
  0
LINE
  8
0
 10
-16.45
 20
6.89999
 11
-16.45
 21
7.5047
  0
LINE
  8
0
 10
-16.45
 20
7.5047
 11
-16.4749
 21
7.52512
  0
LINE
  8
0
 10
-16.4749
 20
7.52512
 11
-16.9101
 21
8.0555
  0
LINE
  8
0
 10
-16.9101
 20
8.0555
 11
-17.2336
 21
8.6606
  0
LINE
  8
0
 10
-17.2336
 20
8.6606
 11
-17.4327
 21
9.31717
  0
LINE
  8
0
 10
-17.4327
 20
9.31717
 11
-17.5
 21
10
  0
LINE
  8
0
 10
-17.5
 20
10
 11
-17.4327
 21
10.6828
  0
LINE
  8
0
 10
-17.4327
 20
10.6828
 11
-17.2336
 21
11.3394
  0
LINE
  8
0
 10
-17.2336
 20
11.3394
 11
-16.9101
 21
11.9445
  0
LINE
  8
0
 10
-16.9101
 20
11.9445
 11
-16.4749
 21
12.4749
  0
LINE
  8
0
 10
-16.4749
 20
12.4749
 11
-15.9445
 21
12.9101
  0
LINE
  8
0
 10
-15.9445
 20
12.9101
 11
-15.3394
 21
13.2336
  0
LINE
  8
0
 10
-15.3394
 20
13.2336
 11
-14.6828
 21
13.4327
  0
LINE
  8
0
 10
-14.6828
 20
13.4327
 11
-14
 21
13.5
  0
LINE
  8
0
 10
-14
 20
13.5
 11
14
 21
13.5
  0
LINE
  8
0
 10
14
 20
13.5
 11
14.6828
 21
13.4327
  0
LINE
  8
0
 10
14.6828
 20
13.4327
 11
15.3394
 21
13.2336
  0
LINE
  8
0
 10
15.3394
 20
13.2336
 11
15.9445
 21
12.9101
  0
LINE
  8
0
 10
15.9445
 20
12.9101
 11
16.4749
 21
12.4749
  0
LINE
  8
0
 10
16.4749
 20
12.4749
 11
16.9101
 21
11.9445
  0
LINE
  8
0
 10
16.9101
 20
11.9445
 11
17.2336
 21
11.3394
  0
LINE
  8
0
 10
17.2336
 20
11.3394
 11
17.4327
 21
10.6828
  0
LINE
  8
0
 10
29.5192
 20
-68.1951
 11
29.5
 21
-68
  0
LINE
  8
0
 10
29.5
 20
-68
 11
-29.5
 21
-68
  0
LINE
  8
0
 10
-29.5
 20
-68
 11
-29.5192
 21
-68.1951
  0
LINE
  8
0
 10
-29.5192
 20
-68.1951
 11
-29.5761
 21
-68.3827
  0
LINE
  8
0
 10
-29.5761
 20
-68.3827
 11
-29.6685
 21
-68.5556
  0
LINE
  8
0
 10
-29.6685
 20
-68.5556
 11
-29.7929
 21
-68.7071
  0
LINE
  8
0
 10
-29.7929
 20
-68.7071
 11
-29.9444
 21
-68.8315
  0
LINE
  8
0
 10
-29.9444
 20
-68.8315
 11
-30.1173
 21
-68.9239
  0
LINE
  8
0
 10
-30.1173
 20
-68.9239
 11
-30.3049
 21
-68.9808
  0
LINE
  8
0
 10
-30.3049
 20
-68.9808
 11
-30.5
 21
-69
  0
LINE
  8
0
 10
-30.5
 20
-69
 11
-30.6951
 21
-68.9808
  0
LINE
  8
0
 10
-30.6951
 20
-68.9808
 11
-30.8827
 21
-68.9239
  0
LINE
  8
0
 10
-30.8827
 20
-68.9239
 11
-31.0556
 21
-68.8315
  0
LINE
  8
0
 10
-31.0556
 20
-68.8315
 11
-31.2071
 21
-68.7071
  0
LINE
  8
0
 10
-31.2071
 20
-68.7071
 11
-31.3315
 21
-68.5556
  0
LINE
  8
0
 10
-31.3315
 20
-68.5556
 11
-31.4239
 21
-68.3827
  0
LINE
  8
0
 10
-31.4239
 20
-68.3827
 11
-31.4808
 21
-68.1951
  0
LINE
  8
0
 10
-31.4808
 20
-68.1951
 11
-31.5
 21
-68
  0
LINE
  8
0
 10
-31.5
 20
-68
 11
-37.5
 21
-68
  0
LINE
  8
0
 10
-37.5
 20
-68
 11
-38.2803
 21
-68.0769
  0
LINE
  8
0
 10
-38.2803
 20
-68.0769
 11
-39.0307
 21
-68.3045
  0
LINE
  8
0
 10
-39.0307
 20
-68.3045
 11
-39.7223
 21
-68.6741
  0
LINE
  8
0
 10
-39.7223
 20
-68.6741
 11
-40.3284
 21
-69.1716
  0
LINE
  8
0
 10
-40.3284
 20
-69.1716
 11
-40.8259
 21
-69.7777
  0
LINE
  8
0
 10
-40.8259
 20
-69.7777
 11
-41.1955
 21
-70.4693
  0
LINE
  8
0
 10
-41.1955
 20
-70.4693
 11
-41.4231
 21
-71.2196
  0
LINE
  8
0
 10
-41.4231
 20
-71.2196
 11
-41.5
 21
-72
  0
LINE
  8
0
 10
-41.5
 20
-72
 11
-41.5
 21
-108
  0
LINE
  8
0
 10
-41.5
 20
-108
 11
-41.4231
 21
-108.78
  0
LINE
  8
0
 10
-41.4231
 20
-108.78
 11
-41.1955
 21
-109.531
  0
LINE
  8
0
 10
-41.1955
 20
-109.531
 11
-40.8259
 21
-110.222
  0
LINE
  8
0
 10
-40.8259
 20
-110.222
 11
-40.3284
 21
-110.828
  0
LINE
  8
0
 10
-40.3284
 20
-110.828
 11
-39.7223
 21
-111.326
  0
LINE
  8
0
 10
-39.7223
 20
-111.326
 11
-39.0307
 21
-111.696
  0
LINE
  8
0
 10
-39.0307
 20
-111.696
 11
-38.2803
 21
-111.923
  0
LINE
  8
0
 10
-38.2803
 20
-111.923
 11
-37.5
 21
-112
  0
LINE
  8
0
 10
-37.5
 20
-112
 11
-31.5
 21
-112
  0
LINE
  8
0
 10
-31.5
 20
-112
 11
-31.4808
 21
-111.805
  0
LINE
  8
0
 10
-31.4808
 20
-111.805
 11
-31.4239
 21
-111.617
  0
LINE
  8
0
 10
-31.4239
 20
-111.617
 11
-31.3315
 21
-111.444
  0
LINE
  8
0
 10
-31.3315
 20
-111.444
 11
-31.2071
 21
-111.293
  0
LINE
  8
0
 10
-31.2071
 20
-111.293
 11
-31.0556
 21
-111.169
  0
LINE
  8
0
 10
-31.0556
 20
-111.169
 11
-30.8827
 21
-111.076
  0
LINE
  8
0
 10
-30.8827
 20
-111.076
 11
-30.6951
 21
-111.019
  0
LINE
  8
0
 10
-30.6951
 20
-111.019
 11
-30.5
 21
-111
  0
LINE
  8
0
 10
-30.5
 20
-111
 11
-30.3049
 21
-111.019
  0
LINE
  8
0
 10
-30.3049
 20
-111.019
 11
-30.1173
 21
-111.076
  0
LINE
  8
0
 10
-30.1173
 20
-111.076
 11
-29.9444
 21
-111.169
  0
LINE
  8
0
 10
-29.9444
 20
-111.169
 11
-29.7929
 21
-111.293
  0
LINE
  8
0
 10
-29.7929
 20
-111.293
 11
-29.6685
 21
-111.444
  0
LINE
  8
0
 10
-29.6685
 20
-111.444
 11
-29.5761
 21
-111.617
  0
LINE
  8
0
 10
-29.5761
 20
-111.617
 11
-29.5192
 21
-111.805
  0
LINE
  8
0
 10
-29.5192
 20
-111.805
 11
-29.5
 21
-112
  0
LINE
  8
0
 10
-29.5
 20
-112
 11
29.5
 21
-112
  0
LINE
  8
0
 10
29.5
 20
-112
 11
29.5192
 21
-111.805
  0
LINE
  8
0
 10
29.5192
 20
-111.805
 11
29.5761
 21
-111.617
  0
LINE
  8
0
 10
29.5761
 20
-111.617
 11
29.6685
 21
-111.444
  0
LINE
  8
0
 10
29.6685
 20
-111.444
 11
29.7929
 21
-111.293
  0
LINE
  8
0
 10
29.7929
 20
-111.293
 11
29.9444
 21
-111.169
  0
LINE
  8
0
 10
29.9444
 20
-111.169
 11
30.1173
 21
-111.076
  0
LINE
  8
0
 10
30.1173
 20
-111.076
 11
30.3049
 21
-111.019
  0
LINE
  8
0
 10
30.3049
 20
-111.019
 11
30.5
 21
-111
  0
LINE
  8
0
 10
30.5
 20
-111
 11
30.6951
 21
-111.019
  0
LINE
  8
0
 10
30.6951
 20
-111.019
 11
30.8827
 21
-111.076
  0
LINE
  8
0
 10
30.8827
 20
-111.076
 11
31.0556
 21
-111.169
  0
LINE
  8
0
 10
31.0556
 20
-111.169
 11
31.2071
 21
-111.293
  0
LINE
  8
0
 10
31.2071
 20
-111.293
 11
31.3315
 21
-111.444
  0
LINE
  8
0
 10
31.3315
 20
-111.444
 11
31.4239
 21
-111.617
  0
LINE
  8
0
 10
31.4239
 20
-111.617
 11
31.4808
 21
-111.805
  0
LINE
  8
0
 10
31.4808
 20
-111.805
 11
31.5
 21
-112
  0
LINE
  8
0
 10
31.5
 20
-112
 11
37.5
 21
-112
  0
LINE
  8
0
 10
37.5
 20
-112
 11
38.2803
 21
-111.923
  0
LINE
  8
0
 10
38.2803
 20
-111.923
 11
39.0307
 21
-111.696
  0
LINE
  8
0
 10
39.0307
 20
-111.696
 11
39.7223
 21
-111.326
  0
LINE
  8
0
 10
39.7223
 20
-111.326
 11
40.3284
 21
-110.828
  0
LINE
  8
0
 10
40.3284
 20
-110.828
 11
40.8259
 21
-110.222
  0
LINE
  8
0
 10
40.8259
 20
-110.222
 11
41.1955
 21
-109.531
  0
LINE
  8
0
 10
41.1955
 20
-109.531
 11
41.4231
 21
-108.78
  0
LINE
  8
0
 10
41.4231
 20
-108.78
 11
41.5
 21
-108
  0
LINE
  8
0
 10
41.5
 20
-108
 11
41.5
 21
-72
  0
LINE
  8
0
 10
41.5
 20
-72
 11
41.4231
 21
-71.2196
  0
LINE
  8
0
 10
41.4231
 20
-71.2196
 11
41.1955
 21
-70.4693
  0
LINE
  8
0
 10
41.1955
 20
-70.4693
 11
40.8259
 21
-69.7777
  0
LINE
  8
0
 10
40.8259
 20
-69.7777
 11
40.3284
 21
-69.1716
  0
LINE
  8
0
 10
40.3284
 20
-69.1716
 11
39.7223
 21
-68.6741
  0
LINE
  8
0
 10
39.7223
 20
-68.6741
 11
39.0307
 21
-68.3045
  0
LINE
  8
0
 10
39.0307
 20
-68.3045
 11
38.2803
 21
-68.0769
  0
LINE
  8
0
 10
38.2803
 20
-68.0769
 11
37.5
 21
-68
  0
LINE
  8
0
 10
37.5
 20
-68
 11
31.5
 21
-68
  0
LINE
  8
0
 10
31.5
 20
-68
 11
31.4808
 21
-68.1951
  0
LINE
  8
0
 10
31.4808
 20
-68.1951
 11
31.4239
 21
-68.3827
  0
LINE
  8
0
 10
31.4239
 20
-68.3827
 11
31.3315
 21
-68.5556
  0
LINE
  8
0
 10
31.3315
 20
-68.5556
 11
31.2071
 21
-68.7071
  0
LINE
  8
0
 10
31.2071
 20
-68.7071
 11
31.0556
 21
-68.8315
  0
LINE
  8
0
 10
31.0556
 20
-68.8315
 11
30.8827
 21
-68.9239
  0
LINE
  8
0
 10
30.8827
 20
-68.9239
 11
30.6951
 21
-68.9808
  0
LINE
  8
0
 10
30.6951
 20
-68.9808
 11
30.5
 21
-69
  0
LINE
  8
0
 10
30.5
 20
-69
 11
30.3049
 21
-68.9808
  0
LINE
  8
0
 10
30.3049
 20
-68.9808
 11
30.1173
 21
-68.9239
  0
LINE
  8
0
 10
30.1173
 20
-68.9239
 11
29.9444
 21
-68.8315
  0
LINE
  8
0
 10
29.9444
 20
-68.8315
 11
29.7929
 21
-68.7071
  0
LINE
  8
0
 10
29.7929
 20
-68.7071
 11
29.6685
 21
-68.5556
  0
LINE
  8
0
 10
29.6685
 20
-68.5556
 11
29.5761
 21
-68.3827
  0
LINE
  8
0
 10
29.5761
 20
-68.3827
 11
29.5192
 21
-68.1951
  0
LINE
  8
0
 10
-22
 20
-88.9
 11
-22
 21
-83.1
  0
LINE
  8
0
 10
-22
 20
-83.1
 11
22
 21
-83.1
  0
LINE
  8
0
 10
22
 20
-83.1
 11
22
 21
-88.9
  0
LINE
  8
0
 10
22
 20
-88.9
 11
-22
 21
-88.9
  0
LINE
  8
0
 10
13.55
 20
-101.4
 11
13.55
 21
-91.4
  0
LINE
  8
0
 10
13.55
 20
-91.4
 11
16.45
 21
-91.4
  0
LINE
  8
0
 10
16.45
 20
-91.4
 11
16.45
 21
-101.4
  0
LINE
  8
0
 10
16.45
 20
-101.4
 11
13.55
 21
-101.4
  0
LINE
  8
0
 10
-16.45
 20
-101.4
 11
-16.45
 21
-91.4
  0
LINE
  8
0
 10
-16.45
 20
-91.4
 11
-13.55
 21
-91.4
  0
LINE
  8
0
 10
-13.55
 20
-91.4
 11
-13.55
 21
-101.4
  0
LINE
  8
0
 10
-13.55
 20
-101.4
 11
-16.45
 21
-101.4
  0
LINE
  8
0
 10
29.7
 20
23
 11
29.7
 21
26
  0
LINE
  8
0
 10
29.7
 20
26
 11
32.6
 21
26
  0
LINE
  8
0
 10
32.6
 20
26
 11
32.6
 21
23
  0
LINE
  8
0
 10
32.6
 20
23
 11
36.5
 21
23
  0
LINE
  8
0
 10
36.5
 20
23
 11
37.2803
 21
23.0769
  0
LINE
  8
0
 10
37.2803
 20
23.0769
 11
38.0307
 21
23.3045
  0
LINE
  8
0
 10
38.0307
 20
23.3045
 11
38.7223
 21
23.6741
  0
LINE
  8
0
 10
38.7223
 20
23.6741
 11
39.3284
 21
24.1716
  0
LINE
  8
0
 10
39.3284
 20
24.1716
 11
39.8259
 21
24.7777
  0
LINE
  8
0
 10
39.8259
 20
24.7777
 11
40.1955
 21
25.4693
  0
LINE
  8
0
 10
40.1955
 20
25.4693
 11
40.3117
 21
25.8522
  0
LINE
  8
0
 10
40.3117
 20
25.8522
 11
39.6609
 21
26.2
  0
LINE
  8
0
 10
39.6609
 20
26.2
 11
42
 21
26.2
  0
LINE
  8
0
 10
42
 20
26.2
 11
42
 21
23.3
  0
LINE
  8
0
 10
42
 20
23.3
 11
52
 21
23.3
  0
LINE
  8
0
 10
52
 20
23.3
 11
52
 21
26.2
  0
LINE
  8
0
 10
52
 20
26.2
 11
57.45
 21
26.2
  0
LINE
  8
0
 10
57.45
 20
26.2
 11
57.45
 21
29.1
  0
LINE
  8
0
 10
57.45
 20
29.1
 11
54.5
 21
29.1
  0
LINE
  8
0
 10
54.5
 20
29.1
 11
54.5
 21
57.5
  0
LINE
  8
0
 10
54.5
 20
57.5
 11
54.2118
 21
60.4263
  0
LINE
  8
0
 10
54.2118
 20
60.4263
 11
53.3582
 21
63.2402
  0
LINE
  8
0
 10
53.3582
 20
63.2402
 11
51.972
 21
65.8336
  0
LINE
  8
0
 10
51.972
 20
65.8336
 11
50.1066
 21
68.1066
  0
LINE
  8
0
 10
50.1066
 20
68.1066
 11
47.8335
 21
69.972
  0
LINE
  8
0
 10
47.8335
 20
69.972
 11
45.2402
 21
71.3582
  0
LINE
  8
0
 10
45.2402
 20
71.3582
 11
42.4263
 21
72.2118
  0
LINE
  8
0
 10
42.4263
 20
72.2118
 11
39.5
 21
72.5
  0
LINE
  8
0
 10
39.5
 20
72.5
 11
34.7
 21
72.5
  0
LINE
  8
0
 10
34.7
 20
72.5
 11
34.5049
 21
72.4808
  0
LINE
  8
0
 10
34.5049
 20
72.4808
 11
34.3173
 21
72.4239
  0
LINE
  8
0
 10
34.3173
 20
72.4239
 11
34.1444
 21
72.3315
  0
LINE
  8
0
 10
34.1444
 20
72.3315
 11
33.9929
 21
72.2071
  0
LINE
  8
0
 10
33.9929
 20
72.2071
 11
33.8685
 21
72.0556
  0
LINE
  8
0
 10
33.8685
 20
72.0556
 11
33.7761
 21
71.8827
  0
LINE
  8
0
 10
33.7761
 20
71.8827
 11
33.7192
 21
71.6951
  0
LINE
  8
0
 10
33.7192
 20
71.6951
 11
33.7
 21
71.5
  0
LINE
  8
0
 10
33.7
 20
71.5
 11
33.7
 21
67.5
  0
LINE
  8
0
 10
33.7
 20
67.5
 11
36.6
 21
67.5
  0
LINE
  8
0
 10
36.6
 20
67.5
 11
36.6
 21
69.5
  0
LINE
  8
0
 10
36.6
 20
69.5
 11
39.5
 21
69.5
  0
LINE
  8
0
 10
39.5
 20
69.5
 11
39.5
 21
65.9
  0
LINE
  8
0
 10
39.5
 20
65.9
 11
43
 21
65.9
  0
LINE
  8
0
 10
43
 20
65.9
 11
43
 21
59.9
  0
LINE
  8
0
 10
43
 20
59.9
 11
44
 21
59.9
  0
LINE
  8
0
 10
44
 20
59.9
 11
44
 21
38.9
  0
LINE
  8
0
 10
44
 20
38.9
 11
39.5
 21
38.9
  0
LINE
  8
0
 10
39.5
 20
38.9
 11
39.5
 21
29.1
  0
LINE
  8
0
 10
39.5
 20
29.1
 11
39.45
 21
29.1
  0
LINE
  8
0
 10
39.45
 20
29.1
 11
39.45
 21
26.3127
  0
LINE
  8
0
 10
39.45
 20
26.3127
 11
39.3888
 21
26.3454
  0
LINE
  8
0
 10
39.3888
 20
26.3454
 11
38.4038
 21
27.1538
  0
LINE
  8
0
 10
38.4038
 20
27.1538
 11
37.5954
 21
28.1388
  0
LINE
  8
0
 10
37.5954
 20
28.1388
 11
36.9948
 21
29.2626
  0
LINE
  8
0
 10
36.9948
 20
29.2626
 11
36.6249
 21
30.4819
  0
LINE
  8
0
 10
36.6249
 20
30.4819
 11
36.5
 21
31.75
  0
LINE
  8
0
 10
36.5
 20
31.75
 11
36.5
 21
58.25
  0
LINE
  8
0
 10
36.5
 20
58.25
 11
36.6249
 21
59.5181
  0
LINE
  8
0
 10
36.6249
 20
59.5181
 11
36.9948
 21
60.7374
  0
LINE
  8
0
 10
36.9948
 20
60.7374
 11
37.5954
 21
61.8612
  0
LINE
  8
0
 10
37.5954
 20
61.8612
 11
38.4038
 21
62.8462
  0
LINE
  8
0
 10
38.4038
 20
62.8462
 11
39.3888
 21
63.6545
  0
LINE
  8
0
 10
39.3888
 20
63.6545
 11
40.3117
 21
64.1478
  0
LINE
  8
0
 10
40.3117
 20
64.1478
 11
40.1955
 21
64.5307
  0
LINE
  8
0
 10
40.1955
 20
64.5307
 11
39.8259
 21
65.2223
  0
LINE
  8
0
 10
39.8259
 20
65.2223
 11
39.3284
 21
65.8284
  0
LINE
  8
0
 10
39.3284
 20
65.8284
 11
38.7223
 21
66.3259
  0
LINE
  8
0
 10
38.7223
 20
66.3259
 11
38.0307
 21
66.6955
  0
LINE
  8
0
 10
38.0307
 20
66.6955
 11
37.2803
 21
66.9231
  0
LINE
  8
0
 10
37.2803
 20
66.9231
 11
36.5
 21
67
  0
LINE
  8
0
 10
36.5
 20
67
 11
32.6
 21
67
  0
LINE
  8
0
 10
32.6
 20
67
 11
32.6
 21
64
  0
LINE
  8
0
 10
32.6
 20
64
 11
29.7
 21
64
  0
LINE
  8
0
 10
29.7
 20
64
 11
29.7
 21
67
  0
LINE
  8
0
 10
29.7
 20
67
 11
26.8
 21
67
  0
LINE
  8
0
 10
26.8
 20
67
 11
26.8
 21
23
  0
LINE
  8
0
 10
26.8
 20
23
 11
29.7
 21
23
  0
LINE
  8
0
 10
32.6
 20
38
 11
29.7
 21
38
  0
LINE
  8
0
 10
29.7
 20
38
 11
29.7
 21
52
  0
LINE
  8
0
 10
29.7
 20
52
 11
32.6
 21
52
  0
LINE
  8
0
 10
32.6
 20
52
 11
32.6
 21
38
  0
LINE
  8
0
 10
-41.3473
 20
31.45
 11
-38
 21
31.45
  0
LINE
  8
0
 10
-38
 20
31.45
 11
-38
 21
28.55
  0
LINE
  8
0
 10
-38
 20
28.55
 11
-40.4057
 21
28.55
  0
LINE
  8
0
 10
-40.4057
 20
28.55
 11
-39.8147
 21
27.4443
  0
LINE
  8
0
 10
-39.8147
 20
27.4443
 11
-38.5711
 21
25.9289
  0
LINE
  8
0
 10
-38.5711
 20
25.9289
 11
-37.0557
 21
24.6853
  0
LINE
  8
0
 10
-37.0557
 20
24.6853
 11
-35.3268
 21
23.7612
  0
LINE
  8
0
 10
-35.3268
 20
23.7612
 11
-33.4509
 21
23.1921
  0
LINE
  8
0
 10
-33.4509
 20
23.1921
 11
-31.5
 21
23
  0
LINE
  8
0
 10
-31.5
 20
23
 11
2.39999
 21
23
  0
LINE
  8
0
 10
2.39999
 20
23
 11
2.39999
 21
26
  0
LINE
  8
0
 10
2.39999
 20
26
 11
5.29999
 21
26
  0
LINE
  8
0
 10
5.29999
 20
26
 11
5.29999
 21
23
  0
LINE
  8
0
 10
5.29999
 20
23
 11
8.2
 21
23
  0
LINE
  8
0
 10
8.2
 20
23
 11
8.2
 21
67
  0
LINE
  8
0
 10
8.2
 20
67
 11
5.29999
 21
67
  0
LINE
  8
0
 10
5.29999
 20
67
 11
5.29999
 21
64
  0
LINE
  8
0
 10
5.29999
 20
64
 11
2.39999
 21
64
  0
LINE
  8
0
 10
2.39999
 20
64
 11
2.39999
 21
67
  0
LINE
  8
0
 10
2.39999
 20
67
 11
-31.5
 21
67
  0
LINE
  8
0
 10
-31.5
 20
67
 11
-33.4509
 21
66.8078
  0
LINE
  8
0
 10
-33.4509
 20
66.8078
 11
-35.3268
 21
66.2388
  0
LINE
  8
0
 10
-35.3268
 20
66.2388
 11
-37.0557
 21
65.3147
  0
LINE
  8
0
 10
-37.0557
 20
65.3147
 11
-38.5711
 21
64.0711
  0
LINE
  8
0
 10
-38.5711
 20
64.0711
 11
-39.8147
 21
62.5557
  0
LINE
  8
0
 10
-39.8147
 20
62.5557
 11
-40.4057
 21
61.45
  0
LINE
  8
0
 10
-40.4057
 20
61.45
 11
-38
 21
61.45
  0
LINE
  8
0
 10
-38
 20
61.45
 11
-38
 21
58.55
  0
LINE
  8
0
 10
-38
 20
58.55
 11
-41.3473
 21
58.55
  0
LINE
  8
0
 10
-41.3473
 20
58.55
 11
-41.5
 21
57
  0
LINE
  8
0
 10
-41.5
 20
57
 11
-41.5
 21
33
  0
LINE
  8
0
 10
-41.5
 20
33
 11
-41.3473
 21
31.45
  0
LINE
  8
0
 10
-24.3291
 20
42.1299
 11
-24.7559
 21
43.5368
  0
LINE
  8
0
 10
-24.7559
 20
43.5368
 11
-24.9
 21
45
  0
LINE
  8
0
 10
-24.9
 20
45
 11
-24.7559
 21
46.4632
  0
LINE
  8
0
 10
-24.7559
 20
46.4632
 11
-24.3291
 21
47.8701
  0
LINE
  8
0
 10
-24.3291
 20
47.8701
 11
-23.636
 21
49.1668
  0
LINE
  8
0
 10
-23.636
 20
49.1668
 11
-22.7033
 21
50.3033
  0
LINE
  8
0
 10
-22.7033
 20
50.3033
 11
-21.5668
 21
51.236
  0
LINE
  8
0
 10
-21.5668
 20
51.236
 11
-20.2701
 21
51.9291
  0
LINE
  8
0
 10
-20.2701
 20
51.9291
 11
-18.8632
 21
52.3559
  0
LINE
  8
0
 10
-18.8632
 20
52.3559
 11
-17.4
 21
52.5
  0
LINE
  8
0
 10
-17.4
 20
52.5
 11
-15.9368
 21
52.3559
  0
LINE
  8
0
 10
-15.9368
 20
52.3559
 11
-14.5299
 21
51.9291
  0
LINE
  8
0
 10
-14.5299
 20
51.9291
 11
-13.2332
 21
51.236
  0
LINE
  8
0
 10
-13.2332
 20
51.236
 11
-12.0967
 21
50.3033
  0
LINE
  8
0
 10
-12.0967
 20
50.3033
 11
-11.164
 21
49.1668
  0
LINE
  8
0
 10
-11.164
 20
49.1668
 11
-10.4709
 21
47.8701
  0
LINE
  8
0
 10
-10.4709
 20
47.8701
 11
-10.0441
 21
46.4632
  0
LINE
  8
0
 10
-10.0441
 20
46.4632
 11
-9.89999
 21
45
  0
LINE
  8
0
 10
-9.89999
 20
45
 11
-10.0441
 21
43.5368
  0
LINE
  8
0
 10
-10.0441
 20
43.5368
 11
-10.4709
 21
42.1299
  0
LINE
  8
0
 10
-10.4709
 20
42.1299
 11
-11.164
 21
40.8332
  0
LINE
  8
0
 10
-11.164
 20
40.8332
 11
-12.0967
 21
39.6967
  0
LINE
  8
0
 10
-12.0967
 20
39.6967
 11
-13.2332
 21
38.764
  0
LINE
  8
0
 10
-13.2332
 20
38.764
 11
-14.5299
 21
38.0709
  0
LINE
  8
0
 10
-14.5299
 20
38.0709
 11
-15.9368
 21
37.6441
  0
LINE
  8
0
 10
-15.9368
 20
37.6441
 11
-17.4
 21
37.5
  0
LINE
  8
0
 10
-17.4
 20
37.5
 11
-18.8632
 21
37.6441
  0
LINE
  8
0
 10
-18.8632
 20
37.6441
 11
-20.2701
 21
38.0709
  0
LINE
  8
0
 10
-20.2701
 20
38.0709
 11
-21.5668
 21
38.764
  0
LINE
  8
0
 10
-21.5668
 20
38.764
 11
-22.7033
 21
39.6967
  0
LINE
  8
0
 10
-22.7033
 20
39.6967
 11
-23.636
 21
40.8332
  0
LINE
  8
0
 10
-23.636
 20
40.8332
 11
-24.3291
 21
42.1299
  0
LINE
  8
0
 10
2.39999
 20
38
 11
2.39999
 21
52
  0
LINE
  8
0
 10
2.39999
 20
52
 11
5.29999
 21
52
  0
LINE
  8
0
 10
5.29999
 20
52
 11
5.29999
 21
38
  0
LINE
  8
0
 10
5.29999
 20
38
 11
2.39999
 21
38
  0
LINE
  8
0
 10
-7.48216
 20
30.9196
 11
-7.65144
 21
30.3615
  0
LINE
  8
0
 10
-7.65144
 20
30.3615
 11
-7.92638
 21
29.8472
  0
LINE
  8
0
 10
-7.92638
 20
29.8472
 11
-8.29636
 21
29.3963
  0
LINE
  8
0
 10
-8.29636
 20
29.3963
 11
-8.74718
 21
29.0264
  0
LINE
  8
0
 10
-8.74718
 20
29.0264
 11
-9.26151
 21
28.7514
  0
LINE
  8
0
 10
-9.26151
 20
28.7514
 11
-9.8196
 21
28.5822
  0
LINE
  8
0
 10
-9.8196
 20
28.5822
 11
-10.4
 21
28.525
  0
LINE
  8
0
 10
-10.4
 20
28.525
 11
-25.9
 21
28.525
  0
LINE
  8
0
 10
-25.9
 20
28.525
 11
-25.9
 21
28.775
  0
LINE
  8
0
 10
-25.9
 20
28.775
 11
-33.9
 21
28.775
  0
LINE
  8
0
 10
-33.9
 20
28.775
 11
-33.9
 21
34.225
  0
LINE
  8
0
 10
-33.9
 20
34.225
 11
-25.9
 21
34.225
  0
LINE
  8
0
 10
-25.9
 20
34.225
 11
-25.9
 21
34.475
  0
LINE
  8
0
 10
-25.9
 20
34.475
 11
-10.4
 21
34.475
  0
LINE
  8
0
 10
-10.4
 20
34.475
 11
-9.8196
 21
34.4178
  0
LINE
  8
0
 10
-9.8196
 20
34.4178
 11
-9.26151
 21
34.2485
  0
LINE
  8
0
 10
-9.26151
 20
34.2485
 11
-8.74718
 21
33.9736
  0
LINE
  8
0
 10
-8.74718
 20
33.9736
 11
-8.29636
 21
33.6036
  0
LINE
  8
0
 10
-8.29636
 20
33.6036
 11
-7.92638
 21
33.1528
  0
LINE
  8
0
 10
-7.92638
 20
33.1528
 11
-7.65144
 21
32.6385
  0
LINE
  8
0
 10
-7.65144
 20
32.6385
 11
-7.48216
 21
32.0804
  0
LINE
  8
0
 10
-7.48216
 20
32.0804
 11
-7.42499
 21
31.5
  0
LINE
  8
0
 10
-7.42499
 20
31.5
 11
-7.48216
 21
30.9196
  0
LINE
  8
0
 10
29.5
 20
-67
 11
29.5192
 21
-66.8049
  0
LINE
  8
0
 10
29.5192
 20
-66.8049
 11
29.5761
 21
-66.6173
  0
LINE
  8
0
 10
29.5761
 20
-66.6173
 11
29.6685
 21
-66.4444
  0
LINE
  8
0
 10
29.6685
 20
-66.4444
 11
29.7929
 21
-66.2929
  0
LINE
  8
0
 10
29.7929
 20
-66.2929
 11
29.9444
 21
-66.1685
  0
LINE
  8
0
 10
29.9444
 20
-66.1685
 11
30.1173
 21
-66.0761
  0
LINE
  8
0
 10
30.1173
 20
-66.0761
 11
30.3049
 21
-66.0192
  0
LINE
  8
0
 10
30.3049
 20
-66.0192
 11
30.5
 21
-66
  0
LINE
  8
0
 10
30.5
 20
-66
 11
30.6951
 21
-66.0192
  0
LINE
  8
0
 10
30.6951
 20
-66.0192
 11
30.8827
 21
-66.0761
  0
LINE
  8
0
 10
30.8827
 20
-66.0761
 11
31.0556
 21
-66.1685
  0
LINE
  8
0
 10
31.0556
 20
-66.1685
 11
31.2071
 21
-66.2929
  0
LINE
  8
0
 10
31.2071
 20
-66.2929
 11
31.3315
 21
-66.4444
  0
LINE
  8
0
 10
31.3315
 20
-66.4444
 11
31.4239
 21
-66.6173
  0
LINE
  8
0
 10
31.4239
 20
-66.6173
 11
31.4808
 21
-66.8049
  0
LINE
  8
0
 10
31.4808
 20
-66.8049
 11
31.5
 21
-67
  0
LINE
  8
0
 10
31.5
 20
-67
 11
37.5
 21
-67
  0
LINE
  8
0
 10
37.5
 20
-67
 11
38.2803
 21
-66.9231
  0
LINE
  8
0
 10
38.2803
 20
-66.9231
 11
39.0307
 21
-66.6955
  0
LINE
  8
0
 10
39.0307
 20
-66.6955
 11
39.7223
 21
-66.3259
  0
LINE
  8
0
 10
39.7223
 20
-66.3259
 11
40.3284
 21
-65.8284
  0
LINE
  8
0
 10
40.3284
 20
-65.8284
 11
40.8259
 21
-65.2223
  0
LINE
  8
0
 10
40.8259
 20
-65.2223
 11
41.1955
 21
-64.5307
  0
LINE
  8
0
 10
41.1955
 20
-64.5307
 11
41.4231
 21
-63.7803
  0
LINE
  8
0
 10
41.4231
 20
-63.7803
 11
41.5
 21
-63
  0
LINE
  8
0
 10
41.5
 20
-63
 11
41.5
 21
-27
  0
LINE
  8
0
 10
41.5
 20
-27
 11
41.4231
 21
-26.2196
  0
LINE
  8
0
 10
41.4231
 20
-26.2196
 11
41.1955
 21
-25.4693
  0
LINE
  8
0
 10
41.1955
 20
-25.4693
 11
40.8259
 21
-24.7777
  0
LINE
  8
0
 10
40.8259
 20
-24.7777
 11
40.3284
 21
-24.1716
  0
LINE
  8
0
 10
40.3284
 20
-24.1716
 11
39.7223
 21
-23.6741
  0
LINE
  8
0
 10
39.7223
 20
-23.6741
 11
39.0307
 21
-23.3045
  0
LINE
  8
0
 10
39.0307
 20
-23.3045
 11
38.2803
 21
-23.0769
  0
LINE
  8
0
 10
38.2803
 20
-23.0769
 11
37.5
 21
-23
  0
LINE
  8
0
 10
37.5
 20
-23
 11
31.5
 21
-23
  0
LINE
  8
0
 10
31.5
 20
-23
 11
31.4808
 21
-23.1951
  0
LINE
  8
0
 10
31.4808
 20
-23.1951
 11
31.4239
 21
-23.3827
  0
LINE
  8
0
 10
31.4239
 20
-23.3827
 11
31.3315
 21
-23.5556
  0
LINE
  8
0
 10
31.3315
 20
-23.5556
 11
31.2071
 21
-23.7071
  0
LINE
  8
0
 10
31.2071
 20
-23.7071
 11
31.0556
 21
-23.8315
  0
LINE
  8
0
 10
31.0556
 20
-23.8315
 11
30.8827
 21
-23.9239
  0
LINE
  8
0
 10
30.8827
 20
-23.9239
 11
30.6951
 21
-23.9808
  0
LINE
  8
0
 10
30.6951
 20
-23.9808
 11
30.5
 21
-24
  0
LINE
  8
0
 10
30.5
 20
-24
 11
30.3049
 21
-23.9808
  0
LINE
  8
0
 10
30.3049
 20
-23.9808
 11
30.1173
 21
-23.9239
  0
LINE
  8
0
 10
30.1173
 20
-23.9239
 11
29.9444
 21
-23.8315
  0
LINE
  8
0
 10
29.9444
 20
-23.8315
 11
29.7929
 21
-23.7071
  0
LINE
  8
0
 10
29.7929
 20
-23.7071
 11
29.6685
 21
-23.5556
  0
LINE
  8
0
 10
29.6685
 20
-23.5556
 11
29.5761
 21
-23.3827
  0
LINE
  8
0
 10
29.5761
 20
-23.3827
 11
29.5192
 21
-23.1951
  0
LINE
  8
0
 10
29.5192
 20
-23.1951
 11
29.5
 21
-23
  0
LINE
  8
0
 10
29.5
 20
-23
 11
-29.5
 21
-23
  0
LINE
  8
0
 10
-29.5
 20
-23
 11
-29.5192
 21
-23.1951
  0
LINE
  8
0
 10
-29.5192
 20
-23.1951
 11
-29.5761
 21
-23.3827
  0
LINE
  8
0
 10
-29.5761
 20
-23.3827
 11
-29.6685
 21
-23.5556
  0
LINE
  8
0
 10
-29.6685
 20
-23.5556
 11
-29.7929
 21
-23.7071
  0
LINE
  8
0
 10
-29.7929
 20
-23.7071
 11
-29.9444
 21
-23.8315
  0
LINE
  8
0
 10
-29.9444
 20
-23.8315
 11
-30.1173
 21
-23.9239
  0
LINE
  8
0
 10
-30.1173
 20
-23.9239
 11
-30.3049
 21
-23.9808
  0
LINE
  8
0
 10
-30.3049
 20
-23.9808
 11
-30.5
 21
-24
  0
LINE
  8
0
 10
-30.5
 20
-24
 11
-30.6951
 21
-23.9808
  0
LINE
  8
0
 10
-30.6951
 20
-23.9808
 11
-30.8827
 21
-23.9239
  0
LINE
  8
0
 10
-30.8827
 20
-23.9239
 11
-31.0556
 21
-23.8315
  0
LINE
  8
0
 10
-31.0556
 20
-23.8315
 11
-31.2071
 21
-23.7071
  0
LINE
  8
0
 10
-31.2071
 20
-23.7071
 11
-31.3315
 21
-23.5556
  0
LINE
  8
0
 10
-31.3315
 20
-23.5556
 11
-31.4239
 21
-23.3827
  0
LINE
  8
0
 10
-31.4239
 20
-23.3827
 11
-31.4808
 21
-23.1951
  0
LINE
  8
0
 10
-31.4808
 20
-23.1951
 11
-31.5
 21
-23
  0
LINE
  8
0
 10
-31.5
 20
-23
 11
-37.5
 21
-23
  0
LINE
  8
0
 10
-37.5
 20
-23
 11
-38.2803
 21
-23.0769
  0
LINE
  8
0
 10
-38.2803
 20
-23.0769
 11
-39.0307
 21
-23.3045
  0
LINE
  8
0
 10
-39.0307
 20
-23.3045
 11
-39.7223
 21
-23.6741
  0
LINE
  8
0
 10
-39.7223
 20
-23.6741
 11
-40.3284
 21
-24.1716
  0
LINE
  8
0
 10
-40.3284
 20
-24.1716
 11
-40.8259
 21
-24.7777
  0
LINE
  8
0
 10
-40.8259
 20
-24.7777
 11
-41.1955
 21
-25.4693
  0
LINE
  8
0
 10
-41.1955
 20
-25.4693
 11
-41.4231
 21
-26.2196
  0
LINE
  8
0
 10
-41.4231
 20
-26.2196
 11
-41.5
 21
-27
  0
LINE
  8
0
 10
-41.5
 20
-27
 11
-41.5
 21
-63
  0
LINE
  8
0
 10
-41.5
 20
-63
 11
-41.4231
 21
-63.7803
  0
LINE
  8
0
 10
-41.4231
 20
-63.7803
 11
-41.1955
 21
-64.5307
  0
LINE
  8
0
 10
-41.1955
 20
-64.5307
 11
-40.8259
 21
-65.2223
  0
LINE
  8
0
 10
-40.8259
 20
-65.2223
 11
-40.3284
 21
-65.8284
  0
LINE
  8
0
 10
-40.3284
 20
-65.8284
 11
-39.7223
 21
-66.3259
  0
LINE
  8
0
 10
-39.7223
 20
-66.3259
 11
-39.0307
 21
-66.6955
  0
LINE
  8
0
 10
-39.0307
 20
-66.6955
 11
-38.2803
 21
-66.9231
  0
LINE
  8
0
 10
-38.2803
 20
-66.9231
 11
-37.5
 21
-67
  0
LINE
  8
0
 10
-37.5
 20
-67
 11
-31.5
 21
-67
  0
LINE
  8
0
 10
-31.5
 20
-67
 11
-31.4808
 21
-66.8049
  0
LINE
  8
0
 10
-31.4808
 20
-66.8049
 11
-31.4239
 21
-66.6173
  0
LINE
  8
0
 10
-31.4239
 20
-66.6173
 11
-31.3315
 21
-66.4444
  0
LINE
  8
0
 10
-31.3315
 20
-66.4444
 11
-31.2071
 21
-66.2929
  0
LINE
  8
0
 10
-31.2071
 20
-66.2929
 11
-31.0556
 21
-66.1685
  0
LINE
  8
0
 10
-31.0556
 20
-66.1685
 11
-30.8827
 21
-66.0761
  0
LINE
  8
0
 10
-30.8827
 20
-66.0761
 11
-30.6951
 21
-66.0192
  0
LINE
  8
0
 10
-30.6951
 20
-66.0192
 11
-30.5
 21
-66
  0
LINE
  8
0
 10
-30.5
 20
-66
 11
-30.3049
 21
-66.0192
  0
LINE
  8
0
 10
-30.3049
 20
-66.0192
 11
-30.1173
 21
-66.0761
  0
LINE
  8
0
 10
-30.1173
 20
-66.0761
 11
-29.9444
 21
-66.1685
  0
LINE
  8
0
 10
-29.9444
 20
-66.1685
 11
-29.7929
 21
-66.2929
  0
LINE
  8
0
 10
-29.7929
 20
-66.2929
 11
-29.6685
 21
-66.4444
  0
LINE
  8
0
 10
-29.6685
 20
-66.4444
 11
-29.5761
 21
-66.6173
  0
LINE
  8
0
 10
-29.5761
 20
-66.6173
 11
-29.5192
 21
-66.8049
  0
LINE
  8
0
 10
-29.5192
 20
-66.8049
 11
-29.5
 21
-67
  0
LINE
  8
0
 10
-29.5
 20
-67
 11
-1.5
 21
-67
  0
LINE
  8
0
 10
-1.5
 20
-67
 11
-1.5
 21
-53
  0
LINE
  8
0
 10
-1.5
 20
-53
 11
-1.34627
 21
-51.4393
  0
LINE
  8
0
 10
-1.34627
 20
-51.4393
 11
-0.891022
 21
-49.9385
  0
LINE
  8
0
 10
-0.891022
 20
-49.9385
 11
-0.151749
 21
-48.5554
  0
LINE
  8
0
 10
-0.151749
 20
-48.5554
 11
0.84314
 21
-47.3431
  0
LINE
  8
0
 10
0.84314
 20
-47.3431
 11
2.05544
 21
-46.3482
  0
LINE
  8
0
 10
2.05544
 20
-46.3482
 11
3.43852
 21
-45.609
  0
LINE
  8
0
 10
3.43852
 20
-45.609
 11
4.93927
 21
-45.1537
  0
LINE
  8
0
 10
4.93927
 20
-45.1537
 11
6.5
 21
-45
  0
LINE
  8
0
 10
6.5
 20
-45
 11
10.5
 21
-45
  0
LINE
  8
0
 10
10.5
 20
-45
 11
10.5
 21
-48
  0
LINE
  8
0
 10
10.5
 20
-48
 11
6.5
 21
-48
  0
LINE
  8
0
 10
6.5
 20
-48
 11
5.52454
 21
-48.0961
  0
LINE
  8
0
 10
5.52454
 20
-48.0961
 11
4.58658
 21
-48.3806
  0
LINE
  8
0
 10
4.58658
 20
-48.3806
 11
3.72214
 21
-48.8427
  0
LINE
  8
0
 10
3.72214
 20
-48.8427
 11
2.96446
 21
-49.4645
  0
LINE
  8
0
 10
2.96446
 20
-49.4645
 11
2.34265
 21
-50.2221
  0
LINE
  8
0
 10
2.34265
 20
-50.2221
 11
1.8806
 21
-51.0866
  0
LINE
  8
0
 10
1.8806
 20
-51.0866
 11
1.59607
 21
-52.0245
  0
LINE
  8
0
 10
1.59607
 20
-52.0245
 11
1.5
 21
-53
  0
LINE
  8
0
 10
1.5
 20
-53
 11
1.5
 21
-67
  0
LINE
  8
0
 10
1.5
 20
-67
 11
29.5
 21
-67
  0
LINE
  8
0
 10
7
 20
-43.9
 11
7
 21
-38.5
  0
LINE
  8
0
 10
7
 20
-38.5
 11
-7
 21
-38.5
  0
LINE
  8
0
 10
-7
 20
-38.5
 11
-7
 21
-43.9
  0
LINE
  8
0
 10
-7
 20
-43.9
 11
-13.55
 21
-43.9
  0
LINE
  8
0
 10
-13.55
 20
-43.9
 11
-13.55
 21
-61.85
  0
LINE
  8
0
 10
-13.55
 20
-61.85
 11
-16.45
 21
-61.85
  0
LINE
  8
0
 10
-16.45
 20
-61.85
 11
-16.45
 21
-43.9
  0
LINE
  8
0
 10
-16.45
 20
-43.9
 11
-19
 21
-43.9
  0
LINE
  8
0
 10
-19
 20
-43.9
 11
-19
 21
-38.1
  0
LINE
  8
0
 10
-19
 20
-38.1
 11
-22
 21
-38.1
  0
LINE
  8
0
 10
-22
 20
-38.1
 11
-22
 21
-35.2
  0
LINE
  8
0
 10
-22
 20
-35.2
 11
-17.4803
 21
-35.2
  0
LINE
  8
0
 10
-17.4803
 20
-35.2
 11
-17.5
 21
-35
  0
LINE
  8
0
 10
-17.5
 20
-35
 11
-17.4327
 21
-34.3172
  0
LINE
  8
0
 10
-17.4327
 20
-34.3172
 11
-17.2336
 21
-33.6606
  0
LINE
  8
0
 10
-17.2336
 20
-33.6606
 11
-16.9101
 21
-33.0555
  0
LINE
  8
0
 10
-16.9101
 20
-33.0555
 11
-16.4749
 21
-32.5251
  0
LINE
  8
0
 10
-16.4749
 20
-32.5251
 11
-15.9445
 21
-32.0898
  0
LINE
  8
0
 10
-15.9445
 20
-32.0898
 11
-15.3394
 21
-31.7664
  0
LINE
  8
0
 10
-15.3394
 20
-31.7664
 11
-14.6828
 21
-31.5672
  0
LINE
  8
0
 10
-14.6828
 20
-31.5672
 11
-14
 21
-31.5
  0
LINE
  8
0
 10
-14
 20
-31.5
 11
14
 21
-31.5
  0
LINE
  8
0
 10
14
 20
-31.5
 11
14.6828
 21
-31.5672
  0
LINE
  8
0
 10
14.6828
 20
-31.5672
 11
15.3394
 21
-31.7664
  0
LINE
  8
0
 10
15.3394
 20
-31.7664
 11
15.9445
 21
-32.0898
  0
LINE
  8
0
 10
15.9445
 20
-32.0898
 11
16.4749
 21
-32.5251
  0
LINE
  8
0
 10
16.4749
 20
-32.5251
 11
16.9101
 21
-33.0555
  0
LINE
  8
0
 10
16.9101
 20
-33.0555
 11
17.2336
 21
-33.6606
  0
LINE
  8
0
 10
17.2336
 20
-33.6606
 11
17.4327
 21
-34.3172
  0
LINE
  8
0
 10
17.4327
 20
-34.3172
 11
17.5
 21
-35
  0
LINE
  8
0
 10
17.5
 20
-35
 11
17.4803
 21
-35.2
  0
LINE
  8
0
 10
17.4803
 20
-35.2
 11
22
 21
-35.2
  0
LINE
  8
0
 10
22
 20
-35.2
 11
22
 21
-38.1
  0
LINE
  8
0
 10
22
 20
-38.1
 11
19
 21
-38.1
  0
LINE
  8
0
 10
19
 20
-38.1
 11
19
 21
-43.9
  0
LINE
  8
0
 10
19
 20
-43.9
 11
16.45
 21
-43.9
  0
LINE
  8
0
 10
16.45
 20
-43.9
 11
16.45
 21
-61.85
  0
LINE
  8
0
 10
16.45
 20
-61.85
 11
13.55
 21
-61.85
  0
LINE
  8
0
 10
13.55
 20
-61.85
 11
13.55
 21
-43.9
  0
LINE
  8
0
 10
13.55
 20
-43.9
 11
7
 21
-43.9
  0
ENDSEC
  0
SECTION
  2
OBJECTS
  0
DICTIONARY
  0
ENDSEC
  0
EOF
