%
M48
M72
T01C0.0197
T02C0.0350
T03C0.0400
%
T01
X1651Y1751
X2651Y851
X4451Y2551
X4201Y2881
X4431Y3761
X3651Y4451
X2451Y4751
X1751Y5251
X1011Y5611
X1021Y6411
X1441Y6531
X2011Y6531
X2401Y6551
X2321Y7121
X3131Y6331
X4221Y5929
X5991Y5441
X6091Y6001
X6501Y6091
X6871Y6261
X6661Y6611
X6871Y6931
X6551Y7201
X6961Y7701
X6631Y7971
X6881Y8481
X7881Y8851
X8111Y8511
X7941Y9431
X6651Y9551
X5551Y9591
X5551Y10051
X5551Y10451
X5511Y11111
X4921Y11601
X5251Y12051
X4481Y12361
X3731Y11761
X3491Y11271
X3501Y10881
X3241Y10581
X3621Y10251
X3231Y9841
X4061Y9681
X4211Y9331
X4471Y9041
X3911Y9061
X3171Y8911
X2061Y8721
X1451Y9551
X2151Y9751
X1451Y11251
X1251Y11751
X1941Y11761
X751Y12451
X3101Y12511
X3351Y14151
X3651Y15551
X5361Y14271
X5151Y13851
X6471Y14111
X6611Y13751
X6561Y13351
X7121Y13111
X7271Y12701
X7321Y13611
X8241Y11991
X9641Y11881
X9811Y11531
X8661Y10431
X10151Y9071
X9721Y8251
X9951Y7651
X9761Y7071
X9751Y6051
X9941Y5391
X10451Y5051
X9771Y5021
X9151Y4421
X9361Y4021
X10511Y4121
X10861Y4351
X10731Y2781
X11641Y1991
X12751Y1951
X13651Y2951
X14751Y3051
X15751Y3051
X15891Y3831
X15241Y4341
X14851Y4051
X14051Y4351
X16801Y3641
X17651Y4551
X18651Y4651
X15651Y1951
X14751Y1951
X16691Y1621
X8851Y1751
X8541Y2061
X6911Y2661
X6551Y2991
X7271Y3271
X7651Y4051
X7351Y4851
X8651Y5551
X7991Y6991
X7401Y7431
X5551Y9051
X4661Y9671
X4561Y7881
X4181Y7791
X841Y8011
X1041Y4561
X1451Y4561
X1451Y3531
X1051Y3531
X2751Y3187
X2751Y2851
X5511Y3221
X5641Y1911
X10551Y13251
X10651Y14451
X10651Y14851
X18651Y15751
X1691Y15491
X721Y14651
T02
X1810Y12377
X1810Y9228
T03
X1151Y1151
X2151Y1151
X3151Y1151
X4151Y1151
X5151Y1151
X6151Y1151
X7151Y1151
X8151Y1151
X9151Y1151
X10151Y1151
X11151Y1151
X12151Y1151
X13151Y1151
X14151Y1151
X15151Y1151
X16151Y1151
X17151Y1151
X18151Y1151
X19151Y1151
X20151Y1151
X20151Y2151
X19151Y2151
X18151Y2151
X17151Y2151
X17151Y3151
X18151Y3151
X19151Y3151
X20151Y3151
X20151Y4151
X19151Y4151
X18151Y4151
X17151Y4151
X17151Y5151
X16151Y5151
X15151Y5151
X14151Y5151
X13151Y5151
X12151Y5151
X11151Y5151
X11151Y6151
X12151Y6151
X13151Y6151
X14151Y6151
X15151Y6151
X16151Y6151
X17151Y6151
X18151Y6151
X19151Y6151
X20151Y6151
X20151Y5151
X19151Y5151
X18151Y5151
X19151Y7151
X20151Y7151
X20151Y8151
X19151Y8151
X19151Y9151
X20151Y9151
X20151Y10151
X19151Y10151
X19151Y11151
X20151Y11151
X20151Y12151
X19151Y12151
X19151Y13151
X18151Y13151
X17151Y13151
X16151Y13151
X15151Y13151
X14151Y13151
X13151Y13151
X12151Y13151
X11151Y13151
X11151Y14151
X12151Y14151
X13151Y14151
X14151Y14151
X15151Y14151
X16151Y14151
X17151Y14151
X18151Y14151
X19151Y14151
X20151Y14151
X20151Y13151
X20151Y15151
X19151Y15151
X18151Y15151
X17151Y15151
X16151Y15151
X15151Y15151
X14151Y15151
X13151Y15151
X12151Y15151
X11151Y15151
X10151Y15151
X9151Y15151
X8151Y15151
X7151Y15151
X6151Y15151
X5151Y15151
X4151Y15151
X3151Y15151
X2151Y15151
X1151Y15151
X7151Y14151
X8151Y14151
X9151Y14151
X9151Y13151
X9151Y12151
X9151Y11151
X9151Y10151
X9151Y9151
X9151Y8151
X9151Y7151
X9151Y6151
X9151Y5151
M30
