G75*
G70*
%OFA0B0*%
%FSLAX24Y24*%
%IPPOS*%
%LPD*%
%AMOC8*
5,1,8,0,0,1.08239X$1,22.5*
%
%ADD10C,0.0000*%
D10*
X000151Y000151D02*
X000151Y016021D01*
X021143Y016021D01*
X021143Y000151D01*
X021143Y000151D01*
X000151Y000151D01*
X001635Y009228D02*
X001637Y009254D01*
X001643Y009280D01*
X001652Y009304D01*
X001665Y009327D01*
X001682Y009347D01*
X001701Y009365D01*
X001723Y009380D01*
X001746Y009391D01*
X001771Y009399D01*
X001797Y009403D01*
X001823Y009403D01*
X001849Y009399D01*
X001874Y009391D01*
X001898Y009380D01*
X001919Y009365D01*
X001938Y009347D01*
X001955Y009327D01*
X001968Y009304D01*
X001977Y009280D01*
X001983Y009254D01*
X001985Y009228D01*
X001983Y009202D01*
X001977Y009176D01*
X001968Y009152D01*
X001955Y009129D01*
X001938Y009109D01*
X001919Y009091D01*
X001897Y009076D01*
X001874Y009065D01*
X001849Y009057D01*
X001823Y009053D01*
X001797Y009053D01*
X001771Y009057D01*
X001746Y009065D01*
X001722Y009076D01*
X001701Y009091D01*
X001682Y009109D01*
X001665Y009129D01*
X001652Y009152D01*
X001643Y009176D01*
X001637Y009202D01*
X001635Y009228D01*
X001635Y012377D02*
X001637Y012403D01*
X001643Y012429D01*
X001652Y012453D01*
X001665Y012476D01*
X001682Y012496D01*
X001701Y012514D01*
X001723Y012529D01*
X001746Y012540D01*
X001771Y012548D01*
X001797Y012552D01*
X001823Y012552D01*
X001849Y012548D01*
X001874Y012540D01*
X001898Y012529D01*
X001919Y012514D01*
X001938Y012496D01*
X001955Y012476D01*
X001968Y012453D01*
X001977Y012429D01*
X001983Y012403D01*
X001985Y012377D01*
X001983Y012351D01*
X001977Y012325D01*
X001968Y012301D01*
X001955Y012278D01*
X001938Y012258D01*
X001919Y012240D01*
X001897Y012225D01*
X001874Y012214D01*
X001849Y012206D01*
X001823Y012202D01*
X001797Y012202D01*
X001771Y012206D01*
X001746Y012214D01*
X001722Y012225D01*
X001701Y012240D01*
X001682Y012258D01*
X001665Y012278D01*
X001652Y012301D01*
X001643Y012325D01*
X001637Y012351D01*
X001635Y012377D01*
M02*
