G75*
G70*
%OFA0B0*%
%FSLAX24Y24*%
%IPPOS*%
%LPD*%
%AMOC8*
5,1,8,0,0,1.08239X$1,22.5*
%
%ADD10R,0.0600X0.0600*%
%ADD11OC8,0.0600*%
%ADD12C,0.0087*%
%ADD13R,0.0360X0.0700*%
%ADD14R,0.0700X0.0360*%
%ADD15R,0.0598X0.0150*%
%ADD16C,0.0180*%
%ADD17R,0.0748X0.0748*%
%ADD18R,0.0600X0.0300*%
%ADD19R,0.0600X0.0400*%
%ADD20R,0.0800X0.0600*%
%ADD21R,0.0500X0.0500*%
%ADD22R,0.0669X0.0984*%
%ADD23R,0.0450X0.0400*%
%ADD24R,0.0600X0.0500*%
%ADD25R,0.0500X0.0400*%
%ADD26C,0.0100*%
%ADD27C,0.0560*%
%ADD28C,0.0320*%
%ADD29C,0.0317*%
%ADD30C,0.0120*%
%ADD31C,0.0240*%
%ADD32C,0.0160*%
%ADD33C,0.0200*%
D10*
X001151Y001151D03*
X011151Y005151D03*
X011151Y006151D03*
X018151Y013151D03*
X018151Y014151D03*
X019151Y014151D03*
X009151Y014151D03*
X007151Y014151D03*
X005947Y013866D03*
X001151Y015151D03*
D11*
X002151Y015151D03*
X003151Y015151D03*
X004151Y015151D03*
X005151Y015151D03*
X006151Y015151D03*
X007151Y015151D03*
X008151Y015151D03*
X009151Y015151D03*
X010151Y015151D03*
X011151Y015151D03*
X012151Y015151D03*
X013151Y015151D03*
X014151Y015151D03*
X015151Y015151D03*
X016151Y015151D03*
X017151Y015151D03*
X018151Y015151D03*
X019151Y015151D03*
X020151Y015151D03*
X020151Y014151D03*
X020151Y013151D03*
X019151Y013151D03*
X019151Y012151D03*
X020151Y012151D03*
X020151Y011151D03*
X019151Y011151D03*
X019151Y010151D03*
X020151Y010151D03*
X020151Y009151D03*
X019151Y009151D03*
X019151Y008151D03*
X020151Y008151D03*
X020151Y007151D03*
X019151Y007151D03*
X019151Y006151D03*
X018151Y006151D03*
X017151Y006151D03*
X016151Y006151D03*
X015151Y006151D03*
X014151Y006151D03*
X013151Y006151D03*
X012151Y006151D03*
X012151Y005151D03*
X013151Y005151D03*
X014151Y005151D03*
X015151Y005151D03*
X016151Y005151D03*
X017151Y005151D03*
X018151Y005151D03*
X019151Y005151D03*
X020151Y005151D03*
X020151Y004151D03*
X019151Y004151D03*
X018151Y004151D03*
X017151Y004151D03*
X017151Y003151D03*
X018151Y003151D03*
X019151Y003151D03*
X020151Y003151D03*
X020151Y002151D03*
X019151Y002151D03*
X018151Y002151D03*
X017151Y002151D03*
X017151Y001151D03*
X016151Y001151D03*
X015151Y001151D03*
X014151Y001151D03*
X013151Y001151D03*
X012151Y001151D03*
X011151Y001151D03*
X010151Y001151D03*
X009151Y001151D03*
X008151Y001151D03*
X007151Y001151D03*
X006151Y001151D03*
X005151Y001151D03*
X004151Y001151D03*
X003151Y001151D03*
X002151Y001151D03*
X009151Y005151D03*
X009151Y006151D03*
X009151Y007151D03*
X009151Y008151D03*
X009151Y009151D03*
X009151Y010151D03*
X009151Y011151D03*
X009151Y012151D03*
X009151Y013151D03*
X008151Y014151D03*
X011151Y014151D03*
X012151Y014151D03*
X013151Y014151D03*
X014151Y014151D03*
X015151Y014151D03*
X016151Y014151D03*
X017151Y014151D03*
X017151Y013151D03*
X016151Y013151D03*
X015151Y013151D03*
X014151Y013151D03*
X013151Y013151D03*
X012151Y013151D03*
X011151Y013151D03*
X020151Y006151D03*
X020151Y001151D03*
X019151Y001151D03*
X018151Y001151D03*
D12*
X015683Y003783D02*
X015419Y003783D01*
X015683Y003783D02*
X015683Y003519D01*
X015419Y003519D01*
X015419Y003783D01*
X015419Y003605D02*
X015683Y003605D01*
X015683Y003691D02*
X015419Y003691D01*
X015419Y003777D02*
X015683Y003777D01*
X015083Y003783D02*
X014819Y003783D01*
X015083Y003783D02*
X015083Y003519D01*
X014819Y003519D01*
X014819Y003783D01*
X014819Y003605D02*
X015083Y003605D01*
X015083Y003691D02*
X014819Y003691D01*
X014819Y003777D02*
X015083Y003777D01*
X014473Y003809D02*
X014209Y003809D01*
X014209Y004073D01*
X014473Y004073D01*
X014473Y003809D01*
X014473Y003895D02*
X014209Y003895D01*
X014209Y003981D02*
X014473Y003981D01*
X014473Y004067D02*
X014209Y004067D01*
X013873Y003809D02*
X013609Y003809D01*
X013609Y004073D01*
X013873Y004073D01*
X013873Y003809D01*
X013873Y003895D02*
X013609Y003895D01*
X013609Y003981D02*
X013873Y003981D01*
X013873Y004067D02*
X013609Y004067D01*
X010333Y004239D02*
X010069Y004239D01*
X010069Y004503D01*
X010333Y004503D01*
X010333Y004239D01*
X010333Y004325D02*
X010069Y004325D01*
X010069Y004411D02*
X010333Y004411D01*
X010333Y004497D02*
X010069Y004497D01*
X009733Y004239D02*
X009469Y004239D01*
X009469Y004503D01*
X009733Y004503D01*
X009733Y004239D01*
X009733Y004325D02*
X009469Y004325D01*
X009469Y004411D02*
X009733Y004411D01*
X009733Y004497D02*
X009469Y004497D01*
X009119Y002583D02*
X009119Y002319D01*
X009119Y002583D02*
X009383Y002583D01*
X009383Y002319D01*
X009119Y002319D01*
X009119Y002405D02*
X009383Y002405D01*
X009383Y002491D02*
X009119Y002491D01*
X009119Y002577D02*
X009383Y002577D01*
X009119Y001983D02*
X009119Y001719D01*
X009119Y001983D02*
X009383Y001983D01*
X009383Y001719D01*
X009119Y001719D01*
X009119Y001805D02*
X009383Y001805D01*
X009383Y001891D02*
X009119Y001891D01*
X009119Y001977D02*
X009383Y001977D01*
X006583Y002783D02*
X006319Y002783D01*
X006583Y002783D02*
X006583Y002519D01*
X006319Y002519D01*
X006319Y002783D01*
X006319Y002605D02*
X006583Y002605D01*
X006583Y002691D02*
X006319Y002691D01*
X006319Y002777D02*
X006583Y002777D01*
X005983Y002783D02*
X005719Y002783D01*
X005983Y002783D02*
X005983Y002519D01*
X005719Y002519D01*
X005719Y002783D01*
X005719Y002605D02*
X005983Y002605D01*
X005983Y002691D02*
X005719Y002691D01*
X005719Y002777D02*
X005983Y002777D01*
X003873Y002939D02*
X003873Y003203D01*
X003873Y002939D02*
X003609Y002939D01*
X003609Y003203D01*
X003873Y003203D01*
X003873Y003025D02*
X003609Y003025D01*
X003609Y003111D02*
X003873Y003111D01*
X003873Y003197D02*
X003609Y003197D01*
X003873Y002603D02*
X003873Y002339D01*
X003609Y002339D01*
X003609Y002603D01*
X003873Y002603D01*
X003873Y002425D02*
X003609Y002425D01*
X003609Y002511D02*
X003873Y002511D01*
X003873Y002597D02*
X003609Y002597D01*
X004469Y005433D02*
X004733Y005433D01*
X004733Y005169D01*
X004469Y005169D01*
X004469Y005433D01*
X004469Y005255D02*
X004733Y005255D01*
X004733Y005341D02*
X004469Y005341D01*
X004469Y005427D02*
X004733Y005427D01*
X005069Y005433D02*
X005333Y005433D01*
X005333Y005169D01*
X005069Y005169D01*
X005069Y005433D01*
X005069Y005255D02*
X005333Y005255D01*
X005333Y005341D02*
X005069Y005341D01*
X005069Y005427D02*
X005333Y005427D01*
X005469Y005963D02*
X005733Y005963D01*
X005733Y005699D01*
X005469Y005699D01*
X005469Y005963D01*
X005469Y005785D02*
X005733Y005785D01*
X005733Y005871D02*
X005469Y005871D01*
X005469Y005957D02*
X005733Y005957D01*
X005753Y006329D02*
X005489Y006329D01*
X005489Y006593D01*
X005753Y006593D01*
X005753Y006329D01*
X005753Y006415D02*
X005489Y006415D01*
X005489Y006501D02*
X005753Y006501D01*
X005753Y006587D02*
X005489Y006587D01*
X005133Y006309D02*
X004869Y006309D01*
X004869Y006573D01*
X005133Y006573D01*
X005133Y006309D01*
X005133Y006395D02*
X004869Y006395D01*
X004869Y006481D02*
X005133Y006481D01*
X005133Y006567D02*
X004869Y006567D01*
X004909Y006819D02*
X005173Y006819D01*
X004909Y006819D02*
X004909Y007083D01*
X005173Y007083D01*
X005173Y006819D01*
X005173Y006905D02*
X004909Y006905D01*
X004909Y006991D02*
X005173Y006991D01*
X005173Y007077D02*
X004909Y007077D01*
X004573Y006819D02*
X004309Y006819D01*
X004309Y007083D01*
X004573Y007083D01*
X004573Y006819D01*
X004573Y006905D02*
X004309Y006905D01*
X004309Y006991D02*
X004573Y006991D01*
X004573Y007077D02*
X004309Y007077D01*
X004269Y006309D02*
X004533Y006309D01*
X004269Y006309D02*
X004269Y006573D01*
X004533Y006573D01*
X004533Y006309D01*
X004533Y006395D02*
X004269Y006395D01*
X004269Y006481D02*
X004533Y006481D01*
X004533Y006567D02*
X004269Y006567D01*
X004869Y005963D02*
X005133Y005963D01*
X005133Y005699D01*
X004869Y005699D01*
X004869Y005963D01*
X004869Y005785D02*
X005133Y005785D01*
X005133Y005871D02*
X004869Y005871D01*
X004869Y005957D02*
X005133Y005957D01*
X006089Y006329D02*
X006353Y006329D01*
X006089Y006329D02*
X006089Y006593D01*
X006353Y006593D01*
X006353Y006329D01*
X006353Y006415D02*
X006089Y006415D01*
X006089Y006501D02*
X006353Y006501D01*
X006353Y006587D02*
X006089Y006587D01*
X006569Y009739D02*
X006569Y010003D01*
X006833Y010003D01*
X006833Y009739D01*
X006569Y009739D01*
X006569Y009825D02*
X006833Y009825D01*
X006833Y009911D02*
X006569Y009911D01*
X006569Y009997D02*
X006833Y009997D01*
X006569Y010339D02*
X006569Y010603D01*
X006833Y010603D01*
X006833Y010339D01*
X006569Y010339D01*
X006569Y010425D02*
X006833Y010425D01*
X006833Y010511D02*
X006569Y010511D01*
X006569Y010597D02*
X006833Y010597D01*
X006833Y011369D02*
X006569Y011369D01*
X006569Y011633D01*
X006833Y011633D01*
X006833Y011369D01*
X006833Y011455D02*
X006569Y011455D01*
X006569Y011541D02*
X006833Y011541D01*
X006833Y011627D02*
X006569Y011627D01*
X007169Y011369D02*
X007433Y011369D01*
X007169Y011369D02*
X007169Y011633D01*
X007433Y011633D01*
X007433Y011369D01*
X007433Y011455D02*
X007169Y011455D01*
X007169Y011541D02*
X007433Y011541D01*
X007433Y011627D02*
X007169Y011627D01*
X007449Y012659D02*
X007449Y012923D01*
X007713Y012923D01*
X007713Y012659D01*
X007449Y012659D01*
X007449Y012745D02*
X007713Y012745D01*
X007713Y012831D02*
X007449Y012831D01*
X007449Y012917D02*
X007713Y012917D01*
X007449Y013259D02*
X007449Y013523D01*
X007713Y013523D01*
X007713Y013259D01*
X007449Y013259D01*
X007449Y013345D02*
X007713Y013345D01*
X007713Y013431D02*
X007449Y013431D01*
X007449Y013517D02*
X007713Y013517D01*
D13*
X011415Y012219D03*
X012005Y012219D03*
X012596Y012219D03*
X013186Y012219D03*
X013777Y012219D03*
X014367Y012219D03*
X014958Y012219D03*
X015548Y012219D03*
X016139Y012219D03*
X016730Y012219D03*
X017320Y012219D03*
X017911Y012219D03*
X018501Y012219D03*
X018501Y007101D03*
X017911Y007101D03*
X017320Y007101D03*
X016730Y007101D03*
X016139Y007101D03*
X015548Y007101D03*
X014958Y007101D03*
X014367Y007101D03*
X013777Y007101D03*
X013186Y007101D03*
X012596Y007101D03*
X012005Y007101D03*
X011415Y007101D03*
D14*
X010726Y007593D03*
X010726Y008184D03*
X010726Y008774D03*
X010726Y009365D03*
X010726Y009956D03*
X010726Y010546D03*
X010726Y011137D03*
X010726Y011727D03*
D15*
X002451Y006113D03*
X002451Y005857D03*
X002451Y005601D03*
X002451Y005345D03*
X002451Y005089D03*
D16*
X001511Y004991D02*
X001511Y005411D01*
X001511Y004991D02*
X001091Y004991D01*
X001091Y005411D01*
X001511Y005411D01*
X001511Y005170D02*
X001091Y005170D01*
X001091Y005349D02*
X001511Y005349D01*
X001511Y005791D02*
X001511Y006211D01*
X001511Y005791D02*
X001091Y005791D01*
X001091Y006211D01*
X001511Y006211D01*
X001511Y005970D02*
X001091Y005970D01*
X001091Y006149D02*
X001511Y006149D01*
D17*
X001301Y007156D03*
X001301Y004046D03*
D18*
X006101Y008519D03*
X006101Y008952D03*
X006101Y009385D03*
X006101Y009818D03*
X006101Y010251D03*
X006101Y010684D03*
X006101Y011117D03*
X006101Y011550D03*
X006101Y011983D03*
D19*
X005865Y007989D03*
D20*
X002017Y008125D03*
X002017Y014188D03*
D21*
X001701Y002701D03*
X002701Y002701D03*
D22*
X004931Y002864D03*
X004931Y004439D03*
D23*
X005821Y003721D03*
X006621Y003371D03*
X006621Y004071D03*
D24*
X007851Y003051D03*
X007851Y002051D03*
D25*
X009951Y001801D03*
X010511Y001801D03*
X010511Y002301D03*
X009951Y002301D03*
D26*
X000351Y000371D02*
X000351Y009851D01*
X001751Y009851D01*
X001951Y009751D01*
X002151Y009751D01*
X002025Y009513D02*
X001970Y009513D01*
X001994Y009503D02*
X001874Y009553D01*
X001745Y009553D01*
X001720Y009542D01*
X001720Y009605D01*
X001684Y009691D01*
X001713Y009691D01*
X001856Y009620D01*
X001885Y009591D01*
X001913Y009591D01*
X001939Y009578D01*
X001943Y009580D01*
X001999Y009524D01*
X002098Y009483D01*
X002205Y009483D01*
X002303Y009524D01*
X002379Y009599D01*
X002420Y009698D01*
X002420Y009805D01*
X002379Y009903D01*
X002303Y009979D01*
X002205Y010020D01*
X002098Y010020D01*
X001999Y009979D01*
X001951Y009930D01*
X001846Y009983D01*
X001817Y010011D01*
X001789Y010011D01*
X001763Y010024D01*
X001725Y010011D01*
X000301Y010011D01*
X000301Y015871D01*
X005469Y015871D01*
X005247Y015561D01*
X004981Y015561D01*
X004741Y015321D01*
X004741Y014981D01*
X004981Y014741D01*
X005321Y014741D01*
X005561Y014981D01*
X005561Y015321D01*
X005507Y015375D01*
X005733Y015691D01*
X006491Y015691D01*
X006491Y015660D01*
X006463Y015419D01*
X006321Y015561D01*
X005981Y015561D01*
X005741Y015321D01*
X005741Y014981D01*
X005981Y014741D01*
X006321Y014741D01*
X006392Y014812D01*
X006338Y014346D01*
X006319Y014339D01*
X006290Y014309D01*
X006267Y014316D01*
X005997Y014316D01*
X005997Y013916D01*
X005897Y013916D01*
X005897Y014316D01*
X005630Y014316D01*
X005630Y014325D01*
X005589Y014423D01*
X005513Y014499D01*
X005415Y014540D01*
X005308Y014540D01*
X005209Y014499D01*
X005134Y014423D01*
X005131Y014417D01*
X005046Y014411D01*
X003879Y014411D01*
X003842Y014424D01*
X003815Y014411D01*
X003785Y014411D01*
X003757Y014384D01*
X003722Y014367D01*
X003712Y014339D01*
X003691Y014317D01*
X003691Y014279D01*
X003161Y012777D01*
X003155Y012780D01*
X003048Y012780D01*
X002949Y012739D01*
X002874Y012663D01*
X002833Y012565D01*
X002833Y012458D01*
X002874Y012359D01*
X002949Y012284D01*
X002982Y012270D01*
X002749Y012130D01*
X002112Y011969D01*
X002093Y011989D01*
X001995Y012030D01*
X001888Y012030D01*
X001789Y011989D01*
X001714Y011913D01*
X001673Y011815D01*
X001673Y011708D01*
X001714Y011609D01*
X001789Y011534D01*
X001888Y011493D01*
X001995Y011493D01*
X002093Y011534D01*
X002169Y011609D01*
X002189Y011659D01*
X002781Y011809D01*
X002781Y011781D01*
X002774Y011725D01*
X002781Y011716D01*
X002781Y011705D01*
X002791Y011695D01*
X002791Y010509D01*
X002786Y010503D01*
X002791Y010444D01*
X002791Y010385D01*
X002797Y010379D01*
X002798Y010371D01*
X002843Y010333D01*
X002885Y010291D01*
X002893Y010291D01*
X003133Y010091D01*
X003079Y010069D01*
X003004Y009993D01*
X002963Y009895D01*
X002963Y009788D01*
X003004Y009689D01*
X003079Y009614D01*
X003162Y009579D01*
X003293Y009311D01*
X003300Y009148D01*
X003225Y009180D01*
X003118Y009180D01*
X003069Y009159D01*
X002811Y009417D01*
X002811Y009985D01*
X002811Y010117D01*
X001720Y011209D01*
X001720Y011305D01*
X001679Y011403D01*
X001603Y011479D01*
X001505Y011520D01*
X001398Y011520D01*
X001299Y011479D01*
X001224Y011403D01*
X001183Y011305D01*
X001183Y011198D01*
X001224Y011099D01*
X001299Y011024D01*
X001398Y010983D01*
X001493Y010983D01*
X002491Y009985D01*
X002491Y009285D01*
X002585Y009191D01*
X002903Y008873D01*
X002903Y008858D01*
X002944Y008759D01*
X003019Y008684D01*
X003118Y008643D01*
X003225Y008643D01*
X003323Y008684D01*
X003348Y008709D01*
X003562Y007750D01*
X002544Y007745D01*
X002557Y007767D01*
X002567Y007805D01*
X002567Y008075D01*
X002067Y008075D01*
X002067Y008175D01*
X001967Y008175D01*
X001967Y008075D01*
X001467Y008075D01*
X001467Y007805D01*
X001478Y007767D01*
X001497Y007733D01*
X001525Y007705D01*
X001559Y007685D01*
X001579Y007680D01*
X001351Y007680D01*
X001351Y007206D01*
X001251Y007206D01*
X001251Y007680D01*
X000907Y007680D01*
X000891Y007676D01*
X000891Y007743D01*
X000895Y007743D01*
X000993Y007784D01*
X001069Y007859D01*
X001110Y007958D01*
X001110Y008065D01*
X001069Y008163D01*
X000993Y008239D01*
X000895Y008280D01*
X000788Y008280D01*
X000711Y008248D01*
X000711Y009391D01*
X001232Y009391D01*
X001299Y009324D01*
X001398Y009283D01*
X001485Y009283D01*
X001485Y009163D01*
X001534Y009043D01*
X001626Y008952D01*
X001745Y008903D01*
X001874Y008903D01*
X001994Y008952D01*
X002085Y009043D01*
X002135Y009163D01*
X002135Y009292D01*
X002085Y009412D01*
X001994Y009503D01*
X002083Y009414D02*
X002491Y009414D01*
X002491Y009316D02*
X002125Y009316D01*
X002135Y009217D02*
X002559Y009217D01*
X002657Y009119D02*
X002116Y009119D01*
X002062Y009020D02*
X002756Y009020D01*
X002855Y008922D02*
X001920Y008922D01*
X001699Y008922D02*
X000711Y008922D01*
X000711Y009020D02*
X001558Y009020D01*
X001503Y009119D02*
X000711Y009119D01*
X000711Y009217D02*
X001485Y009217D01*
X001318Y009316D02*
X000711Y009316D01*
X000551Y009551D02*
X000551Y000571D01*
X006151Y000571D01*
X006151Y001151D01*
X005951Y001651D02*
X007351Y001651D01*
X007851Y001151D01*
X008151Y001151D01*
X008851Y001751D02*
X008951Y001851D01*
X009251Y001851D01*
X009451Y002151D02*
X009751Y001851D01*
X009901Y001851D01*
X009951Y001801D01*
X009951Y002301D01*
X009599Y002786D01*
X009646Y002720D01*
X009377Y002451D01*
X009251Y002451D01*
X009451Y002151D02*
X008651Y002151D01*
X008541Y002061D01*
X008651Y002851D02*
X009551Y002851D01*
X009599Y002786D01*
X009951Y002301D02*
X010511Y002301D01*
X010851Y001951D02*
X010951Y002051D01*
X010951Y002551D01*
X010731Y002771D01*
X010731Y002781D01*
X011151Y003051D02*
X011151Y001151D01*
X011561Y001137D02*
X011741Y001137D01*
X011741Y001235D02*
X011561Y001235D01*
X011561Y001321D02*
X011561Y000981D01*
X011361Y000781D01*
X011941Y000781D01*
X011741Y000981D01*
X011741Y001321D01*
X011981Y001561D01*
X011991Y001561D01*
X011991Y003091D01*
X011311Y003091D01*
X011311Y001561D01*
X011321Y001561D01*
X011561Y001321D01*
X011548Y001334D02*
X011754Y001334D01*
X011852Y001432D02*
X011450Y001432D01*
X011351Y001531D02*
X011951Y001531D01*
X011991Y001629D02*
X011311Y001629D01*
X011311Y001728D02*
X011991Y001728D01*
X011991Y001826D02*
X011311Y001826D01*
X011311Y001925D02*
X011991Y001925D01*
X011991Y002024D02*
X011311Y002024D01*
X011311Y002122D02*
X011991Y002122D01*
X011991Y002221D02*
X011311Y002221D01*
X011311Y002319D02*
X011991Y002319D01*
X011991Y002418D02*
X011311Y002418D01*
X011311Y002516D02*
X011991Y002516D01*
X011991Y002615D02*
X011311Y002615D01*
X011311Y002713D02*
X011991Y002713D01*
X011991Y002812D02*
X011311Y002812D01*
X011311Y002910D02*
X011991Y002910D01*
X011991Y003009D02*
X011311Y003009D01*
X011151Y003051D02*
X008751Y003051D01*
X007851Y004551D01*
X006551Y004551D01*
X006251Y005151D01*
X005991Y005441D01*
X005886Y005688D02*
X005886Y005827D01*
X005939Y005774D01*
X006038Y005733D01*
X006145Y005733D01*
X006243Y005774D01*
X006319Y005849D01*
X006332Y005881D01*
X006349Y005864D01*
X006448Y005823D01*
X006555Y005823D01*
X006653Y005864D01*
X006729Y005939D01*
X006761Y006016D01*
X006818Y005993D01*
X006925Y005993D01*
X007023Y006034D01*
X007099Y006109D01*
X007120Y006160D01*
X007307Y006184D01*
X007593Y005970D01*
X007611Y005252D01*
X007599Y005213D01*
X007612Y005189D01*
X007613Y005161D01*
X007643Y005133D01*
X007873Y004711D01*
X007871Y004711D01*
X007826Y004722D01*
X007807Y004711D01*
X006650Y004711D01*
X006413Y005185D01*
X006415Y005209D01*
X006385Y005242D01*
X006365Y005282D01*
X006342Y005289D01*
X006258Y005383D01*
X006260Y005388D01*
X006260Y005495D01*
X006219Y005593D01*
X006143Y005669D01*
X006045Y005710D01*
X005938Y005710D01*
X005886Y005688D01*
X005886Y005768D02*
X005952Y005768D01*
X006141Y005670D02*
X007600Y005670D01*
X007598Y005768D02*
X006230Y005768D01*
X006326Y005867D02*
X006346Y005867D01*
X006501Y006091D02*
X006221Y006461D01*
X006661Y006611D02*
X007301Y006621D01*
X008001Y006121D01*
X007991Y005251D01*
X008951Y003451D01*
X013151Y003451D01*
X013151Y001151D01*
X012852Y001432D02*
X012450Y001432D01*
X012548Y001334D02*
X012754Y001334D01*
X012741Y001321D02*
X012981Y001561D01*
X012991Y001561D01*
X012991Y003291D01*
X012311Y003291D01*
X012311Y001561D01*
X012321Y001561D01*
X012561Y001321D01*
X012561Y000981D01*
X012361Y000781D01*
X012941Y000781D01*
X012741Y000981D01*
X012741Y001321D01*
X012741Y001235D02*
X012561Y001235D01*
X012561Y001137D02*
X012741Y001137D01*
X012741Y001038D02*
X012561Y001038D01*
X012519Y000940D02*
X012783Y000940D01*
X012882Y000841D02*
X012421Y000841D01*
X012151Y001151D02*
X012151Y003251D01*
X008851Y003251D01*
X007771Y005231D01*
X007751Y006051D01*
X007351Y006351D01*
X006881Y006291D01*
X006871Y006261D01*
X007053Y006064D02*
X007468Y006064D01*
X007593Y005965D02*
X006739Y005965D01*
X006656Y005867D02*
X007596Y005867D01*
X007336Y006162D02*
X007135Y006162D01*
X007603Y005571D02*
X006228Y005571D01*
X006260Y005473D02*
X007605Y005473D01*
X007608Y005374D02*
X006266Y005374D01*
X006368Y005275D02*
X007610Y005275D01*
X007612Y005177D02*
X006417Y005177D01*
X006466Y005078D02*
X007672Y005078D01*
X007726Y004980D02*
X006516Y004980D01*
X006565Y004881D02*
X007780Y004881D01*
X007834Y004783D02*
X006614Y004783D01*
X006589Y004391D02*
X007761Y004391D01*
X007865Y004216D01*
X007803Y004279D01*
X007705Y004320D01*
X007598Y004320D01*
X007499Y004279D01*
X007424Y004203D01*
X007383Y004105D01*
X007383Y003998D01*
X007424Y003899D01*
X007499Y003824D01*
X007598Y003783D01*
X007705Y003783D01*
X007773Y003811D01*
X007938Y003729D01*
X008129Y003411D01*
X007506Y003411D01*
X007441Y003347D01*
X007441Y002961D01*
X007164Y002961D01*
X007041Y002838D01*
X007041Y002664D01*
X007041Y002461D01*
X006761Y002461D01*
X006761Y002819D01*
X006766Y002827D01*
X006779Y002839D01*
X006786Y002858D01*
X006807Y002889D01*
X006813Y002922D01*
X006820Y002938D01*
X006820Y002958D01*
X006839Y003061D01*
X006892Y003061D01*
X006956Y003126D01*
X006956Y003617D01*
X006892Y003681D01*
X006351Y003681D01*
X006286Y003617D01*
X006286Y003126D01*
X006299Y003113D01*
X006289Y003061D01*
X006283Y003045D01*
X006283Y003024D01*
X006276Y002987D01*
X006283Y002955D01*
X006283Y002938D01*
X006283Y002936D01*
X006256Y002936D01*
X006166Y002846D01*
X006166Y002456D01*
X006256Y002366D01*
X006341Y002366D01*
X006341Y002338D01*
X006341Y002164D01*
X006464Y002041D01*
X007164Y002041D01*
X007338Y002041D01*
X007441Y002144D01*
X007441Y001787D01*
X007417Y001811D01*
X006111Y001811D01*
X006111Y002267D01*
X006017Y002361D01*
X005885Y002361D01*
X005376Y002361D01*
X005376Y003401D01*
X005311Y003466D01*
X004551Y003466D01*
X004487Y003401D01*
X004487Y002820D01*
X004398Y002820D01*
X004299Y002779D01*
X004224Y002703D01*
X004183Y002605D01*
X004183Y002498D01*
X004224Y002399D01*
X004262Y002361D01*
X004235Y002361D01*
X004141Y002267D01*
X004085Y002211D01*
X004018Y002211D01*
X004027Y002221D01*
X004094Y002221D01*
X004053Y002265D02*
X004066Y002314D01*
X004066Y002434D01*
X003779Y002434D01*
X003779Y002509D01*
X004066Y002509D01*
X004066Y002628D01*
X004053Y002677D01*
X004027Y002721D01*
X003991Y002757D01*
X003947Y002783D01*
X003935Y002786D01*
X003936Y002786D01*
X004026Y002876D01*
X004026Y002923D01*
X004054Y002924D01*
X004071Y002942D01*
X004095Y002950D01*
X004114Y002989D01*
X004144Y003022D01*
X004143Y003047D01*
X004283Y003326D01*
X004311Y003355D01*
X004311Y003383D01*
X004324Y003409D01*
X004311Y003447D01*
X004311Y003520D01*
X004378Y003493D01*
X004485Y003493D01*
X004556Y003523D01*
X005336Y003472D01*
X005503Y003458D01*
X005551Y003411D01*
X005621Y003411D01*
X005621Y002901D01*
X005566Y002846D01*
X005566Y002456D01*
X005656Y002366D01*
X006046Y002366D01*
X006136Y002456D01*
X006136Y002846D01*
X006081Y002901D01*
X006081Y003411D01*
X006092Y003411D01*
X006156Y003476D01*
X006156Y003967D01*
X006092Y004031D01*
X005551Y004031D01*
X005486Y003967D01*
X005486Y003921D01*
X005462Y003923D01*
X005461Y003924D01*
X005376Y003930D01*
X005376Y004051D01*
X005389Y004046D01*
X005425Y004061D01*
X006055Y004051D01*
X006286Y004046D01*
X006286Y003826D01*
X006351Y003761D01*
X006892Y003761D01*
X006956Y003826D01*
X006956Y004317D01*
X006892Y004381D01*
X006581Y004381D01*
X006577Y004385D01*
X006589Y004391D01*
X006584Y004389D02*
X007762Y004389D01*
X007776Y004290D02*
X007821Y004290D01*
X007526Y004290D02*
X006956Y004290D01*
X006956Y004191D02*
X007419Y004191D01*
X007383Y004093D02*
X006956Y004093D01*
X006956Y003994D02*
X007384Y003994D01*
X007427Y003896D02*
X006956Y003896D01*
X006928Y003797D02*
X007563Y003797D01*
X007740Y003797D02*
X007801Y003797D01*
X007956Y003699D02*
X006156Y003699D01*
X006156Y003797D02*
X006314Y003797D01*
X006286Y003896D02*
X006156Y003896D01*
X006129Y003994D02*
X006286Y003994D01*
X006551Y003951D02*
X006621Y004071D01*
X006286Y003600D02*
X006156Y003600D01*
X006156Y003502D02*
X006286Y003502D01*
X006286Y003403D02*
X006081Y003403D01*
X006081Y003305D02*
X006286Y003305D01*
X006286Y003206D02*
X006081Y003206D01*
X006081Y003107D02*
X006298Y003107D01*
X006280Y003009D02*
X006081Y003009D01*
X006081Y002910D02*
X006230Y002910D01*
X006166Y002812D02*
X006136Y002812D01*
X006136Y002713D02*
X006166Y002713D01*
X006166Y002615D02*
X006136Y002615D01*
X006136Y002516D02*
X006166Y002516D01*
X006205Y002418D02*
X006098Y002418D01*
X006059Y002319D02*
X006341Y002319D01*
X006341Y002221D02*
X006111Y002221D01*
X006111Y002122D02*
X006383Y002122D01*
X006111Y002024D02*
X007441Y002024D01*
X007441Y002122D02*
X007419Y002122D01*
X007441Y001925D02*
X006111Y001925D01*
X006111Y001826D02*
X007441Y001826D01*
X007151Y001151D02*
X006751Y000371D01*
X000351Y000371D01*
X001151Y001151D02*
X001701Y000731D01*
X002411Y000731D01*
X002651Y000851D01*
X002095Y001981D02*
X001797Y001981D01*
X001705Y002020D01*
X001598Y002020D01*
X001505Y001981D01*
X001031Y001981D01*
X001031Y002421D01*
X001275Y002421D01*
X001289Y002410D01*
X001341Y002417D01*
X001341Y002406D01*
X001406Y002341D01*
X001997Y002341D01*
X002061Y002406D01*
X002061Y002997D01*
X001997Y003061D01*
X001406Y003061D01*
X001341Y002997D01*
X001341Y002882D01*
X001335Y002881D01*
X000891Y002881D01*
X000891Y003526D01*
X000907Y003522D01*
X001251Y003522D01*
X001251Y003996D01*
X001351Y003996D01*
X001351Y003522D01*
X001695Y003522D01*
X001733Y003532D01*
X001767Y003552D01*
X001795Y003580D01*
X001815Y003614D01*
X001825Y003652D01*
X001825Y003996D01*
X001351Y003996D01*
X001351Y004096D01*
X001251Y004096D01*
X001251Y004570D01*
X000907Y004570D01*
X000891Y004566D01*
X000891Y004859D01*
X000905Y004838D01*
X000938Y004805D01*
X000977Y004779D01*
X001021Y004760D01*
X001068Y004751D01*
X001251Y004751D01*
X001251Y005151D01*
X001351Y005151D01*
X001351Y004751D01*
X001535Y004751D01*
X001581Y004760D01*
X001625Y004779D01*
X001664Y004805D01*
X001698Y004838D01*
X001724Y004877D01*
X001742Y004921D01*
X001751Y004968D01*
X001751Y005151D01*
X001351Y005151D01*
X001351Y005251D01*
X001251Y005251D01*
X001251Y005551D01*
X001251Y005951D01*
X001351Y005951D01*
X001351Y005551D01*
X001351Y005251D01*
X001751Y005251D01*
X001751Y005435D01*
X001742Y005481D01*
X001724Y005525D01*
X001698Y005564D01*
X001664Y005598D01*
X001659Y005601D01*
X001664Y005605D01*
X001698Y005638D01*
X001724Y005677D01*
X001742Y005721D01*
X001751Y005768D01*
X001881Y005768D01*
X001881Y005670D02*
X001719Y005670D01*
X001751Y005768D02*
X001751Y005951D01*
X001351Y005951D01*
X001351Y006051D01*
X001751Y006051D01*
X001751Y006121D01*
X001881Y005986D01*
X001881Y004765D01*
X001872Y004714D01*
X001881Y004701D01*
X001881Y004685D01*
X001918Y004648D01*
X002091Y004401D01*
X002091Y001985D01*
X002095Y001981D01*
X002091Y002024D02*
X001031Y002024D01*
X001031Y002122D02*
X002091Y002122D01*
X002091Y002221D02*
X001031Y002221D01*
X001031Y002319D02*
X002091Y002319D01*
X002091Y002418D02*
X002061Y002418D01*
X002061Y002516D02*
X002091Y002516D01*
X002091Y002615D02*
X002061Y002615D01*
X002061Y002713D02*
X002091Y002713D01*
X002091Y002812D02*
X002061Y002812D01*
X002061Y002910D02*
X002091Y002910D01*
X002091Y003009D02*
X002049Y003009D01*
X002091Y003107D02*
X000891Y003107D01*
X000891Y003009D02*
X001353Y003009D01*
X001341Y002910D02*
X000891Y002910D01*
X000851Y002651D02*
X000731Y002661D01*
X000731Y007881D01*
X000841Y008011D01*
X001047Y007838D02*
X001467Y007838D01*
X001467Y007936D02*
X001101Y007936D01*
X001110Y008035D02*
X001467Y008035D01*
X001467Y008175D02*
X001967Y008175D01*
X001967Y008575D01*
X001598Y008575D01*
X001559Y008565D01*
X001525Y008545D01*
X001497Y008517D01*
X001478Y008483D01*
X001467Y008445D01*
X001467Y008175D01*
X001467Y008232D02*
X001000Y008232D01*
X001081Y008133D02*
X001967Y008133D01*
X002017Y008125D02*
X002061Y008721D01*
X002067Y008575D02*
X002067Y008175D01*
X002567Y008175D01*
X002567Y008445D01*
X002557Y008483D01*
X002537Y008517D01*
X002509Y008545D01*
X002475Y008565D01*
X002437Y008575D01*
X002067Y008575D01*
X002067Y008527D02*
X001967Y008527D01*
X001967Y008429D02*
X002067Y008429D01*
X002067Y008330D02*
X001967Y008330D01*
X001967Y008232D02*
X002067Y008232D01*
X002067Y008133D02*
X003476Y008133D01*
X003498Y008035D02*
X002567Y008035D01*
X002567Y007936D02*
X003520Y007936D01*
X003542Y007838D02*
X002567Y007838D01*
X002567Y008232D02*
X003454Y008232D01*
X003433Y008330D02*
X002567Y008330D01*
X002567Y008429D02*
X003411Y008429D01*
X003389Y008527D02*
X002527Y008527D01*
X002917Y008823D02*
X000711Y008823D01*
X000711Y008724D02*
X002978Y008724D01*
X003091Y008911D02*
X002651Y009351D01*
X002651Y010051D01*
X001451Y011251D01*
X001216Y011385D02*
X000301Y011385D01*
X000301Y011287D02*
X001183Y011287D01*
X001187Y011188D02*
X000301Y011188D01*
X000301Y011089D02*
X001233Y011089D01*
X001378Y010991D02*
X000301Y010991D01*
X000301Y010892D02*
X001584Y010892D01*
X001682Y010794D02*
X000301Y010794D01*
X000301Y010695D02*
X001781Y010695D01*
X001879Y010597D02*
X000301Y010597D01*
X000301Y010498D02*
X001978Y010498D01*
X002076Y010400D02*
X000301Y010400D01*
X000301Y010301D02*
X002175Y010301D01*
X002273Y010203D02*
X000301Y010203D01*
X000301Y010104D02*
X002372Y010104D01*
X002471Y010006D02*
X002239Y010006D01*
X002375Y009907D02*
X002491Y009907D01*
X002491Y009808D02*
X002418Y009808D01*
X002420Y009710D02*
X002491Y009710D01*
X002491Y009611D02*
X002384Y009611D01*
X002277Y009513D02*
X002491Y009513D01*
X002811Y009513D02*
X003194Y009513D01*
X003242Y009414D02*
X002814Y009414D01*
X002913Y009316D02*
X003290Y009316D01*
X003297Y009217D02*
X003011Y009217D01*
X003091Y008911D02*
X003171Y008911D01*
X003471Y008893D02*
X003451Y009351D01*
X003257Y009749D01*
X003239Y009839D01*
X003231Y009841D01*
X002995Y009710D02*
X002811Y009710D01*
X002811Y009808D02*
X002963Y009808D01*
X002968Y009907D02*
X002811Y009907D01*
X002811Y010006D02*
X003016Y010006D01*
X003117Y010104D02*
X002811Y010104D01*
X002726Y010203D02*
X002999Y010203D01*
X002875Y010301D02*
X002627Y010301D01*
X002529Y010400D02*
X002791Y010400D01*
X002786Y010498D02*
X002430Y010498D01*
X002332Y010597D02*
X002791Y010597D01*
X002791Y010695D02*
X002233Y010695D01*
X002135Y010794D02*
X002791Y010794D01*
X002791Y010892D02*
X002036Y010892D01*
X001938Y010991D02*
X002791Y010991D01*
X002791Y011089D02*
X001839Y011089D01*
X001741Y011188D02*
X002791Y011188D01*
X002791Y011287D02*
X001720Y011287D01*
X001686Y011385D02*
X002791Y011385D01*
X002791Y011484D02*
X001591Y011484D01*
X001741Y011582D02*
X000301Y011582D01*
X000301Y011484D02*
X001311Y011484D01*
X001684Y011681D02*
X000301Y011681D01*
X000301Y011779D02*
X001673Y011779D01*
X001699Y011878D02*
X000301Y011878D01*
X000301Y011976D02*
X001777Y011976D01*
X001745Y012052D02*
X001874Y012052D01*
X001994Y012102D01*
X002085Y012193D01*
X002135Y012312D01*
X002135Y012442D01*
X002085Y012561D01*
X001994Y012653D01*
X001874Y012702D01*
X001745Y012702D01*
X001626Y012653D01*
X001534Y012561D01*
X001485Y012442D01*
X001485Y012312D01*
X001534Y012193D01*
X001626Y012102D01*
X001745Y012052D01*
X001690Y012075D02*
X000301Y012075D01*
X000301Y012173D02*
X001554Y012173D01*
X001502Y012272D02*
X000301Y012272D01*
X000301Y012371D02*
X001485Y012371D01*
X001496Y012469D02*
X000301Y012469D01*
X000301Y012568D02*
X001541Y012568D01*
X001658Y012666D02*
X000301Y012666D01*
X000301Y012765D02*
X003012Y012765D01*
X002877Y012666D02*
X001961Y012666D01*
X002079Y012568D02*
X002834Y012568D01*
X002833Y012469D02*
X002124Y012469D01*
X002135Y012371D02*
X002869Y012371D01*
X002977Y012272D02*
X002118Y012272D01*
X002066Y012173D02*
X002821Y012173D01*
X002811Y011981D02*
X001941Y011761D01*
X002142Y011582D02*
X002791Y011582D01*
X002791Y011681D02*
X002276Y011681D01*
X002665Y011779D02*
X002781Y011779D01*
X002941Y011771D02*
X002951Y011771D01*
X002951Y010451D01*
X003561Y009941D01*
X005101Y010281D01*
X005101Y009151D01*
X005451Y008751D01*
X005451Y007651D01*
X006281Y007651D01*
X006281Y008241D01*
X006611Y008271D01*
X006901Y008191D01*
X008081Y008181D01*
X008681Y007601D01*
X009951Y007651D01*
X009758Y007838D02*
X009417Y007838D01*
X009368Y007788D02*
X009561Y007981D01*
X009561Y008321D01*
X009391Y008491D01*
X009414Y008491D01*
X009440Y008478D01*
X009477Y008491D01*
X009517Y008491D01*
X009538Y008512D01*
X009565Y008521D01*
X009583Y008557D01*
X009611Y008585D01*
X009611Y008614D01*
X010050Y009501D01*
X010266Y009501D01*
X010266Y009314D01*
X010205Y009340D01*
X010098Y009340D01*
X009999Y009299D01*
X009924Y009223D01*
X009883Y009125D01*
X009883Y009018D01*
X009924Y008919D01*
X009999Y008844D01*
X010098Y008803D01*
X010205Y008803D01*
X010266Y008828D01*
X010266Y008549D01*
X010330Y008484D01*
X010651Y008484D01*
X010651Y008474D01*
X010330Y008474D01*
X010266Y008409D01*
X010266Y007958D01*
X010330Y007894D01*
X010651Y007894D01*
X010651Y007883D01*
X010330Y007883D01*
X010266Y007819D01*
X010266Y007368D01*
X010330Y007303D01*
X010651Y007303D01*
X010651Y006739D01*
X009125Y006741D01*
X009125Y006741D01*
X009321Y006741D01*
X009561Y006981D01*
X009561Y007321D01*
X009412Y007470D01*
X009740Y007483D01*
X009799Y007424D01*
X009898Y007383D01*
X010005Y007383D01*
X010103Y007424D01*
X010179Y007499D01*
X010220Y007598D01*
X010220Y007705D01*
X010179Y007803D01*
X010103Y007879D01*
X010005Y007920D01*
X009898Y007920D01*
X009799Y007879D01*
X009724Y007803D01*
X009723Y007802D01*
X009368Y007788D01*
X009516Y007936D02*
X010288Y007936D01*
X010284Y007838D02*
X010144Y007838D01*
X010205Y007739D02*
X010266Y007739D01*
X010266Y007640D02*
X010220Y007640D01*
X010196Y007542D02*
X010266Y007542D01*
X010266Y007443D02*
X010123Y007443D01*
X010288Y007345D02*
X009537Y007345D01*
X009561Y007246D02*
X010651Y007246D01*
X010651Y007148D02*
X009561Y007148D01*
X009561Y007049D02*
X010651Y007049D01*
X010651Y006951D02*
X009530Y006951D01*
X009432Y006852D02*
X010651Y006852D01*
X010651Y006754D02*
X009333Y006754D01*
X009061Y006581D02*
X008491Y007121D01*
X008051Y007951D01*
X007351Y007951D01*
X007131Y008011D01*
X006931Y008011D01*
X006751Y007971D01*
X006631Y007971D01*
X006961Y007701D02*
X007971Y007731D01*
X008311Y007041D01*
X008781Y006591D01*
X008651Y005951D01*
X008911Y005671D01*
X010111Y005671D01*
X010731Y005321D01*
X010731Y004821D01*
X010851Y004651D01*
X015851Y004651D01*
X016161Y004371D01*
X016161Y001271D01*
X016151Y001151D01*
X016450Y001432D02*
X016852Y001432D01*
X016754Y001334D02*
X016548Y001334D01*
X016561Y001321D02*
X016321Y001561D01*
X016321Y004310D01*
X016324Y004313D01*
X016321Y004375D01*
X016321Y004437D01*
X016318Y004441D01*
X016318Y004445D01*
X016272Y004487D01*
X016227Y004531D01*
X016223Y004531D01*
X016201Y004551D01*
X016915Y004551D01*
X016701Y004338D01*
X016701Y004201D01*
X017101Y004201D01*
X017101Y004101D01*
X017201Y004101D01*
X017201Y003701D01*
X017338Y003701D01*
X017601Y003965D01*
X017601Y004101D01*
X017201Y004101D01*
X017201Y004201D01*
X017601Y004201D01*
X017601Y004283D01*
X017701Y004283D01*
X017701Y004201D01*
X018101Y004201D01*
X018101Y004101D01*
X018201Y004101D01*
X018201Y003701D01*
X018338Y003701D01*
X018421Y003785D01*
X018421Y003461D01*
X018321Y003561D01*
X017981Y003561D01*
X017961Y003541D01*
X017341Y003541D01*
X017321Y003561D01*
X016981Y003561D01*
X016741Y003321D01*
X016741Y002981D01*
X016981Y002741D01*
X017321Y002741D01*
X017341Y002761D01*
X017961Y002761D01*
X017981Y002741D01*
X018321Y002741D01*
X018421Y002841D01*
X018421Y002746D01*
X018236Y002561D01*
X017981Y002561D01*
X017961Y002541D01*
X017341Y002541D01*
X017321Y002561D01*
X016981Y002561D01*
X016741Y002321D01*
X016741Y001981D01*
X016981Y001741D01*
X017321Y001741D01*
X017341Y001761D01*
X017961Y001761D01*
X017981Y001741D01*
X018321Y001741D01*
X018561Y001981D01*
X018561Y002236D01*
X018651Y002326D01*
X018651Y000976D01*
X018456Y000781D01*
X018361Y000781D01*
X018561Y000981D01*
X018561Y001321D01*
X018321Y001561D01*
X017981Y001561D01*
X017741Y001321D01*
X017741Y000981D01*
X017941Y000781D01*
X017361Y000781D01*
X017561Y000981D01*
X017561Y001321D01*
X017321Y001561D01*
X016981Y001561D01*
X016741Y001321D01*
X016741Y000981D01*
X016941Y000781D01*
X016361Y000781D01*
X016561Y000981D01*
X016561Y001321D01*
X016561Y001235D02*
X016741Y001235D01*
X016741Y001137D02*
X016561Y001137D01*
X016561Y001038D02*
X016741Y001038D01*
X016783Y000940D02*
X016519Y000940D01*
X016421Y000841D02*
X016882Y000841D01*
X017421Y000841D02*
X017882Y000841D01*
X017783Y000940D02*
X017519Y000940D01*
X017561Y001038D02*
X017741Y001038D01*
X017741Y001137D02*
X017561Y001137D01*
X017561Y001235D02*
X017741Y001235D01*
X017754Y001334D02*
X017548Y001334D01*
X017450Y001432D02*
X017852Y001432D01*
X017951Y001531D02*
X017351Y001531D01*
X016951Y001531D02*
X016351Y001531D01*
X016321Y001629D02*
X018651Y001629D01*
X018651Y001531D02*
X018351Y001531D01*
X018450Y001432D02*
X018651Y001432D01*
X018651Y001334D02*
X018548Y001334D01*
X018561Y001235D02*
X018651Y001235D01*
X018651Y001137D02*
X018561Y001137D01*
X018561Y001038D02*
X018651Y001038D01*
X018614Y000940D02*
X018519Y000940D01*
X018516Y000841D02*
X018421Y000841D01*
X018651Y001728D02*
X016321Y001728D01*
X016321Y001826D02*
X016896Y001826D01*
X016798Y001925D02*
X016321Y001925D01*
X016321Y002024D02*
X016741Y002024D01*
X016741Y002122D02*
X016321Y002122D01*
X016321Y002221D02*
X016741Y002221D01*
X016741Y002319D02*
X016321Y002319D01*
X016321Y002418D02*
X016838Y002418D01*
X016936Y002516D02*
X016321Y002516D01*
X016321Y002615D02*
X018290Y002615D01*
X018388Y002713D02*
X016321Y002713D01*
X016321Y002812D02*
X016911Y002812D01*
X016812Y002910D02*
X016321Y002910D01*
X016321Y003009D02*
X016741Y003009D01*
X016741Y003107D02*
X016321Y003107D01*
X016321Y003206D02*
X016741Y003206D01*
X016741Y003305D02*
X016321Y003305D01*
X016321Y003403D02*
X016823Y003403D01*
X016922Y003502D02*
X016321Y003502D01*
X016321Y003600D02*
X018421Y003600D01*
X018421Y003502D02*
X018380Y003502D01*
X018421Y003699D02*
X016321Y003699D01*
X016321Y003797D02*
X016869Y003797D01*
X016965Y003701D02*
X016701Y003965D01*
X016701Y004101D01*
X017101Y004101D01*
X017101Y003701D01*
X016965Y003701D01*
X017101Y003797D02*
X017201Y003797D01*
X017201Y003896D02*
X017101Y003896D01*
X017101Y003994D02*
X017201Y003994D01*
X017201Y004093D02*
X017101Y004093D01*
X017151Y004151D02*
X016651Y004851D01*
X016651Y005651D01*
X010551Y005651D01*
X009751Y006051D01*
X009561Y006064D02*
X010651Y006064D01*
X010651Y006162D02*
X009561Y006162D01*
X009561Y006261D02*
X010651Y006261D01*
X010651Y006359D02*
X009523Y006359D01*
X009561Y006321D02*
X009461Y006421D01*
X010651Y006419D01*
X010651Y005550D01*
X010209Y005800D01*
X010177Y005831D01*
X010153Y005831D01*
X010132Y005843D01*
X010089Y005831D01*
X009411Y005831D01*
X009561Y005981D01*
X009561Y006321D01*
X009545Y005965D02*
X010651Y005965D01*
X010651Y005867D02*
X009446Y005867D01*
X009941Y005391D02*
X010311Y004491D01*
X010201Y004371D01*
X010511Y004121D01*
X010756Y004011D02*
X010780Y004068D01*
X010780Y004094D01*
X010808Y004083D01*
X010915Y004083D01*
X011013Y004124D01*
X011089Y004199D01*
X011130Y004298D01*
X011130Y004405D01*
X011094Y004491D01*
X015013Y004491D01*
X014973Y004395D01*
X014973Y004291D01*
X014905Y004320D01*
X014798Y004320D01*
X014699Y004279D01*
X014632Y004211D01*
X014610Y004211D01*
X014575Y004224D01*
X014550Y004213D01*
X014536Y004226D01*
X014146Y004226D01*
X014056Y004136D01*
X014056Y003811D01*
X014026Y003811D01*
X014026Y004136D01*
X013936Y004226D01*
X013546Y004226D01*
X013456Y004136D01*
X013456Y004020D01*
X013427Y004011D01*
X010756Y004011D01*
X010780Y004093D02*
X010783Y004093D01*
X010939Y004093D02*
X013456Y004093D01*
X013512Y004191D02*
X011081Y004191D01*
X011126Y004290D02*
X014726Y004290D01*
X014973Y004389D02*
X011130Y004389D01*
X011095Y004487D02*
X015011Y004487D01*
X015241Y004341D02*
X015251Y001451D01*
X015151Y001151D01*
X014852Y001432D02*
X014450Y001432D01*
X014548Y001334D02*
X014754Y001334D01*
X014741Y001321D02*
X014741Y000981D01*
X014941Y000781D01*
X014361Y000781D01*
X014561Y000981D01*
X014561Y001321D01*
X014321Y001561D01*
X014311Y001561D01*
X014311Y003656D01*
X014536Y003656D01*
X014626Y003746D01*
X014626Y003891D01*
X014632Y003891D01*
X014671Y003851D01*
X014666Y003846D01*
X014666Y003456D01*
X014756Y003366D01*
X015085Y003366D01*
X015091Y001561D01*
X014981Y001561D01*
X014741Y001321D01*
X014741Y001235D02*
X014561Y001235D01*
X014561Y001137D02*
X014741Y001137D01*
X014741Y001038D02*
X014561Y001038D01*
X014519Y000940D02*
X014783Y000940D01*
X014882Y000841D02*
X014421Y000841D01*
X014151Y001151D02*
X014151Y003651D01*
X009051Y003651D01*
X008211Y005341D01*
X008211Y006201D01*
X007281Y006891D01*
X006871Y006931D01*
X006951Y007251D02*
X006551Y007201D01*
X006951Y007251D02*
X007281Y007121D01*
X008411Y006311D01*
X008411Y005531D01*
X008651Y005551D01*
X008452Y005371D02*
X008499Y005324D01*
X008598Y005283D01*
X008705Y005283D01*
X008741Y005298D01*
X008741Y004981D01*
X008981Y004741D01*
X009252Y004741D01*
X009198Y004690D01*
X009098Y004690D01*
X008999Y004649D01*
X008924Y004573D01*
X008883Y004475D01*
X008883Y004368D01*
X008924Y004269D01*
X008999Y004194D01*
X009098Y004153D01*
X009205Y004153D01*
X009284Y004186D01*
X009289Y004165D01*
X009315Y004121D01*
X009351Y004085D01*
X009395Y004059D01*
X009444Y004046D01*
X009564Y004046D01*
X009564Y004333D01*
X009639Y004333D01*
X009639Y004046D01*
X009744Y004046D01*
X009742Y003918D01*
X009741Y003917D01*
X009741Y003853D01*
X009741Y003811D01*
X009150Y003811D01*
X008377Y005368D01*
X008418Y005371D01*
X008452Y005371D01*
X008422Y005275D02*
X008741Y005275D01*
X008741Y005177D02*
X008471Y005177D01*
X008520Y005078D02*
X008741Y005078D01*
X008743Y004980D02*
X008569Y004980D01*
X008618Y004881D02*
X008841Y004881D01*
X008940Y004783D02*
X008667Y004783D01*
X008716Y004684D02*
X009085Y004684D01*
X008936Y004586D02*
X008765Y004586D01*
X008814Y004487D02*
X008888Y004487D01*
X008883Y004389D02*
X008863Y004389D01*
X008912Y004290D02*
X008915Y004290D01*
X008961Y004191D02*
X009004Y004191D01*
X009010Y004093D02*
X009343Y004093D01*
X009361Y004131D02*
X009601Y004371D01*
X009564Y004290D02*
X009639Y004290D01*
X009639Y004191D02*
X009564Y004191D01*
X009564Y004093D02*
X009639Y004093D01*
X009743Y003994D02*
X009059Y003994D01*
X009108Y003896D02*
X009741Y003896D01*
X009901Y003851D02*
X009911Y004551D01*
X009901Y004671D01*
X009771Y005021D01*
X009151Y004421D01*
X009361Y004131D02*
X009361Y004021D01*
X009901Y003851D02*
X013451Y003851D01*
X013741Y003941D01*
X014026Y003896D02*
X014056Y003896D01*
X014056Y003994D02*
X014026Y003994D01*
X014026Y004093D02*
X014056Y004093D01*
X014112Y004191D02*
X013971Y004191D01*
X014341Y003941D02*
X014581Y004051D01*
X014851Y004051D01*
X014951Y004051D01*
X014951Y003651D01*
X014666Y003699D02*
X014579Y003699D01*
X014626Y003797D02*
X014666Y003797D01*
X014666Y003600D02*
X014311Y003600D01*
X014311Y003502D02*
X014666Y003502D01*
X014719Y003403D02*
X014311Y003403D01*
X014311Y003305D02*
X015085Y003305D01*
X015085Y003206D02*
X014311Y003206D01*
X014311Y003107D02*
X015085Y003107D01*
X015086Y003009D02*
X014311Y003009D01*
X014311Y002910D02*
X015086Y002910D01*
X015086Y002812D02*
X014311Y002812D01*
X014311Y002713D02*
X015087Y002713D01*
X015087Y002615D02*
X014311Y002615D01*
X014311Y002516D02*
X015087Y002516D01*
X015088Y002418D02*
X014311Y002418D01*
X014311Y002319D02*
X015088Y002319D01*
X015089Y002221D02*
X014311Y002221D01*
X014311Y002122D02*
X015089Y002122D01*
X015089Y002024D02*
X014311Y002024D01*
X014311Y001925D02*
X015090Y001925D01*
X015090Y001826D02*
X014311Y001826D01*
X014311Y001728D02*
X015090Y001728D01*
X015091Y001629D02*
X014311Y001629D01*
X014351Y001531D02*
X014951Y001531D01*
X015411Y001531D02*
X015951Y001531D01*
X015981Y001561D02*
X015741Y001321D01*
X015741Y000981D01*
X015941Y000781D01*
X015361Y000781D01*
X015561Y000981D01*
X015561Y001321D01*
X015423Y001460D01*
X015424Y001463D01*
X015411Y001489D01*
X015405Y003366D01*
X015746Y003366D01*
X015836Y003456D01*
X015836Y003491D01*
X015881Y003481D01*
X015898Y003491D01*
X015917Y003491D01*
X015952Y003526D01*
X015993Y003552D01*
X015997Y003571D01*
X016001Y003575D01*
X016001Y001561D01*
X015981Y001561D01*
X016001Y001629D02*
X015411Y001629D01*
X015410Y001728D02*
X016001Y001728D01*
X016001Y001826D02*
X015410Y001826D01*
X015410Y001925D02*
X016001Y001925D01*
X016001Y002024D02*
X015409Y002024D01*
X015409Y002122D02*
X016001Y002122D01*
X016001Y002221D02*
X015409Y002221D01*
X015408Y002319D02*
X016001Y002319D01*
X016001Y002418D02*
X015408Y002418D01*
X015407Y002516D02*
X016001Y002516D01*
X016001Y002615D02*
X015407Y002615D01*
X015407Y002713D02*
X016001Y002713D01*
X016001Y002812D02*
X015406Y002812D01*
X015406Y002910D02*
X016001Y002910D01*
X016001Y003009D02*
X015406Y003009D01*
X015405Y003107D02*
X016001Y003107D01*
X016001Y003206D02*
X015405Y003206D01*
X015405Y003305D02*
X016001Y003305D01*
X016001Y003403D02*
X015783Y003403D01*
X015928Y003502D02*
X016001Y003502D01*
X015851Y003651D02*
X015891Y003831D01*
X015851Y003651D02*
X015551Y003651D01*
X016321Y003896D02*
X016770Y003896D01*
X016701Y003994D02*
X016321Y003994D01*
X016321Y004093D02*
X016701Y004093D01*
X016701Y004290D02*
X016321Y004290D01*
X016321Y004389D02*
X016752Y004389D01*
X016851Y004487D02*
X016271Y004487D01*
X016321Y004191D02*
X017101Y004191D01*
X017201Y004191D02*
X018101Y004191D01*
X018101Y004101D02*
X017701Y004101D01*
X017701Y003965D01*
X017965Y003701D01*
X018101Y003701D01*
X018101Y004101D01*
X018101Y004093D02*
X018201Y004093D01*
X018201Y003994D02*
X018101Y003994D01*
X018101Y003896D02*
X018201Y003896D01*
X018201Y003797D02*
X018101Y003797D01*
X017869Y003797D02*
X017434Y003797D01*
X017532Y003896D02*
X017770Y003896D01*
X017701Y003994D02*
X017601Y003994D01*
X017601Y004093D02*
X017701Y004093D01*
X017651Y004551D02*
X017651Y006311D01*
X017391Y006571D01*
X009061Y006581D01*
X009761Y007071D02*
X011415Y007101D01*
X011365Y007151D01*
X012005Y007101D02*
X012051Y007147D01*
X012051Y007751D01*
X012071Y007731D01*
X017411Y007721D01*
X017551Y007601D01*
X017611Y007491D01*
X017611Y006641D01*
X017681Y006591D01*
X018641Y006591D01*
X018651Y006581D01*
X018651Y004651D01*
X018421Y002812D02*
X018392Y002812D01*
X018644Y002319D02*
X018651Y002319D01*
X018651Y002221D02*
X018561Y002221D01*
X018561Y002122D02*
X018651Y002122D01*
X018651Y002024D02*
X018561Y002024D01*
X018505Y001925D02*
X018651Y001925D01*
X018651Y001826D02*
X018406Y001826D01*
X015852Y001432D02*
X015450Y001432D01*
X015548Y001334D02*
X015754Y001334D01*
X015741Y001235D02*
X015561Y001235D01*
X015561Y001137D02*
X015741Y001137D01*
X015741Y001038D02*
X015561Y001038D01*
X015519Y000940D02*
X015783Y000940D01*
X015882Y000841D02*
X015421Y000841D01*
X013941Y000781D02*
X013361Y000781D01*
X013561Y000981D01*
X013561Y001321D01*
X013321Y001561D01*
X013311Y001561D01*
X013311Y003491D01*
X013991Y003491D01*
X013991Y001561D01*
X013981Y001561D01*
X013741Y001321D01*
X013741Y000981D01*
X013941Y000781D01*
X013882Y000841D02*
X013421Y000841D01*
X013519Y000940D02*
X013783Y000940D01*
X013741Y001038D02*
X013561Y001038D01*
X013561Y001137D02*
X013741Y001137D01*
X013741Y001235D02*
X013561Y001235D01*
X013548Y001334D02*
X013754Y001334D01*
X013852Y001432D02*
X013450Y001432D01*
X013351Y001531D02*
X013951Y001531D01*
X013991Y001629D02*
X013311Y001629D01*
X013311Y001728D02*
X013991Y001728D01*
X013991Y001826D02*
X013311Y001826D01*
X013311Y001925D02*
X013991Y001925D01*
X013991Y002024D02*
X013311Y002024D01*
X013311Y002122D02*
X013991Y002122D01*
X013991Y002221D02*
X013311Y002221D01*
X013311Y002319D02*
X013991Y002319D01*
X013991Y002418D02*
X013311Y002418D01*
X013311Y002516D02*
X013991Y002516D01*
X013991Y002615D02*
X013311Y002615D01*
X013311Y002713D02*
X013991Y002713D01*
X013991Y002812D02*
X013311Y002812D01*
X013311Y002910D02*
X013991Y002910D01*
X013991Y003009D02*
X013311Y003009D01*
X013311Y003107D02*
X013991Y003107D01*
X013991Y003206D02*
X013311Y003206D01*
X013311Y003305D02*
X013991Y003305D01*
X013991Y003403D02*
X013311Y003403D01*
X012991Y003206D02*
X012311Y003206D01*
X012311Y003107D02*
X012991Y003107D01*
X012991Y003009D02*
X012311Y003009D01*
X012311Y002910D02*
X012991Y002910D01*
X012991Y002812D02*
X012311Y002812D01*
X012311Y002713D02*
X012991Y002713D01*
X012991Y002615D02*
X012311Y002615D01*
X012311Y002516D02*
X012991Y002516D01*
X012991Y002418D02*
X012311Y002418D01*
X012311Y002319D02*
X012991Y002319D01*
X012991Y002221D02*
X012311Y002221D01*
X012311Y002122D02*
X012991Y002122D01*
X012991Y002024D02*
X012311Y002024D01*
X012311Y001925D02*
X012991Y001925D01*
X012991Y001826D02*
X012311Y001826D01*
X012311Y001728D02*
X012991Y001728D01*
X012991Y001629D02*
X012311Y001629D01*
X012351Y001531D02*
X012951Y001531D01*
X011882Y000841D02*
X011421Y000841D01*
X011519Y000940D02*
X011783Y000940D01*
X011741Y001038D02*
X011561Y001038D01*
X010851Y001951D02*
X010671Y001941D01*
X010631Y001901D01*
X010511Y001801D01*
X010151Y001151D01*
X008651Y002851D02*
X008051Y003851D01*
X007651Y004051D01*
X008015Y003600D02*
X006956Y003600D01*
X006956Y003502D02*
X008074Y003502D01*
X007498Y003403D02*
X006956Y003403D01*
X006956Y003305D02*
X007441Y003305D01*
X007441Y003206D02*
X006956Y003206D01*
X006938Y003107D02*
X007441Y003107D01*
X007441Y003009D02*
X006829Y003009D01*
X006811Y002910D02*
X007113Y002910D01*
X007041Y002812D02*
X006761Y002812D01*
X006761Y002713D02*
X007041Y002713D01*
X007041Y002615D02*
X006761Y002615D01*
X006761Y002516D02*
X007041Y002516D01*
X006911Y002661D02*
X007271Y003271D01*
X006551Y002991D02*
X006551Y002751D01*
X006451Y002651D01*
X005951Y002201D02*
X005951Y001651D01*
X005641Y001911D02*
X005321Y001921D01*
X005376Y002418D02*
X005605Y002418D01*
X005566Y002516D02*
X005376Y002516D01*
X005376Y002615D02*
X005566Y002615D01*
X005566Y002713D02*
X005376Y002713D01*
X005376Y002812D02*
X005566Y002812D01*
X005621Y002910D02*
X005376Y002910D01*
X005376Y003009D02*
X005621Y003009D01*
X005621Y003107D02*
X005376Y003107D01*
X005376Y003206D02*
X005621Y003206D01*
X005621Y003305D02*
X005376Y003305D01*
X005374Y003403D02*
X005621Y003403D01*
X005511Y003221D02*
X005321Y003471D01*
X004451Y003471D01*
X004201Y002881D01*
X004132Y003009D02*
X004487Y003009D01*
X004487Y003107D02*
X004173Y003107D01*
X004222Y003206D02*
X004487Y003206D01*
X004487Y003305D02*
X004272Y003305D01*
X004321Y003403D02*
X004488Y003403D01*
X004506Y003502D02*
X004876Y003502D01*
X004356Y003502D02*
X004311Y003502D01*
X004151Y003421D02*
X004151Y004389D01*
X004931Y004439D01*
X005376Y003994D02*
X005514Y003994D01*
X005731Y003671D02*
X005821Y003721D01*
X005851Y003551D01*
X004931Y002864D02*
X004901Y002701D01*
X004451Y002551D01*
X004651Y002614D01*
X004931Y002864D01*
X004487Y002910D02*
X004026Y002910D01*
X003962Y002812D02*
X004379Y002812D01*
X004234Y002713D02*
X004032Y002713D01*
X004066Y002615D02*
X004187Y002615D01*
X004183Y002516D02*
X004066Y002516D01*
X004066Y002418D02*
X004216Y002418D01*
X004193Y002319D02*
X004066Y002319D01*
X004053Y002265D02*
X004027Y002221D01*
X004151Y002051D02*
X004301Y002201D01*
X005951Y002201D01*
X004151Y002051D02*
X002251Y002051D01*
X002251Y004451D01*
X002041Y004751D01*
X002041Y006051D01*
X001731Y006371D01*
X001711Y006611D01*
X001851Y006801D01*
X001851Y007581D01*
X003761Y007591D01*
X003471Y008893D01*
X003631Y009011D02*
X003991Y007401D01*
X002031Y007411D01*
X002051Y006851D01*
X002351Y006851D01*
X002321Y006841D01*
X002491Y006831D01*
X003031Y006821D01*
X004361Y006821D01*
X004441Y006861D01*
X004441Y006951D01*
X004561Y007261D02*
X004101Y007251D01*
X003951Y007121D01*
X002491Y007121D01*
X002271Y007141D01*
X002321Y007121D01*
X002351Y006851D02*
X002351Y006651D01*
X002401Y006551D01*
X002213Y006359D02*
X001965Y006359D01*
X002037Y006285D02*
X001886Y006441D01*
X001876Y006565D01*
X001973Y006697D01*
X001976Y006700D01*
X001985Y006691D01*
X001988Y006691D01*
X001991Y006689D01*
X002054Y006691D01*
X002169Y006691D01*
X002133Y006605D01*
X002133Y006498D01*
X002174Y006399D01*
X002235Y006338D01*
X002132Y006338D01*
X002094Y006328D01*
X002060Y006308D01*
X002037Y006285D01*
X002149Y006458D02*
X001884Y006458D01*
X001876Y006556D02*
X002133Y006556D01*
X002154Y006655D02*
X001942Y006655D01*
X001552Y006593D02*
X001564Y006445D01*
X001535Y006451D01*
X001351Y006451D01*
X001351Y006051D01*
X001251Y006051D01*
X001251Y006451D01*
X001068Y006451D01*
X001021Y006442D01*
X000977Y006424D01*
X000938Y006398D01*
X000905Y006364D01*
X000891Y006344D01*
X000891Y006637D01*
X000907Y006632D01*
X001251Y006632D01*
X001251Y007106D01*
X001351Y007106D01*
X001351Y006632D01*
X001546Y006632D01*
X001552Y006593D01*
X001555Y006556D02*
X000891Y006556D01*
X000891Y006458D02*
X001563Y006458D01*
X001351Y006359D02*
X001251Y006359D01*
X001251Y006261D02*
X001351Y006261D01*
X001351Y006162D02*
X001251Y006162D01*
X001251Y006064D02*
X001351Y006064D01*
X001351Y005965D02*
X001881Y005965D01*
X001881Y005867D02*
X001751Y005867D01*
X001751Y006064D02*
X001806Y006064D01*
X001351Y005867D02*
X001251Y005867D01*
X001251Y005768D02*
X001351Y005768D01*
X001351Y005670D02*
X001251Y005670D01*
X001251Y005571D02*
X001351Y005571D01*
X001351Y005473D02*
X001251Y005473D01*
X001251Y005374D02*
X001351Y005374D01*
X001351Y005275D02*
X001251Y005275D01*
X001351Y005177D02*
X001881Y005177D01*
X001881Y005275D02*
X001751Y005275D01*
X001751Y005374D02*
X001881Y005374D01*
X001881Y005473D02*
X001744Y005473D01*
X001691Y005571D02*
X001881Y005571D01*
X002451Y005601D02*
X004971Y005601D01*
X005001Y005831D01*
X004716Y005867D02*
X002860Y005867D01*
X002860Y005936D02*
X002870Y005946D01*
X002890Y005980D01*
X002900Y006018D01*
X002900Y006113D01*
X002900Y006187D01*
X002904Y006179D01*
X002979Y006104D01*
X003078Y006063D01*
X003185Y006063D01*
X003283Y006104D01*
X003351Y006171D01*
X003555Y006181D01*
X004181Y006181D01*
X004206Y006156D01*
X004596Y006156D01*
X004686Y006246D01*
X004686Y006247D01*
X004689Y006235D01*
X004715Y006191D01*
X004751Y006155D01*
X004795Y006129D01*
X004844Y006116D01*
X004964Y006116D01*
X004964Y006403D01*
X005039Y006403D01*
X005039Y006116D01*
X005131Y006116D01*
X004806Y006116D01*
X004716Y006026D01*
X004716Y005761D01*
X002860Y005761D01*
X002860Y005936D01*
X002881Y005965D02*
X004716Y005965D01*
X004754Y006064D02*
X003187Y006064D01*
X003075Y006064D02*
X002900Y006064D01*
X002900Y006113D02*
X002452Y006113D01*
X002900Y006113D01*
X002900Y006162D02*
X002920Y006162D01*
X003342Y006162D02*
X004200Y006162D01*
X004211Y006131D02*
X004221Y005929D01*
X004602Y006162D02*
X004744Y006162D01*
X004964Y006162D02*
X005039Y006162D01*
X005039Y006261D02*
X004964Y006261D01*
X004964Y006359D02*
X005039Y006359D01*
X004963Y006404D02*
X004686Y006404D01*
X004686Y006417D01*
X004714Y006446D01*
X004752Y006470D01*
X004754Y006479D01*
X004963Y006479D01*
X004963Y006404D01*
X004941Y006441D02*
X005001Y006441D01*
X004963Y006458D02*
X004732Y006458D01*
X004611Y006571D02*
X004741Y006711D01*
X004731Y006711D01*
X004731Y007291D01*
X004921Y007291D01*
X004921Y008441D01*
X004591Y008811D01*
X004481Y008991D01*
X004471Y009041D01*
X004675Y009217D02*
X004771Y009217D01*
X004699Y009193D02*
X004623Y009269D01*
X004525Y009310D01*
X004480Y009310D01*
X004480Y009385D01*
X004439Y009483D01*
X004363Y009559D01*
X004310Y009581D01*
X004330Y009628D01*
X004330Y009646D01*
X004609Y009801D01*
X004771Y009839D01*
X004771Y009054D01*
X004769Y008991D01*
X004771Y008989D01*
X004771Y008985D01*
X004816Y008940D01*
X005131Y008599D01*
X005131Y007325D01*
X005180Y007276D01*
X005081Y007276D01*
X005081Y008437D01*
X005085Y008498D01*
X005081Y008502D01*
X005081Y008507D01*
X005037Y008551D01*
X004720Y008907D01*
X004712Y008921D01*
X004740Y008988D01*
X004740Y009095D01*
X004699Y009193D01*
X004730Y009119D02*
X004771Y009119D01*
X004770Y009020D02*
X004740Y009020D01*
X004712Y008922D02*
X004833Y008922D01*
X004771Y008921D02*
X004661Y009671D01*
X004771Y009710D02*
X004445Y009710D01*
X004323Y009611D02*
X004771Y009611D01*
X004771Y009513D02*
X004409Y009513D01*
X004467Y009414D02*
X004771Y009414D01*
X004771Y009316D02*
X004480Y009316D01*
X004211Y009331D02*
X004041Y009341D01*
X003641Y009311D01*
X003631Y009011D01*
X003911Y009061D02*
X004051Y008851D01*
X004051Y008251D01*
X004181Y007791D01*
X004561Y007881D02*
X004561Y007261D01*
X005081Y007345D02*
X005131Y007345D01*
X005131Y007443D02*
X005081Y007443D01*
X005081Y007542D02*
X005131Y007542D01*
X005131Y007640D02*
X005081Y007640D01*
X005081Y007739D02*
X005131Y007739D01*
X005131Y007838D02*
X005081Y007838D01*
X005081Y007936D02*
X005131Y007936D01*
X005131Y008035D02*
X005081Y008035D01*
X005081Y008133D02*
X005131Y008133D01*
X005131Y008232D02*
X005081Y008232D01*
X005081Y008330D02*
X005131Y008330D01*
X005131Y008429D02*
X005081Y008429D01*
X005061Y008527D02*
X005131Y008527D01*
X005111Y008551D02*
X004771Y008921D01*
X004795Y008823D02*
X004924Y008823D01*
X004883Y008724D02*
X005015Y008724D01*
X004971Y008626D02*
X005106Y008626D01*
X005291Y008661D02*
X004931Y009051D01*
X004931Y010041D01*
X004551Y009951D01*
X004061Y009681D01*
X004643Y009808D02*
X004771Y009808D01*
X005441Y009836D02*
X005441Y010206D01*
X005498Y010183D01*
X005605Y010183D01*
X005691Y010219D01*
X005691Y010070D01*
X005681Y010060D01*
X005661Y010026D01*
X005651Y009988D01*
X005651Y009843D01*
X006076Y009843D01*
X006076Y009793D01*
X005729Y009793D01*
X005703Y009819D01*
X005605Y009860D01*
X005498Y009860D01*
X005441Y009836D01*
X005441Y009907D02*
X005651Y009907D01*
X005671Y009871D02*
X005551Y010051D01*
X005656Y010006D02*
X005441Y010006D01*
X005441Y010104D02*
X005691Y010104D01*
X005691Y010203D02*
X005652Y010203D01*
X005450Y010203D02*
X005441Y010203D01*
X005551Y010451D02*
X006101Y010251D01*
X006201Y010171D01*
X008331Y010181D01*
X008851Y009651D01*
X009451Y009651D01*
X009651Y010251D01*
X015451Y010251D01*
X016431Y011161D01*
X016431Y012651D01*
X016651Y012951D01*
X016631Y014351D01*
X017151Y014851D01*
X017151Y015151D01*
X017611Y015331D02*
X017651Y013551D01*
X017651Y013101D01*
X017571Y012931D01*
X017351Y012701D01*
X017021Y012701D01*
X017021Y010931D01*
X017011Y010931D01*
X015651Y009661D01*
X009951Y009661D01*
X009451Y008651D01*
X008651Y008651D01*
X008651Y009451D01*
X008151Y009951D01*
X007451Y009951D01*
X006761Y009251D01*
X006101Y009385D01*
X006095Y009391D01*
X005551Y009591D01*
X005714Y009808D02*
X006076Y009808D01*
X006101Y009818D02*
X006648Y009818D01*
X006701Y009871D01*
X005671Y009871D01*
X006126Y009843D02*
X006551Y009843D01*
X006551Y009909D01*
X006663Y009909D01*
X006663Y009834D01*
X006376Y009834D01*
X006376Y009793D01*
X006126Y009793D01*
X006126Y009843D01*
X006126Y009808D02*
X006376Y009808D01*
X006551Y009907D02*
X006663Y009907D01*
X006701Y009871D02*
X006751Y009821D01*
X006651Y009551D01*
X006664Y009546D02*
X006664Y009833D01*
X006739Y009833D01*
X006739Y009546D01*
X006827Y009546D01*
X006708Y009425D01*
X006511Y009465D01*
X006511Y009555D01*
X006544Y009546D01*
X006664Y009546D01*
X006664Y009611D02*
X006739Y009611D01*
X006739Y009710D02*
X006664Y009710D01*
X006664Y009808D02*
X006739Y009808D01*
X006739Y009834D02*
X006739Y009909D01*
X007026Y009909D01*
X007026Y010015D01*
X007291Y010016D01*
X007026Y009748D01*
X007026Y009834D01*
X006739Y009834D01*
X006739Y009907D02*
X007183Y009907D01*
X007280Y010006D02*
X007026Y010006D01*
X007026Y009808D02*
X007086Y009808D01*
X006794Y009513D02*
X006511Y009513D01*
X005551Y009051D02*
X005451Y009051D01*
X005281Y009251D01*
X005281Y010551D01*
X003621Y010251D01*
X003651Y010651D02*
X004851Y010651D01*
X005051Y010751D01*
X005411Y011541D01*
X005540Y011560D01*
X006101Y011550D01*
X006101Y011501D01*
X006701Y011501D01*
X006509Y011786D02*
X006511Y011788D01*
X006511Y012091D01*
X008027Y012091D01*
X008067Y012079D01*
X008091Y012091D01*
X008117Y012091D01*
X008147Y012121D01*
X008681Y012401D01*
X008821Y012401D01*
X008741Y012321D01*
X008741Y011981D01*
X008911Y011811D01*
X008696Y011811D01*
X008694Y011812D01*
X008629Y011811D01*
X008565Y011811D01*
X008564Y011810D01*
X008562Y011810D01*
X008517Y011763D01*
X008471Y011717D01*
X008471Y011716D01*
X008470Y011714D01*
X008471Y011650D01*
X008471Y011585D01*
X008472Y011584D01*
X008478Y011281D01*
X007604Y011280D01*
X007613Y011295D01*
X007626Y011344D01*
X007626Y011464D01*
X007339Y011464D01*
X007339Y011539D01*
X007264Y011539D01*
X007264Y011826D01*
X007144Y011826D01*
X007095Y011813D01*
X007051Y011787D01*
X007015Y011751D01*
X006989Y011707D01*
X006986Y011695D01*
X006986Y011696D01*
X006896Y011786D01*
X006509Y011786D01*
X006511Y011878D02*
X008845Y011878D01*
X008746Y011976D02*
X006511Y011976D01*
X006511Y012075D02*
X008741Y012075D01*
X008741Y012173D02*
X008247Y012173D01*
X008241Y011991D02*
X008251Y011851D01*
X008251Y011511D01*
X007701Y011501D01*
X007301Y011501D01*
X007339Y011484D02*
X008474Y011484D01*
X008472Y011582D02*
X007626Y011582D01*
X007626Y011539D02*
X007626Y011658D01*
X007613Y011707D01*
X007587Y011751D01*
X007551Y011787D01*
X007507Y011813D01*
X007458Y011826D01*
X007339Y011826D01*
X007339Y011539D01*
X007626Y011539D01*
X007620Y011681D02*
X008471Y011681D01*
X008532Y011779D02*
X007560Y011779D01*
X007339Y011779D02*
X007264Y011779D01*
X007264Y011681D02*
X007339Y011681D01*
X007339Y011582D02*
X007264Y011582D01*
X007043Y011779D02*
X006903Y011779D01*
X007626Y011385D02*
X008476Y011385D01*
X008478Y011287D02*
X007608Y011287D01*
X008641Y011121D02*
X006101Y011117D01*
X005705Y011117D01*
X005511Y011111D01*
X005351Y010751D02*
X005281Y010571D01*
X005281Y010551D01*
X005351Y010751D02*
X005731Y010751D01*
X005871Y010691D01*
X006481Y010691D01*
X006488Y010684D01*
X006491Y010681D01*
X006104Y010681D01*
X006101Y010684D01*
X006488Y010684D01*
X006491Y010681D02*
X006701Y010471D01*
X007941Y009431D02*
X007951Y009051D01*
X007881Y008851D01*
X008111Y008511D02*
X006881Y008481D01*
X007401Y007431D02*
X007991Y006991D01*
X009439Y007443D02*
X009779Y007443D01*
X009561Y008035D02*
X010266Y008035D01*
X010266Y008133D02*
X009561Y008133D01*
X009561Y008232D02*
X010266Y008232D01*
X010266Y008330D02*
X009552Y008330D01*
X009453Y008429D02*
X010285Y008429D01*
X010287Y008527D02*
X009568Y008527D01*
X009617Y008626D02*
X010266Y008626D01*
X010266Y008724D02*
X009666Y008724D01*
X009715Y008823D02*
X010049Y008823D01*
X009923Y008922D02*
X009764Y008922D01*
X009812Y009020D02*
X009883Y009020D01*
X009883Y009119D02*
X009861Y009119D01*
X009910Y009217D02*
X009921Y009217D01*
X009959Y009316D02*
X010040Y009316D01*
X010007Y009414D02*
X010266Y009414D01*
X010262Y009316D02*
X010266Y009316D01*
X010151Y009071D02*
X016651Y009051D01*
X017851Y007751D01*
X017901Y007401D01*
X017851Y007161D01*
X017911Y007101D01*
X018501Y007101D02*
X018501Y007451D01*
X018401Y007801D01*
X018211Y008251D01*
X018211Y012701D01*
X018651Y012701D01*
X018651Y015751D01*
X017611Y015331D02*
X017351Y015651D01*
X016951Y015651D01*
X016451Y015151D01*
X016151Y015151D01*
X015651Y015651D02*
X014651Y015651D01*
X014151Y015151D01*
X014661Y014651D02*
X014661Y011721D01*
X014251Y011431D01*
X010211Y011431D01*
X010051Y011261D01*
X009651Y011261D01*
X009601Y011331D01*
X009561Y011411D01*
X009351Y011631D01*
X009351Y011651D01*
X008631Y011651D01*
X008641Y011121D01*
X008851Y010651D02*
X009651Y010651D01*
X010151Y010841D01*
X014251Y010841D01*
X015251Y011651D01*
X015251Y012651D01*
X015651Y012951D01*
X015651Y015651D01*
X015151Y015151D02*
X014661Y014651D01*
X013151Y015151D02*
X012651Y014651D01*
X012651Y012741D01*
X012301Y012741D01*
X012201Y012731D01*
X010351Y012731D01*
X009641Y011881D01*
X009889Y011779D02*
X010266Y011779D01*
X010266Y011681D02*
X009820Y011681D01*
X009793Y011654D02*
X009869Y011729D01*
X009910Y011828D01*
X009910Y011935D01*
X009904Y011947D01*
X010426Y012571D01*
X010651Y012571D01*
X010651Y012017D01*
X010330Y012017D01*
X010266Y011953D01*
X010266Y011593D01*
X010209Y011591D01*
X010145Y011591D01*
X010143Y011589D01*
X010140Y011589D01*
X010097Y011543D01*
X010051Y011497D01*
X010051Y011495D01*
X009982Y011421D01*
X009735Y011421D01*
X009722Y011447D01*
X009723Y011474D01*
X009693Y011504D01*
X009675Y011542D01*
X009649Y011550D01*
X009590Y011613D01*
X009695Y011613D01*
X009793Y011654D01*
X009811Y011531D02*
X010319Y012219D01*
X011415Y012219D01*
X010651Y012173D02*
X010094Y012173D01*
X010011Y012075D02*
X010651Y012075D01*
X010651Y012272D02*
X010176Y012272D01*
X010258Y012371D02*
X010651Y012371D01*
X010651Y012469D02*
X010341Y012469D01*
X010423Y012568D02*
X010651Y012568D01*
X010551Y013251D02*
X010141Y013291D01*
X009481Y012581D01*
X009461Y012581D01*
X009401Y012561D01*
X008641Y012561D01*
X008051Y012251D01*
X005651Y012251D01*
X005651Y011751D01*
X005301Y011761D01*
X005041Y011171D01*
X003491Y011271D01*
X003396Y011522D02*
X003427Y011682D01*
X003719Y011910D01*
X004323Y011684D01*
X004345Y011661D01*
X004382Y011661D01*
X004417Y011648D01*
X004446Y011661D01*
X004555Y011661D01*
X004687Y011661D01*
X004995Y011969D01*
X005024Y011899D01*
X005099Y011824D01*
X005142Y011806D01*
X005142Y011797D01*
X004940Y011338D01*
X003721Y011417D01*
X003719Y011423D01*
X003643Y011499D01*
X003545Y011540D01*
X003438Y011540D01*
X003396Y011522D01*
X003408Y011582D02*
X005048Y011582D01*
X005091Y011681D02*
X004707Y011681D01*
X004806Y011779D02*
X005134Y011779D01*
X005045Y011878D02*
X004904Y011878D01*
X004951Y012151D02*
X004621Y011821D01*
X004411Y011821D01*
X003691Y012091D01*
X003281Y011771D01*
X003191Y011301D01*
X003161Y011121D01*
X003241Y010581D01*
X003501Y010881D02*
X003651Y010651D01*
X004210Y011385D02*
X004961Y011385D01*
X005004Y011484D02*
X003658Y011484D01*
X003427Y011681D02*
X004325Y011681D01*
X004351Y011591D02*
X003731Y011761D01*
X003678Y011878D02*
X003804Y011878D01*
X003552Y011779D02*
X004067Y011779D01*
X004351Y011591D02*
X004921Y011601D01*
X004671Y012121D02*
X004381Y012041D01*
X003671Y012341D01*
X002941Y011771D01*
X002811Y011981D02*
X003111Y012161D01*
X003411Y012401D01*
X003951Y013851D01*
X005151Y013851D01*
X005400Y013750D02*
X005497Y013750D01*
X005497Y013816D02*
X005497Y013546D01*
X005507Y013508D01*
X005527Y013474D01*
X005555Y013446D01*
X005589Y013426D01*
X005627Y013416D01*
X005897Y013416D01*
X005897Y013816D01*
X005497Y013816D01*
X005420Y013798D02*
X005420Y013905D01*
X005379Y014003D01*
X005415Y014003D01*
X005497Y014037D01*
X005497Y013916D01*
X005897Y013916D01*
X005897Y013816D01*
X005997Y013816D01*
X005997Y013416D01*
X006267Y013416D01*
X006305Y013426D01*
X006339Y013446D01*
X006367Y013474D01*
X006387Y013508D01*
X006397Y013546D01*
X006397Y013586D01*
X006459Y013524D01*
X006558Y013483D01*
X006665Y013483D01*
X006742Y013515D01*
X006621Y013192D01*
X004900Y013211D01*
X004885Y013221D01*
X004836Y013211D01*
X004787Y013212D01*
X004773Y013199D01*
X004755Y013195D01*
X004727Y013154D01*
X004692Y013119D01*
X004692Y013100D01*
X004546Y012882D01*
X004531Y012876D01*
X004510Y012828D01*
X004481Y012785D01*
X004484Y012769D01*
X004423Y012627D01*
X004329Y012589D01*
X004254Y012513D01*
X004213Y012415D01*
X004213Y012308D01*
X004224Y012281D01*
X003772Y012472D01*
X003756Y012492D01*
X003713Y012497D01*
X003672Y012514D01*
X003649Y012505D01*
X003625Y012508D01*
X003620Y012504D01*
X004062Y013691D01*
X004932Y013691D01*
X004999Y013624D01*
X005098Y013583D01*
X005205Y013583D01*
X005303Y013624D01*
X005379Y013699D01*
X005420Y013798D01*
X005420Y013849D02*
X005897Y013849D01*
X005947Y013866D02*
X005951Y014651D01*
X003851Y014651D01*
X003351Y014151D01*
X002017Y014188D01*
X001967Y014144D02*
X000301Y014144D01*
X000301Y014046D02*
X001467Y014046D01*
X001467Y014138D02*
X001467Y013868D01*
X001478Y013830D01*
X001497Y013796D01*
X001525Y013768D01*
X001559Y013748D01*
X001598Y013738D01*
X001967Y013738D01*
X001967Y014138D01*
X001467Y014138D01*
X001467Y014238D02*
X001967Y014238D01*
X001967Y014138D01*
X002067Y014138D01*
X002067Y013738D01*
X002437Y013738D01*
X002475Y013748D01*
X002509Y013768D01*
X002537Y013796D01*
X002557Y013830D01*
X002567Y013868D01*
X002567Y014138D01*
X002067Y014138D01*
X002067Y014238D01*
X001967Y014238D01*
X001967Y014638D01*
X001598Y014638D01*
X001559Y014628D01*
X001525Y014608D01*
X001497Y014580D01*
X001478Y014546D01*
X001467Y014508D01*
X001467Y014238D01*
X001467Y014243D02*
X000301Y014243D01*
X000301Y014341D02*
X001467Y014341D01*
X001467Y014440D02*
X000301Y014440D01*
X000301Y014539D02*
X001476Y014539D01*
X001593Y014637D02*
X000301Y014637D01*
X000301Y014736D02*
X006383Y014736D01*
X006372Y014637D02*
X002441Y014637D01*
X002437Y014638D02*
X002067Y014638D01*
X002067Y014238D01*
X002567Y014238D01*
X002567Y014508D01*
X002557Y014546D01*
X002537Y014580D01*
X002509Y014608D01*
X002475Y014628D01*
X002437Y014638D01*
X002321Y014741D02*
X002561Y014981D01*
X002561Y015321D01*
X002321Y015561D01*
X001981Y015561D01*
X001741Y015321D01*
X001741Y014981D01*
X001981Y014741D01*
X002321Y014741D01*
X002414Y014834D02*
X002888Y014834D01*
X002981Y014741D02*
X002741Y014981D01*
X002741Y015321D01*
X002981Y015561D01*
X003321Y015561D01*
X003561Y015321D01*
X003561Y014981D01*
X003321Y014741D01*
X002981Y014741D01*
X002790Y014933D02*
X002512Y014933D01*
X002561Y015031D02*
X002741Y015031D01*
X002741Y015130D02*
X002561Y015130D01*
X002561Y015228D02*
X002741Y015228D01*
X002747Y015327D02*
X002555Y015327D01*
X002457Y015425D02*
X002846Y015425D01*
X002944Y015524D02*
X002358Y015524D01*
X001944Y015524D02*
X001534Y015524D01*
X001561Y015497D02*
X001497Y015561D01*
X000806Y015561D01*
X000741Y015497D01*
X000741Y014806D01*
X000806Y014741D01*
X001497Y014741D01*
X001561Y014806D01*
X001561Y015497D01*
X001561Y015425D02*
X001846Y015425D01*
X001747Y015327D02*
X001561Y015327D01*
X001561Y015228D02*
X001741Y015228D01*
X001741Y015130D02*
X001561Y015130D01*
X001561Y015031D02*
X001741Y015031D01*
X001790Y014933D02*
X001561Y014933D01*
X001561Y014834D02*
X001888Y014834D01*
X001967Y014637D02*
X002067Y014637D01*
X002067Y014539D02*
X001967Y014539D01*
X001967Y014440D02*
X002067Y014440D01*
X002067Y014341D02*
X001967Y014341D01*
X001967Y014243D02*
X002067Y014243D01*
X002067Y014144D02*
X003644Y014144D01*
X003609Y014046D02*
X002567Y014046D01*
X002567Y013947D02*
X003574Y013947D01*
X003539Y013849D02*
X002562Y013849D01*
X002478Y013750D02*
X003505Y013750D01*
X003470Y013652D02*
X000301Y013652D01*
X000301Y013750D02*
X001556Y013750D01*
X001473Y013849D02*
X000301Y013849D01*
X000301Y013947D02*
X001467Y013947D01*
X001967Y013947D02*
X002067Y013947D01*
X002067Y013849D02*
X001967Y013849D01*
X001967Y013750D02*
X002067Y013750D01*
X002067Y014046D02*
X001967Y014046D01*
X002567Y014243D02*
X003679Y014243D01*
X003713Y014341D02*
X002567Y014341D01*
X002567Y014440D02*
X005150Y014440D01*
X005305Y014539D02*
X002559Y014539D01*
X003414Y014834D02*
X003888Y014834D01*
X003981Y014741D02*
X003741Y014981D01*
X003741Y015321D01*
X003981Y015561D01*
X004321Y015561D01*
X004561Y015321D01*
X004561Y014981D01*
X004321Y014741D01*
X003981Y014741D01*
X003790Y014933D02*
X003512Y014933D01*
X003561Y015031D02*
X003741Y015031D01*
X003741Y015130D02*
X003561Y015130D01*
X003561Y015228D02*
X003741Y015228D01*
X003747Y015327D02*
X003555Y015327D01*
X003457Y015425D02*
X003846Y015425D01*
X003944Y015524D02*
X003358Y015524D01*
X004358Y015524D02*
X004944Y015524D01*
X004846Y015425D02*
X004457Y015425D01*
X004555Y015327D02*
X004747Y015327D01*
X004741Y015228D02*
X004561Y015228D01*
X004561Y015130D02*
X004741Y015130D01*
X004741Y015031D02*
X004561Y015031D01*
X004512Y014933D02*
X004790Y014933D01*
X004888Y014834D02*
X004414Y014834D01*
X005151Y015151D02*
X005651Y015851D01*
X010651Y015851D01*
X010651Y014851D01*
X010151Y015151D02*
X009551Y015651D01*
X006651Y015651D01*
X006471Y014111D01*
X006631Y013871D02*
X006741Y013941D01*
X006741Y014631D01*
X007751Y014651D01*
X008451Y014651D01*
X008651Y014451D01*
X008651Y013851D01*
X008851Y013651D01*
X009851Y013651D01*
X010651Y014451D01*
X010151Y013641D02*
X009371Y012731D01*
X008671Y012731D01*
X008701Y013551D01*
X008151Y013551D01*
X007981Y012411D01*
X005381Y012411D01*
X005251Y012051D01*
X004951Y012151D02*
X005191Y012651D01*
X007381Y012651D01*
X007271Y012701D01*
X007581Y012791D01*
X007381Y012651D02*
X007911Y013151D01*
X007951Y013651D01*
X008051Y014151D01*
X008151Y014151D01*
X007835Y013887D02*
X007805Y013737D01*
X007797Y013730D01*
X007794Y013699D01*
X007787Y013703D01*
X007738Y013716D01*
X007619Y013716D01*
X007619Y013429D01*
X007544Y013429D01*
X007544Y013716D01*
X007424Y013716D01*
X007375Y013703D01*
X007331Y013677D01*
X007295Y013641D01*
X007269Y013597D01*
X007256Y013548D01*
X007256Y013429D01*
X007543Y013429D01*
X007543Y013354D01*
X007256Y013354D01*
X007256Y013346D01*
X007175Y013380D01*
X007068Y013380D01*
X007026Y013362D01*
X007168Y013741D01*
X007497Y013741D01*
X007561Y013806D01*
X007561Y014487D01*
X007753Y014491D01*
X007911Y014491D01*
X007741Y014321D01*
X007741Y013981D01*
X007835Y013887D01*
X007828Y013849D02*
X007561Y013849D01*
X007561Y013947D02*
X007775Y013947D01*
X007741Y014046D02*
X007561Y014046D01*
X007561Y014144D02*
X007741Y014144D01*
X007741Y014243D02*
X007561Y014243D01*
X007561Y014341D02*
X007762Y014341D01*
X007860Y014440D02*
X007561Y014440D01*
X007151Y014151D02*
X006731Y013031D01*
X004851Y013051D01*
X004651Y012751D01*
X004481Y012361D01*
X004671Y012121D02*
X005071Y012821D01*
X006251Y012851D01*
X006821Y012851D01*
X007121Y013111D01*
X007231Y013356D02*
X007543Y013356D01*
X007581Y013391D02*
X007321Y013611D01*
X007305Y013652D02*
X007135Y013652D01*
X007098Y013553D02*
X007258Y013553D01*
X007256Y013455D02*
X007061Y013455D01*
X006719Y013455D02*
X006348Y013455D01*
X006397Y013553D02*
X006430Y013553D01*
X006551Y013451D02*
X006561Y013351D01*
X006551Y013451D02*
X005947Y013866D01*
X005897Y013947D02*
X005997Y013947D01*
X005997Y014046D02*
X005897Y014046D01*
X005897Y014144D02*
X005997Y014144D01*
X005997Y014243D02*
X005897Y014243D01*
X005623Y014341D02*
X006326Y014341D01*
X006349Y014440D02*
X005572Y014440D01*
X005417Y014539D02*
X006360Y014539D01*
X005888Y014834D02*
X005414Y014834D01*
X005512Y014933D02*
X005790Y014933D01*
X005741Y015031D02*
X005561Y015031D01*
X005561Y015130D02*
X005741Y015130D01*
X005741Y015228D02*
X005561Y015228D01*
X005555Y015327D02*
X005747Y015327D01*
X005846Y015425D02*
X005544Y015425D01*
X005614Y015524D02*
X005944Y015524D01*
X005684Y015622D02*
X006487Y015622D01*
X006475Y015524D02*
X006358Y015524D01*
X006457Y015425D02*
X006464Y015425D01*
X005432Y015820D02*
X000301Y015820D01*
X000301Y015721D02*
X005362Y015721D01*
X005291Y015622D02*
X000301Y015622D01*
X000301Y015524D02*
X000768Y015524D01*
X000741Y015425D02*
X000301Y015425D01*
X000301Y015327D02*
X000741Y015327D01*
X000741Y015228D02*
X000301Y015228D01*
X000301Y015130D02*
X000741Y015130D01*
X000741Y015031D02*
X000301Y015031D01*
X000301Y014933D02*
X000741Y014933D01*
X000741Y014834D02*
X000301Y014834D01*
X000301Y013553D02*
X003435Y013553D01*
X003400Y013455D02*
X000301Y013455D01*
X000301Y013356D02*
X003366Y013356D01*
X003331Y013257D02*
X000301Y013257D01*
X000301Y013159D02*
X003296Y013159D01*
X003261Y013060D02*
X000301Y013060D01*
X000301Y012962D02*
X003226Y012962D01*
X003192Y012863D02*
X000301Y012863D01*
X001929Y012075D02*
X002529Y012075D01*
X002140Y011976D02*
X002106Y011976D01*
X003101Y012511D02*
X003241Y012521D01*
X003251Y012551D01*
X003851Y014251D01*
X005051Y014251D01*
X005361Y014271D01*
X005402Y013947D02*
X005497Y013947D01*
X005497Y013652D02*
X005331Y013652D01*
X005497Y013553D02*
X004011Y013553D01*
X003974Y013455D02*
X005546Y013455D01*
X005897Y013455D02*
X005997Y013455D01*
X005997Y013553D02*
X005897Y013553D01*
X005897Y013652D02*
X005997Y013652D01*
X005997Y013750D02*
X005897Y013750D01*
X006611Y013751D02*
X006631Y013871D01*
X006682Y013356D02*
X003937Y013356D01*
X003901Y013257D02*
X006645Y013257D01*
X007544Y013455D02*
X007619Y013455D01*
X007619Y013553D02*
X007544Y013553D01*
X007544Y013652D02*
X007619Y013652D01*
X007506Y013750D02*
X007808Y013750D01*
X008622Y012371D02*
X008791Y012371D01*
X008741Y012272D02*
X008435Y012272D01*
X009619Y011582D02*
X010134Y011582D01*
X010041Y011484D02*
X009713Y011484D01*
X009910Y011878D02*
X010266Y011878D01*
X010289Y011976D02*
X009929Y011976D01*
X008851Y010651D02*
X008661Y010431D01*
X010253Y008823D02*
X010266Y008823D01*
X012005Y007101D02*
X012151Y007247D01*
X010651Y005768D02*
X010265Y005768D01*
X010439Y005670D02*
X010651Y005670D01*
X010651Y005571D02*
X010614Y005571D01*
X010451Y005051D02*
X010451Y004661D01*
X010861Y004351D01*
X006091Y006001D02*
X005621Y006461D01*
X005531Y005831D01*
X005601Y005831D01*
X005291Y005491D02*
X005291Y006681D01*
X005351Y006741D01*
X005351Y007351D01*
X005331Y007351D01*
X005291Y007391D01*
X005291Y008661D01*
X003367Y008626D02*
X000711Y008626D01*
X000711Y008527D02*
X001507Y008527D01*
X001467Y008429D02*
X000711Y008429D01*
X000711Y008330D02*
X001467Y008330D01*
X001494Y007739D02*
X000891Y007739D01*
X001251Y007640D02*
X001351Y007640D01*
X001351Y007542D02*
X001251Y007542D01*
X001251Y007443D02*
X001351Y007443D01*
X001351Y007345D02*
X001251Y007345D01*
X001251Y007246D02*
X001351Y007246D01*
X001351Y007049D02*
X001251Y007049D01*
X001251Y006951D02*
X001351Y006951D01*
X001351Y006852D02*
X001251Y006852D01*
X001251Y006754D02*
X001351Y006754D01*
X001351Y006655D02*
X001251Y006655D01*
X000902Y006359D02*
X000891Y006359D01*
X002452Y006113D02*
X002452Y006113D01*
X002860Y005768D02*
X004716Y005768D01*
X005131Y006116D02*
X005131Y006116D01*
X005039Y006479D02*
X004964Y006479D01*
X004964Y006626D01*
X005004Y006626D01*
X005004Y006913D01*
X005079Y006913D01*
X005079Y006766D01*
X005039Y006766D01*
X005039Y006479D01*
X005039Y006556D02*
X004964Y006556D01*
X005004Y006655D02*
X005039Y006655D01*
X005039Y006754D02*
X005004Y006754D01*
X005004Y006852D02*
X005079Y006852D01*
X005079Y006914D02*
X005191Y006914D01*
X005191Y006989D01*
X005079Y006989D01*
X005079Y006914D01*
X005079Y006951D02*
X005191Y006951D01*
X004611Y006571D02*
X004401Y006441D01*
X004511Y006451D01*
X005291Y005491D02*
X005181Y005301D01*
X005201Y005301D01*
X004601Y005301D02*
X004586Y005286D01*
X002451Y005345D01*
X002335Y004905D02*
X002201Y004905D01*
X002201Y004802D01*
X002374Y004554D01*
X002411Y004517D01*
X002411Y004502D01*
X002420Y004489D01*
X002411Y004437D01*
X002411Y003096D01*
X002431Y003101D01*
X002651Y003101D01*
X002651Y002751D01*
X002751Y002751D01*
X002751Y003101D01*
X002971Y003101D01*
X003009Y003091D01*
X003043Y003071D01*
X003071Y003043D01*
X003091Y003009D01*
X003456Y003009D01*
X003456Y003107D02*
X002411Y003107D01*
X002411Y003206D02*
X003456Y003206D01*
X003456Y003266D02*
X003456Y002876D01*
X003546Y002786D01*
X003547Y002786D01*
X003535Y002783D01*
X003491Y002757D01*
X003455Y002721D01*
X003429Y002677D01*
X003416Y002628D01*
X003416Y002509D01*
X003703Y002509D01*
X003703Y002434D01*
X003416Y002434D01*
X003416Y002314D01*
X003429Y002265D01*
X003455Y002221D01*
X003465Y002211D01*
X002411Y002211D01*
X002411Y002307D01*
X002431Y002301D01*
X002651Y002301D01*
X002651Y002651D01*
X002751Y002651D01*
X002751Y002301D01*
X002971Y002301D01*
X003009Y002311D01*
X003043Y002331D01*
X003071Y002359D01*
X003091Y002393D01*
X003101Y002431D01*
X003101Y002651D01*
X002751Y002651D01*
X002751Y002751D01*
X003101Y002751D01*
X003101Y002971D01*
X003091Y003009D01*
X003101Y002910D02*
X003456Y002910D01*
X003521Y002812D02*
X003101Y002812D01*
X003101Y002615D02*
X003416Y002615D01*
X003416Y002516D02*
X003101Y002516D01*
X003097Y002418D02*
X003416Y002418D01*
X003416Y002319D02*
X003022Y002319D01*
X002751Y002319D02*
X002651Y002319D01*
X002651Y002418D02*
X002751Y002418D01*
X002751Y002516D02*
X002651Y002516D01*
X002651Y002615D02*
X002751Y002615D01*
X002751Y002713D02*
X003450Y002713D01*
X003485Y002517D02*
X003285Y002585D01*
X002701Y002701D01*
X003531Y002471D01*
X003551Y002451D02*
X003485Y002517D01*
X003455Y002221D02*
X002411Y002221D01*
X002651Y002812D02*
X002751Y002812D01*
X002751Y002910D02*
X002651Y002910D01*
X002651Y003009D02*
X002751Y003009D01*
X002411Y003305D02*
X003495Y003305D01*
X003456Y003266D02*
X003546Y003356D01*
X003936Y003356D01*
X003939Y003354D01*
X003991Y003459D01*
X003991Y004384D01*
X003987Y004444D01*
X003991Y004449D01*
X003991Y004455D01*
X004022Y004486D01*
X002733Y004863D01*
X002352Y004885D01*
X002335Y004905D01*
X002412Y004881D02*
X002201Y004881D01*
X002214Y004783D02*
X003007Y004783D01*
X003344Y004684D02*
X002283Y004684D01*
X002352Y004586D02*
X003681Y004586D01*
X004018Y004487D02*
X002420Y004487D01*
X002411Y004389D02*
X003991Y004389D01*
X003991Y004290D02*
X002411Y004290D01*
X002411Y004191D02*
X003991Y004191D01*
X003991Y004093D02*
X002411Y004093D01*
X002411Y003994D02*
X003991Y003994D01*
X003991Y003896D02*
X002411Y003896D01*
X002411Y003797D02*
X003991Y003797D01*
X003991Y003699D02*
X002411Y003699D01*
X002411Y003600D02*
X003991Y003600D01*
X003991Y003502D02*
X002411Y003502D01*
X002411Y003403D02*
X003963Y003403D01*
X004151Y003421D02*
X003981Y003081D01*
X003741Y003071D01*
X002091Y003206D02*
X000891Y003206D01*
X000891Y003305D02*
X002091Y003305D01*
X002091Y003403D02*
X000891Y003403D01*
X000891Y003502D02*
X002091Y003502D01*
X002091Y003600D02*
X001807Y003600D01*
X001825Y003699D02*
X002091Y003699D01*
X002091Y003797D02*
X001825Y003797D01*
X001825Y003896D02*
X002091Y003896D01*
X002091Y003994D02*
X001825Y003994D01*
X001825Y004096D02*
X001825Y004440D01*
X001815Y004478D01*
X001795Y004512D01*
X001767Y004540D01*
X001733Y004560D01*
X001695Y004570D01*
X001351Y004570D01*
X001351Y004096D01*
X001825Y004096D01*
X001825Y004191D02*
X002091Y004191D01*
X002091Y004093D02*
X001351Y004093D01*
X001351Y004191D02*
X001251Y004191D01*
X001251Y004290D02*
X001351Y004290D01*
X001351Y004389D02*
X001251Y004389D01*
X001251Y004487D02*
X001351Y004487D01*
X001351Y004783D02*
X001251Y004783D01*
X001251Y004881D02*
X001351Y004881D01*
X001351Y004980D02*
X001251Y004980D01*
X001251Y005078D02*
X001351Y005078D01*
X001751Y005078D02*
X001881Y005078D01*
X001881Y004980D02*
X001751Y004980D01*
X001725Y004881D02*
X001881Y004881D01*
X001881Y004783D02*
X001631Y004783D01*
X001882Y004684D02*
X000891Y004684D01*
X000891Y004586D02*
X001962Y004586D01*
X002031Y004487D02*
X001810Y004487D01*
X001825Y004389D02*
X002091Y004389D01*
X002091Y004290D02*
X001825Y004290D01*
X001351Y003994D02*
X001251Y003994D01*
X001251Y003896D02*
X001351Y003896D01*
X001351Y003797D02*
X001251Y003797D01*
X001251Y003699D02*
X001351Y003699D01*
X001351Y003600D02*
X001251Y003600D01*
X000971Y004783D02*
X000891Y004783D01*
X001031Y002418D02*
X001279Y002418D01*
X001451Y009551D02*
X000551Y009551D01*
X001717Y009611D02*
X001865Y009611D01*
X001823Y010006D02*
X002064Y010006D01*
X002811Y009611D02*
X003085Y009611D01*
X004013Y012371D02*
X004213Y012371D01*
X004235Y012469D02*
X003779Y012469D01*
X003644Y012568D02*
X004308Y012568D01*
X004440Y012666D02*
X003681Y012666D01*
X003717Y012765D02*
X004483Y012765D01*
X004526Y012863D02*
X003754Y012863D01*
X003791Y012962D02*
X004599Y012962D01*
X004665Y013060D02*
X003827Y013060D01*
X003864Y013159D02*
X004731Y013159D01*
X004971Y013652D02*
X004048Y013652D01*
X010151Y013641D02*
X011551Y013641D01*
X011651Y013751D01*
X011651Y014651D01*
X012151Y015151D01*
D27*
X019151Y014151D02*
X020151Y014151D01*
X020151Y013151D02*
X019151Y013151D01*
X019151Y012151D02*
X020151Y012151D01*
X020151Y011151D02*
X019151Y011151D01*
X019151Y010151D02*
X020151Y010151D01*
X020151Y009151D02*
X019151Y009151D01*
X019151Y008151D02*
X020151Y008151D01*
X020151Y007151D02*
X019151Y007151D01*
X019151Y006151D02*
X020151Y006151D01*
X020151Y005151D02*
X019151Y005151D01*
X019151Y004151D02*
X020151Y004151D01*
X020151Y003151D02*
X019151Y003151D01*
X018151Y003151D02*
X017151Y003151D01*
X017151Y002151D02*
X018151Y002151D01*
X019151Y002151D02*
X020151Y002151D01*
D28*
X018151Y004151D02*
X017151Y004151D01*
X006621Y003371D02*
X006551Y002991D01*
D29*
X006551Y002991D03*
X006911Y002661D03*
X007271Y003271D03*
X007651Y004051D03*
X007351Y004851D03*
X008651Y005551D03*
X009751Y006051D03*
X009941Y005391D03*
X010451Y005051D03*
X009771Y005021D03*
X009151Y004421D03*
X009361Y004021D03*
X010511Y004121D03*
X010861Y004351D03*
X010731Y002781D03*
X011641Y001991D03*
X012751Y001951D03*
X013651Y002951D03*
X014751Y003051D03*
X015751Y003051D03*
X015891Y003831D03*
X015241Y004341D03*
X014851Y004051D03*
X014051Y004351D03*
X016801Y003641D03*
X017651Y004551D03*
X018651Y004651D03*
X015651Y001951D03*
X014751Y001951D03*
X016691Y001621D03*
X009761Y007071D03*
X009951Y007651D03*
X009721Y008251D03*
X010151Y009071D03*
X008661Y010431D03*
X009811Y011531D03*
X009641Y011881D03*
X008241Y011991D03*
X007271Y012701D03*
X007121Y013111D03*
X006561Y013351D03*
X006611Y013751D03*
X006471Y014111D03*
X007321Y013611D03*
X005361Y014271D03*
X005151Y013851D03*
X003351Y014151D03*
X003651Y015551D03*
X001691Y015491D03*
X000721Y014651D03*
X000751Y012451D03*
X001251Y011751D03*
X001451Y011251D03*
X001941Y011761D03*
X003101Y012511D03*
X003731Y011761D03*
X003491Y011271D03*
X003501Y010881D03*
X003241Y010581D03*
X003621Y010251D03*
X003231Y009841D03*
X004061Y009681D03*
X004211Y009331D03*
X004471Y009041D03*
X003911Y009061D03*
X003171Y008911D03*
X002061Y008721D03*
X001451Y009551D03*
X002151Y009751D03*
X000841Y008011D03*
X002321Y007121D03*
X002401Y006551D03*
X002011Y006531D03*
X001441Y006531D03*
X001021Y006411D03*
X001011Y005611D03*
X001751Y005251D03*
X002451Y004751D03*
X001451Y004561D03*
X001041Y004561D03*
X001051Y003531D03*
X001451Y003531D03*
X002751Y003187D03*
X002751Y002851D03*
X004201Y002881D03*
X004451Y002551D03*
X005511Y003221D03*
X004431Y003761D03*
X003651Y004451D03*
X004221Y005929D03*
X003131Y006331D03*
X004181Y007791D03*
X004561Y007881D03*
X005551Y009051D03*
X005551Y009591D03*
X005551Y010051D03*
X005551Y010451D03*
X005511Y011111D03*
X004921Y011601D03*
X005251Y012051D03*
X004481Y012361D03*
X004661Y009671D03*
X006651Y009551D03*
X006881Y008481D03*
X006631Y007971D03*
X006961Y007701D03*
X007401Y007431D03*
X006871Y006931D03*
X006661Y006611D03*
X006871Y006261D03*
X006501Y006091D03*
X006091Y006001D03*
X005991Y005441D03*
X007991Y006991D03*
X006551Y007201D03*
X008111Y008511D03*
X007881Y008851D03*
X007941Y009431D03*
X010551Y013251D03*
X010651Y014451D03*
X010651Y014851D03*
X018651Y015751D03*
X008541Y002061D03*
X008851Y001751D03*
X005641Y001911D03*
X002651Y000851D03*
X001651Y001751D03*
D30*
X004191Y006111D02*
X004211Y006131D01*
X004641Y006131D01*
X004951Y006441D01*
X005001Y006441D02*
X005041Y006951D01*
X005111Y006951D01*
X005111Y008551D01*
X004401Y006441D02*
X004311Y006351D01*
X003551Y006351D01*
X003131Y006331D01*
D31*
X004431Y003761D02*
X005351Y003701D01*
X005731Y003671D01*
X005851Y003551D02*
X005851Y002651D01*
X005321Y001921D02*
X004521Y001921D01*
X004351Y001751D01*
X001651Y001751D01*
X000801Y001751D01*
X000801Y002651D01*
X000851Y002651D01*
X001351Y002651D01*
X001701Y002701D01*
X002751Y002851D02*
X003551Y002451D01*
X003531Y002471D02*
X003741Y002471D01*
X008151Y001951D02*
X008651Y001451D01*
X008651Y000851D01*
X008951Y000551D01*
X018551Y000551D01*
X019151Y001151D01*
X019651Y000651D01*
X020651Y000651D01*
X020651Y015651D01*
X019651Y015651D01*
X019151Y015151D01*
X018651Y004651D02*
X018651Y002651D01*
X018151Y002151D01*
X017191Y002111D02*
X017151Y002151D01*
D32*
X008151Y001951D02*
X007851Y001951D01*
X007851Y002051D01*
X007651Y002751D02*
X007851Y003051D01*
X006621Y004071D02*
X006461Y004231D01*
X006061Y004241D01*
X005389Y004251D01*
X004931Y004439D01*
X004161Y005821D02*
X004191Y005851D01*
X004191Y006111D01*
X004161Y005821D02*
X003111Y005821D01*
X002821Y006111D01*
X002453Y006111D01*
X002451Y006113D01*
X004951Y006441D02*
X005001Y006441D01*
D33*
X004931Y004439D02*
X002769Y005071D01*
X002451Y005089D01*
X006551Y002991D02*
X006551Y002251D01*
X007251Y002251D01*
X007251Y002751D01*
X007651Y002751D01*
M02*
