G75*
G70*
%OFA0B0*%
%FSLAX24Y24*%
%IPPOS*%
%LPD*%
%AMOC8*
5,1,8,0,0,1.08239X$1,22.5*
%
%ADD10R,0.0118X0.0472*%
%ADD11R,0.0472X0.0118*%
%ADD12R,0.0236X0.2500*%
%ADD13R,0.0600X0.0600*%
%ADD14OC8,0.0600*%
%ADD15C,0.0087*%
%ADD16R,0.0450X0.0400*%
%ADD17R,0.1000X0.0500*%
%ADD18R,0.0700X0.0800*%
%ADD19C,0.0075*%
%ADD20C,0.0157*%
%ADD21C,0.0315*%
%ADD22R,0.0472X0.0272*%
%ADD23R,0.0500X0.0500*%
D10*
X003425Y008357D03*
X003622Y008357D03*
X003819Y008357D03*
X004015Y008357D03*
X004212Y008357D03*
X004409Y008357D03*
X004606Y008357D03*
X004803Y008357D03*
X005000Y008357D03*
X005196Y008357D03*
X005393Y008357D03*
X005590Y008357D03*
X005787Y008357D03*
X005984Y008357D03*
X006181Y008357D03*
X006378Y008357D03*
X006378Y012845D03*
X006181Y012845D03*
X005984Y012845D03*
X005787Y012845D03*
X005590Y012845D03*
X005393Y012845D03*
X005196Y012845D03*
X005000Y012845D03*
X004803Y012845D03*
X004606Y012845D03*
X004409Y012845D03*
X004212Y012845D03*
X004015Y012845D03*
X003819Y012845D03*
X003622Y012845D03*
X003425Y012845D03*
D11*
X002657Y012078D03*
X002657Y011881D03*
X002657Y011684D03*
X002657Y011487D03*
X002657Y011290D03*
X002657Y011093D03*
X002657Y010896D03*
X002657Y010700D03*
X002657Y010503D03*
X002657Y010306D03*
X002657Y010109D03*
X002657Y009912D03*
X002657Y009715D03*
X002657Y009519D03*
X002657Y009322D03*
X002657Y009125D03*
X007145Y009125D03*
X007145Y009322D03*
X007145Y009519D03*
X007145Y009715D03*
X007145Y009912D03*
X007145Y010109D03*
X007145Y010306D03*
X007145Y010503D03*
X007145Y010700D03*
X007145Y010896D03*
X007145Y011093D03*
X007145Y011290D03*
X007145Y011487D03*
X007145Y011684D03*
X007145Y011881D03*
X007145Y012078D03*
D12*
X010701Y010975D03*
X011201Y010975D03*
X011701Y010975D03*
X012201Y010975D03*
X012701Y010977D03*
X013201Y010977D03*
X013701Y010977D03*
X014201Y010977D03*
X014701Y010977D03*
X015201Y010977D03*
X015701Y010977D03*
X016201Y010977D03*
X016701Y010977D03*
X017201Y010977D03*
X017701Y010977D03*
X018201Y010977D03*
X018201Y008225D03*
X017701Y008225D03*
X017201Y008225D03*
X016701Y008225D03*
X016201Y008225D03*
X015701Y008225D03*
X015201Y008225D03*
X014701Y008225D03*
X014201Y008225D03*
X013701Y008225D03*
X013201Y008225D03*
X012701Y008225D03*
X012201Y008225D03*
X011701Y008225D03*
X011201Y008225D03*
X010701Y008225D03*
D13*
X001151Y001151D03*
X011151Y005151D03*
X011151Y006151D03*
X018151Y013151D03*
X018151Y014151D03*
X019151Y014151D03*
X009151Y014151D03*
X007151Y014151D03*
X001151Y015151D03*
D14*
X002151Y015151D03*
X003151Y015151D03*
X004151Y015151D03*
X005151Y015151D03*
X006151Y015151D03*
X007151Y015151D03*
X008151Y015151D03*
X009151Y015151D03*
X010151Y015151D03*
X011151Y015151D03*
X012151Y015151D03*
X013151Y015151D03*
X014151Y015151D03*
X015151Y015151D03*
X016151Y015151D03*
X017151Y015151D03*
X018151Y015151D03*
X019151Y015151D03*
X020151Y015151D03*
X020151Y014151D03*
X020151Y013151D03*
X019151Y013151D03*
X019151Y012151D03*
X020151Y012151D03*
X020151Y011151D03*
X019151Y011151D03*
X019151Y010151D03*
X020151Y010151D03*
X020151Y009151D03*
X019151Y009151D03*
X019151Y008151D03*
X020151Y008151D03*
X020151Y007151D03*
X019151Y007151D03*
X019151Y006151D03*
X018151Y006151D03*
X017151Y006151D03*
X016151Y006151D03*
X015151Y006151D03*
X014151Y006151D03*
X013151Y006151D03*
X012151Y006151D03*
X012151Y005151D03*
X013151Y005151D03*
X014151Y005151D03*
X015151Y005151D03*
X016151Y005151D03*
X017151Y005151D03*
X018151Y005151D03*
X019151Y005151D03*
X020151Y005151D03*
X020151Y004151D03*
X019151Y004151D03*
X018151Y004151D03*
X017151Y004151D03*
X017151Y003151D03*
X018151Y003151D03*
X019151Y003151D03*
X020151Y003151D03*
X020151Y002151D03*
X019151Y002151D03*
X018151Y002151D03*
X017151Y002151D03*
X017151Y001151D03*
X016151Y001151D03*
X015151Y001151D03*
X014151Y001151D03*
X013151Y001151D03*
X012151Y001151D03*
X011151Y001151D03*
X010151Y001151D03*
X009151Y001151D03*
X008151Y001151D03*
X007151Y001151D03*
X006151Y001151D03*
X005151Y001151D03*
X004151Y001151D03*
X003151Y001151D03*
X002151Y001151D03*
X009151Y005151D03*
X009151Y006151D03*
X009151Y007151D03*
X009151Y008151D03*
X009151Y009151D03*
X009151Y010151D03*
X009151Y011151D03*
X009151Y012151D03*
X009151Y013151D03*
X008151Y014151D03*
X011151Y014151D03*
X012151Y014151D03*
X013151Y014151D03*
X014151Y014151D03*
X015151Y014151D03*
X016151Y014151D03*
X017151Y014151D03*
X017151Y013151D03*
X016151Y013151D03*
X015151Y013151D03*
X014151Y013151D03*
X013151Y013151D03*
X012151Y013151D03*
X011151Y013151D03*
X020151Y006151D03*
X020151Y001151D03*
X019151Y001151D03*
X018151Y001151D03*
D15*
X007593Y008009D02*
X007593Y008273D01*
X007593Y008009D02*
X007329Y008009D01*
X007329Y008273D01*
X007593Y008273D01*
X007593Y008095D02*
X007329Y008095D01*
X007329Y008181D02*
X007593Y008181D01*
X007593Y008267D02*
X007329Y008267D01*
X007593Y008609D02*
X007593Y008873D01*
X007593Y008609D02*
X007329Y008609D01*
X007329Y008873D01*
X007593Y008873D01*
X007593Y008695D02*
X007329Y008695D01*
X007329Y008781D02*
X007593Y008781D01*
X007593Y008867D02*
X007329Y008867D01*
X004293Y007243D02*
X004029Y007243D01*
X004293Y007243D02*
X004293Y006979D01*
X004029Y006979D01*
X004029Y007243D01*
X004029Y007065D02*
X004293Y007065D01*
X004293Y007151D02*
X004029Y007151D01*
X004029Y007237D02*
X004293Y007237D01*
X003853Y007579D02*
X003589Y007579D01*
X003589Y007843D01*
X003853Y007843D01*
X003853Y007579D01*
X003853Y007665D02*
X003589Y007665D01*
X003589Y007751D02*
X003853Y007751D01*
X003853Y007837D02*
X003589Y007837D01*
X003253Y007579D02*
X002989Y007579D01*
X002989Y007843D01*
X003253Y007843D01*
X003253Y007579D01*
X003253Y007665D02*
X002989Y007665D01*
X002989Y007751D02*
X003253Y007751D01*
X003253Y007837D02*
X002989Y007837D01*
X003013Y008613D02*
X002749Y008613D01*
X003013Y008613D02*
X003013Y008349D01*
X002749Y008349D01*
X002749Y008613D01*
X002749Y008435D02*
X003013Y008435D01*
X003013Y008521D02*
X002749Y008521D01*
X002749Y008607D02*
X003013Y008607D01*
X002413Y008613D02*
X002149Y008613D01*
X002413Y008613D02*
X002413Y008349D01*
X002149Y008349D01*
X002149Y008613D01*
X002149Y008435D02*
X002413Y008435D01*
X002413Y008521D02*
X002149Y008521D01*
X002149Y008607D02*
X002413Y008607D01*
X000369Y008573D02*
X000369Y008309D01*
X000369Y008573D02*
X000633Y008573D01*
X000633Y008309D01*
X000369Y008309D01*
X000369Y008395D02*
X000633Y008395D01*
X000633Y008481D02*
X000369Y008481D01*
X000369Y008567D02*
X000633Y008567D01*
X000369Y007973D02*
X000369Y007709D01*
X000369Y007973D02*
X000633Y007973D01*
X000633Y007709D01*
X000369Y007709D01*
X000369Y007795D02*
X000633Y007795D01*
X000633Y007881D02*
X000369Y007881D01*
X000369Y007967D02*
X000633Y007967D01*
X003429Y007243D02*
X003693Y007243D01*
X003693Y006979D01*
X003429Y006979D01*
X003429Y007243D01*
X003429Y007065D02*
X003693Y007065D01*
X003693Y007151D02*
X003429Y007151D01*
X003429Y007237D02*
X003693Y007237D01*
X004329Y006633D02*
X004329Y006369D01*
X004329Y006633D02*
X004593Y006633D01*
X004593Y006369D01*
X004329Y006369D01*
X004329Y006455D02*
X004593Y006455D01*
X004593Y006541D02*
X004329Y006541D01*
X004329Y006627D02*
X004593Y006627D01*
X004329Y006033D02*
X004329Y005769D01*
X004329Y006033D02*
X004593Y006033D01*
X004593Y005769D01*
X004329Y005769D01*
X004329Y005855D02*
X004593Y005855D01*
X004593Y005941D02*
X004329Y005941D01*
X004329Y006027D02*
X004593Y006027D01*
X006519Y005369D02*
X006783Y005369D01*
X006519Y005369D02*
X006519Y005633D01*
X006783Y005633D01*
X006783Y005369D01*
X006783Y005455D02*
X006519Y005455D01*
X006519Y005541D02*
X006783Y005541D01*
X006783Y005627D02*
X006519Y005627D01*
X007119Y005369D02*
X007383Y005369D01*
X007119Y005369D02*
X007119Y005633D01*
X007383Y005633D01*
X007383Y005369D01*
X007383Y005455D02*
X007119Y005455D01*
X007119Y005541D02*
X007383Y005541D01*
X007383Y005627D02*
X007119Y005627D01*
X001223Y011119D02*
X000959Y011119D01*
X000959Y011383D01*
X001223Y011383D01*
X001223Y011119D01*
X001223Y011205D02*
X000959Y011205D01*
X000959Y011291D02*
X001223Y011291D01*
X001223Y011377D02*
X000959Y011377D01*
X000623Y011119D02*
X000359Y011119D01*
X000359Y011383D01*
X000623Y011383D01*
X000623Y011119D01*
X000623Y011205D02*
X000359Y011205D01*
X000359Y011291D02*
X000623Y011291D01*
X000623Y011377D02*
X000359Y011377D01*
X001719Y012919D02*
X001983Y012919D01*
X001719Y012919D02*
X001719Y013183D01*
X001983Y013183D01*
X001983Y012919D01*
X001983Y013005D02*
X001719Y013005D01*
X001719Y013091D02*
X001983Y013091D01*
X001983Y013177D02*
X001719Y013177D01*
X001719Y013519D02*
X001983Y013519D01*
X001719Y013519D02*
X001719Y013783D01*
X001983Y013783D01*
X001983Y013519D01*
X001983Y013605D02*
X001719Y013605D01*
X001719Y013691D02*
X001983Y013691D01*
X001983Y013777D02*
X001719Y013777D01*
X001719Y014119D02*
X001983Y014119D01*
X001719Y014119D02*
X001719Y014383D01*
X001983Y014383D01*
X001983Y014119D01*
X001983Y014205D02*
X001719Y014205D01*
X001719Y014291D02*
X001983Y014291D01*
X001983Y014377D02*
X001719Y014377D01*
X002319Y014119D02*
X002583Y014119D01*
X002319Y014119D02*
X002319Y014383D01*
X002583Y014383D01*
X002583Y014119D01*
X002583Y014205D02*
X002319Y014205D01*
X002319Y014291D02*
X002583Y014291D01*
X002583Y014377D02*
X002319Y014377D01*
X003183Y014083D02*
X003183Y013819D01*
X002919Y013819D01*
X002919Y014083D01*
X003183Y014083D01*
X003183Y013905D02*
X002919Y013905D01*
X002919Y013991D02*
X003183Y013991D01*
X003183Y014077D02*
X002919Y014077D01*
X002583Y013519D02*
X002319Y013519D01*
X002319Y013783D01*
X002583Y013783D01*
X002583Y013519D01*
X002583Y013605D02*
X002319Y013605D01*
X002319Y013691D02*
X002583Y013691D01*
X002583Y013777D02*
X002319Y013777D01*
X003183Y013483D02*
X003183Y013219D01*
X002919Y013219D01*
X002919Y013483D01*
X003183Y013483D01*
X003183Y013305D02*
X002919Y013305D01*
X002919Y013391D02*
X003183Y013391D01*
X003183Y013477D02*
X002919Y013477D01*
X002583Y012919D02*
X002319Y012919D01*
X002319Y013183D01*
X002583Y013183D01*
X002583Y012919D01*
X002583Y013005D02*
X002319Y013005D01*
X002319Y013091D02*
X002583Y013091D01*
X002583Y013177D02*
X002319Y013177D01*
X007599Y012733D02*
X007599Y012469D01*
X007599Y012733D02*
X007863Y012733D01*
X007863Y012469D01*
X007599Y012469D01*
X007599Y012555D02*
X007863Y012555D01*
X007863Y012641D02*
X007599Y012641D01*
X007599Y012727D02*
X007863Y012727D01*
X007599Y012133D02*
X007599Y011869D01*
X007599Y012133D02*
X007863Y012133D01*
X007863Y011869D01*
X007599Y011869D01*
X007599Y011955D02*
X007863Y011955D01*
X007863Y012041D02*
X007599Y012041D01*
X007599Y012127D02*
X007863Y012127D01*
D16*
X001811Y007211D03*
X001011Y006861D03*
X001011Y007561D03*
D17*
X008376Y004251D03*
X008376Y002551D03*
X011627Y002551D03*
X012876Y002551D03*
X012876Y004251D03*
X011627Y004251D03*
X016127Y004251D03*
X016127Y002551D03*
D18*
X003311Y005891D03*
X001611Y005891D03*
D19*
X001414Y013189D02*
X001188Y013189D01*
X001414Y013189D02*
X001414Y012913D01*
X001188Y012913D01*
X001188Y013189D01*
X001188Y012987D02*
X001414Y012987D01*
X001414Y013061D02*
X001188Y013061D01*
X001188Y013135D02*
X001414Y013135D01*
X001414Y013789D02*
X001188Y013789D01*
X001414Y013789D02*
X001414Y013513D01*
X001188Y013513D01*
X001188Y013789D01*
X001188Y013587D02*
X001414Y013587D01*
X001414Y013661D02*
X001188Y013661D01*
X001188Y013735D02*
X001414Y013735D01*
X001414Y014389D02*
X001188Y014389D01*
X001414Y014389D02*
X001414Y014113D01*
X001188Y014113D01*
X001188Y014389D01*
X001188Y014187D02*
X001414Y014187D01*
X001414Y014261D02*
X001188Y014261D01*
X001188Y014335D02*
X001414Y014335D01*
X000814Y014389D02*
X000588Y014389D01*
X000814Y014389D02*
X000814Y014113D01*
X000588Y014113D01*
X000588Y014389D01*
X000588Y014187D02*
X000814Y014187D01*
X000814Y014261D02*
X000588Y014261D01*
X000588Y014335D02*
X000814Y014335D01*
X000814Y013789D02*
X000588Y013789D01*
X000814Y013789D02*
X000814Y013513D01*
X000588Y013513D01*
X000588Y013789D01*
X000588Y013587D02*
X000814Y013587D01*
X000814Y013661D02*
X000588Y013661D01*
X000588Y013735D02*
X000814Y013735D01*
X000814Y013189D02*
X000588Y013189D01*
X000814Y013189D02*
X000814Y012913D01*
X000588Y012913D01*
X000588Y013189D01*
X000588Y012987D02*
X000814Y012987D01*
X000814Y013061D02*
X000588Y013061D01*
X000588Y013135D02*
X000814Y013135D01*
D20*
X003161Y003856D02*
X004421Y003856D01*
X003161Y003856D02*
X003161Y004014D01*
X004421Y004014D01*
X004421Y003856D01*
X004421Y004012D02*
X003161Y004012D01*
X003161Y003068D02*
X004421Y003068D01*
X003161Y003068D02*
X003161Y003226D01*
X004421Y003226D01*
X004421Y003068D01*
X004421Y003224D02*
X003161Y003224D01*
D21*
X001248Y001848D02*
X000618Y001848D01*
X000618Y002164D01*
X001248Y002164D01*
X001248Y001848D01*
X001248Y002162D02*
X000618Y002162D01*
X000618Y004919D02*
X001248Y004919D01*
X000618Y004919D02*
X000618Y005235D01*
X001248Y005235D01*
X001248Y004919D01*
X001248Y005233D02*
X000618Y005233D01*
D22*
X004789Y005035D03*
X004789Y004661D03*
X004789Y004287D03*
X005813Y004287D03*
X005813Y005035D03*
D23*
X005851Y002651D03*
X004851Y002651D03*
M02*
